0
SECTION
2
HEADER
9
$INSUNITS
70
4
9
$ACADVER
1
AC1014
9
$HANDSEED
5
FFFF
0
ENDSEC
0
SECTION
2
TABLES
0
TABLE
2
VPORT
5
8
100
AcDbSymbolTable
0
ENDTAB
0
TABLE
2
LTYPE
5
5
100
AcDbSymbolTable
0
LTYPE
5
14
100
AcDbSymbolTableRecord
100
AcDbLinetypeTableRecord
2
BYBLOCK
70
0
0
LTYPE
5
15
100
AcDbSymbolTableRecord
100
AcDbLinetypeTableRecord
2
BYLAYER
70
0
0
ENDTAB
0
TABLE
2
LAYER
5
2
100
AcDbSymbolTable
70
2
0
LAYER
5
50
100
AcDbSymbolTableRecord
100
AcDbLayerTableRecord
2
0
70
0
6
CONTINUOUS
0
ENDTAB
0
TABLE
2
STYLE
5
3
100
AcDbSymbolTable
70
1
0
STYLE
5
11
100
AcDbSymbolTableRecord
100
AcDbTextStyleTableRecord
2
STANDARD
70
0
0
ENDTAB
0
TABLE
2
VIEW
5
6
100
AcDbSymbolTable
70
0
0
ENDTAB
0
TABLE
2
UCS
5
7
100
AcDbSymbolTable
70
0
0
ENDTAB
0
TABLE
2
APPID
5
9
100
AcDbSymbolTable
70
2
0
APPID
5
12
100
AcDbSymbolTableRecord
100
AcDbRegAppTableRecord
2
ACAD
70
0
0
ENDTAB
0
TABLE
2
DIMSTYLE
5
A
100
AcDbSymbolTable
70
1
0
ENDTAB
0
TABLE
2
BLOCK_RECORD
5
1
100
AcDbSymbolTable
70
1
0
BLOCK_RECORD
5
1F
100
AcDbSymbolTableRecord
100
AcDbBlockTableRecord
2
*MODEL_SPACE
0
BLOCK_RECORD
5
1B
100
AcDbSymbolTableRecord
100
AcDbBlockTableRecord
2
*PAPER_SPACE
0
ENDTAB
0
ENDSEC
0
SECTION
2
BLOCKS
0
BLOCK
5
20
100
AcDbEntity
100
AcDbBlockBegin
2
*MODEL_SPACE
0
ENDBLK
5
21
100
AcDbEntity
100
AcDbBlockEnd
0
BLOCK
5
1C
100
AcDbEntity
100
AcDbBlockBegin
2
*PAPER_SPACE
0
ENDBLK
5
1D
100
AcDbEntity
100
AcDbBlockEnd
0
ENDSEC
0
SECTION
2
ENTITIES
0
SPLINE
5
100
100
AcDbEntity
8
0
100
AcDbSpline
70
0
71
2
72
6
73
3
74
0
42
0.000000001
43
0.0000000001
44
0.0000000001
40
0
40
0
40
0
40
1
40
1
40
1
10
-36.775349937072569
20
-0.034545660018872049
30
0
10
-35.86989518224317
20
2.6600003242493164
30
0
10
-34.63716801225263
20
5.1036363840103611
30
0
0
SPLINE
5
101
100
AcDbEntity
8
0
100
AcDbSpline
70
0
71
2
72
6
73
3
74
0
42
0.000000001
43
0.0000000001
44
0.0000000001
40
0
40
0
40
0
40
1
40
1
40
1
10
-34.63716801225263
20
5.1036363840103611
30
0
10
-33.666258416763128
20
7.0127278566360927
30
0
10
-32.029894552818121
20
9.8927271366119829
30
0
0
SPLINE
5
102
100
AcDbEntity
8
0
100
AcDbSpline
70
0
71
2
72
6
73
3
74
0
42
0.000000001
43
0.0000000001
44
0.0000000001
40
0
40
0
40
0
40
1
40
1
40
1
10
-32.029894552818121
20
9.8927271366119829
30
0
10
-30.81898566304762
20
12.020000219345135
30
0
10
-30.437166653266736
20
12.434545755386395
30
0
0
SPLINE
5
103
100
AcDbEntity
8
0
100
AcDbSpline
70
0
71
2
72
6
73
3
74
0
42
0.000000001
43
0.0000000001
44
0.0000000001
40
0
40
0
40
0
40
1
40
1
40
1
10
-30.437166653266736
20
12.434545755386395
30
0
10
-30.055348835578748
20
12.849091291427655
30
0
10
-29.65171214162428
20
12.849091291427651
30
0
0
SPLINE
5
104
100
AcDbEntity
8
0
100
AcDbSpline
70
0
71
2
72
6
73
3
74
0
42
0.000000001
43
0.0000000001
44
0.0000000001
40
0
40
0
40
0
40
1
40
1
40
1
10
-29.65171214162428
20
12.849091291427651
30
0
10
-29.302622042289563
20
12.849091291427651
30
0
10
-29.302622042289563
20
12.543636560440103
30
0
0
SPLINE
5
105
100
AcDbEntity
8
0
100
AcDbSpline
70
0
71
2
72
6
73
3
74
0
42
0.000000001
43
0.0000000001
44
0.0000000001
40
0
40
0
40
0
40
1
40
1
40
1
10
-29.302622042289563
20
12.543636560440103
30
0
10
-29.302622042289563
20
12.380000352859536
30
0
10
-29.455349407783338
20
12.118182182312051
30
0
0
SPLINE
5
106
100
AcDbEntity
8
0
100
AcDbSpline
70
0
71
2
72
6
73
3
74
0
42
0.000000001
43
0.0000000001
44
0.0000000001
40
0
40
0
40
0
40
1
40
1
40
1
10
-29.455349407783338
20
12.118182182312051
30
0
10
-29.597166739097425
20
11.867272853851357
30
0
10
-30.360803566566297
20
10.645453929901166
30
0
0
SPLINE
5
107
100
AcDbEntity
8
0
100
AcDbSpline
70
0
71
2
72
6
73
3
74
0
42
0.000000001
43
0.0000000001
44
0.0000000001
40
0
40
0
40
0
40
1
40
1
40
1
10
-30.360803566566297
20
10.645453929901166
30
0
10
-32.880803309074224
20
6.5436369180679765
30
0
10
-34.037167988410772
20
3.9036369323730935
30
0
0
SPLINE
5
108
100
AcDbEntity
8
0
100
AcDbSpline
70
0
71
2
72
6
73
3
74
0
42
0.000000001
43
0.0000000001
44
0.0000000001
40
0
40
0
40
0
40
1
40
1
40
1
10
-34.037167988410772
20
3.9036369323730935
30
0
10
-35.084440670600713
20
1.5363645553589333
30
0
10
-35.837168059936339
20
-0.73272705078120115
30
0
0
SPLINE
5
109
100
AcDbEntity
8
0
100
AcDbSpline
70
0
71
2
72
6
73
3
74
0
42
0.000000001
43
0.0000000001
44
0.0000000001
40
0
40
0
40
0
40
1
40
1
40
1
10
-35.837168059936339
20
-0.73272705078120115
30
0
10
-36.109895072570616
20
-1.5509092807769287
30
0
10
-36.437168083778197
20
-1.943635940551709
30
0
0
SPLINE
5
110
100
AcDbEntity
8
0
100
AcDbSpline
70
0
71
2
72
6
73
3
74
0
42
0.000000001
43
0.0000000001
44
0.0000000001
40
0
40
0
40
0
40
1
40
1
40
1
10
-36.437168083778197
20
-1.943635940551709
30
0
10
-36.917167864433104
20
-2.5327277183532226
30
0
10
-37.408077083221251
20
-2.5327277183532204
30
0
0
SPLINE
5
111
100
AcDbEntity
8
0
100
AcDbSpline
70
0
71
2
72
6
73
3
74
0
42
0.000000001
43
0.0000000001
44
0.0000000001
40
0
40
0
40
0
40
1
40
1
40
1
10
-37.408077083221251
20
-2.5327277183532204
30
0
10
-37.855349741569334
20
-2.5327277183532204
30
0
10
-37.975349984756285
20
-1.8890905380248513
30
0
0
SPLINE
5
112
100
AcDbEntity
8
0
100
AcDbSpline
70
0
71
2
72
6
73
3
74
0
42
0.000000001
43
0.0000000001
44
0.0000000001
40
0
40
0
40
0
40
1
40
1
40
1
10
-37.975349984756285
20
-1.8890905380248513
30
0
10
-38.02989538728314
20
-1.6272723674773659
30
0
10
-38.02989538728314
20
-0.88545441627497334
30
0
0
SPLINE
5
113
100
AcDbEntity
8
0
100
AcDbSpline
70
0
71
2
72
6
73
3
74
0
42
0.000000001
43
0.0000000001
44
0.0000000001
40
0
40
0
40
0
40
1
40
1
40
1
10
-38.02989538728314
20
-0.88545441627497334
30
0
10
-38.029895387283148
20
1.7218184471130882
30
0
10
-37.517167888274969
20
4.9072730541229763
30
0
0
SPLINE
5
114
100
AcDbEntity
8
0
100
AcDbSpline
70
0
71
2
72
6
73
3
74
0
42
0.000000001
43
0.0000000001
44
0.0000000001
40
0
40
0
40
0
40
1
40
1
40
1
10
-37.517167888274969
20
4.9072730541229763
30
0
10
-37.058985791793646
20
7.6999998092651865
30
0
10
-36.58989485322553
20
9.3909084796906015
30
0
0
SPLINE
5
115
100
AcDbEntity
8
0
100
AcDbSpline
70
0
71
2
72
6
73
3
74
0
42
0.000000001
43
0.0000000001
44
0.0000000001
40
0
40
0
40
0
40
1
40
1
40
1
10
-36.58989485322553
20
9.3909084796906015
30
0
10
-37.63716813146192
20
8.2345449924469509
30
0
10
-39.720804057708563
20
4.5472729206085738
30
0
0
SPLINE
5
116
100
AcDbEntity
8
0
100
AcDbSpline
70
0
71
2
72
6
73
3
74
0
42
0.000000001
43
0.0000000001
44
0.0000000001
40
0
40
0
40
0
40
1
40
1
40
1
10
-39.720804057708563
20
4.5472729206085738
30
0
10
-41.368076912751974
20
1.6236364841461737
30
0
10
-42.186258844724478
20
-0.90727210044855289
30
0
0
SPLINE
5
117
100
AcDbEntity
8
0
100
AcDbSpline
70
0
71
2
72
6
73
3
74
0
42
0.000000001
43
0.0000000001
44
0.0000000001
40
0
40
0
40
0
40
1
40
1
40
1
10
-42.186258844724478
20
-0.90727210044855289
30
0
10
-42.524440549007224
20
-1.9545459747313876
30
0
10
-42.677167914500998
20
-2.2054541110991854
30
0
0
SPLINE
5
118
100
AcDbEntity
8
0
100
AcDbSpline
70
0
71
2
72
6
73
3
74
0
42
0.000000001
43
0.0000000001
44
0.0000000001
40
0
40
0
40
0
40
1
40
1
40
1
10
-42.677167914500998
20
-2.2054541110991854
30
0
10
-42.960804216256903
20
-2.6854550838469882
30
0
10
-43.408076986363696
20
-2.6854550838469882
30
0
0
SPLINE
5
119
100
AcDbEntity
8
0
100
AcDbSpline
70
0
71
2
72
6
73
3
74
0
42
0.000000001
43
0.0000000001
44
0.0000000001
40
0
40
0
40
0
40
1
40
1
40
1
10
-43.408076986363696
20
-2.6854550838469882
30
0
10
-43.5935315486701
20
-2.6854550838469882
30
0
10
-43.724440633943843
20
-2.5327277183532138
30
0
0
SPLINE
5
120
100
AcDbEntity
8
0
100
AcDbSpline
70
0
71
2
72
6
73
3
74
0
42
0.000000001
43
0.0000000001
44
0.0000000001
40
0
40
0
40
0
40
1
40
1
40
1
10
-43.724440633943843
20
-2.5327277183532138
30
0
10
-43.833531550756263
20
-2.4018180370330233
30
0
10
-43.833531550756263
20
-2.2709095478057284
30
0
0
SPLINE
5
121
100
AcDbEntity
8
0
100
AcDbSpline
70
0
71
2
72
6
73
3
74
0
42
0.000000001
43
0.0000000001
44
0.0000000001
40
0
40
0
40
0
40
1
40
1
40
1
10
-43.833531550756263
20
-2.2709095478057284
30
0
10
-43.833531550756263
20
-1.8563640117644686
30
0
10
-43.124440647354902
20
-0.078182220458926643
30
0
0
SPLINE
5
122
100
AcDbEntity
8
0
100
AcDbSpline
70
0
71
2
72
6
73
3
74
0
42
0.000000001
43
0.0000000001
44
0.0000000001
40
0
40
0
40
0
40
1
40
1
40
1
10
-43.124440647354902
20
-0.078182220458926643
30
0
10
-42.208076975932897
20
2.2345459461212713
30
0
10
-40.080804191222967
20
5.8345454931259697
30
0
0
SPLINE
5
123
100
AcDbEntity
8
0
100
AcDbSpline
70
0
71
2
72
6
73
3
74
0
42
0.000000001
43
0.0000000001
44
0.0000000001
40
0
40
0
40
0
40
1
40
1
40
1
10
-40.080804191222967
20
5.8345454931259697
30
0
10
-38.815349898925604
20
7.9836356639862585
30
0
10
-37.069895229926885
20
10.405454635620167
30
0
0
SPLINE
5
124
100
AcDbEntity
8
0
100
AcDbSpline
70
0
71
2
72
6
73
3
74
0
42
0.000000001
43
0.0000000001
44
0.0000000001
40
0
40
0
40
0
40
1
40
1
40
1
10
-37.069895229926885
20
10.405454635620167
30
0
10
-36.240804157844373
20
11.561818122863819
30
0
10
-35.837168059936353
20
11.899999380111744
30
0
0
SPLINE
5
125
100
AcDbEntity
8
0
100
AcDbSpline
70
0
71
2
72
6
73
3
74
0
42
0.000000001
43
0.0000000001
44
0.0000000001
40
0
40
0
40
0
40
1
40
1
40
1
10
-35.837168059936353
20
11.899999380111744
30
0
10
-35.466258488288709
20
12.205454111099293
30
0
10
-35.138986073127576
20
12.205454111099293
30
0
0
SPLINE
5
126
100
AcDbEntity
8
0
100
AcDbSpline
70
0
71
2
72
6
73
3
74
0
42
0.000000001
43
0.0000000001
44
0.0000000001
40
0
40
0
40
0
40
1
40
1
40
1
10
-35.138986073127576
20
12.205454111099293
30
0
10
-34.997167549720594
20
12.205454111099289
30
0
10
-34.888076744666883
20
12.118182182312058
30
0
0
SPLINE
5
127
100
AcDbEntity
8
0
100
AcDbSpline
70
0
71
2
72
6
73
3
74
0
42
0.000000001
43
0.0000000001
44
0.0000000001
40
0
40
0
40
0
40
1
40
1
40
1
10
-34.888076744666883
20
12.118182182312058
30
0
10
-34.735349379173108
20
11.998181343078659
30
0
10
-34.735349379173108
20
11.823636293411301
30
0
0
SPLINE
5
128
100
AcDbEntity
8
0
100
AcDbSpline
70
0
71
2
72
6
73
3
74
0
42
0.000000001
43
0.0000000001
44
0.0000000001
40
0
40
0
40
0
40
1
40
1
40
1
10
-34.735349379173108
20
11.823636293411301
30
0
10
-34.735349379173108
20
11.605454683303879
30
0
10
-34.844440780273267
20
11.332727670669602
30
0
0
SPLINE
5
129
100
AcDbEntity
8
0
100
AcDbSpline
70
0
71
2
72
6
73
3
74
0
42
0.000000001
43
0.0000000001
44
0.0000000001
40
0
40
0
40
0
40
1
40
1
40
1
10
-34.844440780273267
20
11.332727670669602
30
0
10
-35.368077121368231
20
9.9909090995789054
30
0
10
-35.924440584770025
20
7.6127266883850586
30
0
0
SPLINE
5
130
100
AcDbEntity
8
0
100
AcDbSpline
70
0
71
2
72
6
73
3
74
0
42
0.000000001
43
0.0000000001
44
0.0000000001
40
0
40
0
40
0
40
1
40
1
40
1
10
-35.924440584770025
20
7.6127266883850586
30
0
10
-36.8080770593794
20
3.7836360931396973
30
0
10
-36.8080770593794
20
1.1000001430511963
30
0
0
SPLINE
5
131
100
AcDbEntity
8
0
100
AcDbSpline
70
0
71
2
72
6
73
3
74
0
42
0.000000001
43
0.0000000001
44
0.0000000001
40
0
40
0
40
0
40
1
40
1
40
1
10
-36.8080770593794
20
1.1000001430511963
30
0
10
-36.808077059379393
20
0.72909116745000002
30
0
10
-36.775349937072569
20
-0.034545660018872049
30
0
0
LINE
5
132
100
AcDbEntity
8
0
100
AcDbLine
10
-31.789895258537115
20
0.44545412063603074
30
0
11
-31.789895258537115
21
0.24909019470219285
31
0
0
SPLINE
5
133
100
AcDbEntity
8
0
100
AcDbSpline
70
0
71
2
72
6
73
3
74
0
42
0.000000001
43
0.0000000001
44
0.0000000001
40
0
40
0
40
0
40
1
40
1
40
1
10
-31.789895258537108
20
0.24909019470219285
30
0
10
-31.789895258537108
20
0.009090900421186987
30
0
10
-31.669895611396605
20
-0.16545414924617363
30
0
0
SPLINE
5
134
100
AcDbEntity
8
0
100
AcDbSpline
70
0
71
2
72
6
73
3
74
0
42
0.000000001
43
0.0000000001
44
0.0000000001
40
0
40
0
40
0
40
1
40
1
40
1
10
-31.669895611396605
20
-0.16545414924617363
30
0
10
-31.397168598762327
20
-0.56909084320064141
30
0
10
-30.775350294700438
20
-0.56909084320064141
30
0
0
SPLINE
5
135
100
AcDbEntity
8
0
100
AcDbSpline
70
0
71
2
72
6
73
3
74
0
42
0.000000001
43
0.0000000001
44
0.0000000001
40
0
40
0
40
0
40
1
40
1
40
1
10
-30.775350294700438
20
-0.56909084320064141
30
0
10
-29.411714039436156
20
-0.56909084320064363
30
0
10
-27.622623406043829
20
1.525454521179237
30
0
0
SPLINE
5
136
100
AcDbEntity
8
0
100
AcDbSpline
70
0
71
2
72
6
73
3
74
0
42
0.000000001
43
0.0000000001
44
0.0000000001
40
0
40
0
40
0
40
1
40
1
40
1
10
-27.622623406043829
20
1.525454521179237
30
0
10
-27.306258640876592
20
1.8854546546936413
30
0
10
-27.088077030769171
20
1.8854546546936413
30
0
0
SPLINE
5
137
100
AcDbEntity
8
0
100
AcDbSpline
70
0
71
2
72
6
73
3
74
0
42
0.000000001
43
0.0000000001
44
0.0000000001
40
0
40
0
40
0
40
1
40
1
40
1
10
-27.088077030769171
20
1.8854546546936413
30
0
10
-26.968077383628668
20
1.8854546546936413
30
0
10
-26.869895420661749
20
1.7654550075531383
30
0
0
SPLINE
5
138
100
AcDbEntity
8
0
100
AcDbSpline
70
0
71
2
72
6
73
3
74
0
42
0.000000001
43
0.0000000001
44
0.0000000001
40
0
40
0
40
0
40
1
40
1
40
1
10
-26.869895420661749
20
1.7654550075531383
30
0
10
-26.804441176048101
20
1.6781818866730114
30
0
10
-26.804441176048101
20
1.6018176078796764
30
0
0
SPLINE
5
139
100
AcDbEntity
8
0
100
AcDbSpline
70
0
71
2
72
6
73
3
74
0
42
0.000000001
43
0.0000000001
44
0.0000000001
40
0
40
0
40
0
40
1
40
1
40
1
10
-26.804441176048101
20
1.6018176078796764
30
0
10
-26.804441176048101
20
1.1763644218445202
30
0
10
-27.851713858238035
20
0.16181826591495474
30
0
0
SPLINE
5
140
100
AcDbEntity
8
0
100
AcDbSpline
70
0
71
2
72
6
73
3
74
0
42
0.000000001
43
0.0000000001
44
0.0000000001
40
0
40
0
40
0
40
1
40
1
40
1
10
-27.851713858238035
20
0.16181826591495474
30
0
10
-28.669896088233763
20
-0.63454508781429109
30
0
10
-29.597167931190306
20
-1.1363637447356778
30
0
0
SPLINE
5
141
100
AcDbEntity
8
0
100
AcDbSpline
70
0
71
2
72
6
73
3
74
0
42
0.000000001
43
0.0000000001
44
0.0000000001
40
0
40
0
40
0
40
1
40
1
40
1
10
-29.597167931190306
20
-1.1363637447356778
30
0
10
-30.524440966239744
20
-1.6381812095641668
30
0
10
-31.320804319968993
20
-1.6381812095641668
30
0
0
SPLINE
5
142
100
AcDbEntity
8
0
100
AcDbSpline
70
0
71
2
72
6
73
3
74
0
42
0.000000001
43
0.0000000001
44
0.0000000001
40
0
40
0
40
0
40
1
40
1
40
1
10
-31.320804319968993
20
-1.6381812095641668
30
0
10
-32.13898654996472
20
-1.6381812095641646
30
0
10
-32.608077488532835
20
-1.0709095001220259
30
0
0
SPLINE
5
143
100
AcDbEntity
8
0
100
AcDbSpline
70
0
71
2
72
6
73
3
74
0
42
0.000000001
43
0.0000000001
44
0.0000000001
40
0
40
0
40
0
40
1
40
1
40
1
10
-32.608077488532835
20
-1.0709095001220259
30
0
10
-32.924441061607176
20
-0.67818164825435012
30
0
10
-32.924441061607176
20
-0.0018179416656050051
30
0
0
SPLINE
5
144
100
AcDbEntity
8
0
100
AcDbSpline
70
0
71
2
72
6
73
3
74
0
42
0.000000001
43
0.0000000001
44
0.0000000001
40
0
40
0
40
0
40
1
40
1
40
1
10
-32.924441061607176
20
-0.0018179416656050051
30
0
10
-32.924441061607183
20
1.8418180942535844
30
0
10
-31.189895830741705
20
3.6090910434723322
30
0
0
SPLINE
5
145
100
AcDbEntity
8
0
100
AcDbSpline
70
0
71
2
72
6
73
3
74
0
42
0.000000001
43
0.0000000001
44
0.0000000001
40
0
40
0
40
0
40
1
40
1
40
1
10
-31.189895830741705
20
3.6090910434723322
30
0
10
-29.782623015037359
20
5.0490909814835003
30
0
10
-28.735350332847418
20
5.0490909814834994
30
0
0
SPLINE
5
146
100
AcDbEntity
8
0
100
AcDbSpline
70
0
71
2
72
6
73
3
74
0
42
0.000000001
43
0.0000000001
44
0.0000000001
40
0
40
0
40
0
40
1
40
1
40
1
10
-28.735350332847418
20
5.0490909814834994
30
0
10
-28.451713286033453
20
5.0490909814834986
30
0
10
-28.222622833839239
20
4.8745459318161402
30
0
0
SPLINE
5
147
100
AcDbEntity
8
0
100
AcDbSpline
70
0
71
2
72
6
73
3
74
0
42
0.000000001
43
0.0000000001
44
0.0000000001
40
0
40
0
40
0
40
1
40
1
40
1
10
-28.222622833839239
20
4.8745459318161402
30
0
10
-27.938985787025274
20
4.6454548835754785
30
0
10
-27.938985787025274
20
4.2745459079742822
30
0
0
SPLINE
5
148
100
AcDbEntity
8
0
100
AcDbSpline
70
0
71
2
72
6
73
3
74
0
42
0.000000001
43
0.0000000001
44
0.0000000001
40
0
40
0
40
0
40
1
40
1
40
1
10
-27.938985787025274
20
4.2745459079742822
30
0
10
-27.938985787025274
20
3.6963629722595592
30
0
10
-28.473532162299932
20
2.8563642501831454
30
0
0
SPLINE
5
149
100
AcDbEntity
8
0
100
AcDbSpline
70
0
71
2
72
6
73
3
74
0
42
0.000000001
43
0.0000000001
44
0.0000000001
40
0
40
0
40
0
40
1
40
1
40
1
10
-28.473532162299932
20
2.8563642501831454
30
0
10
-29.575350247016729
20
1.1109089851379794
30
0
10
-31.789895258537115
20
0.44545412063603074
30
0
0
SPLINE
5
150
100
AcDbEntity
8
0
100
AcDbSpline
70
0
71
2
72
6
73
3
74
0
42
0.000000001
43
0.0000000001
44
0.0000000001
40
0
40
0
40
0
40
1
40
1
40
1
10
-31.549895964256109
20
1.2963640689850275
30
0
10
-30.786259136787237
20
1.5581822395325129
30
0
10
-30.349895916572393
20
1.8854546546936457
30
0
0
SPLINE
5
151
100
AcDbEntity
8
0
100
AcDbSpline
70
0
71
2
72
6
73
3
74
0
42
0.000000001
43
0.0000000001
44
0.0000000001
40
0
40
0
40
0
40
1
40
1
40
1
10
-30.349895916572393
20
1.8854546546936457
30
0
10
-29.586259089103521
20
2.4745452404022616
30
0
10
-29.138987026801885
20
3.2163643836975497
30
0
0
SPLINE
5
152
100
AcDbEntity
8
0
100
AcDbSpline
70
0
71
2
72
6
73
3
74
0
42
0.000000001
43
0.0000000001
44
0.0000000001
40
0
40
0
40
0
40
1
40
1
40
1
10
-29.138987026801885
20
3.2163643836975497
30
0
10
-28.975349627128423
20
3.4781813621521396
30
0
10
-28.975349627128423
20
3.685455322265665
30
0
0
SPLINE
5
153
100
AcDbEntity
8
0
100
AcDbSpline
70
0
71
2
72
6
73
3
74
0
42
0.000000001
43
0.0000000001
44
0.0000000001
40
0
40
0
40
0
40
1
40
1
40
1
10
-28.975349627128423
20
3.685455322265665
30
0
10
-28.975349627128423
20
3.9036369323730868
30
0
10
-29.182622395149053
20
3.9036369323730868
30
0
0
SPLINE
5
154
100
AcDbEntity
8
0
100
AcDbSpline
70
0
71
2
72
6
73
3
74
0
42
0.000000001
43
0.0000000001
44
0.0000000001
40
0
40
0
40
0
40
1
40
1
40
1
10
-29.182622395149053
20
3.9036369323730868
30
0
10
-29.466259441963018
20
3.9036369323730868
30
0
10
-29.989895783057989
20
3.4781813621521418
30
0
0
SPLINE
5
155
100
AcDbEntity
8
0
100
AcDbSpline
70
0
71
2
72
6
73
3
74
0
42
0.000000001
43
0.0000000001
44
0.0000000001
40
0
40
0
40
0
40
1
40
1
40
1
10
-29.989895783057989
20
3.4781813621521418
30
0
10
-30.928077660194219
20
2.7254545688629572
30
0
10
-31.549895964256109
20
1.2963640689850275
30
0
0
SPLINE
5
156
100
AcDbEntity
8
0
100
AcDbSpline
70
0
71
2
72
6
73
3
74
0
42
0.000000001
43
0.0000000001
44
0.0000000001
40
0
40
0
40
0
40
1
40
1
40
1
10
-22.484438381782347
20
1.3290905952453924
30
0
10
-23.1498932462843
20
0.18363714218142979
30
0
10
-23.629894219032103
20
-0.3727269172668124
30
0
0
SPLINE
5
157
100
AcDbEntity
8
0
100
AcDbSpline
70
0
71
2
72
6
73
3
74
0
42
0.000000001
43
0.0000000001
44
0.0000000001
40
0
40
0
40
0
40
1
40
1
40
1
10
-23.629894219032103
20
-0.3727269172668124
30
0
10
-24.797166548362547
20
-1.7472732067107799
30
0
10
-25.571712217918211
20
-1.7472732067107799
30
0
0
SPLINE
5
158
100
AcDbEntity
8
0
100
AcDbSpline
70
0
71
2
72
6
73
3
74
0
42
0.000000001
43
0.0000000001
44
0.0000000001
40
0
40
0
40
0
40
1
40
1
40
1
10
-25.571712217918211
20
-1.7472732067107799
30
0
10
-26.040803156486326
20
-1.7472732067107799
30
0
10
-26.29171248494702
20
-1.2345457077026012
30
0
0
SPLINE
5
159
100
AcDbEntity
8
0
100
AcDbSpline
70
0
71
2
72
6
73
3
74
0
42
0.000000001
43
0.0000000001
44
0.0000000001
40
0
40
0
40
0
40
1
40
1
40
1
10
-26.29171248494702
20
-1.2345457077026012
30
0
10
-26.466257534614378
20
-0.89636325836177866
30
0
10
-26.466257534614378
20
-0.52545428276058237
30
0
0
SPLINE
5
160
100
AcDbEntity
8
0
100
AcDbSpline
70
0
71
2
72
6
73
3
74
0
42
0.000000001
43
0.0000000001
44
0.0000000001
40
0
40
0
40
0
40
1
40
1
40
1
10
-26.466257534614378
20
-0.52545428276058237
30
0
10
-26.466257534614378
20
0.19454598426822622
30
0
10
-25.844439230552496
20
1.5581822395325062
30
0
0
SPLINE
5
161
100
AcDbEntity
8
0
100
AcDbSpline
70
0
71
2
72
6
73
3
74
0
42
0.000000001
43
0.0000000001
44
0.0000000001
40
0
40
0
40
0
40
1
40
1
40
1
10
-25.844439230552496
20
1.5581822395325062
30
0
10
-25.288075171104254
20
2.7472734451294301
30
0
10
-24.906257353416265
20
3.4345459938049672
30
0
0
SPLINE
5
162
100
AcDbEntity
8
0
100
AcDbSpline
70
0
71
2
72
6
73
3
74
0
42
0.000000001
43
0.0000000001
44
0.0000000001
40
0
40
0
40
0
40
1
40
1
40
1
10
-24.906257353416265
20
3.4345459938049672
30
0
10
-24.622621498695196
20
3.9254546165466642
30
0
10
-24.56807609616834
20
4.0781819820404399
30
0
0
SPLINE
5
163
100
AcDbEntity
8
0
100
AcDbSpline
70
0
71
2
72
6
73
3
74
0
42
0.000000001
43
0.0000000001
44
0.0000000001
40
0
40
0
40
0
40
1
40
1
40
1
10
-24.56807609616834
20
4.0781819820404399
30
0
10
-24.43716641484815
20
4.372727274894749
30
0
10
-24.338984451881231
20
4.5254546403885234
30
0
0
SPLINE
5
164
100
AcDbEntity
8
0
100
AcDbSpline
70
0
71
2
72
6
73
3
74
0
42
0.000000001
43
0.0000000001
44
0.0000000001
40
0
40
0
40
0
40
1
40
1
40
1
10
-24.338984451881231
20
4.5254546403885234
30
0
10
-24.197165928474249
20
4.7545456886291841
30
0
10
-23.946257792106451
20
4.7545456886291841
30
0
0
SPLINE
5
165
100
AcDbEntity
8
0
100
AcDbSpline
70
0
71
2
72
6
73
3
74
0
42
0.000000001
43
0.0000000001
44
0.0000000001
40
0
40
0
40
0
40
1
40
1
40
1
10
-23.946257792106451
20
4.7545456886291841
30
0
10
-23.81534811078626
20
4.7545456886291841
30
0
10
-23.717166147819341
20
4.6454548835754732
30
0
0
SPLINE
5
166
100
AcDbEntity
8
0
100
AcDbSpline
70
0
71
2
72
6
73
3
74
0
42
0.000000001
43
0.0000000001
44
0.0000000001
40
0
40
0
40
0
40
1
40
1
40
1
10
-23.717166147819341
20
4.6454548835754732
30
0
10
-23.60807534276563
20
4.5145457983017305
30
0
10
-23.60807534276563
20
4.3400001525879244
30
0
0
SPLINE
5
167
100
AcDbEntity
8
0
100
AcDbSpline
70
0
71
2
72
6
73
3
74
0
42
0.000000001
43
0.0000000001
44
0.0000000001
40
0
40
0
40
0
40
1
40
1
40
1
10
-23.60807534276563
20
4.3400001525879244
30
0
10
-23.60807534276563
20
3.8490915298462247
30
0
10
-24.491711817375005
20
2.1472728252411222
30
0
0
SPLINE
5
168
100
AcDbEntity
8
0
100
AcDbSpline
70
0
71
2
72
6
73
3
74
0
42
0.000000001
43
0.0000000001
44
0.0000000001
40
0
40
0
40
0
40
1
40
1
40
1
10
-24.491711817375005
20
2.1472728252411222
30
0
10
-25.37534829198438
20
0.46727299690250135
30
0
10
-25.375348291984373
20
-0.078182220458948848
30
0
0
SPLINE
5
169
100
AcDbEntity
8
0
100
AcDbSpline
70
0
71
2
72
6
73
3
74
0
42
0.000000001
43
0.0000000001
44
0.0000000001
40
0
40
0
40
0
40
1
40
1
40
1
10
-25.375348291984373
20
-0.078182220458948848
30
0
10
-25.375348291984373
20
-0.42727231979366564
30
0
10
-25.102621279350096
20
-0.42727231979366564
30
0
0
SPLINE
5
170
100
AcDbEntity
8
0
100
AcDbSpline
70
0
71
2
72
6
73
3
74
0
42
0.000000001
43
0.0000000001
44
0.0000000001
40
0
40
0
40
0
40
1
40
1
40
1
10
-25.102621279350096
20
-0.42727231979366564
30
0
10
-24.633530340781981
20
-0.42727231979366787
30
0
10
-23.771712742439092
20
0.79454541206363194
30
0
0
SPLINE
5
171
100
AcDbEntity
8
0
100
AcDbSpline
70
0
71
2
72
6
73
3
74
0
42
0.000000001
43
0.0000000001
44
0.0000000001
40
0
40
0
40
0
40
1
40
1
40
1
10
-23.771712742439092
20
0.79454541206363194
30
0
10
-23.389893732658209
20
1.3400006294250821
30
0
10
-22.975347004524053
20
2.1800005435943937
30
0
0
SPLINE
5
172
100
AcDbEntity
8
0
100
AcDbSpline
70
0
71
2
72
6
73
3
74
0
42
0.000000001
43
0.0000000001
44
0.0000000001
40
0
40
0
40
0
40
1
40
1
40
1
10
-22.975347004524053
20
2.1800005435943937
30
0
10
-22.986257038703741
20
2.452727556228671
30
0
10
-22.986257038703741
20
2.5945448875427579
30
0
0
SPLINE
5
173
100
AcDbEntity
8
0
100
AcDbSpline
70
0
71
2
72
6
73
3
74
0
42
0.000000001
43
0.0000000001
44
0.0000000001
40
0
40
0
40
0
40
1
40
1
40
1
10
-22.986257038703741
20
2.5945448875427579
30
0
10
-22.986257038703741
20
3.412728309631381
30
0
10
-22.680802307716192
20
4.0127277374267898
30
0
0
SPLINE
5
174
100
AcDbEntity
8
0
100
AcDbSpline
70
0
71
2
72
6
73
3
74
0
42
0.000000001
43
0.0000000001
44
0.0000000001
40
0
40
0
40
0
40
1
40
1
40
1
10
-22.680802307716192
20
4.0127277374267898
30
0
10
-22.288076840034307
20
4.7872728109360052
30
0
10
-21.622621975532354
20
4.7872728109360052
30
0
0
SPLINE
5
175
100
AcDbEntity
8
0
100
AcDbSpline
70
0
71
2
72
6
73
3
74
0
42
0.000000001
43
0.0000000001
44
0.0000000001
40
0
40
0
40
0
40
1
40
1
40
1
10
-21.622621975532354
20
4.7872728109360052
30
0
10
-21.240804157844366
20
4.7872728109360043
30
0
10
-21.240804157844366
20
4.3290913105011288
30
0
0
SPLINE
5
176
100
AcDbEntity
8
0
100
AcDbSpline
70
0
71
2
72
6
73
3
74
0
42
0.000000001
43
0.0000000001
44
0.0000000001
40
0
40
0
40
0
40
1
40
1
40
1
10
-21.240804157844366
20
4.3290913105011288
30
0
10
-21.240804157844366
20
3.5981822013855291
30
0
10
-22.004439793220342
20
2.1800005435943914
30
0
0
SPLINE
5
177
100
AcDbEntity
8
0
100
AcDbSpline
70
0
71
2
72
6
73
3
74
0
42
0.000000001
43
0.0000000001
44
0.0000000001
40
0
40
0
40
0
40
1
40
1
40
1
10
-22.004439793220342
20
2.1800005435943914
30
0
10
-21.786258183112921
20
2.136363983154328
30
0
10
-21.655347309699835
20
2.136363983154328
30
0
0
SPLINE
5
178
100
AcDbEntity
8
0
100
AcDbSpline
70
0
71
2
72
6
73
3
74
0
42
0.000000001
43
0.0000000001
44
0.0000000001
40
0
40
0
40
0
40
1
40
1
40
1
10
-21.655347309699835
20
2.136363983154328
30
0
10
-21.295349560371221
20
2.136363983154328
30
0
10
-20.717165432563604
20
2.5945448875427535
30
0
0
SPLINE
5
179
100
AcDbEntity
8
0
100
AcDbSpline
70
0
71
2
72
6
73
3
74
0
42
0.000000001
43
0.0000000001
44
0.0000000001
40
0
40
0
40
0
40
1
40
1
40
1
10
-20.717165432563604
20
2.5945448875427535
30
0
10
-20.258984528175176
20
2.9654550552368453
30
0
10
-20.117166004768194
20
2.9654550552368453
30
0
0
SPLINE
5
180
100
AcDbEntity
8
0
100
AcDbSpline
70
0
71
2
72
6
73
3
74
0
42
0.000000001
43
0.0000000001
44
0.0000000001
40
0
40
0
40
0
40
1
40
1
40
1
10
-20.117166004768194
20
2.9654550552368453
30
0
10
-19.997165165534796
20
2.9654550552368453
30
0
10
-19.866256676307501
20
2.8236365318298629
30
0
0
SPLINE
5
181
100
AcDbEntity
8
0
100
AcDbSpline
70
0
71
2
72
6
73
3
74
0
42
0.000000001
43
0.0000000001
44
0.0000000001
40
0
40
0
40
0
40
1
40
1
40
1
10
-19.866256676307501
20
2.8236365318298629
30
0
10
-19.768075905433477
20
2.7036356925964644
30
0
10
-19.768075905433477
20
2.583637237548857
30
0
0
SPLINE
5
182
100
AcDbEntity
8
0
100
AcDbSpline
70
0
71
2
72
6
73
3
74
0
42
0.000000001
43
0.0000000001
44
0.0000000001
40
0
40
0
40
0
40
1
40
1
40
1
10
-19.768075905433477
20
2.583637237548857
30
0
10
-19.768075905433477
20
2.1909093856811812
30
0
10
-20.313529930702032
20
1.700000762939482
30
0
0
SPLINE
5
183
100
AcDbEntity
8
0
100
AcDbSpline
70
0
71
2
72
6
73
3
74
0
42
0.000000001
43
0.0000000001
44
0.0000000001
40
0
40
0
40
0
40
1
40
1
40
1
10
-20.313529930702032
20
1.700000762939482
30
0
10
-20.946257076850706
20
1.1436367034912398
30
0
10
-21.753530464759642
20
1.143636703491242
30
0
0
SPLINE
5
184
100
AcDbEntity
8
0
100
AcDbSpline
70
0
71
2
72
6
73
3
74
0
42
0.000000001
43
0.0000000001
44
0.0000000001
40
0
40
0
40
0
40
1
40
1
40
1
10
-21.753530464759642
20
1.143636703491242
30
0
10
-22.069892845741087
20
1.143636703491242
30
0
10
-22.484438381782347
20
1.3290905952453924
30
0
0
LINE
5
185
100
AcDbEntity
8
0
100
AcDbLine
10
-19.473531208625609
20
0.44545412063601519
30
0
11
-19.473531208625609
21
0.2490901947021773
31
0
0
SPLINE
5
186
100
AcDbEntity
8
0
100
AcDbSpline
70
0
71
2
72
6
73
3
74
0
42
0.000000001
43
0.0000000001
44
0.0000000001
40
0
40
0
40
0
40
1
40
1
40
1
10
-19.473531208625609
20
0.2490901947021773
30
0
10
-19.473531208625609
20
0.0090909004211714439
30
0
10
-19.35353036939221
20
-0.16545414924618917
30
0
0
SPLINE
5
187
100
AcDbEntity
8
0
100
AcDbSpline
70
0
71
2
72
6
73
3
74
0
42
0.000000001
43
0.0000000001
44
0.0000000001
40
0
40
0
40
0
40
1
40
1
40
1
10
-19.35353036939221
20
-0.16545414924618917
30
0
10
-19.080803356757933
20
-0.56909084320065695
30
0
10
-18.458986244788939
20
-0.56909084320065695
30
0
0
SPLINE
5
188
100
AcDbEntity
8
0
100
AcDbSpline
70
0
71
2
72
6
73
3
74
0
42
0.000000001
43
0.0000000001
44
0.0000000001
40
0
40
0
40
0
40
1
40
1
40
1
10
-18.458986244788939
20
-0.56909084320065695
30
0
10
-17.095348797431761
20
-0.56909084320065917
30
0
10
-15.306258164039432
20
1.5254545211792214
30
0
0
SPLINE
5
189
100
AcDbEntity
8
0
100
AcDbSpline
70
0
71
2
72
6
73
3
74
0
42
0.000000001
43
0.0000000001
44
0.0000000001
40
0
40
0
40
0
40
1
40
1
40
1
10
-15.306258164039432
20
1.5254545211792214
30
0
10
-14.989895783057987
20
1.8854546546936257
30
0
10
-14.771711788764774
20
1.8854546546936257
30
0
0
SPLINE
5
190
100
AcDbEntity
8
0
100
AcDbSpline
70
0
71
2
72
6
73
3
74
0
42
0.000000001
43
0.0000000001
44
0.0000000001
40
0
40
0
40
0
40
1
40
1
40
1
10
-14.771711788764774
20
1.8854546546936257
30
0
10
-14.651713333717167
20
1.8854546546936257
30
0
10
-14.553530178657352
20
1.7654550075531228
30
0
0
SPLINE
5
191
100
AcDbEntity
8
0
100
AcDbSpline
70
0
71
2
72
6
73
3
74
0
42
0.000000001
43
0.0000000001
44
0.0000000001
40
0
40
0
40
0
40
1
40
1
40
1
10
-14.553530178657352
20
1.7654550075531228
30
0
10
-14.4880771261366
20
1.6781818866729958
30
0
10
-14.4880771261366
20
1.6018176078796609
30
0
0
SPLINE
5
192
100
AcDbEntity
8
0
100
AcDbSpline
70
0
71
2
72
6
73
3
74
0
42
0.000000001
43
0.0000000001
44
0.0000000001
40
0
40
0
40
0
40
1
40
1
40
1
10
-14.4880771261366
20
1.6018176078796609
30
0
10
-14.488077126136595
20
1.1763644218445046
30
0
10
-15.535349808326536
20
0.1618182659149392
30
0
0
SPLINE
5
193
100
AcDbEntity
8
0
100
AcDbSpline
70
0
71
2
72
6
73
3
74
0
42
0.000000001
43
0.0000000001
44
0.0000000001
40
0
40
0
40
0
40
1
40
1
40
1
10
-15.535349808326536
20
0.1618182659149392
30
0
10
-16.353530846229368
20
-0.63454508781430663
30
0
10
-17.280805073371702
20
-1.1363637447356933
30
0
0
SPLINE
5
194
100
AcDbEntity
8
0
100
AcDbSpline
70
0
71
2
72
6
73
3
74
0
42
0.000000001
43
0.0000000001
44
0.0000000001
40
0
40
0
40
0
40
1
40
1
40
1
10
-17.280805073371702
20
-1.1363637447356933
30
0
10
-18.208076916328245
20
-1.6381812095641823
30
0
10
-19.004440270057493
20
-1.6381812095641823
30
0
0
SPLINE
5
195
100
AcDbEntity
8
0
100
AcDbSpline
70
0
71
2
72
6
73
3
74
0
42
0.000000001
43
0.0000000001
44
0.0000000001
40
0
40
0
40
0
40
1
40
1
40
1
10
-19.004440270057493
20
-1.6381812095641823
30
0
10
-19.822621307960326
20
-1.6381812095641801
30
0
10
-20.291712246528441
20
-1.0709095001220414
30
0
0
SPLINE
5
196
100
AcDbEntity
8
0
100
AcDbSpline
70
0
71
2
72
6
73
3
74
0
42
0.000000001
43
0.0000000001
44
0.0000000001
40
0
40
0
40
0
40
1
40
1
40
1
10
-20.291712246528441
20
-1.0709095001220414
30
0
10
-20.608077011695677
20
-0.67818164825436567
30
0
10
-20.608077011695677
20
-0.0018179416656205483
30
0
0
SPLINE
5
197
100
AcDbEntity
8
0
100
AcDbSpline
70
0
71
2
72
6
73
3
74
0
42
0.000000001
43
0.0000000001
44
0.0000000001
40
0
40
0
40
0
40
1
40
1
40
1
10
-20.608077011695677
20
-0.0018179416656205483
30
0
10
-20.608077011695684
20
1.8418180942535689
30
0
10
-18.873531780830206
20
3.6090910434723167
30
0
0
SPLINE
5
198
100
AcDbEntity
8
0
100
AcDbSpline
70
0
71
2
72
6
73
3
74
0
42
0.000000001
43
0.0000000001
44
0.0000000001
40
0
40
0
40
0
40
1
40
1
40
1
10
-18.873531780830206
20
3.6090910434723167
30
0
10
-17.46625896512586
20
5.0490909814834852
30
0
10
-16.418986282935919
20
5.0490909814834843
30
0
0
SPLINE
5
199
100
AcDbEntity
8
0
100
AcDbSpline
70
0
71
2
72
6
73
3
74
0
42
0.000000001
43
0.0000000001
44
0.0000000001
40
0
40
0
40
0
40
1
40
1
40
1
10
-16.418986282935919
20
5.0490909814834843
30
0
10
-16.135349236121954
20
5.0490909814834826
30
0
10
-15.906259976020634
20
4.8745459318161242
30
0
0
SPLINE
5
200
100
AcDbEntity
8
0
100
AcDbSpline
70
0
71
2
72
6
73
3
74
0
42
0.000000001
43
0.0000000001
44
0.0000000001
40
0
40
0
40
0
40
1
40
1
40
1
10
-15.906259976020634
20
4.8745459318161242
30
0
10
-15.622622929206669
20
4.6454548835754625
30
0
10
-15.622622929206669
20
4.2745459079742663
30
0
0
SPLINE
5
201
100
AcDbEntity
8
0
100
AcDbSpline
70
0
71
2
72
6
73
3
74
0
42
0.000000001
43
0.0000000001
44
0.0000000001
40
0
40
0
40
0
40
1
40
1
40
1
10
-15.622622929206669
20
4.2745459079742663
30
0
10
-15.622622929206669
20
3.6963629722595437
30
0
10
-16.157166920295538
20
2.8563642501831299
30
0
0
SPLINE
5
202
100
AcDbEntity
8
0
100
AcDbSpline
70
0
71
2
72
6
73
3
74
0
42
0.000000001
43
0.0000000001
44
0.0000000001
40
0
40
0
40
0
40
1
40
1
40
1
10
-16.157166920295538
20
2.8563642501831299
30
0
10
-17.258985005012327
20
1.1109089851379639
30
0
10
-19.473531208625609
20
0.44545412063601519
30
0
0
SPLINE
5
203
100
AcDbEntity
8
0
100
AcDbSpline
70
0
71
2
72
6
73
3
74
0
42
0.000000001
43
0.0000000001
44
0.0000000001
40
0
40
0
40
0
40
1
40
1
40
1
10
-19.233531914344603
20
1.296364068985012
30
0
10
-18.469893894782842
20
1.5581822395324973
30
0
10
-18.033530674567999
20
1.8854546546936302
30
0
0
SPLINE
5
204
100
AcDbEntity
8
0
100
AcDbSpline
70
0
71
2
72
6
73
3
74
0
42
0.000000001
43
0.0000000001
44
0.0000000001
40
0
40
0
40
0
40
1
40
1
40
1
10
-18.033530674567999
20
1.8854546546936302
30
0
10
-17.269895039192022
20
2.4745452404022461
30
0
10
-16.822621784797491
20
3.2163643836975342
30
0
0
SPLINE
5
205
100
AcDbEntity
8
0
100
AcDbSpline
70
0
71
2
72
6
73
3
74
0
42
0.000000001
43
0.0000000001
44
0.0000000001
40
0
40
0
40
0
40
1
40
1
40
1
10
-16.822621784797491
20
3.2163643836975342
30
0
10
-16.658985577216924
20
3.478181362152124
30
0
10
-16.658985577216924
20
3.6854553222656494
30
0
0
SPLINE
5
206
100
AcDbEntity
8
0
100
AcDbSpline
70
0
71
2
72
6
73
3
74
0
42
0.000000001
43
0.0000000001
44
0.0000000001
40
0
40
0
40
0
40
1
40
1
40
1
10
-16.658985577216924
20
3.6854553222656494
30
0
10
-16.658985577216924
20
3.9036369323730713
30
0
10
-16.86625953733045
20
3.9036369323730713
30
0
0
SPLINE
5
207
100
AcDbEntity
8
0
100
AcDbSpline
70
0
71
2
72
6
73
3
74
0
42
0.000000001
43
0.0000000001
44
0.0000000001
40
0
40
0
40
0
40
1
40
1
40
1
10
-16.86625953733045
20
3.9036369323730713
30
0
10
-17.149894199958624
20
3.9036369323730713
30
0
10
-17.673530541053594
20
3.4781813621521263
30
0
0
SPLINE
5
208
100
AcDbEntity
8
0
100
AcDbSpline
70
0
71
2
72
6
73
3
74
0
42
0.000000001
43
0.0000000001
44
0.0000000001
40
0
40
0
40
0
40
1
40
1
40
1
10
-17.673530541053594
20
3.4781813621521263
30
0
10
-18.611712418189825
20
2.7254545688629417
30
0
10
-19.233531914344603
20
1.296364068985012
30
0
0
SPLINE
5
209
100
AcDbEntity
8
0
100
AcDbSpline
70
0
71
2
72
6
73
3
74
0
42
0.000000001
43
0.0000000001
44
0.0000000001
40
0
40
0
40
0
40
1
40
1
40
1
10
-12.208075485816776
20
1.9400000572204767
30
0
10
-11.138985119453251
20
3.0854547023773371
30
0
10
-9.7426199537428015
20
4.1763639450073402
30
0
0
SPLINE
5
210
100
AcDbEntity
8
0
100
AcDbSpline
70
0
71
2
72
6
73
3
74
0
42
0.000000001
43
0.0000000001
44
0.0000000001
40
0
40
0
40
0
40
1
40
1
40
1
10
-9.7426199537428015
20
4.1763639450073402
30
0
10
-9.2408012968214148
20
4.5690912008285665
30
0
10
-8.6735295873792762
20
4.907273054122939
30
0
0
SPLINE
5
211
100
AcDbEntity
8
0
100
AcDbSpline
70
0
71
2
72
6
73
3
74
0
42
0.000000001
43
0.0000000001
44
0.0000000001
40
0
40
0
40
0
40
1
40
1
40
1
10
-8.6735295873792762
20
4.907273054122939
30
0
10
-8.3898949247511023
20
5.0709092617035045
30
0
10
-8.3135294538648719
20
5.0709092617035045
30
0
0
SPLINE
5
212
100
AcDbEntity
8
0
100
AcDbSpline
70
0
71
2
72
6
73
3
74
0
42
0.000000001
43
0.0000000001
44
0.0000000001
40
0
40
0
40
0
40
1
40
1
40
1
10
-8.3135294538648719
20
5.0709092617035045
30
0
10
-8.1498932462843054
20
5.0709092617035045
30
0
10
-7.986257038703739
20
4.8309093713760509
30
0
0
SPLINE
5
213
100
AcDbEntity
8
0
100
AcDbSpline
70
0
71
2
72
6
73
3
74
0
42
0.000000001
43
0.0000000001
44
0.0000000001
40
0
40
0
40
0
40
1
40
1
40
1
10
-7.986257038703739
20
4.8309093713760509
30
0
10
-7.8880762678297156
20
4.7000002861023082
30
0
10
-7.8880762678297156
20
4.5909094810485973
30
0
0
SPLINE
5
214
100
AcDbEntity
8
0
100
AcDbSpline
70
0
71
2
72
6
73
3
74
0
42
0.000000001
43
0.0000000001
44
0.0000000001
40
0
40
0
40
0
40
1
40
1
40
1
10
-7.8880762678297156
20
4.5909094810485973
30
0
10
-7.8880762678297156
20
4.3945455551147594
30
0
10
-8.3026194196851844
20
4.0563637018203869
30
0
0
SPLINE
5
215
100
AcDbEntity
8
0
100
AcDbSpline
70
0
71
2
72
6
73
3
74
0
42
0.000000001
43
0.0000000001
44
0.0000000001
40
0
40
0
40
0
40
1
40
1
40
1
10
-8.3026194196851844
20
4.0563637018203869
30
0
10
-9.4153475385816687
20
3.1727278232574618
30
0
10
-9.4153475385816687
20
2.7254545688629306
30
0
0
SPLINE
5
216
100
AcDbEntity
8
0
100
AcDbSpline
70
0
71
2
72
6
73
3
74
0
42
0.000000001
43
0.0000000001
44
0.0000000001
40
0
40
0
40
0
40
1
40
1
40
1
10
-9.4153475385816687
20
2.7254545688629306
30
0
10
-9.4153475385816687
20
2.4745464324951327
30
0
10
-9.1317104917677039
20
2.4745464324951327
30
0
0
SPLINE
5
217
100
AcDbEntity
8
0
100
AcDbSpline
70
0
71
2
72
6
73
3
74
0
42
0.000000001
43
0.0000000001
44
0.0000000001
40
0
40
0
40
0
40
1
40
1
40
1
10
-9.1317104917677039
20
2.4745464324951327
30
0
10
-8.6626219373853797
20
2.4745464324951305
30
0
10
-7.5171661001356238
20
3.2490909099578991
30
0
0
SPLINE
5
218
100
AcDbEntity
8
0
100
AcDbSpline
70
0
71
2
72
6
73
3
74
0
42
0.000000001
43
0.0000000001
44
0.0000000001
40
0
40
0
40
0
40
1
40
1
40
1
10
-7.5171661001356238
20
3.2490909099578991
30
0
10
-7.3208021742017859
20
3.3800005912780895
30
0
10
-7.189893684974491
20
3.3800005912780895
30
0
0
SPLINE
5
219
100
AcDbEntity
8
0
100
AcDbSpline
70
0
71
2
72
6
73
3
74
0
42
0.000000001
43
0.0000000001
44
0.0000000001
40
0
40
0
40
0
40
1
40
1
40
1
10
-7.189893684974491
20
3.3800005912780895
30
0
10
-7.102620564094364
20
3.3800005912780895
30
0
10
-7.0153474432142371
20
3.2927274703979603
30
0
0
SPLINE
5
220
100
AcDbEntity
8
0
100
AcDbSpline
70
0
71
2
72
6
73
3
74
0
42
0.000000001
43
0.0000000001
44
0.0000000001
40
0
40
0
40
0
40
1
40
1
40
1
10
-7.0153474432142371
20
3.2927274703979603
30
0
10
-6.9171666723402137
20
3.1945455074310414
30
0
10
-6.9171666723402137
20
3.0854547023773304
30
0
0
SPLINE
5
221
100
AcDbEntity
8
0
100
AcDbSpline
70
0
71
2
72
6
73
3
74
0
42
0.000000001
43
0.0000000001
44
0.0000000001
40
0
40
0
40
0
40
1
40
1
40
1
10
-6.9171666723402137
20
3.0854547023773304
30
0
10
-6.9171666723402137
20
2.7581810951233021
30
0
10
-7.8335308653028601
20
2.0818185806274547
30
0
0
SPLINE
5
222
100
AcDbEntity
8
0
100
AcDbSpline
70
0
71
2
72
6
73
3
74
0
42
0.000000001
43
0.0000000001
44
0.0000000001
40
0
40
0
40
0
40
1
40
1
40
1
10
-7.8335308653028601
20
2.0818185806274547
30
0
10
-8.7935304266126693
20
1.3618183135986461
30
0
10
-9.6553492170484603
20
1.3618183135986484
30
0
0
SPLINE
5
223
100
AcDbEntity
8
0
100
AcDbSpline
70
0
71
2
72
6
73
3
74
0
42
0.000000001
43
0.0000000001
44
0.0000000001
40
0
40
0
40
0
40
1
40
1
40
1
10
-9.6553492170484603
20
1.3618183135986484
30
0
10
-10.004439316383177
20
1.3618183135986484
30
0
10
-10.298984013191044
20
1.5472733974456943
30
0
0
SPLINE
5
224
100
AcDbEntity
8
0
100
AcDbSpline
70
0
71
2
72
6
73
3
74
0
42
0.000000001
43
0.0000000001
44
0.0000000001
40
0
40
0
40
0
40
1
40
1
40
1
10
-10.298984013191044
20
1.5472733974456943
30
0
10
-10.549893341651737
20
1.7000007629394687
30
0
10
-10.549893341651737
20
2.0927274227142489
30
0
0
SPLINE
5
225
100
AcDbEntity
8
0
100
AcDbSpline
70
0
71
2
72
6
73
3
74
0
42
0.000000001
43
0.0000000001
44
0.0000000001
40
0
40
0
40
0
40
1
40
1
40
1
10
-10.549893341651737
20
2.0927274227142489
30
0
10
-10.549893341651737
20
2.3654544353485263
30
0
10
-10.320801697364628
20
2.7145457267761386
30
0
0
SPLINE
5
226
100
AcDbEntity
8
0
100
AcDbSpline
70
0
71
2
72
6
73
3
74
0
42
0.000000001
43
0.0000000001
44
0.0000000001
40
0
40
0
40
0
40
1
40
1
40
1
10
-10.320801697364628
20
2.7145457267761386
30
0
10
-11.182620487800419
20
2.1036362648010432
30
0
10
-12.349894009223753
20
0.620000362396258
30
0
0
SPLINE
5
227
100
AcDbEntity
8
0
100
AcDbSpline
70
0
71
2
72
6
73
3
74
0
42
0.000000001
43
0.0000000001
44
0.0000000001
40
0
40
0
40
0
40
1
40
1
40
1
10
-12.349894009223753
20
0.620000362396258
30
0
10
-13.026256523719603
20
-0.29636383056638627
30
0
10
-13.691711388221556
20
-1.638181209564189
30
0
0
SPLINE
5
228
100
AcDbEntity
8
0
100
AcDbSpline
70
0
71
2
72
6
73
3
74
0
42
0.000000001
43
0.0000000001
44
0.0000000001
40
0
40
0
40
0
40
1
40
1
40
1
10
-13.691711388221556
20
-1.638181209564189
30
0
10
-13.942620716682249
20
-2.1399998664855757
30
0
10
-14.313530884376341
20
-2.1399998664855735
30
0
0
SPLINE
5
229
100
AcDbEntity
8
0
100
AcDbSpline
70
0
71
2
72
6
73
3
74
0
42
0.000000001
43
0.0000000001
44
0.0000000001
40
0
40
0
40
0
40
1
40
1
40
1
10
-14.313530884376341
20
-2.1399998664855735
30
0
10
-14.717166386237913
20
-2.1399998664855735
30
0
10
-14.717166386237913
20
-1.7581820487975852
30
0
0
SPLINE
5
230
100
AcDbEntity
8
0
100
AcDbSpline
70
0
71
2
72
6
73
3
74
0
42
0.000000001
43
0.0000000001
44
0.0000000001
40
0
40
0
40
0
40
1
40
1
40
1
10
-14.717166386237913
20
-1.7581820487975852
30
0
10
-14.717166386237913
20
-1.3872730731963889
30
0
10
-14.084439240089232
20
0.22727251052858444
30
0
0
SPLINE
5
231
100
AcDbEntity
8
0
100
AcDbSpline
70
0
71
2
72
6
73
3
74
0
42
0.000000001
43
0.0000000001
44
0.0000000001
40
0
40
0
40
0
40
1
40
1
40
1
10
-14.084439240089232
20
0.22727251052858444
30
0
10
-13.146257362953007
20
2.6272726058960161
30
0
10
-12.120802364936649
20
3.9472723007202326
30
0
0
SPLINE
5
232
100
AcDbEntity
8
0
100
AcDbSpline
70
0
71
2
72
6
73
3
74
0
42
0.000000001
43
0.0000000001
44
0.0000000001
40
0
40
0
40
0
40
1
40
1
40
1
10
-12.120802364936649
20
3.9472723007202326
30
0
10
-11.488075218787968
20
4.7654551267624079
30
0
10
-11.06261964856702
20
4.7654551267624079
30
0
0
SPLINE
5
233
100
AcDbEntity
8
0
100
AcDbSpline
70
0
71
2
72
6
73
3
74
0
42
0.000000001
43
0.0000000001
44
0.0000000001
40
0
40
0
40
0
40
1
40
1
40
1
10
-11.06261964856702
20
4.7654551267624079
30
0
10
-10.920803509345829
20
4.765455126762407
30
0
10
-10.80080267011243
20
4.6781820058822801
30
0
0
SPLINE
5
234
100
AcDbEntity
8
0
100
AcDbSpline
70
0
71
2
72
6
73
3
74
0
42
0.000000001
43
0.0000000001
44
0.0000000001
40
0
40
0
40
0
40
1
40
1
40
1
10
-10.80080267011243
20
4.6781820058822801
30
0
10
-10.658984146705448
20
4.5690912008285691
30
0
10
-10.658984146705448
20
4.4054549932480027
30
0
0
SPLINE
5
235
100
AcDbEntity
8
0
100
AcDbSpline
70
0
71
2
72
6
73
3
74
0
42
0.000000001
43
0.0000000001
44
0.0000000001
40
0
40
0
40
0
40
1
40
1
40
1
10
-10.658984146705448
20
4.4054549932480027
30
0
10
-10.658984146705448
20
4.2418187856674363
30
0
10
-10.87716575681287
20
3.9472723007202326
30
0
0
SPLINE
5
236
100
AcDbEntity
8
0
100
AcDbSpline
70
0
71
2
72
6
73
3
74
0
42
0.000000001
43
0.0000000001
44
0.0000000001
40
0
40
0
40
0
40
1
40
1
40
1
10
-10.87716575681287
20
3.9472723007202326
30
0
10
-10.920803509345829
20
3.8927268981933771
30
0
10
-11.455347500434696
20
3.2163643836975275
30
0
0
SPLINE
5
237
100
AcDbEntity
8
0
100
AcDbSpline
70
0
71
2
72
6
73
3
74
0
42
0.000000001
43
0.0000000001
44
0.0000000001
40
0
40
0
40
0
40
1
40
1
40
1
10
-11.455347500434696
20
3.2163643836975275
30
0
10
-11.946256123176395
20
2.5727272033691584
30
0
10
-12.208075485816776
20
1.9400000572204767
30
0
0
SPLINE
5
238
100
AcDbEntity
8
0
100
AcDbSpline
70
0
71
2
72
6
73
3
74
0
42
0.000000001
43
0.0000000001
44
0.0000000001
40
0
40
0
40
0
40
1
40
1
40
1
10
3.2282901185838586
20
5.594545602798461
30
0
10
3.9046550172654992
20
5.5945456027984601
30
0
10
4.2428374666063196
20
5.3545457124710065
30
0
0
SPLINE
5
239
100
AcDbEntity
8
0
100
AcDbSpline
70
0
71
2
72
6
73
3
74
0
42
0.000000001
43
0.0000000001
44
0.0000000001
40
0
40
0
40
0
40
1
40
1
40
1
10
4.2428374666063196
20
5.3545457124710065
30
0
10
4.5810151475755578
20
5.1145458221435529
30
0
10
4.5810151475755578
20
4.6236366033554059
30
0
0
SPLINE
5
240
100
AcDbEntity
8
0
100
AcDbSpline
70
0
71
2
72
6
73
3
74
0
42
0.000000001
43
0.0000000001
44
0.0000000001
40
0
40
0
40
0
40
1
40
1
40
1
10
4.5810151475755578
20
4.6236366033554059
30
0
10
4.5810151475755578
20
3.9800000190734841
30
0
10
4.1010165590135461
20
3.380000591278074
30
0
0
SPLINE
5
241
100
AcDbEntity
8
0
100
AcDbSpline
70
0
71
2
72
6
73
3
74
0
42
0.000000001
43
0.0000000001
44
0.0000000001
40
0
40
0
40
0
40
1
40
1
40
1
10
4.1010165590135461
20
3.380000591278074
30
0
10
3.6428332704393274
20
2.8127276897430398
30
0
10
2.7264714616624719
20
2.4636363983154297
30
0
0
SPLINE
5
242
100
AcDbEntity
8
0
100
AcDbSpline
70
0
71
2
72
6
73
3
74
0
42
0.000000001
43
0.0000000001
44
0.0000000001
40
0
40
0
40
0
40
1
40
1
40
1
10
2.7264714616624719
20
2.4636363983154297
30
0
10
2.2246528047410852
20
2.2781825065612793
30
0
10
1.8864703554002649
20
2.2781825065612793
30
0
0
SPLINE
5
243
100
AcDbEntity
8
0
100
AcDbSpline
70
0
71
2
72
6
73
3
74
0
42
0.000000001
43
0.0000000001
44
0.0000000001
40
0
40
0
40
0
40
1
40
1
40
1
10
1.8864703554002649
20
2.2781825065612793
30
0
10
1.4282918351976281
20
2.2781825065612815
30
0
10
1.4282918351976281
20
2.6818180084228538
30
0
0
SPLINE
5
244
100
AcDbEntity
8
0
100
AcDbSpline
70
0
71
2
72
6
73
3
74
0
42
0.000000001
43
0.0000000001
44
0.0000000001
40
0
40
0
40
0
40
1
40
1
40
1
10
1.4282918351976281
20
2.6818180084228538
30
0
10
1.4282918351976281
20
2.9545450210571311
30
0
10
1.690108813652218
20
3.0963635444641113
30
0
0
SPLINE
5
245
100
AcDbEntity
8
0
100
AcDbSpline
70
0
71
2
72
6
73
3
74
0
42
0.000000001
43
0.0000000001
44
0.0000000001
40
0
40
0
40
0
40
1
40
1
40
1
10
1.690108813652218
20
3.0963635444641113
30
0
10
1.755564250358761
20
3.1290912628173828
30
0
10
2.4319243806688196
20
3.2818186283111572
30
0
0
SPLINE
5
246
100
AcDbEntity
8
0
100
AcDbSpline
70
0
71
2
72
6
73
3
74
0
42
0.000000001
43
0.0000000001
44
0.0000000001
40
0
40
0
40
0
40
1
40
1
40
1
10
2.4319243806688196
20
3.2818186283111572
30
0
10
2.8355622667161828
20
3.3690905570983887
30
0
10
3.1737447160570031
20
3.6636364459991455
30
0
0
SPLINE
5
247
100
AcDbEntity
8
0
100
AcDbSpline
70
0
71
2
72
6
73
3
74
0
42
0.000000001
43
0.0000000001
44
0.0000000001
40
0
40
0
40
0
40
1
40
1
40
1
10
3.1737447160570031
20
3.6636364459991455
30
0
10
3.4682917970506555
20
3.9145457744598366
30
0
10
3.4682917970506555
20
4.2090910673141471
30
0
0
SPLINE
5
248
100
AcDbEntity
8
0
100
AcDbSpline
70
0
71
2
72
6
73
3
74
0
42
0.000000001
43
0.0000000001
44
0.0000000001
40
0
40
0
40
0
40
1
40
1
40
1
10
3.4682917970506555
20
4.2090910673141471
30
0
10
3.4682917970506555
20
4.4381821155548087
30
0
10
3.3373809236375696
20
4.5472729206085196
30
0
0
SPLINE
5
249
100
AcDbEntity
8
0
100
AcDbSpline
70
0
71
2
72
6
73
3
74
0
42
0.000000001
43
0.0000000001
44
0.0000000001
40
0
40
0
40
0
40
1
40
1
40
1
10
3.3373809236375696
20
4.5472729206085196
30
0
10
3.2064700502244836
20
4.6563637256622306
30
0
10
2.9446530717698938
20
4.6563637256622314
30
0
0
SPLINE
5
250
100
AcDbEntity
8
0
100
AcDbSpline
70
0
71
2
72
6
73
3
74
0
42
0.000000001
43
0.0000000001
44
0.0000000001
40
0
40
0
40
0
40
1
40
1
40
1
10
2.9446530717698938
20
4.6563637256622314
30
0
10
2.3119235414354211
20
4.6563637256622314
30
0
10
1.5482879060594446
20
4.1436368227005014
30
0
0
SPLINE
5
251
100
AcDbEntity
8
0
100
AcDbSpline
70
0
71
2
72
6
73
3
74
0
42
0.000000001
43
0.0000000001
44
0.0000000001
40
0
40
0
40
0
40
1
40
1
40
1
10
1.5482879060594446
20
4.1436368227005014
30
0
10
0.66465143145006955
20
3.5654544830322288
30
0
10
0.66465143145006955
20
2.7690911293029807
30
0
0
SPLINE
5
252
100
AcDbEntity
8
0
100
AcDbSpline
70
0
71
2
72
6
73
3
74
0
42
0.000000001
43
0.0000000001
44
0.0000000001
40
0
40
0
40
0
40
1
40
1
40
1
10
0.66465143145006955
20
2.7690911293029807
30
0
10
0.66465143145006955
20
2.2018182277679466
30
0
10
1.2428355592576867
20
1.350909471511843
30
0
0
SPLINE
5
253
100
AcDbEntity
8
0
100
AcDbSpline
70
0
71
2
72
6
73
3
74
0
42
0.000000001
43
0.0000000001
44
0.0000000001
40
0
40
0
40
0
40
1
40
1
40
1
10
1.2428355592576867
20
1.350909471511843
30
0
10
1.8864703554002649
20
0.42363643646240234
30
0
10
1.8864703554002649
20
-0.21999955177307129
30
0
0
SPLINE
5
254
100
AcDbEntity
8
0
100
AcDbSpline
70
0
71
2
72
6
73
3
74
0
42
0.000000001
43
0.0000000001
44
0.0000000001
40
0
40
0
40
0
40
1
40
1
40
1
10
1.8864703554002649
20
-0.21999955177307129
30
0
10
1.8864703554002737
20
-1.1800003051757812
30
0
10
1.0355639833299612
20
-1.7254543304443337
30
0
0
SPLINE
5
255
100
AcDbEntity
8
0
100
AcDbSpline
70
0
71
2
72
6
73
3
74
0
42
0.000000001
43
0.0000000001
44
0.0000000001
40
0
40
0
40
0
40
1
40
1
40
1
10
1.0355639833299612
20
-1.7254543304443337
30
0
10
0.51192525804919953
20
-2.063636779785154
30
0
10
-0.1535296064527536
20
-2.0636367797851518
30
0
0
SPLINE
5
256
100
AcDbEntity
8
0
100
AcDbSpline
70
0
71
2
72
6
73
3
74
0
42
0.000000001
43
0.0000000001
44
0.0000000001
40
0
40
0
40
0
40
1
40
1
40
1
10
-0.1535296064527536
20
-2.0636367797851518
30
0
10
-1.200802288642695
20
-2.0636367797851518
30
0
10
-1.7462563139112497
20
-1.3109087944030717
30
0
0
SPLINE
5
257
100
AcDbEntity
8
0
100
AcDbSpline
70
0
71
2
72
6
73
3
74
0
42
0.000000001
43
0.0000000001
44
0.0000000001
40
0
40
0
40
0
40
1
40
1
40
1
10
-1.7462563139112497
20
-1.3109087944030717
30
0
10
-2.1280741315992469
20
-0.77636361122130682
30
0
10
-2.1280741315992469
20
-0.045454502105706229
30
0
0
SPLINE
5
258
100
AcDbEntity
8
0
100
AcDbSpline
70
0
71
2
72
6
73
3
74
0
42
0.000000001
43
0.0000000001
44
0.0000000001
40
0
40
0
40
0
40
1
40
1
40
1
10
-2.1280741315992469
20
-0.045454502105706229
30
0
10
-2.1280741315992469
20
0.80545425415039729
30
0
10
-1.6917109113844031
20
1.3836359977722212
30
0
0
SPLINE
5
259
100
AcDbEntity
8
0
100
AcDbSpline
70
0
71
2
72
6
73
3
74
0
42
0.000000001
43
0.0000000001
44
0.0000000001
40
0
40
0
40
0
40
1
40
1
40
1
10
-1.6917109113844031
20
1.3836359977722212
30
0
10
-1.4080738645704383
20
1.7654538154602095
30
0
10
-1.1026215177686804
20
1.7654538154602095
30
0
0
SPLINE
5
260
100
AcDbEntity
8
0
100
AcDbSpline
70
0
71
2
72
6
73
3
74
0
42
0.000000001
43
0.0000000001
44
0.0000000001
40
0
40
0
40
0
40
1
40
1
40
1
10
-1.1026215177686804
20
1.7654538154602095
30
0
10
-0.8298945051344031
20
1.7654538154602095
30
0
10
-0.8298945051344031
20
1.5472722053527876
30
0
0
SPLINE
5
261
100
AcDbEntity
8
0
100
AcDbSpline
70
0
71
2
72
6
73
3
74
0
42
0.000000001
43
0.0000000001
44
0.0000000001
40
0
40
0
40
0
40
1
40
1
40
1
10
-0.8298945051344031
20
1.5472722053527876
30
0
10
-0.8298945051344031
20
1.4600002765655562
30
0
10
-0.92807527600842654
20
1.2854552268981978
30
0
0
SPLINE
5
262
100
AcDbEntity
8
0
100
AcDbSpline
70
0
71
2
72
6
73
3
74
0
42
0.000000001
43
0.0000000001
44
0.0000000001
40
0
40
0
40
0
40
1
40
1
40
1
10
-0.92807527600842654
20
1.2854552268981978
30
0
10
-1.1789822202833289
20
0.81636428833008257
30
0
10
-1.1789822202833289
20
0.18363714218140093
30
0
0
SPLINE
5
263
100
AcDbEntity
8
0
100
AcDbSpline
70
0
71
2
72
6
73
3
74
0
42
0.000000001
43
0.0000000001
44
0.0000000001
40
0
40
0
40
0
40
1
40
1
40
1
10
-1.1789822202833289
20
0.18363714218140093
30
0
10
-1.1789822202833289
20
-0.35090923309325728
30
0
10
-0.7971644025953406
20
-0.72181820869445357
30
0
0
SPLINE
5
264
100
AcDbEntity
8
0
100
AcDbSpline
70
0
71
2
72
6
73
3
74
0
42
0.000000001
43
0.0000000001
44
0.0000000001
40
0
40
0
40
0
40
1
40
1
40
1
10
-0.7971644025953406
20
-0.72181820869445357
30
0
10
-0.45898195325451141
20
-1.0490906238555864
30
0
10
-0.02261873303966766
20
-1.0490906238555886
30
0
0
SPLINE
5
265
100
AcDbEntity
8
0
100
AcDbSpline
70
0
71
2
72
6
73
3
74
0
42
0.000000001
43
0.0000000001
44
0.0000000001
40
0
40
0
40
0
40
1
40
1
40
1
10
-0.02261873303966766
20
-1.0490906238555886
30
0
10
0.40283445299548859
20
-1.0490906238555886
30
0
10
0.64283613146227658
20
-0.76545476913451926
30
0
0
SPLINE
5
266
100
AcDbEntity
8
0
100
AcDbSpline
70
0
71
2
72
6
73
3
74
0
42
0.000000001
43
0.0000000001
44
0.0000000001
40
0
40
0
40
0
40
1
40
1
40
1
10
0.64283613146227658
20
-0.76545476913451926
30
0
10
0.83919767321032346
20
-0.5254542827606179
30
0
10
0.83919767321032346
20
-0.15454530715942161
30
0
0
SPLINE
5
267
100
AcDbEntity
8
0
100
AcDbSpline
70
0
71
2
72
6
73
3
74
0
42
0.000000001
43
0.0000000001
44
0.0000000001
40
0
40
0
40
0
40
1
40
1
40
1
10
0.83919767321032346
20
-0.15454530715942161
30
0
10
0.83919767321032346
20
0.30363678932190163
30
0
10
0.31556371630114377
20
1.0345458984375022
30
0
0
SPLINE
5
268
100
AcDbEntity
8
0
100
AcDbSpline
70
0
71
2
72
6
73
3
74
0
42
0.000000001
43
0.0000000001
44
0.0000000001
40
0
40
0
40
0
40
1
40
1
40
1
10
0.31556371630114377
20
1.0345458984375022
30
0
10
-0.40443655072766482
20
2.0381820201873824
30
0
10
-0.40443655072766482
20
2.8563642501831099
30
0
0
SPLINE
5
269
100
AcDbEntity
8
0
100
AcDbSpline
70
0
71
2
72
6
73
3
74
0
42
0.000000001
43
0.0000000001
44
0.0000000001
40
0
40
0
40
0
40
1
40
1
40
1
10
-0.40443655072766482
20
2.8563642501831099
30
0
10
-0.40443655072766482
20
3.9472723007202193
30
0
10
0.78465227068346799
20
4.7872728109359759
30
0
0
SPLINE
5
270
100
AcDbEntity
8
0
100
AcDbSpline
70
0
71
2
72
6
73
3
74
0
42
0.000000001
43
0.0000000001
44
0.0000000001
40
0
40
0
40
0
40
1
40
1
40
1
10
0.78465227068346799
20
4.7872728109359759
30
0
10
1.9410157579271203
20
5.5945456027984628
30
0
10
3.2282901185838586
20
5.594545602798461
30
0
0
SPLINE
5
271
100
AcDbEntity
8
0
100
AcDbSpline
70
0
71
2
72
6
73
3
74
0
42
0.000000001
43
0.0000000001
44
0.0000000001
40
0
40
0
40
0
40
1
40
1
40
1
10
7.1119237321702844
20
0.15090942382811834
30
0
10
6.7519259828416711
20
-0.48181772232056108
30
0
10
6.4028334993211633
20
-0.91818213462830034
30
0
0
SPLINE
5
272
100
AcDbEntity
8
0
100
AcDbSpline
70
0
71
2
72
6
73
3
74
0
42
0.000000001
43
0.0000000001
44
0.0000000001
40
0
40
0
40
0
40
1
40
1
40
1
10
6.4028334993211633
20
-0.91818213462830034
30
0
10
5.7155585664598441
20
-1.7690908908844039
30
0
10
5.0391984361497855
20
-1.7690908908844016
30
0
0
SPLINE
5
273
100
AcDbEntity
8
0
100
AcDbSpline
70
0
71
2
72
6
73
3
74
0
42
0.000000001
43
0.0000000001
44
0.0000000001
40
0
40
0
40
0
40
1
40
1
40
1
10
5.0391984361497855
20
-1.7690908908844016
30
0
10
4.4501042741624808
20
-1.7690908908844016
30
0
10
4.122831859001348
20
-1.2127268314361594
30
0
0
SPLINE
5
274
100
AcDbEntity
8
0
100
AcDbSpline
70
0
71
2
72
6
73
3
74
0
42
0.000000001
43
0.0000000001
44
0.0000000001
40
0
40
0
40
0
40
1
40
1
40
1
10
4.122831859001348
20
-1.2127268314361594
30
0
10
3.9155602830736047
20
-0.85272669792175515
30
0
10
3.9155602830736047
20
-0.36181807518005593
30
0
0
SPLINE
5
275
100
AcDbEntity
8
0
100
AcDbSpline
70
0
71
2
72
6
73
3
74
0
42
0.000000001
43
0.0000000001
44
0.0000000001
40
0
40
0
40
0
40
1
40
1
40
1
10
3.9155602830736047
20
-0.36181807518005593
30
0
10
3.9155602830736047
20
0.84909081459045188
30
0
10
4.6791959184495813
20
2.3109090328216531
30
0
0
SPLINE
5
276
100
AcDbEntity
8
0
100
AcDbSpline
70
0
71
2
72
6
73
3
74
0
42
0.000000001
43
0.0000000001
44
0.0000000001
40
0
40
0
40
0
40
1
40
1
40
1
10
4.6791959184495813
20
2.3109090328216531
30
0
10
5.5301070588914758
20
3.9363646507263139
30
0
10
6.7301059144822961
20
4.8090910911560005
30
0
0
SPLINE
5
277
100
AcDbEntity
8
0
100
AcDbSpline
70
0
71
2
72
6
73
3
74
0
42
0.000000001
43
0.0000000001
44
0.0000000001
40
0
40
0
40
0
40
1
40
1
40
1
10
6.7301059144822961
20
4.8090910911560005
30
0
10
7.5155616182176477
20
5.3763639926910329
30
0
10
8.2464671510545617
20
5.3763639926910329
30
0
0
SPLINE
5
278
100
AcDbEntity
8
0
100
AcDbSpline
70
0
71
2
72
6
73
3
74
0
42
0.000000001
43
0.0000000001
44
0.0000000001
40
0
40
0
40
0
40
1
40
1
40
1
10
8.2464671510545617
20
5.3763639926910329
30
0
10
8.7046504396287805
20
5.376363992691032
30
0
10
9.0101075548021203
20
5.092727541923515
30
0
0
SPLINE
5
279
100
AcDbEntity
8
0
100
AcDbSpline
70
0
71
2
72
6
73
3
74
0
42
0.000000001
43
0.0000000001
44
0.0000000001
40
0
40
0
40
0
40
1
40
1
40
1
10
9.0101075548021203
20
5.092727541923515
30
0
10
9.2719245332567102
20
4.8418182134628207
30
0
10
9.2719245332567102
20
4.5254546403884799
30
0
0
SPLINE
5
280
100
AcDbEntity
8
0
100
AcDbSpline
70
0
71
2
72
6
73
3
74
0
42
0.000000001
43
0.0000000001
44
0.0000000001
40
0
40
0
40
0
40
1
40
1
40
1
10
9.2719245332567102
20
4.5254546403884799
30
0
10
9.2719245332567102
20
4.2854547500610263
30
0
10
9.0864682573167688
20
3.8600003719329745
30
0
0
SPLINE
5
281
100
AcDbEntity
8
0
100
AcDbSpline
70
0
71
2
72
6
73
3
74
0
42
0.000000001
43
0.0000000001
44
0.0000000001
40
0
40
0
40
0
40
1
40
1
40
1
10
9.0864682573167688
20
3.8600003719329745
30
0
10
9.2501044648973352
20
3.6309099197387606
30
0
10
9.2501044648973352
20
3.4563636779785067
30
0
0
SPLINE
5
282
100
AcDbEntity
8
0
100
AcDbSpline
70
0
71
2
72
6
73
3
74
0
42
0.000000001
43
0.0000000001
44
0.0000000001
40
0
40
0
40
0
40
1
40
1
40
1
10
9.2501044648973352
20
3.4563636779785067
30
0
10
9.2501044648973352
20
3.2272720336913974
30
0
10
8.9446521180955774
20
2.7036356925964267
30
0
0
SPLINE
5
283
100
AcDbEntity
8
0
100
AcDbSpline
70
0
71
2
72
6
73
3
74
0
42
0.000000001
43
0.0000000001
44
0.0000000001
40
0
40
0
40
0
40
1
40
1
40
1
10
8.9446521180955774
20
2.7036356925964267
30
0
10
8.6282897371141321
20
2.1690917015075617
30
0
10
8.3119225877611047
20
1.2854552268981867
30
0
0
SPLINE
5
284
100
AcDbEntity
8
0
100
AcDbSpline
70
0
71
2
72
6
73
3
74
0
42
0.000000001
43
0.0000000001
44
0.0000000001
40
0
40
0
40
0
40
1
40
1
40
1
10
8.3119225877611047
20
1.2854552268981867
30
0
10
7.9737401384202844
20
0.34727334976195623
30
0
10
7.9737401384202844
20
-0.21999955177307795
30
0
0
SPLINE
5
285
100
AcDbEntity
8
0
100
AcDbSpline
70
0
71
2
72
6
73
3
74
0
42
0.000000001
43
0.0000000001
44
0.0000000001
40
0
40
0
40
0
40
1
40
1
40
1
10
7.9737401384202844
20
-0.21999955177307795
30
0
10
7.9737401384202844
20
-0.67818164825440119
30
0
10
8.2464671510545617
20
-0.97272753715515803
30
0
0
SPLINE
5
286
100
AcDbEntity
8
0
100
AcDbSpline
70
0
71
2
72
6
73
3
74
0
42
0.000000001
43
0.0000000001
44
0.0000000001
40
0
40
0
40
0
40
1
40
1
40
1
10
8.2464671510545617
20
-0.97272753715515803
30
0
10
8.3228326219408011
20
-1.0490906238555975
30
0
10
8.6937404054491019
20
-1.2236356735229559
30
0
0
SPLINE
5
287
100
AcDbEntity
8
0
100
AcDbSpline
70
0
71
2
72
6
73
3
74
0
42
0.000000001
43
0.0000000001
44
0.0000000001
40
0
40
0
40
0
40
1
40
1
40
1
10
8.6937404054491019
20
-1.2236356735229559
30
0
10
8.9664721864549612
20
-1.3545453548431485
30
0
10
8.9664721864549612
20
-1.6818177700042813
30
0
0
SPLINE
5
288
100
AcDbEntity
8
0
100
AcDbSpline
70
0
71
2
72
6
73
3
74
0
42
0.000000001
43
0.0000000001
44
0.0000000001
40
0
40
0
40
0
40
1
40
1
40
1
10
8.9664721864549612
20
-1.6818177700042813
30
0
10
8.9664721864549612
20
-1.8890905380249112
30
0
10
8.8137412446825003
20
-2.0200002193451017
30
0
0
SPLINE
5
289
100
AcDbEntity
8
0
100
AcDbSpline
70
0
71
2
72
6
73
3
74
0
42
0.000000001
43
0.0000000001
44
0.0000000001
40
0
40
0
40
0
40
1
40
1
40
1
10
8.8137412446825003
20
-2.0200002193451017
30
0
10
8.6501050371019339
20
-2.1618187427520819
30
0
10
8.431923426994512
20
-2.1618187427520819
30
0
0
SPLINE
5
290
100
AcDbEntity
8
0
100
AcDbSpline
70
0
71
2
72
6
73
3
74
0
42
0.000000001
43
0.0000000001
44
0.0000000001
40
0
40
0
40
0
40
1
40
1
40
1
10
8.431923426994512
20
-2.1618187427520819
30
0
10
7.8428340333787894
20
-2.1618187427520819
30
0
10
7.4173808473436331
20
-1.6381812095642156
30
0
0
SPLINE
5
291
100
AcDbEntity
8
0
100
AcDbSpline
70
0
71
2
72
6
73
3
74
0
42
0.000000001
43
0.0000000001
44
0.0000000001
40
0
40
0
40
0
40
1
40
1
40
1
10
7.4173808473436331
20
-1.6381812095642156
30
0
10
7.0682883638231253
20
-1.2127268314361639
30
0
10
7.0682883638231164
20
-0.56909084320069026
30
0
0
SPLINE
5
292
100
AcDbEntity
8
0
100
AcDbSpline
70
0
71
2
72
6
73
3
74
0
42
0.000000001
43
0.0000000001
44
0.0000000001
40
0
40
0
40
0
40
1
40
1
40
1
10
7.0682883638231164
20
-0.56909084320069026
30
0
10
7.0682883638231164
20
-0.35090923309326838
30
0
10
7.1119237321702844
20
0.15090942382811834
30
0
0
SPLINE
5
293
100
AcDbEntity
8
0
100
AcDbSpline
70
0
71
2
72
6
73
3
74
0
42
0.000000001
43
0.0000000001
44
0.0000000001
40
0
40
0
40
0
40
1
40
1
40
1
10
8.4755587953416711
20
3.7400007247924738
30
0
10
8.3446526903001672
20
3.9800000190734797
30
0
10
8.1919265168992883
20
4.0945458412170339
30
0
0
SPLINE
5
294
100
AcDbEntity
8
0
100
AcDbSpline
70
0
71
2
72
6
73
3
74
0
42
0.000000001
43
0.0000000001
44
0.0000000001
40
0
40
0
40
0
40
1
40
1
40
1
10
8.1919265168992883
20
4.0945458412170339
30
0
10
8.0391955751268274
20
4.2090910673141408
30
0
10
7.8646493333665735
20
4.2090910673141408
30
0
0
SPLINE
5
295
100
AcDbEntity
8
0
100
AcDbSpline
70
0
71
2
72
6
73
3
74
0
42
0.000000001
43
0.0000000001
44
0.0000000001
40
0
40
0
40
0
40
1
40
1
40
1
10
7.8646493333665735
20
4.2090910673141408
30
0
10
7.0355582612840539
20
4.2090910673141426
30
0
10
6.064651049980343
20
2.7581810951232866
30
0
0
SPLINE
5
296
100
AcDbEntity
8
0
100
AcDbSpline
70
0
71
2
72
6
73
3
74
0
42
0.000000001
43
0.0000000001
44
0.0000000001
40
0
40
0
40
0
40
1
40
1
40
1
10
6.064651049980343
20
2.7581810951232866
30
0
10
4.9955582994310266
20
1.1545455455780007
30
0
10
4.9955582994310266
20
0.041818618774411842
30
0
0
SPLINE
5
297
100
AcDbEntity
8
0
100
AcDbSpline
70
0
71
2
72
6
73
3
74
0
42
0.000000001
43
0.0000000001
44
0.0000000001
40
0
40
0
40
0
40
1
40
1
40
1
10
4.9955582994310266
20
0.041818618774411842
30
0
10
4.9955582994310266
20
-0.2309083938598655
30
0
10
5.0991988557664758
20
-0.37272691726684792
30
0
0
SPLINE
5
298
100
AcDbEntity
8
0
100
AcDbSpline
70
0
71
2
72
6
73
3
74
0
42
0.000000001
43
0.0000000001
44
0.0000000001
40
0
40
0
40
0
40
1
40
1
40
1
10
5.0991988557664758
20
-0.37272691726684792
30
0
10
5.202834643730343
20
-0.51454544067383257
30
0
10
5.4101062196580774
20
-0.51454544067383257
30
0
0
SPLINE
5
299
100
AcDbEntity
8
0
100
AcDbSpline
70
0
71
2
72
6
73
3
74
0
42
0.000000001
43
0.0000000001
44
0.0000000001
40
0
40
0
40
0
40
1
40
1
40
1
10
5.4101062196580774
20
-0.51454544067383257
30
0
10
5.9337401765672571
20
-0.51454544067383257
30
0
10
6.6319251436082727
20
0.5981814861297563
30
0
0
SPLINE
5
300
100
AcDbEntity
8
0
100
AcDbSpline
70
0
71
2
72
6
73
3
74
0
42
0.000000001
43
0.0000000001
44
0.0000000001
40
0
40
0
40
0
40
1
40
1
40
1
10
6.6319251436082727
20
0.5981814861297563
30
0
10
7.0246529954759485
20
1.2090909481048517
30
0
10
7.6028323549119836
20
2.3981821537017756
30
0
0
SPLINE
5
301
100
AcDbEntity
8
0
100
AcDbSpline
70
0
71
2
72
6
73
3
74
0
42
0.000000001
43
0.0000000001
44
0.0000000001
40
0
40
0
40
0
40
1
40
1
40
1
10
7.6028323549119836
20
2.3981821537017756
30
0
10
7.9846501725999719
20
3.1727266311645441
30
0
10
8.1591964143602258
20
3.4236359596252375
30
0
0
SPLINE
5
302
100
AcDbEntity
8
0
100
AcDbSpline
70
0
71
2
72
6
73
3
74
0
42
0.000000001
43
0.0000000001
44
0.0000000001
40
0
40
0
40
0
40
1
40
1
40
1
10
8.1591964143602258
20
3.4236359596252375
30
0
10
8.2464671510545617
20
3.5545456409454279
30
0
10
8.4755587953416711
20
3.7400007247924738
30
0
0
SPLINE
5
303
100
AcDbEntity
8
0
100
AcDbSpline
70
0
71
2
72
6
73
3
74
0
42
0.000000001
43
0.0000000001
44
0.0000000001
40
0
40
0
40
0
40
1
40
1
40
1
10
13.602831401237667
20
1.405454874038683
30
0
10
12.631924189933956
20
0.26000022888182261
30
0
10
12.053740062126339
20
-0.29636383056641735
30
0
0
SPLINE
5
304
100
AcDbEntity
8
0
100
AcDbSpline
70
0
71
2
72
6
73
3
74
0
42
0.000000001
43
0.0000000001
44
0.0000000001
40
0
40
0
40
0
40
1
40
1
40
1
10
12.053740062126339
20
-0.29636383056641735
30
0
10
10.908286609062383
20
-1.3872718811035267
30
0
10
10.144650973686407
20
-1.3872718811035245
30
0
0
SPLINE
5
305
100
AcDbEntity
8
0
100
AcDbSpline
70
0
71
2
72
6
73
3
74
0
42
0.000000001
43
0.0000000001
44
0.0000000001
40
0
40
0
40
0
40
1
40
1
40
1
10
10.144650973686407
20
-1.3872718811035245
30
0
10
9.7737431901781058
20
-1.3872718811035245
30
0
10
9.5555615800706839
20
-1.1145448684692472
30
0
0
SPLINE
5
306
100
AcDbEntity
8
0
100
AcDbSpline
70
0
71
2
72
6
73
3
74
0
42
0.000000001
43
0.0000000001
44
0.0000000001
40
0
40
0
40
0
40
1
40
1
40
1
10
9.5555615800706839
20
-1.1145448684692472
30
0
10
9.3919253724901086
20
-0.89636325836182529
30
0
10
9.3919253724901086
20
-0.56909084320069248
30
0
0
SPLINE
5
307
100
AcDbEntity
8
0
100
AcDbSpline
70
0
71
2
72
6
73
3
74
0
42
0.000000001
43
0.0000000001
44
0.0000000001
40
0
40
0
40
0
40
1
40
1
40
1
10
9.3919253724901086
20
-0.56909084320069248
30
0
10
9.3919253724901086
20
0.60909032821654385
30
0
10
10.788285769828976
20
2.5618183612823375
30
0
0
SPLINE
5
308
100
AcDbEntity
8
0
100
AcDbSpline
70
0
71
2
72
6
73
3
74
0
42
0.000000001
43
0.0000000001
44
0.0000000001
40
0
40
0
40
0
40
1
40
1
40
1
10
10.788285769828976
20
2.5618183612823375
30
0
10
12.206466235527218
20
4.5472729206085081
30
0
10
12.839195765861691
20
4.5472729206085072
30
0
0
SPLINE
5
309
100
AcDbEntity
8
0
100
AcDbSpline
70
0
71
2
72
6
73
3
74
0
42
0.000000001
43
0.0000000001
44
0.0000000001
40
0
40
0
40
0
40
1
40
1
40
1
10
12.839195765861691
20
4.5472729206085072
30
0
10
13.013742007621945
20
4.5472729206085072
30
0
10
13.14465288103503
20
4.3945455551147328
30
0
0
SPLINE
5
310
100
AcDbEntity
8
0
100
AcDbSpline
70
0
71
2
72
6
73
3
74
0
42
0.000000001
43
0.0000000001
44
0.0000000001
40
0
40
0
40
0
40
1
40
1
40
1
10
13.14465288103503
20
4.3945455551147328
30
0
10
13.264648951896847
20
4.2745459079742298
30
0
10
13.264648951896847
20
4.1109097003936634
30
0
0
SPLINE
5
311
100
AcDbEntity
8
0
100
AcDbSpline
70
0
71
2
72
6
73
3
74
0
42
0.000000001
43
0.0000000001
44
0.0000000001
40
0
40
0
40
0
40
1
40
1
40
1
10
13.264648951896847
20
4.1109097003936634
30
0
10
13.264648951896847
20
3.8709092140197621
30
0
10
13.139197863945187
20
3.6909091472625599
30
0
0
SPLINE
5
312
100
AcDbEntity
8
0
100
AcDbSpline
70
0
71
2
72
6
73
3
74
0
42
0.000000001
43
0.0000000001
44
0.0000000001
40
0
40
0
40
0
40
1
40
1
40
1
10
13.139197863945187
20
3.6909091472625599
30
0
10
13.013742007621945
20
3.5109090805053578
30
0
10
12.42464784563464
20
2.8890907764434681
30
0
0
SPLINE
5
313
100
AcDbEntity
8
0
100
AcDbSpline
70
0
71
2
72
6
73
3
74
0
42
0.000000001
43
0.0000000001
44
0.0000000001
40
0
40
0
40
0
40
1
40
1
40
1
10
12.42464784563464
20
2.8890907764434681
30
0
10
11.802833117851437
20
2.2454547882079967
30
0
10
11.279194392570675
20
1.4927268028259166
30
0
0
SPLINE
5
314
100
AcDbEntity
8
0
100
AcDbSpline
70
0
71
2
72
6
73
3
74
0
42
0.000000001
43
0.0000000001
44
0.0000000001
40
0
40
0
40
0
40
1
40
1
40
1
10
11.279194392570675
20
1.4927268028259166
30
0
10
10.679194964775265
20
0.64181804656981312
30
0
10
10.679194964775265
20
0.24909019470213734
30
0
0
SPLINE
5
315
100
AcDbEntity
8
0
100
AcDbSpline
70
0
71
2
72
6
73
3
74
0
42
0.000000001
43
0.0000000001
44
0.0000000001
40
0
40
0
40
0
40
1
40
1
40
1
10
10.679194964775265
20
0.24909019470213734
30
0
10
10.679194964775265
20
0.020000934600818976
30
0
10
10.897376574882687
20
0.020000934600818976
30
0
0
SPLINE
5
316
100
AcDbEntity
8
0
100
AcDbSpline
70
0
71
2
72
6
73
3
74
0
42
0.000000001
43
0.0000000001
44
0.0000000001
40
0
40
0
40
0
40
1
40
1
40
1
10
10.897376574882687
20
0.020000934600818976
30
0
10
11.33373979509753
20
0.020000934600818976
30
0
10
12.533743419059933
20
1.2090909481048451
30
0
0
SPLINE
5
317
100
AcDbEntity
8
0
100
AcDbSpline
70
0
71
2
72
6
73
3
74
0
42
0.000000001
43
0.0000000001
44
0.0000000001
40
0
40
0
40
0
40
1
40
1
40
1
10
12.533743419059933
20
1.2090909481048451
30
0
10
13.286469020256222
20
1.9618177413940296
30
0
10
13.711922206291378
20
2.4745452404022084
30
0
0
SPLINE
5
318
100
AcDbEntity
8
0
100
AcDbSpline
70
0
71
2
72
6
73
3
74
0
42
0.000000001
43
0.0000000001
44
0.0000000001
40
0
40
0
40
0
40
1
40
1
40
1
10
13.711922206291378
20
2.4745452404022084
30
0
10
13.799197711357296
20
2.5836360454559193
30
0
10
14.475557841667355
20
3.5109090805053556
30
0
0
SPLINE
5
319
100
AcDbEntity
8
0
100
AcDbSpline
70
0
71
2
72
6
73
3
74
0
42
0.000000001
43
0.0000000001
44
0.0000000001
40
0
40
0
40
0
40
1
40
1
40
1
10
14.475557841667355
20
3.5109090805053556
30
0
10
15.086467303642452
20
4.3290913105010826
30
0
10
15.228288211235226
20
4.4818186759948571
30
0
0
SPLINE
5
320
100
AcDbEntity
8
0
100
AcDbSpline
70
0
71
2
72
6
73
3
74
0
42
0.000000001
43
0.0000000001
44
0.0000000001
40
0
40
0
40
0
40
1
40
1
40
1
10
15.228288211235226
20
4.4818186759948571
30
0
10
15.555560626396359
20
4.8636364936828445
30
0
10
15.839197673210323
20
4.8636364936828445
30
0
0
SPLINE
5
321
100
AcDbEntity
8
0
100
AcDbSpline
70
0
71
2
72
6
73
3
74
0
42
0.000000001
43
0.0000000001
44
0.0000000001
40
0
40
0
40
0
40
1
40
1
40
1
10
15.839197673210323
20
4.8636364936828445
30
0
10
16.013743914970576
20
4.8636364936828445
30
0
10
16.155560054191767
20
4.71090912818907
30
0
0
SPLINE
5
322
100
AcDbEntity
8
0
100
AcDbSpline
70
0
71
2
72
6
73
3
74
0
42
0.000000001
43
0.0000000001
44
0.0000000001
40
0
40
0
40
0
40
1
40
1
40
1
10
16.155560054191767
20
4.71090912818907
30
0
10
16.286466159233271
20
4.5690906047820867
30
0
10
16.286466159233271
20
4.3836367130279363
30
0
0
SPLINE
5
323
100
AcDbEntity
8
0
100
AcDbSpline
70
0
71
2
72
6
73
3
74
0
42
0.000000001
43
0.0000000001
44
0.0000000001
40
0
40
0
40
0
40
1
40
1
40
1
10
16.286466159233271
20
4.3836367130279363
30
0
10
16.286466159233271
20
4.0672731399535955
30
0
10
15.850102939018429
20
3.3254551887512029
30
0
0
SPLINE
5
324
100
AcDbEntity
8
0
100
AcDbSpline
70
0
71
2
72
6
73
3
74
0
42
0.000000001
43
0.0000000001
44
0.0000000001
40
0
40
0
40
0
40
1
40
1
40
1
10
15.850102939018429
20
3.3254551887512029
30
0
10
15.326468982109249
20
2.4199998378753507
30
0
10
14.890105761894405
20
1.6345453262328946
30
0
0
SPLINE
5
325
100
AcDbEntity
8
0
100
AcDbSpline
70
0
71
2
72
6
73
3
74
0
42
0.000000001
43
0.0000000001
44
0.0000000001
40
0
40
0
40
0
40
1
40
1
40
1
10
14.890105761894405
20
1.6345453262328946
30
0
10
14.202830829033077
20
0.41272759437559481
30
0
10
13.831923045524777
20
-0.54727315902711293
30
0
0
SPLINE
5
326
100
AcDbEntity
8
0
100
AcDbSpline
70
0
71
2
72
6
73
3
74
0
42
0.000000001
43
0.0000000001
44
0.0000000001
40
0
40
0
40
0
40
1
40
1
40
1
10
13.831923045524777
20
-0.54727315902711293
30
0
10
14.53010324419421
20
-0.14363646507264738
30
0
10
15.108287372001827
20
0.44545412063597079
30
0
0
SPLINE
5
327
100
AcDbEntity
8
0
100
AcDbSpline
70
0
71
2
72
6
73
3
74
0
42
0.000000001
43
0.0000000001
44
0.0000000001
40
0
40
0
40
0
40
1
40
1
40
1
10
15.108287372001827
20
0.44545412063597079
30
0
10
16.090104617485224
20
1.4272725582122625
30
0
10
16.308286227592646
20
1.9072723388671697
30
0
0
SPLINE
5
328
100
AcDbEntity
8
0
100
AcDbSpline
70
0
71
2
72
6
73
3
74
0
42
0.000000001
43
0.0000000001
44
0.0000000001
40
0
40
0
40
0
40
1
40
1
40
1
10
16.308286227592646
20
1.9072723388671697
30
0
10
16.51555780352038
20
2.343636751174909
30
0
10
16.733739413627802
20
2.343636751174909
30
0
0
SPLINE
5
329
100
AcDbEntity
8
0
100
AcDbSpline
70
0
71
2
72
6
73
3
74
0
42
0.000000001
43
0.0000000001
44
0.0000000001
40
0
40
0
40
0
40
1
40
1
40
1
10
16.733739413627802
20
2.343636751174909
30
0
10
17.039196528801142
20
2.343636751174909
30
0
10
17.039196528801142
20
2.0381820201873602
30
0
0
SPLINE
5
330
100
AcDbEntity
8
0
100
AcDbSpline
70
0
71
2
72
6
73
3
74
0
42
0.000000001
43
0.0000000001
44
0.0000000001
40
0
40
0
40
0
40
1
40
1
40
1
10
17.039196528801142
20
2.0381820201873602
30
0
10
17.039196528801142
20
1.460000276565534
30
0
10
16.057379283317744
20
0.31454563140867364
30
0
0
SPLINE
5
331
100
AcDbEntity
8
0
100
AcDbSpline
70
0
71
2
72
6
73
3
74
0
42
0.000000001
43
0.0000000001
44
0.0000000001
40
0
40
0
40
0
40
1
40
1
40
1
10
16.057379283317744
20
0.31454563140867364
30
0
10
14.879195727714727
20
-1.0599994659423984
30
0
10
13.155558146843145
20
-2.0200002193451061
30
0
0
SPLINE
5
332
100
AcDbEntity
8
0
100
AcDbSpline
70
0
71
2
72
6
73
3
74
0
42
0.000000001
43
0.0000000001
44
0.0000000001
40
0
40
0
40
0
40
1
40
1
40
1
10
13.155558146843145
20
-2.0200002193451061
30
0
10
12.239196338066289
20
-4.2236363887786998
30
0
10
11.421015300163457
20
-5.6745457649231064
30
0
0
SPLINE
5
333
100
AcDbEntity
8
0
100
AcDbSpline
70
0
71
2
72
6
73
3
74
0
42
0.000000001
43
0.0000000001
44
0.0000000001
40
0
40
0
40
0
40
1
40
1
40
1
10
11.421015300163457
20
-5.6745457649231064
30
0
10
9.8937392610399222
20
-8.3472728729248136
30
0
10
8.2682872194139456
20
-8.3472728729248136
30
0
0
SPLINE
5
334
100
AcDbEntity
8
0
100
AcDbSpline
70
0
71
2
72
6
73
3
74
0
42
0.000000001
43
0.0000000001
44
0.0000000001
40
0
40
0
40
0
40
1
40
1
40
1
10
8.2682872194139456
20
-8.3472728729248136
30
0
10
7.6028323549119925
20
-8.3472728729248082
30
0
10
7.1991944688646292
20
-7.8345465660095259
30
0
0
SPLINE
5
335
100
AcDbEntity
8
0
100
AcDbSpline
70
0
71
2
72
6
73
3
74
0
42
0.000000001
43
0.0000000001
44
0.0000000001
40
0
40
0
40
0
40
1
40
1
40
1
10
7.1991944688646292
20
-7.8345465660095259
30
0
10
6.8828320878831839
20
-7.4418187141418501
30
0
10
6.8828320878831839
20
-6.84181928634644
30
0
0
SPLINE
5
336
100
AcDbEntity
8
0
100
AcDbSpline
70
0
71
2
72
6
73
3
74
0
42
0.000000001
43
0.0000000001
44
0.0000000001
40
0
40
0
40
0
40
1
40
1
40
1
10
6.8828320878831839
20
-6.84181928634644
30
0
10
6.8828320878831839
20
-5.1399993896484419
30
0
10
9.2719245332567191
20
-3.3618187904357999
30
0
0
SPLINE
5
337
100
AcDbEntity
8
0
100
AcDbSpline
70
0
71
2
72
6
73
3
74
0
42
0.000000001
43
0.0000000001
44
0.0000000001
40
0
40
0
40
0
40
1
40
1
40
1
10
9.2719245332567191
20
-3.3618187904357999
30
0
10
9.9701047319261527
20
-2.8381824493408292
30
0
10
11.344649829277227
20
-2.0527267456054799
30
0
0
SPLINE
5
338
100
AcDbEntity
8
0
100
AcDbSpline
70
0
71
2
72
6
73
3
74
0
42
0.000000001
43
0.0000000001
44
0.0000000001
40
0
40
0
40
0
40
1
40
1
40
1
10
11.344649829277227
20
-2.0527267456054799
30
0
10
11.901013888725469
20
-1.7363643646240345
30
0
10
12.217376269706914
20
-1.5400004386901966
30
0
0
SPLINE
5
339
100
AcDbEntity
8
0
100
AcDbSpline
70
0
71
2
72
6
73
3
74
0
42
0.000000001
43
0.0000000001
44
0.0000000001
40
0
40
0
40
0
40
1
40
1
40
1
10
12.217376269706914
20
-1.5400004386901966
30
0
10
12.413742579826543
20
-1.0381817817688122
30
0
10
12.817375697502316
20
-0.20909070968629262
30
0
0
SPLINE
5
340
100
AcDbEntity
8
0
100
AcDbSpline
70
0
71
2
72
6
73
3
74
0
42
0.000000001
43
0.0000000001
44
0.0000000001
40
0
40
0
40
0
40
1
40
1
40
1
10
12.817375697502316
20
-0.20909070968629262
30
0
10
13.264648951896847
20
0.68545460700987437
30
0
10
13.602831401237667
20
1.405454874038683
30
0
0
SPLINE
5
341
100
AcDbEntity
8
0
100
AcDbSpline
70
0
71
2
72
6
73
3
74
0
42
0.000000001
43
0.0000000001
44
0.0000000001
40
0
40
0
40
0
40
1
40
1
40
1
10
11.595561541923711
20
-2.8818178176879994
30
0
10
10.439198054680059
20
-3.4709095954895108
30
0
10
9.2282843965379691
20
-4.5618176460266202
30
0
0
SPLINE
5
342
100
AcDbEntity
8
0
100
AcDbSpline
70
0
71
2
72
6
73
3
74
0
42
0.000000001
43
0.0000000001
44
0.0000000001
40
0
40
0
40
0
40
1
40
1
40
1
10
9.2282843965379691
20
-4.5618176460266202
30
0
10
8.0064702409593558
20
-5.6854546070098948
30
0
10
8.0064702409593558
20
-6.656363010406503
30
0
0
SPLINE
5
343
100
AcDbEntity
8
0
100
AcDbSpline
70
0
71
2
72
6
73
3
74
0
42
0.000000001
43
0.0000000001
44
0.0000000001
40
0
40
0
40
0
40
1
40
1
40
1
10
8.0064702409593558
20
-6.656363010406503
30
0
10
8.0064702409593558
20
-6.8636369705200284
30
0
10
8.1264663118211722
20
-7.0054554939270108
30
0
0
SPLINE
5
344
100
AcDbEntity
8
0
100
AcDbSpline
70
0
71
2
72
6
73
3
74
0
42
0.000000001
43
0.0000000001
44
0.0000000001
40
0
40
0
40
0
40
1
40
1
40
1
10
8.1264663118211722
20
-7.0054554939270108
30
0
10
8.2901072877733206
20
-7.2018170356750577
30
0
10
8.5519242662279105
20
-7.2018170356750577
30
0
0
SPLINE
5
345
100
AcDbEntity
8
0
100
AcDbSpline
70
0
71
2
72
6
73
3
74
0
42
0.000000001
43
0.0000000001
44
0.0000000001
40
0
40
0
40
0
40
1
40
1
40
1
10
8.5519242662279105
20
-7.2018170356750577
30
0
10
9.3701053041307425
20
-7.2018170356750577
30
0
10
10.362832583793828
20
-5.4890906810760587
30
0
0
SPLINE
5
346
100
AcDbEntity
8
0
100
AcDbSpline
70
0
71
2
72
6
73
3
74
0
42
0.000000001
43
0.0000000001
44
0.0000000001
40
0
40
0
40
0
40
1
40
1
40
1
10
10.362832583793828
20
-5.4890906810760587
30
0
10
10.526468791374395
20
-5.2054548263549911
30
0
10
11.257379092582891
20
-3.601818084716808
30
0
0
SPLINE
5
347
100
AcDbEntity
8
0
100
AcDbSpline
70
0
71
2
72
6
73
3
74
0
42
0.000000001
43
0.0000000001
44
0.0000000001
40
0
40
0
40
0
40
1
40
1
40
1
10
11.257379092582891
20
-3.601818084716808
30
0
10
11.41010526598377
20
-3.2745456695556752
30
0
10
11.595561541923711
20
-2.8818178176879994
30
0
0
SPLINE
5
348
100
AcDbEntity
8
0
100
AcDbSpline
70
0
71
2
72
6
73
3
74
0
42
0.000000001
43
0.0000000001
44
0.0000000001
40
0
40
0
40
0
40
1
40
1
40
1
10
27.206471003898798
20
4.7218179702758478
30
0
10
28.297379054435908
20
7.0018184185027756
30
0
10
29.268286265739619
20
8.6927270889281889
30
0
0
SPLINE
5
349
100
AcDbEntity
8
0
100
AcDbSpline
70
0
71
2
72
6
73
3
74
0
42
0.000000001
43
0.0000000001
44
0.0000000001
40
0
40
0
40
0
40
1
40
1
40
1
10
29.268286265739619
20
8.6927270889281889
30
0
10
30.206468142875842
20
10.329091548919642
30
0
10
30.544650592216662
20
10.754545927047694
30
0
0
SPLINE
5
350
100
AcDbEntity
8
0
100
AcDbSpline
70
0
71
2
72
6
73
3
74
0
42
0.000000001
43
0.0000000001
44
0.0000000001
40
0
40
0
40
0
40
1
40
1
40
1
10
30.544650592216662
20
10.754545927047694
30
0
10
30.915563144096545
20
11.223636865615809
30
0
10
31.242835559257678
20
11.223636865615809
30
0
0
SPLINE
5
351
100
AcDbEntity
8
0
100
AcDbSpline
70
0
71
2
72
6
73
3
74
0
42
0.000000001
43
0.0000000001
44
0.0000000001
40
0
40
0
40
0
40
1
40
1
40
1
10
31.242835559257678
20
11.223636865615809
30
0
10
31.41737703264635
20
11.223636865615809
30
0
10
31.559197940239123
20
11.081818342208827
30
0
0
SPLINE
5
352
100
AcDbEntity
8
0
100
AcDbSpline
70
0
71
2
72
6
73
3
74
0
42
0.000000001
43
0.0000000001
44
0.0000000001
40
0
40
0
40
0
40
1
40
1
40
1
10
31.559197940239123
20
11.081818342208827
30
0
10
31.690108813652209
20
10.939999818801844
30
0
10
31.690108813652209
20
10.776363611221278
30
0
0
SPLINE
5
353
100
AcDbEntity
8
0
100
AcDbSpline
70
0
71
2
72
6
73
3
74
0
42
0.000000001
43
0.0000000001
44
0.0000000001
40
0
40
0
40
0
40
1
40
1
40
1
10
31.690108813652209
20
10.776363611221278
30
0
10
31.690108813652209
20
10.525454282760585
30
0
10
31.319196261772326
20
9.9363636970519664
30
0
0
SPLINE
5
354
100
AcDbEntity
8
0
100
AcDbSpline
70
0
71
2
72
6
73
3
74
0
42
0.000000001
43
0.0000000001
44
0.0000000001
40
0
40
0
40
0
40
1
40
1
40
1
10
31.319196261772326
20
9.9363636970519664
30
0
10
29.737379588493525
20
7.3836362361907613
30
0
10
28.417379893669306
20
4.7545456886291184
30
0
0
SPLINE
5
355
100
AcDbEntity
8
0
100
AcDbSpline
70
0
71
2
72
6
73
3
74
0
42
0.000000001
43
0.0000000001
44
0.0000000001
40
0
40
0
40
0
40
1
40
1
40
1
10
28.417379893669306
20
4.7545456886291184
30
0
10
26.890103854545771
20
1.6890907287597345
30
0
10
26.890103854545771
20
0.16181826591488591
30
0
0
SPLINE
5
356
100
AcDbEntity
8
0
100
AcDbSpline
70
0
71
2
72
6
73
3
74
0
42
0.000000001
43
0.0000000001
44
0.0000000001
40
0
40
0
40
0
40
1
40
1
40
1
10
26.890103854545771
20
0.16181826591488591
30
0
10
26.890103854545771
20
-0.46000003814700374
30
0
10
27.130105533012568
20
-0.82000017166140804
30
0
0
SPLINE
5
357
100
AcDbEntity
8
0
100
AcDbSpline
70
0
71
2
72
6
73
3
74
0
42
0.000000001
43
0.0000000001
44
0.0000000001
40
0
40
0
40
0
40
1
40
1
40
1
10
27.130105533012568
20
-0.82000017166140804
30
0
10
27.173740901359736
20
-0.89636325836184749
30
0
10
27.522833384880254
20
-1.1690902709961248
30
0
0
SPLINE
5
358
100
AcDbEntity
8
0
100
AcDbSpline
70
0
71
2
72
6
73
3
74
0
42
0.000000001
43
0.0000000001
44
0.0000000001
40
0
40
0
40
0
40
1
40
1
40
1
10
27.522833384880254
20
-1.1690902709961248
30
0
10
27.588288821586797
20
-1.2236356735229803
30
0
10
27.588288821586797
20
-1.3872730731964422
30
0
0
SPLINE
5
359
100
AcDbEntity
8
0
100
AcDbSpline
70
0
71
2
72
6
73
3
74
0
42
0.000000001
43
0.0000000001
44
0.0000000001
40
0
40
0
40
0
40
1
40
1
40
1
10
27.588288821586797
20
-1.3872730731964422
30
0
10
27.588288821586797
20
-1.6054546833038641
30
0
10
27.419197596916387
20
-1.7854547500610662
30
0
0
SPLINE
5
360
100
AcDbEntity
8
0
100
AcDbSpline
70
0
71
2
72
6
73
3
74
0
42
0.000000001
43
0.0000000001
44
0.0000000001
40
0
40
0
40
0
40
1
40
1
40
1
10
27.419197596916387
20
-1.7854547500610662
30
0
10
27.250106372245977
20
-1.9654548168182684
30
0
10
27.042834796318242
20
-1.9654548168182684
30
0
0
SPLINE
5
361
100
AcDbEntity
8
0
100
AcDbSpline
70
0
71
2
72
6
73
3
74
0
42
0.000000001
43
0.0000000001
44
0.0000000001
40
0
40
0
40
0
40
1
40
1
40
1
10
27.042834796318242
20
-1.9654548168182684
30
0
10
26.791923083671758
20
-1.9654548168182684
30
0
10
26.48647073687
20
-1.6600000858307196
30
0
0
SPLINE
5
362
100
AcDbEntity
8
0
100
AcDbSpline
70
0
71
2
72
6
73
3
74
0
42
0.000000001
43
0.0000000001
44
0.0000000001
40
0
40
0
40
0
40
1
40
1
40
1
10
26.48647073687
20
-1.6600000858307196
30
0
10
26.050107516655157
20
-1.2236356735229781
30
0
10
25.962832011589228
20
-0.65636396408083941
30
0
0
SPLINE
5
363
100
AcDbEntity
8
0
100
AcDbSpline
70
0
71
2
72
6
73
3
74
0
42
0.000000001
43
0.0000000001
44
0.0000000001
40
0
40
0
40
0
40
1
40
1
40
1
10
25.962832011589228
20
-0.65636396408083941
30
0
10
25.930106677421747
20
-0.41636347770693805
30
0
10
25.886471309074579
20
0.23818254470822309
30
0
0
SPLINE
5
364
100
AcDbEntity
8
0
100
AcDbSpline
70
0
71
2
72
6
73
3
74
0
42
0.000000001
43
0.0000000001
44
0.0000000001
40
0
40
0
40
0
40
1
40
1
40
1
10
25.886471309074579
20
0.23818254470822309
30
0
10
24.741013087639043
20
-1.8236362934112837
30
0
10
23.704650439628789
20
-1.8236362934112815
30
0
0
SPLINE
5
365
100
AcDbEntity
8
0
100
AcDbSpline
70
0
71
2
72
6
73
3
74
0
42
0.000000001
43
0.0000000001
44
0.0000000001
40
0
40
0
40
0
40
1
40
1
40
1
10
23.704650439628789
20
-1.8236362934112815
30
0
10
23.104651011833379
20
-1.8236362934112815
30
0
10
22.744653262504766
20
-1.1472725868225342
30
0
0
SPLINE
5
366
100
AcDbEntity
8
0
100
AcDbSpline
70
0
71
2
72
6
73
3
74
0
42
0.000000001
43
0.0000000001
44
0.0000000001
40
0
40
0
40
0
40
1
40
1
40
1
10
22.744653262504766
20
-1.1472725868225342
30
0
10
22.504651584037958
20
-0.69999933242800294
30
0
10
22.504651584037958
20
-0.13272762298586427
30
0
0
SPLINE
5
367
100
AcDbEntity
8
0
100
AcDbSpline
70
0
71
2
72
6
73
3
74
0
42
0.000000001
43
0.0000000001
44
0.0000000001
40
0
40
0
40
0
40
1
40
1
40
1
10
22.504651584037958
20
-0.13272762298586427
30
0
10
22.504651584037958
20
1.5690910816192383
30
0
10
23.748285807975947
20
3.2927274703979226
30
0
0
SPLINE
5
368
100
AcDbEntity
8
0
100
AcDbSpline
70
0
71
2
72
6
73
3
74
0
42
0.000000001
43
0.0000000001
44
0.0000000001
40
0
40
0
40
0
40
1
40
1
40
1
10
23.748285807975947
20
3.2927274703979226
30
0
10
24.981014766105829
20
4.9945461750030233
30
0
10
26.399195231804072
20
4.9945461750030216
30
0
0
SPLINE
5
369
100
AcDbEntity
8
0
100
AcDbSpline
70
0
71
2
72
6
73
3
74
0
42
0.000000001
43
0.0000000001
44
0.0000000001
40
0
40
0
40
0
40
1
40
1
40
1
10
26.399195231804072
20
4.9945461750030216
30
0
10
26.791923083671747
20
4.9945461750030207
30
0
10
27.206471003898798
20
4.7218179702758478
30
0
0
SPLINE
5
370
100
AcDbEntity
8
0
100
AcDbSpline
70
0
71
2
72
6
73
3
74
0
42
0.000000001
43
0.0000000001
44
0.0000000001
40
0
40
0
40
0
40
1
40
1
40
1
10
26.835563220390497
20
3.8272726535796808
30
0
10
26.541016139396845
20
4.0236365795135196
30
0
10
26.322834529289423
20
4.0236365795135196
30
0
0
SPLINE
5
371
100
AcDbEntity
8
0
100
AcDbSpline
70
0
71
2
72
6
73
3
74
0
42
0.000000001
43
0.0000000001
44
0.0000000001
40
0
40
0
40
0
40
1
40
1
40
1
10
26.322834529289423
20
4.0236365795135196
30
0
10
25.406467952140986
20
4.0236365795135214
30
0
10
24.588286914238154
20
2.8999996185302446
30
0
0
SPLINE
5
372
100
AcDbEntity
8
0
100
AcDbSpline
70
0
71
2
72
6
73
3
74
0
42
0.000000001
43
0.0000000001
44
0.0000000001
40
0
40
0
40
0
40
1
40
1
40
1
10
24.588286914238154
20
2.8999996185302446
30
0
10
23.508288897880732
20
1.4381814002990456
30
0
10
23.508288897880732
20
0.074546337127658902
30
0
0
SPLINE
5
373
100
AcDbEntity
8
0
100
AcDbSpline
70
0
71
2
72
6
73
3
74
0
42
0.000000001
43
0.0000000001
44
0.0000000001
40
0
40
0
40
0
40
1
40
1
40
1
10
23.508288897880732
20
0.074546337127658902
30
0
10
23.508288897880732
20
-0.089091062545803013
30
0
10
23.573744334587275
20
-0.23090839385988993
30
0
0
SPLINE
5
374
100
AcDbEntity
8
0
100
AcDbSpline
70
0
71
2
72
6
73
3
74
0
42
0.000000001
43
0.0000000001
44
0.0000000001
40
0
40
0
40
0
40
1
40
1
40
1
10
23.573744334587275
20
-0.23090839385988993
30
0
10
23.704650439628779
20
-0.50363659858706278
30
0
10
23.966472186454951
20
-0.50363659858706278
30
0
0
SPLINE
5
375
100
AcDbEntity
8
0
100
AcDbSpline
70
0
71
2
72
6
73
3
74
0
42
0.000000001
43
0.0000000001
44
0.0000000001
40
0
40
0
40
0
40
1
40
1
40
1
10
23.966472186454951
20
-0.50363659858706278
30
0
10
24.348290004142939
20
-0.50363659858706278
30
0
10
24.893744029411494
20
0.23818254470822309
30
0
0
SPLINE
5
376
100
AcDbEntity
8
0
100
AcDbSpline
70
0
71
2
72
6
73
3
74
0
42
0.000000001
43
0.0000000001
44
0.0000000001
40
0
40
0
40
0
40
1
40
1
40
1
10
24.893744029411494
20
0.23818254470822309
30
0
10
25.624649562248408
20
1.2199997901916215
30
0
10
26.246469058403193
20
2.5618183612823198
30
0
0
SPLINE
5
377
100
AcDbEntity
8
0
100
AcDbSpline
70
0
71
2
72
6
73
3
74
0
42
0.000000001
43
0.0000000001
44
0.0000000001
40
0
40
0
40
0
40
1
40
1
40
1
10
26.246469058403193
20
2.5618183612823198
30
0
10
26.464650668510615
20
3.0200004577636408
30
0
10
26.671922244438349
20
3.478182554244964
30
0
0
SPLINE
5
378
100
AcDbEntity
8
0
100
AcDbSpline
70
0
71
2
72
6
73
3
74
0
42
0.000000001
43
0.0000000001
44
0.0000000001
40
0
40
0
40
0
40
1
40
1
40
1
10
26.671922244438349
20
3.478182554244964
30
0
10
26.671922244438349
20
3.478182554244964
30
0
10
26.770107783683954
20
3.6854553222655939
30
0
0
LINE
5
379
100
AcDbEntity
8
0
100
AcDbLine
10
26.770107783683954
20
3.6854553222655939
30
0
11
26.835563220390497
21
3.8272726535796808
31
0
0
SPLINE
5
380
100
AcDbEntity
8
0
100
AcDbSpline
70
0
71
2
72
6
73
3
74
0
42
0.000000001
43
0.0000000001
44
0.0000000001
40
0
40
0
40
0
40
1
40
1
40
1
10
31.504647769340693
20
4.8854547739028567
30
0
10
31.690104045280634
20
4.8854547739028567
30
0
10
31.810104884514033
20
4.743636846542322
30
0
0
SPLINE
5
381
100
AcDbEntity
8
0
100
AcDbSpline
70
0
71
2
72
6
73
3
74
0
42
0.000000001
43
0.0000000001
44
0.0000000001
40
0
40
0
40
0
40
1
40
1
40
1
10
31.810104884514033
20
4.743636846542322
30
0
10
31.897375621208369
20
4.6236366033553713
30
0
10
31.897375621208369
20
4.5036369562148684
30
0
0
SPLINE
5
382
100
AcDbEntity
8
0
100
AcDbSpline
70
0
71
2
72
6
73
3
74
0
42
0.000000001
43
0.0000000001
44
0.0000000001
40
0
40
0
40
0
40
1
40
1
40
1
10
31.897375621208369
20
4.5036369562148684
30
0
10
31.897375621208369
20
4.3072730302810305
30
0
10
31.581013240226923
20
3.8490915298461537
30
0
0
SPLINE
5
383
100
AcDbEntity
8
0
100
AcDbSpline
70
0
71
2
72
6
73
3
74
0
42
0.000000001
43
0.0000000001
44
0.0000000001
40
0
40
0
40
0
40
1
40
1
40
1
10
31.581013240226923
20
3.8490915298461537
30
0
10
30.446469821342646
20
2.0927274227141979
30
0
10
29.966466464409052
20
0.95818161964412951
30
0
0
SPLINE
5
384
100
AcDbEntity
8
0
100
AcDbSpline
70
0
71
2
72
6
73
3
74
0
42
0.000000001
43
0.0000000001
44
0.0000000001
40
0
40
0
40
0
40
1
40
1
40
1
10
29.966466464409052
20
0.95818161964412951
30
0
10
29.45374254167956
20
-0.2090907096863126
30
0
10
29.061014689811895
20
-1.4418184757232999
30
0
0
SPLINE
5
385
100
AcDbEntity
8
0
100
AcDbSpline
70
0
71
2
72
6
73
3
74
0
42
0.000000001
43
0.0000000001
44
0.0000000001
40
0
40
0
40
0
40
1
40
1
40
1
10
29.061014689811895
20
-1.4418184757232999
30
0
10
28.886468448051641
20
-1.9872725009918546
30
0
10
28.515555896171758
20
-1.9872725009918546
30
0
0
SPLINE
5
386
100
AcDbEntity
8
0
100
AcDbSpline
70
0
71
2
72
6
73
3
74
0
42
0.000000001
43
0.0000000001
44
0.0000000001
40
0
40
0
40
0
40
1
40
1
40
1
10
28.515555896171758
20
-1.9872725009918546
30
0
10
28.297374286064336
20
-1.9872725009918546
30
0
10
28.166468181022832
20
-1.8127274513244962
30
0
0
SPLINE
5
387
100
AcDbEntity
8
0
100
AcDbSpline
70
0
71
2
72
6
73
3
74
0
42
0.000000001
43
0.0000000001
44
0.0000000001
40
0
40
0
40
0
40
1
40
1
40
1
10
28.166468181022832
20
-1.8127274513244962
30
0
10
28.046467341789434
20
-1.6709089279175116
30
0
10
28.046467341789434
20
-1.5072727203369451
30
0
0
SPLINE
5
388
100
AcDbEntity
8
0
100
AcDbSpline
70
0
71
2
72
6
73
3
74
0
42
0.000000001
43
0.0000000001
44
0.0000000001
40
0
40
0
40
0
40
1
40
1
40
1
10
28.046467341789434
20
-1.5072727203369451
30
0
10
28.046467341789434
20
-1.1800003051758123
30
0
10
28.744647540458857
20
0.6745457649230624
30
0
0
SPLINE
5
389
100
AcDbEntity
8
0
100
AcDbSpline
70
0
71
2
72
6
73
3
74
0
42
0.000000001
43
0.0000000001
44
0.0000000001
40
0
40
0
40
0
40
1
40
1
40
1
10
28.744647540458857
20
0.6745457649230624
30
0
10
29.290101565727412
20
2.1363639831542636
30
0
10
30.511920489677607
20
3.9036369323730113
30
0
0
SPLINE
5
390
100
AcDbEntity
8
0
100
AcDbSpline
70
0
71
2
72
6
73
3
74
0
42
0.000000001
43
0.0000000001
44
0.0000000001
40
0
40
0
40
0
40
1
40
1
40
1
10
30.511920489677607
20
3.9036369323730113
30
0
10
30.904648341545283
20
4.4818186759948375
30
0
10
31.101014651664912
20
4.6781820058822277
30
0
0
SPLINE
5
391
100
AcDbEntity
8
0
100
AcDbSpline
70
0
71
2
72
6
73
3
74
0
42
0.000000001
43
0.0000000001
44
0.0000000001
40
0
40
0
40
0
40
1
40
1
40
1
10
31.101014651664912
20
4.6781820058822277
30
0
10
31.297376193412958
20
4.8854547739028567
30
0
10
31.504647769340693
20
4.8854547739028567
30
0
0
SPLINE
5
392
100
AcDbEntity
8
0
100
AcDbSpline
70
0
71
2
72
6
73
3
74
0
42
0.000000001
43
0.0000000001
44
0.0000000001
40
0
40
0
40
0
40
1
40
1
40
1
10
33.577377833732783
20
8.9327275753020849
30
0
10
34.068286456474482
20
8.9327275753020849
30
0
10
34.068286456474482
20
8.4309101104735937
30
0
0
SPLINE
5
393
100
AcDbEntity
8
0
100
AcDbSpline
70
0
71
2
72
6
73
3
74
0
42
0.000000001
43
0.0000000001
44
0.0000000001
40
0
40
0
40
0
40
1
40
1
40
1
10
34.068286456474482
20
8.4309101104735937
30
0
10
34.068286456474482
20
7.9727280139922696
30
0
10
33.588283099540888
20
7.4163639545440283
30
0
0
SPLINE
5
394
100
AcDbEntity
8
0
100
AcDbSpline
70
0
71
2
72
6
73
3
74
0
42
0.000000001
43
0.0000000001
44
0.0000000001
40
0
40
0
40
0
40
1
40
1
40
1
10
33.588283099540888
20
7.4163639545440283
30
0
10
33.130104579338251
20
6.8818187713622656
30
0
10
32.704651393303095
20
6.8818187713622674
30
0
0
SPLINE
5
395
100
AcDbEntity
8
0
100
AcDbSpline
70
0
71
2
72
6
73
3
74
0
42
0.000000001
43
0.0000000001
44
0.0000000001
40
0
40
0
40
0
40
1
40
1
40
1
10
32.704651393303095
20
6.8818187713622674
30
0
10
32.497375049003779
20
6.8818187713622674
30
0
10
32.366468943962275
20
7.0345461368560418
30
0
0
SPLINE
5
396
100
AcDbEntity
8
0
100
AcDbSpline
70
0
71
2
72
6
73
3
74
0
42
0.000000001
43
0.0000000001
44
0.0000000001
40
0
40
0
40
0
40
1
40
1
40
1
10
32.366468943962275
20
7.0345461368560418
30
0
10
32.235558070549189
20
7.1763640642165765
30
0
10
32.235558070549189
20
7.3836368322372063
30
0
0
SPLINE
5
397
100
AcDbEntity
8
0
100
AcDbSpline
70
0
71
2
72
6
73
3
74
0
42
0.000000001
43
0.0000000001
44
0.0000000001
40
0
40
0
40
0
40
1
40
1
40
1
10
32.235558070549189
20
7.3836368322372063
30
0
10
32.235558070549189
20
7.9072725772857293
30
0
10
32.813742198356806
20
8.496364355087243
30
0
0
SPLINE
5
398
100
AcDbEntity
8
0
100
AcDbSpline
70
0
71
2
72
6
73
3
74
0
42
0.000000001
43
0.0000000001
44
0.0000000001
40
0
40
0
40
0
40
1
40
1
40
1
10
32.813742198356806
20
8.496364355087243
30
0
10
33.239195384391962
20
8.9327275753020849
30
0
10
33.577377833732783
20
8.9327275753020849
30
0
0
LINE
5
399
100
AcDbEntity
8
0
100
AcDbLine
10
32.442834414848505
20
0.44545412063594858
30
0
11
32.442834414848505
21
0.24909019470211069
31
0
0
SPLINE
5
400
100
AcDbEntity
8
0
100
AcDbSpline
70
0
71
2
72
6
73
3
74
0
42
0.000000001
43
0.0000000001
44
0.0000000001
40
0
40
0
40
0
40
1
40
1
40
1
10
32.442834414848505
20
0.24909019470211069
30
0
10
32.442834414848505
20
0.0090909004211048305
30
0
10
32.562835254081904
20
-0.16545414924625357
30
0
0
SPLINE
5
401
100
AcDbEntity
8
0
100
AcDbSpline
70
0
71
2
72
6
73
3
74
0
42
0.000000001
43
0.0000000001
44
0.0000000001
40
0
40
0
40
0
40
1
40
1
40
1
10
32.562835254081904
20
-0.16545414924625357
30
0
10
32.835562266716181
20
-0.56909084320072134
30
0
10
33.457381762870966
20
-0.56909084320072356
30
0
0
SPLINE
5
402
100
AcDbEntity
8
0
100
AcDbSpline
70
0
71
2
72
6
73
3
74
0
42
0.000000001
43
0.0000000001
44
0.0000000001
40
0
40
0
40
0
40
1
40
1
40
1
10
33.457381762870966
20
-0.56909084320072356
30
0
10
34.821016826042353
20
-0.56909084320072356
30
0
10
36.610109843620478
20
1.525454521179157
30
0
0
SPLINE
5
403
100
AcDbEntity
8
0
100
AcDbSpline
70
0
71
2
72
6
73
3
74
0
42
0.000000001
43
0.0000000001
44
0.0000000001
40
0
40
0
40
0
40
1
40
1
40
1
10
36.610109843620478
20
1.525454521179157
30
0
10
36.926476992973519
20
1.8854546546935591
30
0
10
37.144658603080941
20
1.8854546546935591
30
0
0
SPLINE
5
404
100
AcDbEntity
8
0
100
AcDbSpline
70
0
71
2
72
6
73
3
74
0
42
0.000000001
43
0.0000000001
44
0.0000000001
40
0
40
0
40
0
40
1
40
1
40
1
10
37.144658603080941
20
1.8854546546935591
30
0
10
37.26465944231434
20
1.8854546546935591
30
0
10
37.362840213188363
20
1.7654550075530562
30
0
0
SPLINE
5
405
100
AcDbEntity
8
0
100
AcDbSpline
70
0
71
2
72
6
73
3
74
0
42
0.000000001
43
0.0000000001
44
0.0000000001
40
0
40
0
40
0
40
1
40
1
40
1
10
37.362840213188363
20
1.7654550075530562
30
0
10
37.428290881523324
20
1.6781818866729292
30
0
10
37.428290881523324
20
1.6018176078795943
30
0
0
SPLINE
5
406
100
AcDbEntity
8
0
100
AcDbSpline
70
0
71
2
72
6
73
3
74
0
42
0.000000001
43
0.0000000001
44
0.0000000001
40
0
40
0
40
0
40
1
40
1
40
1
10
37.428290881523324
20
1.6018176078795943
30
0
10
37.428290881523324
20
1.176364421844438
30
0
10
36.381018199333369
20
0.1618182659148748
30
0
0
SPLINE
5
407
100
AcDbEntity
8
0
100
AcDbSpline
70
0
71
2
72
6
73
3
74
0
42
0.000000001
43
0.0000000001
44
0.0000000001
40
0
40
0
40
0
40
1
40
1
40
1
10
36.381018199333369
20
0.1618182659148748
30
0
10
35.562837161430537
20
-0.63454508781437324
30
0
10
34.635565318474008
20
-1.1363637447357577
30
0
0
SPLINE
5
408
100
AcDbEntity
8
0
100
AcDbSpline
70
0
71
2
72
6
73
3
74
0
42
0.000000001
43
0.0000000001
44
0.0000000001
40
0
40
0
40
0
40
1
40
1
40
1
10
34.635565318474008
20
-1.1363637447357577
30
0
10
33.708293475517465
20
-1.638181209564249
30
0
10
32.911927737602426
20
-1.6381812095642467
30
0
0
SPLINE
5
409
100
AcDbEntity
8
0
100
AcDbSpline
70
0
71
2
72
6
73
3
74
0
42
0.000000001
43
0.0000000001
44
0.0000000001
40
0
40
0
40
0
40
1
40
1
40
1
10
32.911927737602426
20
-1.6381812095642467
30
0
10
32.093746699699594
20
-1.6381812095642467
30
0
10
31.624653376945684
20
-1.0709095001221081
30
0
0
SPLINE
5
410
100
AcDbEntity
8
0
100
AcDbSpline
70
0
71
2
72
6
73
3
74
0
42
0.000000001
43
0.0000000001
44
0.0000000001
40
0
40
0
40
0
40
1
40
1
40
1
10
31.624653376945684
20
-1.0709095001221081
30
0
10
31.308290995964228
20
-0.67818164825443006
30
0
10
31.308290995964228
20
-0.0018179416656849412
30
0
0
SPLINE
5
411
100
AcDbEntity
8
0
100
AcDbSpline
70
0
71
2
72
6
73
3
74
0
42
0.000000001
43
0.0000000001
44
0.0000000001
40
0
40
0
40
0
40
1
40
1
40
1
10
31.308290995964228
20
-0.0018179416656849412
30
0
10
31.308290995964228
20
1.8418180942535045
30
0
10
33.042838611015497
20
3.6090910434722523
30
0
0
SPLINE
5
412
100
AcDbEntity
8
0
100
AcDbSpline
70
0
71
2
72
6
73
3
74
0
42
0.000000001
43
0.0000000001
44
0.0000000001
40
0
40
0
40
0
40
1
40
1
40
1
10
33.042838611015497
20
3.6090910434722523
30
0
10
34.450109042534052
20
5.0490909814834195
30
0
10
35.497381724723994
20
5.0490909814834186
30
0
0
SPLINE
5
413
100
AcDbEntity
8
0
100
AcDbSpline
70
0
71
2
72
6
73
3
74
0
42
0.000000001
43
0.0000000001
44
0.0000000001
40
0
40
0
40
0
40
1
40
1
40
1
10
35.497381724723994
20
5.0490909814834186
30
0
10
35.781018771537958
20
5.0490909814834168
30
0
10
36.010110415825068
20
4.8745459318160584
30
0
0
SPLINE
5
414
100
AcDbEntity
8
0
100
AcDbSpline
70
0
71
2
72
6
73
3
74
0
42
0.000000001
43
0.0000000001
44
0.0000000001
40
0
40
0
40
0
40
1
40
1
40
1
10
36.010110415825068
20
4.8745459318160584
30
0
10
36.293747462639033
20
4.6454548835753968
30
0
10
36.293747462639033
20
4.2745459079742005
30
0
0
SPLINE
5
415
100
AcDbEntity
8
0
100
AcDbSpline
70
0
71
2
72
6
73
3
74
0
42
0.000000001
43
0.0000000001
44
0.0000000001
40
0
40
0
40
0
40
1
40
1
40
1
10
36.293747462639033
20
4.2745459079742005
30
0
10
36.293747462639033
20
3.6963629722594793
30
0
10
35.759198703178583
20
2.8563642501830633
30
0
0
SPLINE
5
416
100
AcDbEntity
8
0
100
AcDbSpline
70
0
71
2
72
6
73
3
74
0
42
0.000000001
43
0.0000000001
44
0.0000000001
40
0
40
0
40
0
40
1
40
1
40
1
10
35.759198703178583
20
2.8563642501830633
30
0
10
34.657380618461787
20
1.1109089851378995
30
0
10
32.442834414848505
20
0.44545412063594858
30
0
0
SPLINE
5
417
100
AcDbEntity
8
0
100
AcDbSpline
70
0
71
2
72
6
73
3
74
0
42
0.000000001
43
0.0000000001
44
0.0000000001
40
0
40
0
40
0
40
1
40
1
40
1
10
32.682836093315302
20
1.2963640689849476
30
0
10
33.446471728691279
20
1.5581822395324307
30
0
10
33.882834948906122
20
1.8854546546935635
30
0
0
SPLINE
5
418
100
AcDbEntity
8
0
100
AcDbSpline
70
0
71
2
72
6
73
3
74
0
42
0.000000001
43
0.0000000001
44
0.0000000001
40
0
40
0
40
0
40
1
40
1
40
1
10
33.882834948906122
20
1.8854546546935635
30
0
10
34.646470584282099
20
2.4745452404021817
30
0
10
35.09374383867663
20
3.2163643836974676
30
0
0
SPLINE
5
419
100
AcDbEntity
8
0
100
AcDbSpline
70
0
71
2
72
6
73
3
74
0
42
0.000000001
43
0.0000000001
44
0.0000000001
40
0
40
0
40
0
40
1
40
1
40
1
10
35.09374383867663
20
3.2163643836974676
30
0
10
35.257380046257197
20
3.4781813621520574
30
0
10
35.257380046257197
20
3.6854553222655828
30
0
0
SPLINE
5
420
100
AcDbEntity
8
0
100
AcDbSpline
70
0
71
2
72
6
73
3
74
0
42
0.000000001
43
0.0000000001
44
0.0000000001
40
0
40
0
40
0
40
1
40
1
40
1
10
35.257380046257197
20
3.6854553222655828
30
0
10
35.257380046257197
20
3.9036369323730047
30
0
10
35.050108470329462
20
3.9036369323730069
30
0
0
SPLINE
5
421
100
AcDbEntity
8
0
100
AcDbSpline
70
0
71
2
72
6
73
3
74
0
42
0.000000001
43
0.0000000001
44
0.0000000001
40
0
40
0
40
0
40
1
40
1
40
1
10
35.050108470329462
20
3.9036369323730069
30
0
10
34.766471423515497
20
3.9036369323730069
30
0
10
34.242837466606318
20
3.4781813621520596
30
0
0
SPLINE
5
422
100
AcDbEntity
8
0
100
AcDbSpline
70
0
71
2
72
6
73
3
74
0
42
0.000000001
43
0.0000000001
44
0.0000000001
40
0
40
0
40
0
40
1
40
1
40
1
10
34.242837466606318
20
3.4781813621520596
30
0
10
33.304655589470087
20
2.7254545688628773
30
0
10
32.682836093315302
20
1.2963640689849476
30
0
0
ENDSEC
0
SECTION
2
OBJECTS
0
DICTIONARY
5
C
100
AcDbDictionary
3
ACAD_GROUP
350
D
3
ACAD_MLINESTYLE
350
17
0
DICTIONARY
5
D
100
AcDbDictionary
0
DICTIONARY
5
1A
330
C
100
AcDbDictionary
0
DICTIONARY
5
17
100
AcDbDictionary
0
ENDSEC
0
EOF
