  0
SECTION
  2
HEADER
  9
$ACADVER
  1
AC1027
  9
$ACADMAINTVER
 70
   125
  9
$DWGCODEPAGE
  3
ANSI_1252
  9
$REQUIREDVERSIONS
160
                 0
  9
$INSBASE
 10
0.0
 20
0.0
 30
0.0
  9
$EXTMIN
 10
1.000000000000000E+20
 20
1.000000000000000E+20
 30
1.000000000000000E+20
  9
$EXTMAX
 10
-1.000000000000000E+20
 20
-1.000000000000000E+20
 30
-1.000000000000000E+20
  9
$LIMMIN
 10
0.0
 20
0.0
  9
$LIMMAX
 10
12.0
 20
9.0
  9
$ORTHOMODE
 70
     0
  9
$REGENMODE
 70
     1
  9
$FILLMODE
 70
     1
  9
$QTEXTMODE
 70
     0
  9
$MIRRTEXT
 70
     0
  9
$LTSCALE
 40
1.0
  9
$ATTMODE
 70
     1
  9
$TEXTSIZE
 40
0.2
  9
$TRACEWID
 40
0.05
  9
$TEXTSTYLE
  7
Standard
  9
$CLAYER
  8
0
  9
$CELTYPE
  6
ByLayer
  9
$CECOLOR
 62
   256
  9
$CELTSCALE
 40
1.0
  9
$DISPSILH
 70
     0
  9
$DIMSCALE
 40
1.0
  9
$DIMASZ
 40
0.18
  9
$DIMEXO
 40
0.0625
  9
$DIMDLI
 40
0.38
  9
$DIMRND
 40
0.0
  9
$DIMDLE
 40
0.0
  9
$DIMEXE
 40
0.18
  9
$DIMTP
 40
0.0
  9
$DIMTM
 40
0.0
  9
$DIMTXT
 40
0.18
  9
$DIMCEN
 40
0.09
  9
$DIMTSZ
 40
0.0
  9
$DIMTOL
 70
     0
  9
$DIMLIM
 70
     0
  9
$DIMTIH
 70
     1
  9
$DIMTOH
 70
     1
  9
$DIMSE1
 70
     0
  9
$DIMSE2
 70
     0
  9
$DIMTAD
 70
     0
  9
$DIMZIN
 70
     0
  9
$DIMBLK
  1

  9
$DIMASO
 70
     1
  9
$DIMSHO
 70
     1
  9
$DIMPOST
  1

  9
$DIMAPOST
  1

  9
$DIMALT
 70
     0
  9
$DIMALTD
 70
     2
  9
$DIMALTF
 40
25.4
  9
$DIMLFAC
 40
1.0
  9
$DIMTOFL
 70
     0
  9
$DIMTVP
 40
0.0
  9
$DIMTIX
 70
     0
  9
$DIMSOXD
 70
     0
  9
$DIMSAH
 70
     0
  9
$DIMBLK1
  1

  9
$DIMBLK2
  1

  9
$DIMSTYLE
  2
Standard
  9
$DIMCLRD
 70
     0
  9
$DIMCLRE
 70
     0
  9
$DIMCLRT
 70
     0
  9
$DIMTFAC
 40
1.0
  9
$DIMGAP
 40
0.09
  9
$DIMJUST
 70
     0
  9
$DIMSD1
 70
     0
  9
$DIMSD2
 70
     0
  9
$DIMTOLJ
 70
     1
  9
$DIMTZIN
 70
     0
  9
$DIMALTZ
 70
     0
  9
$DIMALTTZ
 70
     0
  9
$DIMUPT
 70
     0
  9
$DIMDEC
 70
     4
  9
$DIMTDEC
 70
     4
  9
$DIMALTU
 70
     2
  9
$DIMALTTD
 70
     2
  9
$DIMTXSTY
  7
Standard
  9
$DIMAUNIT
 70
     0
  9
$DIMADEC
 70
     0
  9
$DIMALTRND
 40
0.0
  9
$DIMAZIN
 70
     0
  9
$DIMDSEP
 70
    46
  9
$DIMATFIT
 70
     3
  9
$DIMFRAC
 70
     0
  9
$DIMLDRBLK
  1

  9
$DIMLUNIT
 70
     2
  9
$DIMLWD
 70
    -2
  9
$DIMLWE
 70
    -2
  9
$DIMTMOVE
 70
     0
  9
$DIMFXL
 40
1.0
  9
$DIMFXLON
 70
     0
  9
$DIMJOGANG
 40
0.7853981633974483
  9
$DIMTFILL
 70
     0
  9
$DIMTFILLCLR
 70
     0
  9
$DIMARCSYM
 70
     0
  9
$DIMLTYPE
  6

  9
$DIMLTEX1
  6

  9
$DIMLTEX2
  6

  9
$DIMTXTDIRECTION
 70
     0
  9
$LUNITS
 70
     2
  9
$LUPREC
 70
     4
  9
$SKETCHINC
 40
0.1
  9
$FILLETRAD
 40
0.0
  9
$AUNITS
 70
     0
  9
$AUPREC
 70
     0
  9
$MENU
  1
.
  9
$ELEVATION
 40
0.0
  9
$PELEVATION
 40
0.0
  9
$THICKNESS
 40
0.0
  9
$LIMCHECK
 70
     0
  9
$CHAMFERA
 40
0.0
  9
$CHAMFERB
 40
0.0
  9
$CHAMFERC
 40
0.0
  9
$CHAMFERD
 40
0.0
  9
$SKPOLY
 70
     0
  9
$TDCREATE
 40
2459886.172858796
  9
$TDUCREATE
 40
2459886.172858796
  9
$TDUPDATE
 40
2459886.172858796
  9
$TDUUPDATE
 40
2459886.172858796
  9
$TDINDWG
 40
0.0000000000
  9
$TDUSRTIMER
 40
0.0000000000
  9
$USRTIMER
 70
     1
  9
$ANGBASE
 50
0.0
  9
$ANGDIR
 70
     0
  9
$PDMODE
 70
     0
  9
$PDSIZE
 40
0.0
  9
$PLINEWID
 40
0.0
  9
$SPLFRAME
 70
     0
  9
$SPLINETYPE
 70
     6
  9
$SPLINESEGS
 70
     8
  9
$HANDSEED
  5
1CF
  9
$SURFTAB1
 70
     6
  9
$SURFTAB2
 70
     6
  9
$SURFTYPE
 70
     6
  9
$SURFU
 70
     6
  9
$SURFV
 70
     6
  9
$UCSBASE
  2

  9
$UCSNAME
  2

  9
$UCSORG
 10
0.0
 20
0.0
 30
0.0
  9
$UCSXDIR
 10
1.0
 20
0.0
 30
0.0
  9
$UCSYDIR
 10
0.0
 20
1.0
 30
0.0
  9
$UCSORTHOREF
  2

  9
$UCSORTHOVIEW
 70
     0
  9
$UCSORGTOP
 10
0.0
 20
0.0
 30
0.0
  9
$UCSORGBOTTOM
 10
0.0
 20
0.0
 30
0.0
  9
$UCSORGLEFT
 10
0.0
 20
0.0
 30
0.0
  9
$UCSORGRIGHT
 10
0.0
 20
0.0
 30
0.0
  9
$UCSORGFRONT
 10
0.0
 20
0.0
 30
0.0
  9
$UCSORGBACK
 10
0.0
 20
0.0
 30
0.0
  9
$PUCSBASE
  2

  9
$PUCSNAME
  2

  9
$PUCSORG
 10
0.0
 20
0.0
 30
0.0
  9
$PUCSXDIR
 10
1.0
 20
0.0
 30
0.0
  9
$PUCSYDIR
 10
0.0
 20
1.0
 30
0.0
  9
$PUCSORTHOREF
  2

  9
$PUCSORTHOVIEW
 70
     0
  9
$PUCSORGTOP
 10
0.0
 20
0.0
 30
0.0
  9
$PUCSORGBOTTOM
 10
0.0
 20
0.0
 30
0.0
  9
$PUCSORGLEFT
 10
0.0
 20
0.0
 30
0.0
  9
$PUCSORGRIGHT
 10
0.0
 20
0.0
 30
0.0
  9
$PUCSORGFRONT
 10
0.0
 20
0.0
 30
0.0
  9
$PUCSORGBACK
 10
0.0
 20
0.0
 30
0.0
  9
$USERI1
 70
     0
  9
$USERI2
 70
     0
  9
$USERI3
 70
     0
  9
$USERI4
 70
     0
  9
$USERI5
 70
     0
  9
$USERR1
 40
0.0
  9
$USERR2
 40
0.0
  9
$USERR3
 40
0.0
  9
$USERR4
 40
0.0
  9
$USERR5
 40
0.0
  9
$WORLDVIEW
 70
     1
  9
$SHADEDGE
 70
     3
  9
$SHADEDIF
 70
    70
  9
$TILEMODE
 70
     1
  9
$MAXACTVP
 70
    64
  9
$PINSBASE
 10
0.0
 20
0.0
 30
0.0
  9
$PLIMCHECK
 70
     0
  9
$PEXTMIN
 10
1.000000000000000E+20
 20
1.000000000000000E+20
 30
1.000000000000000E+20
  9
$PEXTMAX
 10
-1.000000000000000E+20
 20
-1.000000000000000E+20
 30
-1.000000000000000E+20
  9
$PLIMMIN
 10
0.0
 20
0.0
  9
$PLIMMAX
 10
12.0
 20
9.0
  9
$UNITMODE
 70
     0
  9
$VISRETAIN
 70
     1
  9
$PLINEGEN
 70
     0
  9
$PSLTSCALE
 70
     1
  9
$TREEDEPTH
 70
  3020
  9
$CMLSTYLE
  2
Standard
  9
$CMLJUST
 70
     0
  9
$CMLSCALE
 40
1.0
  9
$PROXYGRAPHICS
 70
     1
  9
$MEASUREMENT
 70
     0
  9
$CELWEIGHT
370
    -1
  9
$ENDCAPS
280
     0
  9
$JOINSTYLE
280
     0
  9
$LWDISPLAY
290
     0
  9
$INSUNITS
 70
     5
  9
$HYPERLINKBASE
  1

  9
$STYLESHEET
  1

  9
$XEDIT
290
     1
  9
$CEPSNTYPE
380
     0
  9
$PSTYLEMODE
290
     1
  9
$FINGERPRINTGUID
  2
{07EFB4D5-0477-2749-BD0D-2FA571178FC9}
  9
$VERSIONGUID
  2
{1C85CDF1-2C84-CE44-9023-2DD8FA7C5D34}
  9
$EXTNAMES
290
     1
  9
$PSVPSCALE
 40
0.0
  9
$OLESTARTUP
290
     0
  9
$SORTENTS
280
   127
  9
$INDEXCTL
280
     0
  9
$HIDETEXT
280
     1
  9
$XCLIPFRAME
280
     2
  9
$HALOGAP
280
     0
  9
$OBSCOLOR
 70
   257
  9
$OBSLTYPE
280
     0
  9
$INTERSECTIONDISPLAY
280
     0
  9
$INTERSECTIONCOLOR
 70
   257
  9
$DIMASSOC
280
     2
  9
$PROJECTNAME
  1

  9
$CAMERADISPLAY
290
     0
  9
$LENSLENGTH
 40
50.0
  9
$CAMERAHEIGHT
 40
0.0
  9
$STEPSPERSEC
 40
2.0
  9
$STEPSIZE
 40
6.0
  9
$3DDWFPREC
 40
2.0
  9
$PSOLWIDTH
 40
0.25
  9
$PSOLHEIGHT
 40
4.0
  9
$LOFTANG1
 40
1.570796326794896
  9
$LOFTANG2
 40
1.570796326794896
  9
$LOFTMAG1
 40
0.0
  9
$LOFTMAG2
 40
0.0
  9
$LOFTPARAM
 70
     7
  9
$LOFTNORMALS
280
     1
  9
$LATITUDE
 40
37.795
  9
$LONGITUDE
 40
-122.394
  9
$NORTHDIRECTION
 40
0.0
  9
$TIMEZONE
 70
 -8000
  9
$LIGHTGLYPHDISPLAY
280
     1
  9
$TILEMODELIGHTSYNCH
280
     1
  9
$CMATERIAL
347
11
  9
$SOLIDHIST
280
     0
  9
$SHOWHIST
280
     1
  9
$DWFFRAME
280
     2
  9
$DGNFRAME
280
     0
  9
$REALWORLDSCALE
290
     1
  9
$INTERFERECOLOR
 62
     1
  9
$INTERFEREOBJVS
345
33
  9
$INTERFEREVPVS
346
30
  9
$CSHADOW
280
     0
  9
$SHADOWPLANELOCATION
 40
0.0
  0
ENDSEC
  0
SECTION
  2
CLASSES
  0
CLASS
  1
ACDBDICTIONARYWDFLT
  2
AcDbDictionaryWithDefault
  3
ObjectDBX Classes
 90
        0
 91
        1
280
     0
281
     0
  0
CLASS
  1
MATERIAL
  2
AcDbMaterial
  3
ObjectDBX Classes
 90
     1153
 91
        3
280
     0
281
     0
  0
CLASS
  1
VISUALSTYLE
  2
AcDbVisualStyle
  3
ObjectDBX Classes
 90
     4095
 91
       24
280
     0
281
     0
  0
CLASS
  1
SCALE
  2
AcDbScale
  3
ObjectDBX Classes
 90
     1153
 91
       17
280
     0
281
     0
  0
CLASS
  1
TABLESTYLE
  2
AcDbTableStyle
  3
ObjectDBX Classes
 90
     4095
 91
        1
280
     0
281
     0
  0
CLASS
  1
MLEADERSTYLE
  2
AcDbMLeaderStyle
  3
ACDB_MLEADERSTYLE_CLASS
 90
     4095
 91
        1
280
     0
281
     0
  0
CLASS
  1
ACDBSECTIONVIEWSTYLE
  2
AcDbSectionViewStyle
  3
ObjectDBX Classes
 90
     1025
 91
        1
280
     0
281
     0
  0
CLASS
  1
ACDBDETAILVIEWSTYLE
  2
AcDbDetailViewStyle
  3
ObjectDBX Classes
 90
     1025
 91
        1
280
     0
281
     0
  0
CLASS
  1
DICTIONARYVAR
  2
AcDbDictionaryVar
  3
ObjectDBX Classes
 90
        0
 91
        5
280
     0
281
     0
  0
CLASS
  1
CELLSTYLEMAP
  2
AcDbCellStyleMap
  3
ObjectDBX Classes
 90
     1152
 91
        1
280
     0
281
     0
  0
ENDSEC
  0
SECTION
  2
TABLES
  0
TABLE
  2
VPORT
  5
8
330
0
100
AcDbSymbolTable
 70
     1
1001
ACAD
1000
DbSaveVer
1071
      267
  0
VPORT
  5
57
330
8
100
AcDbSymbolTableRecord
100
AcDbViewportTableRecord
  2
*Active
 70
     0
 10
0.0
 20
0.0
 11
1.0
 21
1.0
 12
500.0
 22
500.0
 13
0.0
 23
0.0
 14
1.0
 24
1.0
 15
0.0
 25
0.0
 16
0.0
 26
0.0
 36
1.0
 17
0.0
 27
0.0
 37
0.0
 40
12.0
 41
1.0
 42
50.0
 43
0.0
 44
0.0
 50
0.0
 51
0.0
 71
     0
 72
   100
 73
     1
 74
     1
 75
     0
 76
     0
 77
     0
 78
     0
281
     0
 65
     1
110
0.0
120
0.0
130
0.0
111
1.0
121
0.0
131
0.0
112
0.0
122
1.0
132
0.0
 79
     0
146
0.0
 60
     3
 61
     5
292
     1
282
     1
141
0.0
142
0.0
 63
   250
421
  3355443
  0
ENDTAB
  0
TABLE
  2
LTYPE
  5
5
330
0
100
AcDbSymbolTable
 70
     1
  0
LTYPE
  5
5B
330
5
100
AcDbSymbolTableRecord
100
AcDbLinetypeTableRecord
  2
ByBlock
 70
     0
  3

 72
    65
 73
     0
 40
0.0
  0
LTYPE
  5
5C
330
5
100
AcDbSymbolTableRecord
100
AcDbLinetypeTableRecord
  2
ByLayer
 70
     0
  3

 72
    65
 73
     0
 40
0.0
  0
LTYPE
  5
5D
330
5
100
AcDbSymbolTableRecord
100
AcDbLinetypeTableRecord
  2
Continuous
 70
     0
  3
Solid line
 72
    65
 73
     0
 40
0.0
  0
ENDTAB
  0
TABLE
  2
LAYER
  5
2
330
0
100
AcDbSymbolTable
 70
     3
  0
LAYER
  5
54
330
2
100
AcDbSymbolTableRecord
100
AcDbLayerTableRecord
  2
0
 70
     0
 62
     7
  6
Continuous
370
    -3
390
F
347
21
348
0
  0
LAYER
  5
7A
330
2
100
AcDbSymbolTableRecord
100
AcDbLayerTableRecord
  2
cutback1 v2_Sketch1
 70
     0
 62
     7
  6
Continuous
370
    -3
390
F
347
21
348
0
1001
NFusion_SketchTransform
1000
1.000000;0.000000;0.000000;0.000000;0.000000;1.000000;0.000000;0.000000;0.000000;0.000000;1.000000;0.000000;0.000000;0.000000;0.000000;1.000000
  0
LAYER
  5
7D
330
2
100
AcDbSymbolTableRecord
100
AcDbLayerTableRecord
  2
cutback1 v2_Sketch2
 70
     0
 62
     7
  6
Continuous
370
    -3
390
F
347
21
348
0
1001
NFusion_SketchTransform
1000
1.000000;0.000000;0.000000;0.000000;0.000000;1.000000;0.000000;0.000000;0.000000;0.000000;1.000000;0.000000;0.000000;0.000000;0.000000;1.000000
  0
ENDTAB
  0
TABLE
  2
STYLE
  5
3
330
0
100
AcDbSymbolTable
 70
     2
  0
STYLE
  5
55
330
3
100
AcDbSymbolTableRecord
100
AcDbTextStyleTableRecord
  2
Standard
 70
     0
 40
0.0
 41
1.0
 50
0.0
 71
     0
 42
0.2
  3
txt
  4

  0
STYLE
  5
5A
330
3
100
AcDbSymbolTableRecord
100
AcDbTextStyleTableRecord
  2
Annotative
 70
     0
 40
0.0
 41
1.0
 50
0.0
 71
     0
 42
0.2
  3
txt
  4

1001
AcadAnnotative
1000
AnnotativeData
1002
{
1070
     1
1070
     1
1002
}
  0
ENDTAB
  0
TABLE
  2
VIEW
  5
6
330
0
100
AcDbSymbolTable
 70
     0
  0
ENDTAB
  0
TABLE
  2
UCS
  5
7
330
0
100
AcDbSymbolTable
 70
     0
  0
ENDTAB
  0
TABLE
  2
APPID
  5
9
330
0
100
AcDbSymbolTable
 70
     4
  0
APPID
  5
56
330
9
100
AcDbSymbolTableRecord
100
AcDbRegAppTableRecord
  2
ACAD
 70
     0
  0
APPID
  5
5E
330
9
100
AcDbSymbolTableRecord
100
AcDbRegAppTableRecord
  2
AcadAnnotative
 70
     0
  0
APPID
  5
78
330
9
100
AcDbSymbolTableRecord
100
AcDbRegAppTableRecord
  2
EDIT_IN_FUSION_ACAD_ADDIN
 70
     0
  0
APPID
  5
79
330
9
100
AcDbSymbolTableRecord
100
AcDbRegAppTableRecord
  2
NFusion_SketchTransform
 70
     0
  0
ENDTAB
  0
TABLE
  2
DIMSTYLE
  5
A
330
0
100
AcDbSymbolTable
 70
     2
100
AcDbDimStyleTable
 71
     0
  0
DIMSTYLE
105
58
330
A
100
AcDbSymbolTableRecord
100
AcDbDimStyleTableRecord
  2
Standard
 70
     0
340
55
  0
DIMSTYLE
105
59
330
A
100
AcDbSymbolTableRecord
100
AcDbDimStyleTableRecord
  2
Annotative
 70
     0
340
55
1001
AcadAnnotative
1000
AnnotativeData
1002
{
1070
     1
1070
     1
1002
}
  0
ENDTAB
  0
TABLE
  2
BLOCK_RECORD
  5
1
330
0
100
AcDbSymbolTable
 70
     1
  0
BLOCK_RECORD
  5
70
330
1
100
AcDbSymbolTableRecord
100
AcDbBlockTableRecord
  2
*Model_Space
340
73
 70
     0
280
     1
281
     0
  0
BLOCK_RECORD
  5
6C
330
1
100
AcDbSymbolTableRecord
100
AcDbBlockTableRecord
  2
*Paper_Space
340
6F
 70
     0
280
     1
281
     0
  0
BLOCK_RECORD
  5
74
330
1
100
AcDbSymbolTableRecord
100
AcDbBlockTableRecord
  2
*Paper_Space0
340
77
 70
     0
280
     1
281
     0
  0
ENDTAB
  0
ENDSEC
  0
SECTION
  2
BLOCKS
  0
BLOCK
  5
71
330
70
100
AcDbEntity
  8
0
100
AcDbBlockBegin
  2
*Model_Space
 70
     0
 10
0.0
 20
0.0
 30
0.0
  3
*Model_Space
  1

  0
ENDBLK
  5
72
330
70
100
AcDbEntity
  8
0
100
AcDbBlockEnd
  0
BLOCK
  5
6D
330
6C
100
AcDbEntity
 67
     1
  8
0
100
AcDbBlockBegin
  2
*Paper_Space
 70
     0
 10
0.0
 20
0.0
 30
0.0
  3
*Paper_Space
  1

  0
ENDBLK
  5
6E
330
6C
100
AcDbEntity
 67
     1
  8
0
100
AcDbBlockEnd
  0
BLOCK
  5
75
330
74
100
AcDbEntity
 67
     1
  8
0
100
AcDbBlockBegin
  2
*Paper_Space0
 70
     0
 10
0.0
 20
0.0
 30
0.0
  3
*Paper_Space0
  1

  0
ENDBLK
  5
76
330
74
100
AcDbEntity
 67
     1
  8
0
100
AcDbBlockEnd
  0
ENDSEC
  0
SECTION
  2
ENTITIES
  0
POINT
  5
7B
330
70
100
AcDbEntity
  8
cutback1 v2_Sketch1
100
AcDbPoint
 10
0.0
 20
0.0
 30
0.0
  0
CIRCLE
  5
7C
330
70
100
AcDbEntity
  8
cutback1 v2_Sketch1
100
AcDbCircle
 10
0.0
 20
0.0
 30
0.0
 40
5.0
  0
POINT
  5
7E
330
70
100
AcDbEntity
  8
cutback1 v2_Sketch2
100
AcDbPoint
 10
0.0
 20
0.0
 30
0.0
  0
SPLINE
  5
7F
330
70
100
AcDbEntity
  8
cutback1 v2_Sketch2
100
AcDbSpline
210
0.0
220
0.0
230
1.0
 70
     8
 71
     2
 72
     6
 73
     3
 74
     0
 42
0.000000001
 43
0.0000000001
 40
0.0
 40
0.0
 40
0.0
 40
1.0
 40
1.0
 40
1.0
 10
-1.562262292920666
 20
0.4274545907974267
 30
0.0
 10
-1.562262292920666
 20
0.3696362972259544
 30
0.0
 10
-1.615716692029553
 20
0.285636425018313
 30
0.0
  0
SPLINE
  5
80
330
70
100
AcDbEntity
  8
cutback1 v2_Sketch2
100
AcDbSpline
210
0.0
220
0.0
230
1.0
 70
     8
 71
     2
 72
     6
 73
     3
 74
     0
 42
0.000000001
 43
0.0000000001
 40
0.0
 40
0.0
 40
0.0
 40
1.0
 40
1.0
 40
1.0
 10
-1.682262178479748
 20
0.3216364383697534
 30
0.0
 10
-1.665898557721692
 20
0.3478181362152124
 30
0.0
 10
-1.665898557721692
 20
0.3685455322265649
 30
0.0
  0
SPLINE
  5
81
330
70
100
AcDbEntity
  8
cutback1 v2_Sketch2
100
AcDbSpline
210
0.0
220
0.0
230
1.0
 70
     8
 71
     2
 72
     6
 73
     3
 74
     0
 42
0.000000001
 43
0.0000000001
 40
0.0
 40
0.0
 40
0.0
 40
1.0
 40
1.0
 40
1.0
 10
-1.665898557721692
 20
0.3685455322265649
 30
0.0
 10
-1.665898557721692
 20
0.3903636932373071
 30
0.0
 10
-1.686625953733044
 20
0.3903636932373071
 30
0.0
  0
SPLINE
  5
82
330
70
100
AcDbEntity
  8
cutback1 v2_Sketch2
100
AcDbSpline
210
0.0
220
0.0
230
1.0
 70
     8
 71
     2
 72
     6
 73
     3
 74
     0
 42
0.000000001
 43
0.0000000001
 40
0.0
 40
0.0
 40
0.0
 40
1.0
 40
1.0
 40
1.0
 10
-1.590625997602063
 20
0.4874545931816125
 30
0.0
 10
-1.562262292920666
 20
0.4645454883575463
 30
0.0
 10
-1.562262292920666
 20
0.4274545907974267
 30
0.0
  0
SPLINE
  5
83
330
70
100
AcDbEntity
  8
cutback1 v2_Sketch2
100
AcDbSpline
210
0.0
220
0.0
230
1.0
 70
     8
 71
     2
 72
     6
 73
     3
 74
     0
 42
0.000000001
 43
0.0000000001
 40
0.0
 40
0.0
 40
0.0
 40
1.0
 40
1.0
 40
1.0
 10
-2.060807701169567
 20
-0.0001817941665621
 30
0.0
 10
-2.060807701169568
 20
0.1841818094253569
 30
0.0
 10
-1.88735317808302
 20
0.3609091043472317
 30
0.0
  0
SPLINE
  5
84
330
70
100
AcDbEntity
  8
cutback1 v2_Sketch2
100
AcDbSpline
210
0.0
220
0.0
230
1.0
 70
     8
 71
     2
 72
     6
 73
     3
 74
     0
 42
0.000000001
 43
0.0000000001
 40
0.0
 40
0.0
 40
0.0
 40
1.0
 40
1.0
 40
1.0
 10
-0.9742619953742801
 20
0.4176363945007341
 30
0.0
 10
-0.9240801296821414
 20
0.4569091200828567
 30
0.0
 10
-0.8673529587379276
 20
0.4907273054122939
 30
0.0
  0
SPLINE
  5
85
330
70
100
AcDbEntity
  8
cutback1 v2_Sketch2
100
AcDbSpline
210
0.0
220
0.0
230
1.0
 70
     8
 71
     2
 72
     6
 73
     3
 74
     0
 42
0.000000001
 43
0.0000000001
 40
0.0
 40
0.0
 40
0.0
 40
1.0
 40
1.0
 40
1.0
 10
-1.767353054105359
 20
0.3478181362152126
 30
0.0
 10
-1.861171241818982
 20
0.2725454568862942
 30
0.0
 10
-1.92335319143446
 20
0.1296364068985012
 30
0.0
  0
SPLINE
  5
86
330
70
100
AcDbEntity
  8
cutback1 v2_Sketch2
100
AcDbSpline
210
0.0
220
0.0
230
1.0
 70
     8
 71
     2
 72
     6
 73
     3
 74
     0
 42
0.000000001
 43
0.0000000001
 40
0.0
 40
0.0
 40
0.0
 40
1.0
 40
1.0
 40
1.0
 10
-1.88735317808302
 20
0.3609091043472317
 30
0.0
 10
-1.746625896512585
 20
0.5049090981483486
 30
0.0
 10
-1.641898628293591
 20
0.5049090981483485
 30
0.0
  0
SPLINE
  5
87
330
70
100
AcDbEntity
  8
cutback1 v2_Sketch2
100
AcDbSpline
210
0.0
220
0.0
230
1.0
 70
     8
 71
     2
 72
     6
 73
     3
 74
     0
 42
0.000000001
 43
0.0000000001
 40
0.0
 40
0.0
 40
0.0
 40
1.0
 40
1.0
 40
1.0
 10
-0.8673529587379276
 20
0.4907273054122939
 30
0.0
 10
-0.8389894924751102
 20
0.5070909261703505
 30
0.0
 10
-0.8313529453864871
 20
0.5070909261703505
 30
0.0
  0
SPLINE
  5
88
330
70
100
AcDbEntity
  8
cutback1 v2_Sketch2
100
AcDbSpline
210
0.0
220
0.0
230
1.0
 70
     8
 71
     2
 72
     6
 73
     3
 74
     0
 42
0.000000001
 43
0.0000000001
 40
0.0
 40
0.0
 40
0.0
 40
1.0
 40
1.0
 40
1.0
 10
-1.92335319143446
 20
0.1296364068985012
 30
0.0
 10
-1.846989389478284
 20
0.1558182239532497
 30
0.0
 10
-1.803353067456799
 20
0.188545465469363
 30
0.0
  0
SPLINE
  5
89
330
70
100
AcDbEntity
  8
cutback1 v2_Sketch2
100
AcDbSpline
210
0.0
220
0.0
230
1.0
 70
     8
 71
     2
 72
     6
 73
     3
 74
     0
 42
0.000000001
 43
0.0000000001
 40
0.0
 40
0.0
 40
0.0
 40
1.0
 40
1.0
 40
1.0
 10
-1.641898628293591
 20
0.5049090981483485
 30
0.0
 10
-1.613534923612195
 20
0.5049090981483483
 30
0.0
 10
-1.590625997602063
 20
0.4874545931816125
 30
0.0
  0
SPLINE
  5
8A
330
70
100
AcDbEntity
  8
cutback1 v2_Sketch2
100
AcDbSpline
210
0.0
220
0.0
230
1.0
 70
     8
 71
     2
 72
     6
 73
     3
 74
     0
 42
0.000000001
 43
0.0000000001
 40
0.0
 40
0.0
 40
0.0
 40
1.0
 40
1.0
 40
1.0
 10
-1.615716692029553
 20
0.285636425018313
 30
0.0
 10
-1.725898500501232
 20
0.1110908985137964
 30
0.0
 10
-1.94735312086256
 20
0.0445454120636015
 30
0.0
  0
SPLINE
  5
8B
330
70
100
AcDbEntity
  8
cutback1 v2_Sketch2
100
AcDbSpline
210
0.0
220
0.0
230
1.0
 70
     8
 71
     2
 72
     6
 73
     3
 74
     0
 42
0.000000001
 43
0.0000000001
 40
0.0
 40
0.0
 40
0.0
 40
1.0
 40
1.0
 40
1.0
 10
-1.803353067456799
 20
0.188545465469363
 30
0.0
 10
-1.726989503919202
 20
0.2474545240402246
 30
0.0
 10
-1.682262178479748
 20
0.3216364383697534
 30
0.0
  0
SPLINE
  5
8C
330
70
100
AcDbEntity
  8
cutback1 v2_Sketch2
100
AcDbSpline
210
0.0
220
0.0
230
1.0
 70
     8
 71
     2
 72
     6
 73
     3
 74
     0
 42
0.000000001
 43
0.0000000001
 40
0.0
 40
0.0
 40
0.0
 40
1.0
 40
1.0
 40
1.0
 10
-1.220807548581677
 20
0.1940000057220477
 30
0.0
 10
-1.113898511945325
 20
0.3085454702377337
 30
0.0
 10
-0.9742619953742801
 20
0.4176363945007341
 30
0.0
  0
SPLINE
  5
8D
330
70
100
AcDbEntity
  8
cutback1 v2_Sketch2
100
AcDbSpline
210
0.0
220
0.0
230
1.0
 70
     8
 71
     2
 72
     6
 73
     3
 74
     0
 42
0.000000001
 43
0.0000000001
 40
0.0
 40
0.0
 40
0.0
 40
1.0
 40
1.0
 40
1.0
 10
-1.686625953733044
 20
0.3903636932373071
 30
0.0
 10
-1.714989419995862
 20
0.3903636932373071
 30
0.0
 10
-1.767353054105359
 20
0.3478181362152126
 30
0.0
  0
SPLINE
  5
8E
330
70
100
AcDbEntity
  8
cutback1 v2_Sketch2
100
AcDbSpline
210
0.0
220
0.0
230
1.0
 70
     8
 71
     2
 72
     6
 73
     3
 74
     0
 42
0.000000001
 43
0.0000000001
 40
0.0
 40
0.0
 40
0.0
 40
1.0
 40
1.0
 40
1.0
 10
-0.8302619419685184
 20
0.4056363701820387
 30
0.0
 10
-0.9415347538581668
 20
0.3172727823257462
 30
0.0
 10
-0.9415347538581668
 20
0.2725454568862931
 30
0.0
  0
SPLINE
  5
8F
330
70
100
AcDbEntity
  8
cutback1 v2_Sketch2
100
AcDbSpline
210
0.0
220
0.0
230
1.0
 70
     8
 71
     2
 72
     6
 73
     3
 74
     0
 42
0.000000001
 43
0.0000000001
 40
0.0
 40
0.0
 40
0.0
 40
1.0
 40
1.0
 40
1.0
 10
-0.7888076267829716
 20
0.4590909481048598
 30
0.0
 10
-0.7888076267829716
 20
0.439454555511476
 30
0.0
 10
-0.8302619419685184
 20
0.4056363701820387
 30
0.0
  0
SPLINE
  5
90
330
70
100
AcDbEntity
  8
cutback1 v2_Sketch2
100
AcDbSpline
210
0.0
220
0.0
230
1.0
 70
     8
 71
     2
 72
     6
 73
     3
 74
     0
 42
0.000000001
 43
0.0000000001
 40
0.0
 40
0.0
 40
0.0
 40
1.0
 40
1.0
 40
1.0
 10
-0.9131710491767703
 20
0.2474546432495133
 30
0.0
 10
-0.8662621937385379
 20
0.247454643249513
 30
0.0
 10
-0.7517166100135624
 20
0.3249090909957899
 30
0.0
  0
SPLINE
  5
91
330
70
100
AcDbEntity
  8
cutback1 v2_Sketch2
100
AcDbSpline
210
0.0
220
0.0
230
1.0
 70
     8
 71
     2
 72
     6
 73
     3
 74
     0
 42
0.000000001
 43
0.0000000001
 40
0.0
 40
0.0
 40
0.0
 40
1.0
 40
1.0
 40
1.0
 10
-0.7517166100135624
 20
0.3249090909957899
 30
0.0
 10
-0.7320802174201786
 20
0.3380000591278089
 30
0.0
 10
-0.7189893684974491
 20
0.3380000591278089
 30
0.0
  0
SPLINE
  5
92
330
70
100
AcDbEntity
  8
cutback1 v2_Sketch2
100
AcDbSpline
210
0.0
220
0.0
230
1.0
 70
     8
 71
     2
 72
     6
 73
     3
 74
     0
 42
0.000000001
 43
0.0000000001
 40
0.0
 40
0.0
 40
0.0
 40
1.0
 40
1.0
 40
1.0
 10
-0.9415347538581668
 20
0.2725454568862931
 30
0.0
 10
-0.9415347538581668
 20
0.2474546432495133
 30
0.0
 10
-0.9131710491767703
 20
0.2474546432495133
 30
0.0
  0
SPLINE
  5
93
330
70
100
AcDbEntity
  8
cutback1 v2_Sketch2
100
AcDbSpline
210
0.0
220
0.0
230
1.0
 70
     8
 71
     2
 72
     6
 73
     3
 74
     0
 42
0.000000001
 43
0.0000000001
 40
0.0
 40
0.0
 40
0.0
 40
1.0
 40
1.0
 40
1.0
 10
-0.7015347443214237
 20
0.329272747039796
 30
0.0
 10
-0.6917166672340214
 20
0.3194545507431041
 30
0.0
 10
-0.6917166672340214
 20
0.308545470237733
 30
0.0
  0
SPLINE
  5
94
330
70
100
AcDbEntity
  8
cutback1 v2_Sketch2
100
AcDbSpline
210
0.0
220
0.0
230
1.0
 70
     8
 71
     2
 72
     6
 73
     3
 74
     0
 42
0.000000001
 43
0.0000000001
 40
0.0
 40
0.0
 40
0.0
 40
1.0
 40
1.0
 40
1.0
 10
-0.7986257038703739
 20
0.4830909371376051
 30
0.0
 10
-0.7888076267829716
 20
0.4700000286102309
 30
0.0
 10
-0.7888076267829716
 20
0.4590909481048598
 30
0.0
  0
SPLINE
  5
95
330
70
100
AcDbEntity
  8
cutback1 v2_Sketch2
100
AcDbSpline
210
0.0
220
0.0
230
1.0
 70
     8
 71
     2
 72
     6
 73
     3
 74
     0
 42
0.000000001
 43
0.0000000001
 40
0.0
 40
0.0
 40
0.0
 40
1.0
 40
1.0
 40
1.0
 10
-0.6917166672340214
 20
0.308545470237733
 30
0.0
 10
-0.6917166672340214
 20
0.2758181095123302
 30
0.0
 10
-0.7833530865302861
 20
0.2081818580627455
 30
0.0
  0
SPLINE
  5
96
330
70
100
AcDbEntity
  8
cutback1 v2_Sketch2
100
AcDbSpline
210
0.0
220
0.0
230
1.0
 70
     8
 71
     2
 72
     6
 73
     3
 74
     0
 42
0.000000001
 43
0.0000000001
 40
0.0
 40
0.0
 40
0.0
 40
1.0
 40
1.0
 40
1.0
 10
-0.7833530865302861
 20
0.2081818580627455
 30
0.0
 10
-0.8793530426612669
 20
0.1361818313598646
 30
0.0
 10
-0.965534921704846
 20
0.1361818313598648
 30
0.0
  0
SPLINE
  5
97
330
70
100
AcDbEntity
  8
cutback1 v2_Sketch2
100
AcDbSpline
210
0.0
220
0.0
230
1.0
 70
     8
 71
     2
 72
     6
 73
     3
 74
     0
 42
0.000000001
 43
0.0000000001
 40
0.0
 40
0.0
 40
0.0
 40
1.0
 40
1.0
 40
1.0
 10
-0.965534921704846
 20
0.1361818313598648
 30
0.0
 10
-1.000443931638317
 20
0.1361818313598648
 30
0.0
 10
-1.029898401319104
 20
0.1547273397445694
 30
0.0
  0
SPLINE
  5
98
330
70
100
AcDbEntity
  8
cutback1 v2_Sketch2
100
AcDbSpline
210
0.0
220
0.0
230
1.0
 70
     8
 71
     2
 72
     6
 73
     3
 74
     0
 42
0.000000001
 43
0.0000000001
 40
0.0
 40
0.0
 40
0.0
 40
1.0
 40
1.0
 40
1.0
 10
-1.029898401319104
 20
0.1547273397445694
 30
0.0
 10
-1.054989334165173
 20
0.1700000762939469
 30
0.0
 10
-1.054989334165173
 20
0.2092727422714249
 30
0.0
  0
SPLINE
  5
99
330
70
100
AcDbEntity
  8
cutback1 v2_Sketch2
100
AcDbSpline
210
0.0
220
0.0
230
1.0
 70
     8
 71
     2
 72
     6
 73
     3
 74
     0
 42
0.000000001
 43
0.0000000001
 40
0.0
 40
0.0
 40
0.0
 40
1.0
 40
1.0
 40
1.0
 10
-0.7189893684974491
 20
0.3380000591278089
 30
0.0
 10
-0.7102620564094364
 20
0.3380000591278089
 30
0.0
 10
-0.7015347443214237
 20
0.329272747039796
 30
0.0
  0
SPLINE
  5
9A
330
70
100
AcDbEntity
  8
cutback1 v2_Sketch2
100
AcDbSpline
210
0.0
220
0.0
230
1.0
 70
     8
 71
     2
 72
     6
 73
     3
 74
     0
 42
0.000000001
 43
0.0000000001
 40
0.0
 40
0.0
 40
0.0
 40
1.0
 40
1.0
 40
1.0
 10
-0.8313529453864871
 20
0.5070909261703505
 30
0.0
 10
-0.8149893246284305
 20
0.5070909261703505
 30
0.0
 10
-0.7986257038703739
 20
0.4830909371376051
 30
0.0
  0
SPLINE
  5
9B
330
70
100
AcDbEntity
  8
cutback1 v2_Sketch2
100
AcDbSpline
210
0.0
220
0.0
230
1.0
 70
     8
 71
     2
 72
     6
 73
     3
 74
     0
 42
0.000000001
 43
0.0000000001
 40
0.0
 40
0.0
 40
0.0
 40
1.0
 40
1.0
 40
1.0
 10
-1.369171138822155
 20
-0.1638181209564189
 30
0.0
 10
-1.394262071668225
 20
-0.2139999866485576
 30
0.0
 10
-1.431353088437634
 20
-0.2139999866485573
 30
0.0
  0
SPLINE
  5
9C
330
70
100
AcDbEntity
  8
cutback1 v2_Sketch2
100
AcDbSpline
210
0.0
220
0.0
230
1.0
 70
     8
 71
     2
 72
     6
 73
     3
 74
     0
 42
0.000000001
 43
0.0000000001
 40
0.0
 40
0.0
 40
0.0
 40
1.0
 40
1.0
 40
1.0
 10
-1.471716638623791
 20
-0.1758182048797585
 30
0.0
 10
-1.471716638623791
 20
-0.1387273073196389
 30
0.0
 10
-1.408443924008923
 20
0.0227272510528585
 30
0.0
  0
SPLINE
  5
9D
330
70
100
AcDbEntity
  8
cutback1 v2_Sketch2
100
AcDbSpline
210
0.0
220
0.0
230
1.0
 70
     8
 71
     2
 72
     6
 73
     3
 74
     0
 42
0.000000001
 43
0.0000000001
 40
0.0
 40
0.0
 40
0.0
 40
1.0
 40
1.0
 40
1.0
 10
-1.087716575681286
 20
0.3947272300720232
 30
0.0
 10
-1.092080350934582
 20
0.3892726898193377
 30
0.0
 10
-1.145534750043469
 20
0.3216364383697527
 30
0.0
  0
SPLINE
  5
9E
330
70
100
AcDbEntity
  8
cutback1 v2_Sketch2
100
AcDbSpline
210
0.0
220
0.0
230
1.0
 70
     8
 71
     2
 72
     6
 73
     3
 74
     0
 42
0.000000001
 43
0.0000000001
 40
0.0
 40
0.0
 40
0.0
 40
1.0
 40
1.0
 40
1.0
 10
-1.431353088437634
 20
-0.2139999866485573
 30
0.0
 10
-1.471716638623791
 20
-0.2139999866485573
 30
0.0
 10
-1.471716638623791
 20
-0.1758182048797585
 30
0.0
  0
SPLINE
  5
9F
330
70
100
AcDbEntity
  8
cutback1 v2_Sketch2
100
AcDbSpline
210
0.0
220
0.0
230
1.0
 70
     8
 71
     2
 72
     6
 73
     3
 74
     0
 42
0.000000001
 43
0.0000000001
 40
0.0
 40
0.0
 40
0.0
 40
1.0
 40
1.0
 40
1.0
 10
-1.212080236493664
 20
0.3947272300720232
 30
0.0
 10
-1.148807521878796
 20
0.4765455126762408
 30
0.0
 10
-1.106261964856702
 20
0.4765455126762408
 30
0.0
  0
SPLINE
  5
A0
330
70
100
AcDbEntity
  8
cutback1 v2_Sketch2
100
AcDbSpline
210
0.0
220
0.0
230
1.0
 70
     8
 71
     2
 72
     6
 73
     3
 74
     0
 42
0.000000001
 43
0.0000000001
 40
0.0
 40
0.0
 40
0.0
 40
1.0
 40
1.0
 40
1.0
 10
-1.054989334165173
 20
0.2092727422714249
 30
0.0
 10
-1.054989334165173
 20
0.2365454435348526
 30
0.0
 10
-1.032080169736462
 20
0.2714545726776139
 30
0.0
  0
SPLINE
  5
A1
330
70
100
AcDbEntity
  8
cutback1 v2_Sketch2
100
AcDbSpline
210
0.0
220
0.0
230
1.0
 70
     8
 71
     2
 72
     6
 73
     3
 74
     0
 42
0.000000001
 43
0.0000000001
 40
0.0
 40
0.0
 40
0.0
 40
1.0
 40
1.0
 40
1.0
 10
-1.106261964856702
 20
0.4765455126762408
 30
0.0
 10
-1.092080350934582
 20
0.4765455126762407
 30
0.0
 10
-1.080080267011243
 20
0.467818200588228
 30
0.0
  0
SPLINE
  5
A2
330
70
100
AcDbEntity
  8
cutback1 v2_Sketch2
100
AcDbSpline
210
0.0
220
0.0
230
1.0
 70
     8
 71
     2
 72
     6
 73
     3
 74
     0
 42
0.000000001
 43
0.0000000001
 40
0.0
 40
0.0
 40
0.0
 40
1.0
 40
1.0
 40
1.0
 10
-1.408443924008923
 20
0.0227272510528585
 30
0.0
 10
-1.3146257362953
 20
0.2627272605896016
 30
0.0
 10
-1.212080236493664
 20
0.3947272300720232
 30
0.0
  0
SPLINE
  5
A3
330
70
100
AcDbEntity
  8
cutback1 v2_Sketch2
100
AcDbSpline
210
0.0
220
0.0
230
1.0
 70
     8
 71
     2
 72
     6
 73
     3
 74
     0
 42
0.000000001
 43
0.0000000001
 40
0.0
 40
0.0
 40
0.0
 40
1.0
 40
1.0
 40
1.0
 10
-1.080080267011243
 20
0.467818200588228
 30
0.0
 10
-1.065898414670544
 20
0.456909120082857
 30
0.0
 10
-1.065898414670544
 20
0.4405454993248003
 30
0.0
  0
SPLINE
  5
A4
330
70
100
AcDbEntity
  8
cutback1 v2_Sketch2
100
AcDbSpline
210
0.0
220
0.0
230
1.0
 70
     8
 71
     2
 72
     6
 73
     3
 74
     0
 42
0.000000001
 43
0.0000000001
 40
0.0
 40
0.0
 40
0.0
 40
1.0
 40
1.0
 40
1.0
 10
-1.032080169736462
 20
0.2714545726776139
 30
0.0
 10
-1.118262048780041
 20
0.2103636264801043
 30
0.0
 10
-1.234989400922375
 20
0.0620000362396258
 30
0.0
  0
SPLINE
  5
A5
330
70
100
AcDbEntity
  8
cutback1 v2_Sketch2
100
AcDbSpline
210
0.0
220
0.0
230
1.0
 70
     8
 71
     2
 72
     6
 73
     3
 74
     0
 42
0.000000001
 43
0.0000000001
 40
0.0
 40
0.0
 40
0.0
 40
1.0
 40
1.0
 40
1.0
 10
-1.234989400922375
 20
0.0620000362396258
 30
0.0
 10
-1.30262565237196
 20
-0.0296363830566386
 30
0.0
 10
-1.369171138822155
 20
-0.1638181209564189
 30
0.0
  0
SPLINE
  5
A6
330
70
100
AcDbEntity
  8
cutback1 v2_Sketch2
100
AcDbSpline
210
0.0
220
0.0
230
1.0
 70
     8
 71
     2
 72
     6
 73
     3
 74
     0
 42
0.000000001
 43
0.0000000001
 40
0.0
 40
0.0
 40
0.0
 40
1.0
 40
1.0
 40
1.0
 10
-1.065898414670544
 20
0.4405454993248003
 30
0.0
 10
-1.065898414670544
 20
0.4241818785667437
 30
0.0
 10
-1.087716575681286
 20
0.3947272300720232
 30
0.0
  0
SPLINE
  5
A7
330
70
100
AcDbEntity
  8
cutback1 v2_Sketch2
100
AcDbSpline
210
0.0
220
0.0
230
1.0
 70
     8
 71
     2
 72
     6
 73
     3
 74
     0
 42
0.000000001
 43
0.0000000001
 40
0.0
 40
0.0
 40
0.0
 40
1.0
 40
1.0
 40
1.0
 10
-1.145534750043469
 20
0.3216364383697527
 30
0.0
 10
-1.194625612317639
 20
0.2572727203369158
 30
0.0
 10
-1.220807548581677
 20
0.1940000057220477
 30
0.0
  0
SPLINE
  5
A8
330
70
100
AcDbEntity
  8
cutback1 v2_Sketch2
100
AcDbSpline
210
0.0
220
0.0
230
1.0
 70
     8
 71
     2
 72
     6
 73
     3
 74
     0
 42
0.000000001
 43
0.0000000001
 40
0.0
 40
0.0
 40
0.0
 40
1.0
 40
1.0
 40
1.0
 10
0.3228290118583859
 20
0.5594545602798461
 30
0.0
 10
0.3904655017265499
 20
0.5594545602798461
 30
0.0
 10
0.424283746660632
 20
0.5354545712471007
 30
0.0
  0
SPLINE
  5
A9
330
70
100
AcDbEntity
  8
cutback1 v2_Sketch2
100
AcDbSpline
210
0.0
220
0.0
230
1.0
 70
     8
 71
     2
 72
     6
 73
     3
 74
     0
 42
0.000000001
 43
0.0000000001
 40
0.0
 40
0.0
 40
0.0
 40
1.0
 40
1.0
 40
1.0
 10
0.424283746660632
 20
0.5354545712471007
 30
0.0
 10
0.4581015147575558
 20
0.5114545822143553
 30
0.0
 10
0.4581015147575558
 20
0.4623636603355406
 30
0.0
  0
SPLINE
  5
AA
330
70
100
AcDbEntity
  8
cutback1 v2_Sketch2
100
AcDbSpline
210
0.0
220
0.0
230
1.0
 70
     8
 71
     2
 72
     6
 73
     3
 74
     0
 42
0.000000001
 43
0.0000000001
 40
0.0
 40
0.0
 40
0.0
 40
1.0
 40
1.0
 40
1.0
 10
0.2726471461662472
 20
0.246363639831543
 30
0.0
 10
0.2224652804741085
 20
0.2278182506561279
 30
0.0
 10
0.1886470355400265
 20
0.2278182506561279
 30
0.0
  0
SPLINE
  5
AB
330
70
100
AcDbEntity
  8
cutback1 v2_Sketch2
100
AcDbSpline
210
0.0
220
0.0
230
1.0
 70
     8
 71
     2
 72
     6
 73
     3
 74
     0
 42
0.000000001
 43
0.0000000001
 40
0.0
 40
0.0
 40
0.0
 40
1.0
 40
1.0
 40
1.0
 10
0.1690108813652218
 20
0.3096363544464111
 30
0.0
 10
0.1755564250358761
 20
0.3129091262817383
 30
0.0
 10
0.2431924380668819
 20
0.3281818628311157
 30
0.0
  0
SPLINE
  5
AC
330
70
100
AcDbEntity
  8
cutback1 v2_Sketch2
100
AcDbSpline
210
0.0
220
0.0
230
1.0
 70
     8
 71
     2
 72
     6
 73
     3
 74
     0
 42
0.000000001
 43
0.0000000001
 40
0.0
 40
0.0
 40
0.0
 40
1.0
 40
1.0
 40
1.0
 10
0.4101016559013547
 20
0.3380000591278074
 30
0.0
 10
0.3642833270439327
 20
0.281272768974304
 30
0.0
 10
0.2726471461662472
 20
0.246363639831543
 30
0.0
  0
SPLINE
  5
AD
330
70
100
AcDbEntity
  8
cutback1 v2_Sketch2
100
AcDbSpline
210
0.0
220
0.0
230
1.0
 70
     8
 71
     2
 72
     6
 73
     3
 74
     0
 42
0.000000001
 43
0.0000000001
 40
0.0
 40
0.0
 40
0.0
 40
1.0
 40
1.0
 40
1.0
 10
0.1428291835197628
 20
0.2681818008422854
 30
0.0
 10
0.1428291835197628
 20
0.2954545021057131
 30
0.0
 10
0.1690108813652218
 20
0.3096363544464111
 30
0.0
  0
SPLINE
  5
AE
330
70
100
AcDbEntity
  8
cutback1 v2_Sketch2
100
AcDbSpline
210
0.0
220
0.0
230
1.0
 70
     8
 71
     2
 72
     6
 73
     3
 74
     0
 42
0.000000001
 43
0.0000000001
 40
0.0
 40
0.0
 40
0.0
 40
1.0
 40
1.0
 40
1.0
 10
0.2944653071769894
 20
0.4656363725662232
 30
0.0
 10
0.2311923541435421
 20
0.4656363725662232
 30
0.0
 10
0.1548287906059444
 20
0.4143636822700502
 30
0.0
  0
SPLINE
  5
AF
330
70
100
AcDbEntity
  8
cutback1 v2_Sketch2
100
AcDbSpline
210
0.0
220
0.0
230
1.0
 70
     8
 71
     2
 72
     6
 73
     3
 74
     0
 42
0.000000001
 43
0.0000000001
 40
0.0
 40
0.0
 40
0.0
 40
1.0
 40
1.0
 40
1.0
 10
0.3468291797050655
 20
0.4209091067314147
 30
0.0
 10
0.3468291797050655
 20
0.4438182115554809
 30
0.0
 10
0.3337380923637569
 20
0.454727292060852
 30
0.0
  0
SPLINE
  5
B0
330
70
100
AcDbEntity
  8
cutback1 v2_Sketch2
100
AcDbSpline
210
0.0
220
0.0
230
1.0
 70
     8
 71
     2
 72
     6
 73
     3
 74
     0
 42
0.000000001
 43
0.0000000001
 40
0.0
 40
0.0
 40
0.0
 40
1.0
 40
1.0
 40
1.0
 10
0.066465143145007
 20
0.2769091129302981
 30
0.0
 10
0.066465143145007
 20
0.2201818227767947
 30
0.0
 10
0.1242835559257687
 20
0.1350909471511843
 30
0.0
  0
SPLINE
  5
B1
330
70
100
AcDbEntity
  8
cutback1 v2_Sketch2
100
AcDbSpline
210
0.0
220
0.0
230
1.0
 70
     8
 71
     2
 72
     6
 73
     3
 74
     0
 42
0.000000001
 43
0.0000000001
 40
0.0
 40
0.0
 40
0.0
 40
1.0
 40
1.0
 40
1.0
 10
0.3337380923637569
 20
0.454727292060852
 30
0.0
 10
0.3206470050224484
 20
0.4656363725662231
 30
0.0
 10
0.2944653071769894
 20
0.4656363725662232
 30
0.0
  0
SPLINE
  5
B2
330
70
100
AcDbEntity
  8
cutback1 v2_Sketch2
100
AcDbSpline
210
0.0
220
0.0
230
1.0
 70
     8
 71
     2
 72
     6
 73
     3
 74
     0
 42
0.000000001
 43
0.0000000001
 40
0.0
 40
0.0
 40
0.0
 40
1.0
 40
1.0
 40
1.0
 10
0.3173744716057003
 20
0.3663636445999145
 30
0.0
 10
0.3468291797050655
 20
0.3914545774459837
 30
0.0
 10
0.3468291797050655
 20
0.4209091067314147
 30
0.0
  0
SPLINE
  5
B3
330
70
100
AcDbEntity
  8
cutback1 v2_Sketch2
100
AcDbSpline
210
0.0
220
0.0
230
1.0
 70
     8
 71
     2
 72
     6
 73
     3
 74
     0
 42
0.000000001
 43
0.0000000001
 40
0.0
 40
0.0
 40
0.0
 40
1.0
 40
1.0
 40
1.0
 10
0.1548287906059444
 20
0.4143636822700502
 30
0.0
 10
0.066465143145007
 20
0.3565454483032229
 30
0.0
 10
0.066465143145007
 20
0.2769091129302981
 30
0.0
  0
SPLINE
  5
B4
330
70
100
AcDbEntity
  8
cutback1 v2_Sketch2
100
AcDbSpline
210
0.0
220
0.0
230
1.0
 70
     8
 71
     2
 72
     6
 73
     3
 74
     0
 42
0.000000001
 43
0.0000000001
 40
0.0
 40
0.0
 40
0.0
 40
1.0
 40
1.0
 40
1.0
 10
0.1242835559257687
 20
0.1350909471511843
 30
0.0
 10
0.1886470355400265
 20
0.0423636436462402
 30
0.0
 10
0.1886470355400265
 20
-0.0219999551773071
 30
0.0
  0
SPLINE
  5
B5
330
70
100
AcDbEntity
  8
cutback1 v2_Sketch2
100
AcDbSpline
210
0.0
220
0.0
230
1.0
 70
     8
 71
     2
 72
     6
 73
     3
 74
     0
 42
0.000000001
 43
0.0000000001
 40
0.0
 40
0.0
 40
0.0
 40
1.0
 40
1.0
 40
1.0
 10
0.1886470355400265
 20
-0.0219999551773071
 30
0.0
 10
0.1886470355400274
 20
-0.1180000305175781
 30
0.0
 10
0.1035563983329961
 20
-0.1725454330444334
 30
0.0
  0
SPLINE
  5
B6
330
70
100
AcDbEntity
  8
cutback1 v2_Sketch2
100
AcDbSpline
210
0.0
220
0.0
230
1.0
 70
     8
 71
     2
 72
     6
 73
     3
 74
     0
 42
0.000000001
 43
0.0000000001
 40
0.0
 40
0.0
 40
0.0
 40
1.0
 40
1.0
 40
1.0
 10
0.1035563983329961
 20
-0.1725454330444334
 30
0.0
 10
0.05119252580492
 20
-0.2063636779785154
 30
0.0
 10
-0.0153529606452754
 20
-0.2063636779785152
 30
0.0
  0
SPLINE
  5
B7
330
70
100
AcDbEntity
  8
cutback1 v2_Sketch2
100
AcDbSpline
210
0.0
220
0.0
230
1.0
 70
     8
 71
     2
 72
     6
 73
     3
 74
     0
 42
0.000000001
 43
0.0000000001
 40
0.0
 40
0.0
 40
0.0
 40
1.0
 40
1.0
 40
1.0
 10
0.1886470355400265
 20
0.2278182506561279
 30
0.0
 10
0.1428291835197628
 20
0.2278182506561281
 30
0.0
 10
0.1428291835197628
 20
0.2681818008422854
 30
0.0
  0
SPLINE
  5
B8
330
70
100
AcDbEntity
  8
cutback1 v2_Sketch2
100
AcDbSpline
210
0.0
220
0.0
230
1.0
 70
     8
 71
     2
 72
     6
 73
     3
 74
     0
 42
0.000000001
 43
0.0000000001
 40
0.0
 40
0.0
 40
0.0
 40
1.0
 40
1.0
 40
1.0
 10
0.2431924380668819
 20
0.3281818628311157
 30
0.0
 10
0.2835562266716183
 20
0.3369090557098389
 30
0.0
 10
0.3173744716057003
 20
0.3663636445999145
 30
0.0
  0
SPLINE
  5
B9
330
70
100
AcDbEntity
  8
cutback1 v2_Sketch2
100
AcDbSpline
210
0.0
220
0.0
230
1.0
 70
     8
 71
     2
 72
     6
 73
     3
 74
     0
 42
0.000000001
 43
0.0000000001
 40
0.0
 40
0.0
 40
0.0
 40
1.0
 40
1.0
 40
1.0
 10
0.4581015147575558
 20
0.4623636603355406
 30
0.0
 10
0.4581015147575558
 20
0.3980000019073484
 30
0.0
 10
0.4101016559013547
 20
0.3380000591278074
 30
0.0
  0
SPLINE
  5
BA
330
70
100
AcDbEntity
  8
cutback1 v2_Sketch2
100
AcDbSpline
210
0.0
220
0.0
230
1.0
 70
     8
 71
     2
 72
     6
 73
     3
 74
     0
 42
0.000000001
 43
0.0000000001
 40
0.0
 40
0.0
 40
0.0
 40
1.0
 40
1.0
 40
1.0
 10
-0.0797164402595341
 20
-0.0721818208694454
 30
0.0
 10
-0.0458981953254512
 20
-0.1049090623855586
 30
0.0
 10
-0.0022618733039668
 20
-0.1049090623855589
 30
0.0
  0
SPLINE
  5
BB
330
70
100
AcDbEntity
  8
cutback1 v2_Sketch2
100
AcDbSpline
210
0.0
220
0.0
230
1.0
 70
     8
 71
     2
 72
     6
 73
     3
 74
     0
 42
0.000000001
 43
0.0000000001
 40
0.0
 40
0.0
 40
0.0
 40
1.0
 40
1.0
 40
1.0
 10
0.0642836131462277
 20
-0.0765454769134519
 30
0.0
 10
0.0839197673210324
 20
-0.0525454282760618
 30
0.0
 10
0.0839197673210324
 20
-0.0154545307159422
 30
0.0
  0
SPLINE
  5
BC
330
70
100
AcDbEntity
  8
cutback1 v2_Sketch2
100
AcDbSpline
210
0.0
220
0.0
230
1.0
 70
     8
 71
     2
 72
     6
 73
     3
 74
     0
 42
0.000000001
 43
0.0000000001
 40
0.0
 40
0.0
 40
0.0
 40
1.0
 40
1.0
 40
1.0
 10
-0.0153529606452754
 20
-0.2063636779785152
 30
0.0
 10
-0.1200802288642695
 20
-0.2063636779785152
 30
0.0
 10
-0.174625631391125
 20
-0.1310908794403072
 30
0.0
  0
SPLINE
  5
BD
330
70
100
AcDbEntity
  8
cutback1 v2_Sketch2
100
AcDbSpline
210
0.0
220
0.0
230
1.0
 70
     8
 71
     2
 72
     6
 73
     3
 74
     0
 42
0.000000001
 43
0.0000000001
 40
0.0
 40
0.0
 40
0.0
 40
1.0
 40
1.0
 40
1.0
 10
0.0839197673210324
 20
-0.0154545307159422
 30
0.0
 10
0.0839197673210324
 20
0.0303636789321902
 30
0.0
 10
0.0315563716301144
 20
0.1034545898437502
 30
0.0
  0
SPLINE
  5
BE
330
70
100
AcDbEntity
  8
cutback1 v2_Sketch2
100
AcDbSpline
210
0.0
220
0.0
230
1.0
 70
     8
 71
     2
 72
     6
 73
     3
 74
     0
 42
0.000000001
 43
0.0000000001
 40
0.0
 40
0.0
 40
0.0
 40
1.0
 40
1.0
 40
1.0
 10
0.0315563716301144
 20
0.1034545898437502
 30
0.0
 10
-0.0404436550727665
 20
0.2038182020187382
 30
0.0
 10
-0.0404436550727665
 20
0.285636425018311
 30
0.0
  0
SPLINE
  5
BF
330
70
100
AcDbEntity
  8
cutback1 v2_Sketch2
100
AcDbSpline
210
0.0
220
0.0
230
1.0
 70
     8
 71
     2
 72
     6
 73
     3
 74
     0
 42
0.000000001
 43
0.0000000001
 40
0.0
 40
0.0
 40
0.0
 40
1.0
 40
1.0
 40
1.0
 10
-0.0404436550727665
 20
0.285636425018311
 30
0.0
 10
-0.0404436550727665
 20
0.3947272300720219
 30
0.0
 10
0.0784652270683468
 20
0.4787272810935976
 30
0.0
  0
SPLINE
  5
C0
330
70
100
AcDbEntity
  8
cutback1 v2_Sketch2
100
AcDbSpline
210
0.0
220
0.0
230
1.0
 70
     8
 71
     2
 72
     6
 73
     3
 74
     0
 42
0.000000001
 43
0.0000000001
 40
0.0
 40
0.0
 40
0.0
 40
1.0
 40
1.0
 40
1.0
 10
0.0784652270683468
 20
0.4787272810935976
 30
0.0
 10
0.194101575792712
 20
0.5594545602798463
 30
0.0
 10
0.3228290118583859
 20
0.5594545602798461
 30
0.0
  0
SPLINE
  5
C1
330
70
100
AcDbEntity
  8
cutback1 v2_Sketch2
100
AcDbSpline
210
0.0
220
0.0
230
1.0
 70
     8
 71
     2
 72
     6
 73
     3
 74
     0
 42
0.000000001
 43
0.0000000001
 40
0.0
 40
0.0
 40
0.0
 40
1.0
 40
1.0
 40
1.0
 10
0.7111923732170285
 20
0.0150909423828118
 30
0.0
 10
0.6751925982841672
 20
-0.0481817722320561
 30
0.0
 10
0.6402833499321164
 20
-0.0918182134628301
 30
0.0
  0
SPLINE
  5
C2
330
70
100
AcDbEntity
  8
cutback1 v2_Sketch2
100
AcDbSpline
210
0.0
220
0.0
230
1.0
 70
     8
 71
     2
 72
     6
 73
     3
 74
     0
 42
0.000000001
 43
0.0000000001
 40
0.0
 40
0.0
 40
0.0
 40
1.0
 40
1.0
 40
1.0
 10
-0.110262151776868
 20
0.1765453815460209
 30
0.0
 10
-0.0829894505134403
 20
0.1765453815460209
 30
0.0
 10
-0.0829894505134403
 20
0.1547272205352788
 30
0.0
  0
SPLINE
  5
C3
330
70
100
AcDbEntity
  8
cutback1 v2_Sketch2
100
AcDbSpline
210
0.0
220
0.0
230
1.0
 70
     8
 71
     2
 72
     6
 73
     3
 74
     0
 42
0.000000001
 43
0.0000000001
 40
0.0
 40
0.0
 40
0.0
 40
1.0
 40
1.0
 40
1.0
 10
-0.1691710911384403
 20
0.1383635997772221
 30
0.0
 10
-0.1408073864570438
 20
0.1765453815460209
 30
0.0
 10
-0.110262151776868
 20
0.1765453815460209
 30
0.0
  0
SPLINE
  5
C4
330
70
100
AcDbEntity
  8
cutback1 v2_Sketch2
100
AcDbSpline
210
0.0
220
0.0
230
1.0
 70
     8
 71
     2
 72
     6
 73
     3
 74
     0
 42
0.000000001
 43
0.0000000001
 40
0.0
 40
0.0
 40
0.0
 40
1.0
 40
1.0
 40
1.0
 10
-0.0829894505134403
 20
0.1547272205352788
 30
0.0
 10
-0.0829894505134403
 20
0.1460000276565556
 30
0.0
 10
-0.0928075276008427
 20
0.1285455226898198
 30
0.0
  0
SPLINE
  5
C5
330
70
100
AcDbEntity
  8
cutback1 v2_Sketch2
100
AcDbSpline
210
0.0
220
0.0
230
1.0
 70
     8
 71
     2
 72
     6
 73
     3
 74
     0
 42
0.000000001
 43
0.0000000001
 40
0.0
 40
0.0
 40
0.0
 40
1.0
 40
1.0
 40
1.0
 10
-0.0928075276008427
 20
0.1285455226898198
 30
0.0
 10
-0.1178982220283329
 20
0.0816364288330083
 30
0.0
 10
-0.1178982220283329
 20
0.0183637142181401
 30
0.0
  0
SPLINE
  5
C6
330
70
100
AcDbEntity
  8
cutback1 v2_Sketch2
100
AcDbSpline
210
0.0
220
0.0
230
1.0
 70
     8
 71
     2
 72
     6
 73
     3
 74
     0
 42
0.000000001
 43
0.0000000001
 40
0.0
 40
0.0
 40
0.0
 40
1.0
 40
1.0
 40
1.0
 10
-0.1178982220283329
 20
0.0183637142181401
 30
0.0
 10
-0.1178982220283329
 20
-0.0350909233093257
 30
0.0
 10
-0.0797164402595341
 20
-0.0721818208694454
 30
0.0
  0
SPLINE
  5
C7
330
70
100
AcDbEntity
  8
cutback1 v2_Sketch2
100
AcDbSpline
210
0.0
220
0.0
230
1.0
 70
     8
 71
     2
 72
     6
 73
     3
 74
     0
 42
0.000000001
 43
0.0000000001
 40
0.0
 40
0.0
 40
0.0
 40
1.0
 40
1.0
 40
1.0
 10
-0.174625631391125
 20
-0.1310908794403072
 30
0.0
 10
-0.2128074131599247
 20
-0.0776363611221307
 30
0.0
 10
-0.2128074131599247
 20
-0.0045454502105706
 30
0.0
  0
SPLINE
  5
C8
330
70
100
AcDbEntity
  8
cutback1 v2_Sketch2
100
AcDbSpline
210
0.0
220
0.0
230
1.0
 70
     8
 71
     2
 72
     6
 73
     3
 74
     0
 42
0.000000001
 43
0.0000000001
 40
0.0
 40
0.0
 40
0.0
 40
1.0
 40
1.0
 40
1.0
 10
-0.0022618733039668
 20
-0.1049090623855589
 30
0.0
 10
0.0402834452995489
 20
-0.1049090623855589
 30
0.0
 10
0.0642836131462277
 20
-0.0765454769134519
 30
0.0
  0
SPLINE
  5
C9
330
70
100
AcDbEntity
  8
cutback1 v2_Sketch2
100
AcDbSpline
210
0.0
220
0.0
230
1.0
 70
     8
 71
     2
 72
     6
 73
     3
 74
     0
 42
0.000000001
 43
0.0000000001
 40
0.0
 40
0.0
 40
0.0
 40
1.0
 40
1.0
 40
1.0
 10
-0.2128074131599247
 20
-0.0045454502105706
 30
0.0
 10
-0.2128074131599247
 20
0.0805454254150398
 30
0.0
 10
-0.1691710911384403
 20
0.1383635997772221
 30
0.0
  0
SPLINE
  5
CA
330
70
100
AcDbEntity
  8
cutback1 v2_Sketch2
100
AcDbSpline
210
0.0
220
0.0
230
1.0
 70
     8
 71
     2
 72
     6
 73
     3
 74
     0
 42
0.000000001
 43
0.0000000001
 40
0.0
 40
0.0
 40
0.0
 40
1.0
 40
1.0
 40
1.0
 10
0.927192453325671
 20
0.452545464038848
 30
0.0
 10
0.927192453325671
 20
0.4285454750061027
 30
0.0
 10
0.9086468257316768
 20
0.3860000371932974
 30
0.0
  0
SPLINE
  5
CB
330
70
100
AcDbEntity
  8
cutback1 v2_Sketch2
100
AcDbSpline
210
0.0
220
0.0
230
1.0
 70
     8
 71
     2
 72
     6
 73
     3
 74
     0
 42
0.000000001
 43
0.0000000001
 40
0.0
 40
0.0
 40
0.0
 40
1.0
 40
1.0
 40
1.0
 10
0.9086468257316768
 20
0.3860000371932974
 30
0.0
 10
0.9250104464897335
 20
0.3630909919738761
 30
0.0
 10
0.9250104464897335
 20
0.3456363677978507
 30
0.0
  0
SPLINE
  5
CC
330
70
100
AcDbEntity
  8
cutback1 v2_Sketch2
100
AcDbSpline
210
0.0
220
0.0
230
1.0
 70
     8
 71
     2
 72
     6
 73
     3
 74
     0
 42
0.000000001
 43
0.0000000001
 40
0.0
 40
0.0
 40
0.0
 40
1.0
 40
1.0
 40
1.0
 10
0.8246467151054561
 20
0.5376363992691033
 30
0.0
 10
0.870465043962878
 20
0.5376363992691032
 30
0.0
 10
0.901010755480212
 20
0.5092727541923515
 30
0.0
  0
SPLINE
  5
CD
330
70
100
AcDbEntity
  8
cutback1 v2_Sketch2
100
AcDbSpline
210
0.0
220
0.0
230
1.0
 70
     8
 71
     2
 72
     6
 73
     3
 74
     0
 42
0.000000001
 43
0.0000000001
 40
0.0
 40
0.0
 40
0.0
 40
1.0
 40
1.0
 40
1.0
 10
0.5039198436149786
 20
-0.1769090890884402
 30
0.0
 10
0.4450104274162481
 20
-0.1769090890884402
 30
0.0
 10
0.4122831859001348
 20
-0.1212726831436159
 30
0.0
  0
SPLINE
  5
CE
330
70
100
AcDbEntity
  8
cutback1 v2_Sketch2
100
AcDbSpline
210
0.0
220
0.0
230
1.0
 70
     8
 71
     2
 72
     6
 73
     3
 74
     0
 42
0.000000001
 43
0.0000000001
 40
0.0
 40
0.0
 40
0.0
 40
1.0
 40
1.0
 40
1.0
 10
0.4122831859001348
 20
-0.1212726831436159
 30
0.0
 10
0.3915560283073605
 20
-0.0852726697921755
 30
0.0
 10
0.3915560283073605
 20
-0.0361818075180056
 30
0.0
  0
SPLINE
  5
CF
330
70
100
AcDbEntity
  8
cutback1 v2_Sketch2
100
AcDbSpline
210
0.0
220
0.0
230
1.0
 70
     8
 71
     2
 72
     6
 73
     3
 74
     0
 42
0.000000001
 43
0.0000000001
 40
0.0
 40
0.0
 40
0.0
 40
1.0
 40
1.0
 40
1.0
 10
0.3915560283073605
 20
-0.0361818075180056
 30
0.0
 10
0.3915560283073605
 20
0.0849090814590452
 30
0.0
 10
0.4679195918449582
 20
0.2310909032821653
 30
0.0
  0
SPLINE
  5
D0
330
70
100
AcDbEntity
  8
cutback1 v2_Sketch2
100
AcDbSpline
210
0.0
220
0.0
230
1.0
 70
     8
 71
     2
 72
     6
 73
     3
 74
     0
 42
0.000000001
 43
0.0000000001
 40
0.0
 40
0.0
 40
0.0
 40
1.0
 40
1.0
 40
1.0
 10
0.6402833499321164
 20
-0.0918182134628301
 30
0.0
 10
0.5715558566459844
 20
-0.1769090890884404
 30
0.0
 10
0.5039198436149786
 20
-0.1769090890884402
 30
0.0
  0
SPLINE
  5
D1
330
70
100
AcDbEntity
  8
cutback1 v2_Sketch2
100
AcDbSpline
210
0.0
220
0.0
230
1.0
 70
     8
 71
     2
 72
     6
 73
     3
 74
     0
 42
0.000000001
 43
0.0000000001
 40
0.0
 40
0.0
 40
0.0
 40
1.0
 40
1.0
 40
1.0
 10
0.6730105914482297
 20
0.4809091091156001
 30
0.0
 10
0.7515561618217648
 20
0.5376363992691033
 30
0.0
 10
0.8246467151054561
 20
0.5376363992691033
 30
0.0
  0
SPLINE
  5
D2
330
70
100
AcDbEntity
  8
cutback1 v2_Sketch2
100
AcDbSpline
210
0.0
220
0.0
230
1.0
 70
     8
 71
     2
 72
     6
 73
     3
 74
     0
 42
0.000000001
 43
0.0000000001
 40
0.0
 40
0.0
 40
0.0
 40
1.0
 40
1.0
 40
1.0
 10
0.901010755480212
 20
0.5092727541923515
 30
0.0
 10
0.927192453325671
 20
0.4841818213462821
 30
0.0
 10
0.927192453325671
 20
0.452545464038848
 30
0.0
  0
SPLINE
  5
D3
330
70
100
AcDbEntity
  8
cutback1 v2_Sketch2
100
AcDbSpline
210
0.0
220
0.0
230
1.0
 70
     8
 71
     2
 72
     6
 73
     3
 74
     0
 42
0.000000001
 43
0.0000000001
 40
0.0
 40
0.0
 40
0.0
 40
1.0
 40
1.0
 40
1.0
 10
0.8944652118095577
 20
0.2703635692596427
 30
0.0
 10
0.8628289737114132
 20
0.2169091701507562
 30
0.0
 10
0.8311922587761104
 20
0.1285455226898187
 30
0.0
  0
SPLINE
  5
D4
330
70
100
AcDbEntity
  8
cutback1 v2_Sketch2
100
AcDbSpline
210
0.0
220
0.0
230
1.0
 70
     8
 71
     2
 72
     6
 73
     3
 74
     0
 42
0.000000001
 43
0.0000000001
 40
0.0
 40
0.0
 40
0.0
 40
1.0
 40
1.0
 40
1.0
 10
0.8311922587761104
 20
0.1285455226898187
 30
0.0
 10
0.7973740138420285
 20
0.0347273349761956
 30
0.0
 10
0.7973740138420285
 20
-0.0219999551773078
 30
0.0
  0
SPLINE
  5
D5
330
70
100
AcDbEntity
  8
cutback1 v2_Sketch2
100
AcDbSpline
210
0.0
220
0.0
230
1.0
 70
     8
 71
     2
 72
     6
 73
     3
 74
     0
 42
0.000000001
 43
0.0000000001
 40
0.0
 40
0.0
 40
0.0
 40
1.0
 40
1.0
 40
1.0
 10
0.7973740138420285
 20
-0.0219999551773078
 30
0.0
 10
0.7973740138420285
 20
-0.0678181648254401
 30
0.0
 10
0.8246467151054561
 20
-0.0972727537155158
 30
0.0
  0
SPLINE
  5
D6
330
70
100
AcDbEntity
  8
cutback1 v2_Sketch2
100
AcDbSpline
210
0.0
220
0.0
230
1.0
 70
     8
 71
     2
 72
     6
 73
     3
 74
     0
 42
0.000000001
 43
0.0000000001
 40
0.0
 40
0.0
 40
0.0
 40
1.0
 40
1.0
 40
1.0
 10
0.4679195918449582
 20
0.2310909032821653
 30
0.0
 10
0.5530107058891476
 20
0.3936364650726314
 30
0.0
 10
0.6730105914482297
 20
0.4809091091156001
 30
0.0
  0
SPLINE
  5
D7
330
70
100
AcDbEntity
  8
cutback1 v2_Sketch2
100
AcDbSpline
210
0.0
220
0.0
230
1.0
 70
     8
 71
     2
 72
     6
 73
     3
 74
     0
 42
0.000000001
 43
0.0000000001
 40
0.0
 40
0.0
 40
0.0
 40
1.0
 40
1.0
 40
1.0
 10
0.9250104464897335
 20
0.3456363677978507
 30
0.0
 10
0.9250104464897335
 20
0.3227272033691397
 30
0.0
 10
0.8944652118095577
 20
0.2703635692596427
 30
0.0
  0
SPLINE
  5
D8
330
70
100
AcDbEntity
  8
cutback1 v2_Sketch2
100
AcDbSpline
210
0.0
220
0.0
230
1.0
 70
     8
 71
     2
 72
     6
 73
     3
 74
     0
 42
0.000000001
 43
0.0000000001
 40
0.0
 40
0.0
 40
0.0
 40
1.0
 40
1.0
 40
1.0
 10
0.8246467151054561
 20
-0.0972727537155158
 30
0.0
 10
0.8322832621940801
 20
-0.1049090623855597
 30
0.0
 10
0.8693740405449101
 20
-0.1223635673522956
 30
0.0
  0
SPLINE
  5
D9
330
70
100
AcDbEntity
  8
cutback1 v2_Sketch2
100
AcDbSpline
210
0.0
220
0.0
230
1.0
 70
     8
 71
     2
 72
     6
 73
     3
 74
     0
 42
0.000000001
 43
0.0000000001
 40
0.0
 40
0.0
 40
0.0
 40
1.0
 40
1.0
 40
1.0
 10
0.8693740405449101
 20
-0.1223635673522956
 30
0.0
 10
0.8966472186454961
 20
-0.1354545354843148
 30
0.0
 10
0.8966472186454961
 20
-0.1681817770004281
 30
0.0
  0
SPLINE
  5
DA
330
70
100
AcDbEntity
  8
cutback1 v2_Sketch2
100
AcDbSpline
210
0.0
220
0.0
230
1.0
 70
     8
 71
     2
 72
     6
 73
     3
 74
     0
 42
0.000000001
 43
0.0000000001
 40
0.0
 40
0.0
 40
0.0
 40
1.0
 40
1.0
 40
1.0
 10
0.6631925143608273
 20
0.0598181486129756
 30
0.0
 10
0.7024652995475949
 20
0.1209090948104852
 30
0.0
 10
0.7602832354911984
 20
0.2398182153701776
 30
0.0
  0
SPLINE
  5
DB
330
70
100
AcDbEntity
  8
cutback1 v2_Sketch2
100
AcDbSpline
210
0.0
220
0.0
230
1.0
 70
     8
 71
     2
 72
     6
 73
     3
 74
     0
 42
0.000000001
 43
0.0000000001
 40
0.0
 40
0.0
 40
0.0
 40
1.0
 40
1.0
 40
1.0
 10
0.5099198855766476
 20
-0.0372726917266848
 30
0.0
 10
0.5202834643730343
 20
-0.0514545440673833
 30
0.0
 10
0.5410106219658078
 20
-0.0514545440673833
 30
0.0
  0
SPLINE
  5
DC
330
70
100
AcDbEntity
  8
cutback1 v2_Sketch2
100
AcDbSpline
210
0.0
220
0.0
230
1.0
 70
     8
 71
     2
 72
     6
 73
     3
 74
     0
 42
0.000000001
 43
0.0000000001
 40
0.0
 40
0.0
 40
0.0
 40
1.0
 40
1.0
 40
1.0
 10
0.8159196414360225
 20
0.3423635959625237
 30
0.0
 10
0.8246467151054561
 20
0.3554545640945428
 30
0.0
 10
0.8475558795341671
 20
0.3740000724792474
 30
0.0
  0
SPLINE
  5
DD
330
70
100
AcDbEntity
  8
cutback1 v2_Sketch2
100
AcDbSpline
210
0.0
220
0.0
230
1.0
 70
     8
 71
     2
 72
     6
 73
     3
 74
     0
 42
0.000000001
 43
0.0000000001
 40
0.0
 40
0.0
 40
0.0
 40
1.0
 40
1.0
 40
1.0
 10
0.88137412446825
 20
-0.2020000219345102
 30
0.0
 10
0.8650105037101933
 20
-0.2161818742752082
 30
0.0
 10
0.8431923426994512
 20
-0.2161818742752082
 30
0.0
  0
SPLINE
  5
DE
330
70
100
AcDbEntity
  8
cutback1 v2_Sketch2
100
AcDbSpline
210
0.0
220
0.0
230
1.0
 70
     8
 71
     2
 72
     6
 73
     3
 74
     0
 42
0.000000001
 43
0.0000000001
 40
0.0
 40
0.0
 40
0.0
 40
1.0
 40
1.0
 40
1.0
 10
0.7602832354911984
 20
0.2398182153701776
 30
0.0
 10
0.7984650172599972
 20
0.3172726631164544
 30
0.0
 10
0.8159196414360225
 20
0.3423635959625237
 30
0.0
  0
SPLINE
  5
DF
330
70
100
AcDbEntity
  8
cutback1 v2_Sketch2
100
AcDbSpline
210
0.0
220
0.0
230
1.0
 70
     8
 71
     2
 72
     6
 73
     3
 74
     0
 42
0.000000001
 43
0.0000000001
 40
0.0
 40
0.0
 40
0.0
 40
1.0
 40
1.0
 40
1.0
 10
1.360283140123766
 20
0.1405454874038683
 30
0.0
 10
1.263192418993395
 20
0.0260000228881823
 30
0.0
 10
1.205374006212633
 20
-0.0296363830566417
 30
0.0
  0
SPLINE
  5
E0
330
70
100
AcDbEntity
  8
cutback1 v2_Sketch2
100
AcDbSpline
210
0.0
220
0.0
230
1.0
 70
     8
 71
     2
 72
     6
 73
     3
 74
     0
 42
0.000000001
 43
0.0000000001
 40
0.0
 40
0.0
 40
0.0
 40
1.0
 40
1.0
 40
1.0
 10
0.5410106219658078
 20
-0.0514545440673833
 30
0.0
 10
0.5933740176567257
 20
-0.0514545440673833
 30
0.0
 10
0.6631925143608273
 20
0.0598181486129756
 30
0.0
  0
SPLINE
  5
E1
330
70
100
AcDbEntity
  8
cutback1 v2_Sketch2
100
AcDbSpline
210
0.0
220
0.0
230
1.0
 70
     8
 71
     2
 72
     6
 73
     3
 74
     0
 42
0.000000001
 43
0.0000000001
 40
0.0
 40
0.0
 40
0.0
 40
1.0
 40
1.0
 40
1.0
 10
0.8966472186454961
 20
-0.1681817770004281
 30
0.0
 10
0.8966472186454961
 20
-0.1889090538024911
 30
0.0
 10
0.88137412446825
 20
-0.2020000219345102
 30
0.0
  0
SPLINE
  5
E2
330
70
100
AcDbEntity
  8
cutback1 v2_Sketch2
100
AcDbSpline
210
0.0
220
0.0
230
1.0
 70
     8
 71
     2
 72
     6
 73
     3
 74
     0
 42
0.000000001
 43
0.0000000001
 40
0.0
 40
0.0
 40
0.0
 40
1.0
 40
1.0
 40
1.0
 10
0.8475558795341671
 20
0.3740000724792474
 30
0.0
 10
0.8344652690300167
 20
0.398000001907348
 30
0.0
 10
0.8191926516899288
 20
0.4094545841217034
 30
0.0
  0
SPLINE
  5
E3
330
70
100
AcDbEntity
  8
cutback1 v2_Sketch2
100
AcDbSpline
210
0.0
220
0.0
230
1.0
 70
     8
 71
     2
 72
     6
 73
     3
 74
     0
 42
0.000000001
 43
0.0000000001
 40
0.0
 40
0.0
 40
0.0
 40
1.0
 40
1.0
 40
1.0
 10
0.7068288363823117
 20
-0.056909084320069
 30
0.0
 10
0.7068288363823117
 20
-0.0350909233093269
 30
0.0
 10
0.7111923732170285
 20
0.0150909423828118
 30
0.0
  0
SPLINE
  5
E4
330
70
100
AcDbEntity
  8
cutback1 v2_Sketch2
100
AcDbSpline
210
0.0
220
0.0
230
1.0
 70
     8
 71
     2
 72
     6
 73
     3
 74
     0
 42
0.000000001
 43
0.0000000001
 40
0.0
 40
0.0
 40
0.0
 40
1.0
 40
1.0
 40
1.0
 10
0.8431923426994512
 20
-0.2161818742752082
 30
0.0
 10
0.784283403337879
 20
-0.2161818742752082
 30
0.0
 10
0.7417380847343634
 20
-0.1638181209564216
 30
0.0
  0
SPLINE
  5
E5
330
70
100
AcDbEntity
  8
cutback1 v2_Sketch2
100
AcDbSpline
210
0.0
220
0.0
230
1.0
 70
     8
 71
     2
 72
     6
 73
     3
 74
     0
 42
0.000000001
 43
0.0000000001
 40
0.0
 40
0.0
 40
0.0
 40
1.0
 40
1.0
 40
1.0
 10
0.6064651049980343
 20
0.2758181095123287
 30
0.0
 10
0.4995558299431027
 20
0.1154545545578001
 30
0.0
 10
0.4995558299431027
 20
0.0041818618774412
 30
0.0
  0
SPLINE
  5
E6
330
70
100
AcDbEntity
  8
cutback1 v2_Sketch2
100
AcDbSpline
210
0.0
220
0.0
230
1.0
 70
     8
 71
     2
 72
     6
 73
     3
 74
     0
 42
0.000000001
 43
0.0000000001
 40
0.0
 40
0.0
 40
0.0
 40
1.0
 40
1.0
 40
1.0
 10
0.8191926516899288
 20
0.4094545841217034
 30
0.0
 10
0.8039195575126827
 20
0.4209091067314141
 30
0.0
 10
0.7864649333366574
 20
0.4209091067314141
 30
0.0
  0
SPLINE
  5
E7
330
70
100
AcDbEntity
  8
cutback1 v2_Sketch2
100
AcDbSpline
210
0.0
220
0.0
230
1.0
 70
     8
 71
     2
 72
     6
 73
     3
 74
     0
 42
0.000000001
 43
0.0000000001
 40
0.0
 40
0.0
 40
0.0
 40
1.0
 40
1.0
 40
1.0
 10
0.7417380847343634
 20
-0.1638181209564216
 30
0.0
 10
0.7068288363823126
 20
-0.1212726831436164
 30
0.0
 10
0.7068288363823117
 20
-0.056909084320069
 30
0.0
  0
SPLINE
  5
E8
330
70
100
AcDbEntity
  8
cutback1 v2_Sketch2
100
AcDbSpline
210
0.0
220
0.0
230
1.0
 70
     8
 71
     2
 72
     6
 73
     3
 74
     0
 42
0.000000001
 43
0.0000000001
 40
0.0
 40
0.0
 40
0.0
 40
1.0
 40
1.0
 40
1.0
 10
0.7864649333366574
 20
0.4209091067314141
 30
0.0
 10
0.7035558261284054
 20
0.4209091067314143
 30
0.0
 10
0.6064651049980343
 20
0.2758181095123287
 30
0.0
  0
SPLINE
  5
E9
330
70
100
AcDbEntity
  8
cutback1 v2_Sketch2
100
AcDbSpline
210
0.0
220
0.0
230
1.0
 70
     8
 71
     2
 72
     6
 73
     3
 74
     0
 42
0.000000001
 43
0.0000000001
 40
0.0
 40
0.0
 40
0.0
 40
1.0
 40
1.0
 40
1.0
 10
0.4995558299431027
 20
0.0041818618774412
 30
0.0
 10
0.4995558299431027
 20
-0.0230908393859866
 30
0.0
 10
0.5099198855766476
 20
-0.0372726917266848
 30
0.0
  0
SPLINE
  5
EA
330
70
100
AcDbEntity
  8
cutback1 v2_Sketch2
100
AcDbSpline
210
0.0
220
0.0
230
1.0
 70
     8
 71
     2
 72
     6
 73
     3
 74
     0
 42
0.000000001
 43
0.0000000001
 40
0.0
 40
0.0
 40
0.0
 40
1.0
 40
1.0
 40
1.0
 10
1.242464784563463
 20
0.2889090776443468
 30
0.0
 10
1.180283311785143
 20
0.2245454788207997
 30
0.0
 10
1.127919439257067
 20
0.1492726802825917
 30
0.0
  0
SPLINE
  5
EB
330
70
100
AcDbEntity
  8
cutback1 v2_Sketch2
100
AcDbSpline
210
0.0
220
0.0
230
1.0
 70
     8
 71
     2
 72
     6
 73
     3
 74
     0
 42
0.000000001
 43
0.0000000001
 40
0.0
 40
0.0
 40
0.0
 40
1.0
 40
1.0
 40
1.0
 10
1.205374006212633
 20
-0.0296363830566417
 30
0.0
 10
1.090828660906238
 20
-0.1387271881103527
 30
0.0
 10
1.01446509736864
 20
-0.1387271881103524
 30
0.0
  0
SPLINE
  5
EC
330
70
100
AcDbEntity
  8
cutback1 v2_Sketch2
100
AcDbSpline
210
0.0
220
0.0
230
1.0
 70
     8
 71
     2
 72
     6
 73
     3
 74
     0
 42
0.000000001
 43
0.0000000001
 40
0.0
 40
0.0
 40
0.0
 40
1.0
 40
1.0
 40
1.0
 10
1.01446509736864
 20
-0.1387271881103524
 30
0.0
 10
0.9773743190178105
 20
-0.1387271881103524
 30
0.0
 10
0.9555561580070683
 20
-0.1114544868469247
 30
0.0
  0
SPLINE
  5
ED
330
70
100
AcDbEntity
  8
cutback1 v2_Sketch2
100
AcDbSpline
210
0.0
220
0.0
230
1.0
 70
     8
 71
     2
 72
     6
 73
     3
 74
     0
 42
0.000000001
 43
0.0000000001
 40
0.0
 40
0.0
 40
0.0
 40
1.0
 40
1.0
 40
1.0
 10
0.9555561580070683
 20
-0.1114544868469247
 30
0.0
 10
0.9391925372490108
 20
-0.0896363258361825
 30
0.0
 10
0.9391925372490108
 20
-0.0569090843200693
 30
0.0
  0
SPLINE
  5
EE
330
70
100
AcDbEntity
  8
cutback1 v2_Sketch2
100
AcDbSpline
210
0.0
220
0.0
230
1.0
 70
     8
 71
     2
 72
     6
 73
     3
 74
     0
 42
0.000000001
 43
0.0000000001
 40
0.0
 40
0.0
 40
0.0
 40
1.0
 40
1.0
 40
1.0
 10
0.9391925372490108
 20
-0.0569090843200693
 30
0.0
 10
0.9391925372490108
 20
0.0609090328216544
 30
0.0
 10
1.078828576982897
 20
0.2561818361282337
 30
0.0
  0
SPLINE
  5
EF
330
70
100
AcDbEntity
  8
cutback1 v2_Sketch2
100
AcDbSpline
210
0.0
220
0.0
230
1.0
 70
     8
 71
     2
 72
     6
 73
     3
 74
     0
 42
0.000000001
 43
0.0000000001
 40
0.0
 40
0.0
 40
0.0
 40
1.0
 40
1.0
 40
1.0
 10
1.314465288103503
 20
0.4394545555114733
 30
0.0
 10
1.326464895189684
 20
0.427454590797423
 30
0.0
 10
1.326464895189684
 20
0.4110909700393664
 30
0.0
  0
SPLINE
  5
F0
330
70
100
AcDbEntity
  8
cutback1 v2_Sketch2
100
AcDbSpline
210
0.0
220
0.0
230
1.0
 70
     8
 71
     2
 72
     6
 73
     3
 74
     0
 42
0.000000001
 43
0.0000000001
 40
0.0
 40
0.0
 40
0.0
 40
1.0
 40
1.0
 40
1.0
 10
1.313919786394518
 20
0.369090914726256
 30
0.0
 10
1.301374200762194
 20
0.3510909080505358
 30
0.0
 10
1.242464784563463
 20
0.2889090776443468
 30
0.0
  0
SPLINE
  5
F1
330
70
100
AcDbEntity
  8
cutback1 v2_Sketch2
100
AcDbSpline
210
0.0
220
0.0
230
1.0
 70
     8
 71
     2
 72
     6
 73
     3
 74
     0
 42
0.000000001
 43
0.0000000001
 40
0.0
 40
0.0
 40
0.0
 40
1.0
 40
1.0
 40
1.0
 10
1.127919439257067
 20
0.1492726802825917
 30
0.0
 10
1.067919496477526
 20
0.0641818046569813
 30
0.0
 10
1.067919496477526
 20
0.0249090194702137
 30
0.0
  0
SPLINE
  5
F2
330
70
100
AcDbEntity
  8
cutback1 v2_Sketch2
100
AcDbSpline
210
0.0
220
0.0
230
1.0
 70
     8
 71
     2
 72
     6
 73
     3
 74
     0
 42
0.000000001
 43
0.0000000001
 40
0.0
 40
0.0
 40
0.0
 40
1.0
 40
1.0
 40
1.0
 10
1.326464895189684
 20
0.4110909700393664
 30
0.0
 10
1.326464895189684
 20
0.3870909214019762
 30
0.0
 10
1.313919786394518
 20
0.369090914726256
 30
0.0
  0
SPLINE
  5
F3
330
70
100
AcDbEntity
  8
cutback1 v2_Sketch2
100
AcDbSpline
210
0.0
220
0.0
230
1.0
 70
     8
 71
     2
 72
     6
 73
     3
 74
     0
 42
0.000000001
 43
0.0000000001
 40
0.0
 40
0.0
 40
0.0
 40
1.0
 40
1.0
 40
1.0
 10
1.078828576982897
 20
0.2561818361282337
 30
0.0
 10
1.220646623552721
 20
0.4547272920608508
 30
0.0
 10
1.283919576586169
 20
0.4547272920608508
 30
0.0
  0
SPLINE
  5
F4
330
70
100
AcDbEntity
  8
cutback1 v2_Sketch2
100
AcDbSpline
210
0.0
220
0.0
230
1.0
 70
     8
 71
     2
 72
     6
 73
     3
 74
     0
 42
0.000000001
 43
0.0000000001
 40
0.0
 40
0.0
 40
0.0
 40
1.0
 40
1.0
 40
1.0
 10
1.067919496477526
 20
0.0249090194702137
 30
0.0
 10
1.067919496477526
 20
0.0020000934600819
 30
0.0
 10
1.089737657488268
 20
0.0020000934600819
 30
0.0
  0
SPLINE
  5
F5
330
70
100
AcDbEntity
  8
cutback1 v2_Sketch2
100
AcDbSpline
210
0.0
220
0.0
230
1.0
 70
     8
 71
     2
 72
     6
 73
     3
 74
     0
 42
0.000000001
 43
0.0000000001
 40
0.0
 40
0.0
 40
0.0
 40
1.0
 40
1.0
 40
1.0
 10
1.089737657488268
 20
0.0020000934600819
 30
0.0
 10
1.133373979509753
 20
0.0020000934600819
 30
0.0
 10
1.253374341905993
 20
0.1209090948104845
 30
0.0
  0
SPLINE
  5
F6
330
70
100
AcDbEntity
  8
cutback1 v2_Sketch2
100
AcDbSpline
210
0.0
220
0.0
230
1.0
 70
     8
 71
     2
 72
     6
 73
     3
 74
     0
 42
0.000000001
 43
0.0000000001
 40
0.0
 40
0.0
 40
0.0
 40
1.0
 40
1.0
 40
1.0
 10
1.253374341905993
 20
0.1209090948104845
 30
0.0
 10
1.328646902025622
 20
0.196181774139403
 30
0.0
 10
1.371192220629137
 20
0.2474545240402208
 30
0.0
  0
SPLINE
  5
F7
330
70
100
AcDbEntity
  8
cutback1 v2_Sketch2
100
AcDbSpline
210
0.0
220
0.0
230
1.0
 70
     8
 71
     2
 72
     6
 73
     3
 74
     0
 42
0.000000001
 43
0.0000000001
 40
0.0
 40
0.0
 40
0.0
 40
1.0
 40
1.0
 40
1.0
 10
1.371192220629137
 20
0.2474545240402208
 30
0.0
 10
1.379919771135729
 20
0.2583636045455919
 30
0.0
 10
1.447555784166735
 20
0.3510909080505355
 30
0.0
  0
SPLINE
  5
F8
330
70
100
AcDbEntity
  8
cutback1 v2_Sketch2
100
AcDbSpline
210
0.0
220
0.0
230
1.0
 70
     8
 71
     2
 72
     6
 73
     3
 74
     0
 42
0.000000001
 43
0.0000000001
 40
0.0
 40
0.0
 40
0.0
 40
1.0
 40
1.0
 40
1.0
 10
1.447555784166735
 20
0.3510909080505355
 30
0.0
 10
1.508646730364245
 20
0.4329091310501083
 30
0.0
 10
1.522828821123522
 20
0.4481818675994857
 30
0.0
  0
SPLINE
  5
F9
330
70
100
AcDbEntity
  8
cutback1 v2_Sketch2
100
AcDbSpline
210
0.0
220
0.0
230
1.0
 70
     8
 71
     2
 72
     6
 73
     3
 74
     0
 42
0.000000001
 43
0.0000000001
 40
0.0
 40
0.0
 40
0.0
 40
1.0
 40
1.0
 40
1.0
 10
1.283919576586169
 20
0.4547272920608508
 30
0.0
 10
1.301374200762194
 20
0.4547272920608508
 30
0.0
 10
1.314465288103503
 20
0.4394545555114733
 30
0.0
  0
SPLINE
  5
FA
330
70
100
AcDbEntity
  8
cutback1 v2_Sketch2
100
AcDbSpline
210
0.0
220
0.0
230
1.0
 70
     8
 71
     2
 72
     6
 73
     3
 74
     0
 42
0.000000001
 43
0.0000000001
 40
0.0
 40
0.0
 40
0.0
 40
1.0
 40
1.0
 40
1.0
 10
1.48901057618944
 20
0.1634545326232895
 30
0.0
 10
1.420283082903307
 20
0.0412727594375595
 30
0.0
 10
1.383192304552477
 20
-0.0547273159027113
 30
0.0
  0
SPLINE
  5
FB
330
70
100
AcDbEntity
  8
cutback1 v2_Sketch2
100
AcDbSpline
210
0.0
220
0.0
230
1.0
 70
     8
 71
     2
 72
     6
 73
     3
 74
     0
 42
0.000000001
 43
0.0000000001
 40
0.0
 40
0.0
 40
0.0
 40
1.0
 40
1.0
 40
1.0
 10
1.628646615923327
 20
0.4383636713027937
 30
0.0
 10
1.628646615923327
 20
0.4067273139953596
 30
0.0
 10
1.585010293901842
 20
0.3325455188751203
 30
0.0
  0
SPLINE
  5
FC
330
70
100
AcDbEntity
  8
cutback1 v2_Sketch2
100
AcDbSpline
210
0.0
220
0.0
230
1.0
 70
     8
 71
     2
 72
     6
 73
     3
 74
     0
 42
0.000000001
 43
0.0000000001
 40
0.0
 40
0.0
 40
0.0
 40
1.0
 40
1.0
 40
1.0
 10
1.605737928331774
 20
0.0314545631408674
 30
0.0
 10
1.487919572771472
 20
-0.1059999465942398
 30
0.0
 10
1.315555814684314
 20
-0.2020000219345106
 30
0.0
  0
SPLINE
  5
FD
330
70
100
AcDbEntity
  8
cutback1 v2_Sketch2
100
AcDbSpline
210
0.0
220
0.0
230
1.0
 70
     8
 71
     2
 72
     6
 73
     3
 74
     0
 42
0.000000001
 43
0.0000000001
 40
0.0
 40
0.0
 40
0.0
 40
1.0
 40
1.0
 40
1.0
 10
1.142101530016345
 20
-0.5674545764923107
 30
0.0
 10
0.9893739261039922
 20
-0.8347272872924813
 30
0.0
 10
0.8268287219413945
 20
-0.8347272872924813
 30
0.0
  0
SPLINE
  5
FE
330
70
100
AcDbEntity
  8
cutback1 v2_Sketch2
100
AcDbSpline
210
0.0
220
0.0
230
1.0
 70
     8
 71
     2
 72
     6
 73
     3
 74
     0
 42
0.000000001
 43
0.0000000001
 40
0.0
 40
0.0
 40
0.0
 40
1.0
 40
1.0
 40
1.0
 10
1.583919767321032
 20
0.4863636493682845
 30
0.0
 10
1.601374391497057
 20
0.4863636493682845
 30
0.0
 10
1.615556005419176
 20
0.471090912818907
 30
0.0
  0
SPLINE
  5
FF
330
70
100
AcDbEntity
  8
cutback1 v2_Sketch2
100
AcDbSpline
210
0.0
220
0.0
230
1.0
 70
     8
 71
     2
 72
     6
 73
     3
 74
     0
 42
0.000000001
 43
0.0000000001
 40
0.0
 40
0.0
 40
0.0
 40
1.0
 40
1.0
 40
1.0
 10
1.615556005419176
 20
0.471090912818907
 30
0.0
 10
1.628646615923327
 20
0.4569090604782087
 30
0.0
 10
1.628646615923327
 20
0.4383636713027937
 30
0.0
  0
SPLINE
  5
100
330
70
100
AcDbEntity
  8
cutback1 v2_Sketch2
100
AcDbSpline
210
0.0
220
0.0
230
1.0
 70
     8
 71
     2
 72
     6
 73
     3
 74
     0
 42
0.000000001
 43
0.0000000001
 40
0.0
 40
0.0
 40
0.0
 40
1.0
 40
1.0
 40
1.0
 10
1.585010293901842
 20
0.3325455188751203
 30
0.0
 10
1.532646898210924
 20
0.2419999837875351
 30
0.0
 10
1.48901057618944
 20
0.1634545326232895
 30
0.0
  0
SPLINE
  5
101
330
70
100
AcDbEntity
  8
cutback1 v2_Sketch2
100
AcDbSpline
210
0.0
220
0.0
230
1.0
 70
     8
 71
     2
 72
     6
 73
     3
 74
     0
 42
0.000000001
 43
0.0000000001
 40
0.0
 40
0.0
 40
0.0
 40
1.0
 40
1.0
 40
1.0
 10
1.383192304552477
 20
-0.0547273159027113
 30
0.0
 10
1.453010324419421
 20
-0.0143636465072648
 30
0.0
 10
1.510828737200182
 20
0.0445454120635971
 30
0.0
  0
SPLINE
  5
102
330
70
100
AcDbEntity
  8
cutback1 v2_Sketch2
100
AcDbSpline
210
0.0
220
0.0
230
1.0
 70
     8
 71
     2
 72
     6
 73
     3
 74
     0
 42
0.000000001
 43
0.0000000001
 40
0.0
 40
0.0
 40
0.0
 40
1.0
 40
1.0
 40
1.0
 10
1.67337394136278
 20
0.2343636751174909
 30
0.0
 10
1.703919652880114
 20
0.2343636751174909
 30
0.0
 10
1.703919652880114
 20
0.203818202018736
 30
0.0
  0
SPLINE
  5
103
330
70
100
AcDbEntity
  8
cutback1 v2_Sketch2
100
AcDbSpline
210
0.0
220
0.0
230
1.0
 70
     8
 71
     2
 72
     6
 73
     3
 74
     0
 42
0.000000001
 43
0.0000000001
 40
0.0
 40
0.0
 40
0.0
 40
1.0
 40
1.0
 40
1.0
 10
0.8268287219413945
 20
-0.8347272872924813
 30
0.0
 10
0.7602832354911993
 20
-0.8347272872924808
 30
0.0
 10
0.719919446886463
 20
-0.7834546566009526
 30
0.0
  0
SPLINE
  5
104
330
70
100
AcDbEntity
  8
cutback1 v2_Sketch2
100
AcDbSpline
210
0.0
220
0.0
230
1.0
 70
     8
 71
     2
 72
     6
 73
     3
 74
     0
 42
0.000000001
 43
0.0000000001
 40
0.0
 40
0.0
 40
0.0
 40
1.0
 40
1.0
 40
1.0
 10
0.719919446886463
 20
-0.7834546566009526
 30
0.0
 10
0.6882832087883184
 20
-0.7441818714141851
 30
0.0
 10
0.6882832087883184
 20
-0.684181928634644
 30
0.0
  0
SPLINE
  5
105
330
70
100
AcDbEntity
  8
cutback1 v2_Sketch2
100
AcDbSpline
210
0.0
220
0.0
230
1.0
 70
     8
 71
     2
 72
     6
 73
     3
 74
     0
 42
0.000000001
 43
0.0000000001
 40
0.0
 40
0.0
 40
0.0
 40
1.0
 40
1.0
 40
1.0
 10
1.522828821123522
 20
0.4481818675994857
 30
0.0
 10
1.555556062639635
 20
0.4863636493682845
 30
0.0
 10
1.583919767321032
 20
0.4863636493682845
 30
0.0
  0
SPLINE
  5
106
330
70
100
AcDbEntity
  8
cutback1 v2_Sketch2
100
AcDbSpline
210
0.0
220
0.0
230
1.0
 70
     8
 71
     2
 72
     6
 73
     3
 74
     0
 42
0.000000001
 43
0.0000000001
 40
0.0
 40
0.0
 40
0.0
 40
1.0
 40
1.0
 40
1.0
 10
1.630828622759264
 20
0.190727233886717
 30
0.0
 10
1.651555780352038
 20
0.2343636751174909
 30
0.0
 10
1.67337394136278
 20
0.2343636751174909
 30
0.0
  0
SPLINE
  5
107
330
70
100
AcDbEntity
  8
cutback1 v2_Sketch2
100
AcDbSpline
210
0.0
220
0.0
230
1.0
 70
     8
 71
     2
 72
     6
 73
     3
 74
     0
 42
0.000000001
 43
0.0000000001
 40
0.0
 40
0.0
 40
0.0
 40
1.0
 40
1.0
 40
1.0
 10
1.703919652880114
 20
0.203818202018736
 30
0.0
 10
1.703919652880114
 20
0.1460000276565534
 30
0.0
 10
1.605737928331774
 20
0.0314545631408674
 30
0.0
  0
SPLINE
  5
108
330
70
100
AcDbEntity
  8
cutback1 v2_Sketch2
100
AcDbSpline
210
0.0
220
0.0
230
1.0
 70
     8
 71
     2
 72
     6
 73
     3
 74
     0
 42
0.000000001
 43
0.0000000001
 40
0.0
 40
0.0
 40
0.0
 40
1.0
 40
1.0
 40
1.0
 10
1.510828737200182
 20
0.0445454120635971
 30
0.0
 10
1.609010461748522
 20
0.1427272558212262
 30
0.0
 10
1.630828622759264
 20
0.190727233886717
 30
0.0
  0
SPLINE
  5
109
330
70
100
AcDbEntity
  8
cutback1 v2_Sketch2
100
AcDbSpline
210
0.0
220
0.0
230
1.0
 70
     8
 71
     2
 72
     6
 73
     3
 74
     0
 42
0.000000001
 43
0.0000000001
 40
0.0
 40
0.0
 40
0.0
 40
1.0
 40
1.0
 40
1.0
 10
1.315555814684314
 20
-0.2020000219345106
 30
0.0
 10
1.223919633806628
 20
-0.42236363887787
 30
0.0
 10
1.142101530016345
 20
-0.5674545764923107
 30
0.0
  0
SPLINE
  5
10A
330
70
100
AcDbEntity
  8
cutback1 v2_Sketch2
100
AcDbSpline
210
0.0
220
0.0
230
1.0
 70
     8
 71
     2
 72
     6
 73
     3
 74
     0
 42
0.000000001
 43
0.0000000001
 40
0.0
 40
0.0
 40
0.0
 40
1.0
 40
1.0
 40
1.0
 10
0.9271924533256719
 20
-0.33618187904358
 30
0.0
 10
0.9970104731926152
 20
-0.2838182449340829
 30
0.0
 10
1.134464982927722
 20
-0.205272674560548
 30
0.0
  0
SPLINE
  5
10B
330
70
100
AcDbEntity
  8
cutback1 v2_Sketch2
100
AcDbSpline
210
0.0
220
0.0
230
1.0
 70
     8
 71
     2
 72
     6
 73
     3
 74
     0
 42
0.000000001
 43
0.0000000001
 40
0.0
 40
0.0
 40
0.0
 40
1.0
 40
1.0
 40
1.0
 10
1.134464982927722
 20
-0.205272674560548
 30
0.0
 10
1.190101388872546
 20
-0.1736364364624034
 30
0.0
 10
1.221737626970691
 20
-0.1540000438690197
 30
0.0
  0
SPLINE
  5
10C
330
70
100
AcDbEntity
  8
cutback1 v2_Sketch2
100
AcDbSpline
210
0.0
220
0.0
230
1.0
 70
     8
 71
     2
 72
     6
 73
     3
 74
     0
 42
0.000000001
 43
0.0000000001
 40
0.0
 40
0.0
 40
0.0
 40
1.0
 40
1.0
 40
1.0
 10
1.281737569750231
 20
-0.0209090709686293
 30
0.0
 10
1.326464895189684
 20
0.0685454607009874
 30
0.0
 10
1.360283140123766
 20
0.1405454874038683
 30
0.0
  0
SPLINE
  5
10D
330
70
100
AcDbEntity
  8
cutback1 v2_Sketch2
100
AcDbSpline
210
0.0
220
0.0
230
1.0
 70
     8
 71
     2
 72
     6
 73
     3
 74
     0
 42
0.000000001
 43
0.0000000001
 40
0.0
 40
0.0
 40
0.0
 40
1.0
 40
1.0
 40
1.0
 10
1.159556154192371
 20
-0.2881817817687999
 30
0.0
 10
1.043919805468005
 20
-0.3470909595489511
 30
0.0
 10
0.9228284396537969
 20
-0.4561817646026621
 30
0.0
  0
SPLINE
  5
10E
330
70
100
AcDbEntity
  8
cutback1 v2_Sketch2
100
AcDbSpline
210
0.0
220
0.0
230
1.0
 70
     8
 71
     2
 72
     6
 73
     3
 74
     0
 42
0.000000001
 43
0.0000000001
 40
0.0
 40
0.0
 40
0.0
 40
1.0
 40
1.0
 40
1.0
 10
0.8006470240959355
 20
-0.6656363010406503
 30
0.0
 10
0.8006470240959355
 20
-0.6863636970520029
 30
0.0
 10
0.8126466311821172
 20
-0.7005455493927011
 30
0.0
  0
SPLINE
  5
10F
330
70
100
AcDbEntity
  8
cutback1 v2_Sketch2
100
AcDbSpline
210
0.0
220
0.0
230
1.0
 70
     8
 71
     2
 72
     6
 73
     3
 74
     0
 42
0.000000001
 43
0.0000000001
 40
0.0
 40
0.0
 40
0.0
 40
1.0
 40
1.0
 40
1.0
 10
0.8126466311821172
 20
-0.7005455493927011
 30
0.0
 10
0.829010728777332
 20
-0.7201817035675058
 30
0.0
 10
0.855192426622791
 20
-0.7201817035675058
 30
0.0
  0
SPLINE
  5
110
330
70
100
AcDbEntity
  8
cutback1 v2_Sketch2
100
AcDbSpline
210
0.0
220
0.0
230
1.0
 70
     8
 71
     2
 72
     6
 73
     3
 74
     0
 42
0.000000001
 43
0.0000000001
 40
0.0
 40
0.0
 40
0.0
 40
1.0
 40
1.0
 40
1.0
 10
0.855192426622791
 20
-0.7201817035675058
 30
0.0
 10
0.9370105304130742
 20
-0.7201817035675058
 30
0.0
 10
1.036283258379382
 20
-0.5489090681076059
 30
0.0
  0
SPLINE
  5
111
330
70
100
AcDbEntity
  8
cutback1 v2_Sketch2
100
AcDbSpline
210
0.0
220
0.0
230
1.0
 70
     8
 71
     2
 72
     6
 73
     3
 74
     0
 42
0.000000001
 43
0.0000000001
 40
0.0
 40
0.0
 40
0.0
 40
1.0
 40
1.0
 40
1.0
 10
1.036283258379382
 20
-0.5489090681076059
 30
0.0
 10
1.052646879137439
 20
-0.5205454826354992
 30
0.0
 10
1.125737909258289
 20
-0.3601818084716808
 30
0.0
  0
SPLINE
  5
112
330
70
100
AcDbEntity
  8
cutback1 v2_Sketch2
100
AcDbSpline
210
0.0
220
0.0
230
1.0
 70
     8
 71
     2
 72
     6
 73
     3
 74
     0
 42
0.000000001
 43
0.0000000001
 40
0.0
 40
0.0
 40
0.0
 40
1.0
 40
1.0
 40
1.0
 10
1.125737909258289
 20
-0.3601818084716808
 30
0.0
 10
1.141010526598376
 20
-0.3274545669555675
 30
0.0
 10
1.159556154192371
 20
-0.2881817817687999
 30
0.0
  0
SPLINE
  5
113
330
70
100
AcDbEntity
  8
cutback1 v2_Sketch2
100
AcDbSpline
210
0.0
220
0.0
230
1.0
 70
     8
 71
     2
 72
     6
 73
     3
 74
     0
 42
0.000000001
 43
0.0000000001
 40
0.0
 40
0.0
 40
0.0
 40
1.0
 40
1.0
 40
1.0
 10
2.72064710038988
 20
0.4721817970275848
 30
0.0
 10
2.82973790544359
 20
0.7001818418502776
 30
0.0
 10
2.926828626573962
 20
0.8692727088928188
 30
0.0
  0
SPLINE
  5
114
330
70
100
AcDbEntity
  8
cutback1 v2_Sketch2
100
AcDbSpline
210
0.0
220
0.0
230
1.0
 70
     8
 71
     2
 72
     6
 73
     3
 74
     0
 42
0.000000001
 43
0.0000000001
 40
0.0
 40
0.0
 40
0.0
 40
1.0
 40
1.0
 40
1.0
 10
1.221737626970691
 20
-0.1540000438690197
 30
0.0
 10
1.241374257982654
 20
-0.1038181781768812
 30
0.0
 10
1.281737569750231
 20
-0.0209090709686293
 30
0.0
  0
SPLINE
  5
115
330
70
100
AcDbEntity
  8
cutback1 v2_Sketch2
100
AcDbSpline
210
0.0
220
0.0
230
1.0
 70
     8
 71
     2
 72
     6
 73
     3
 74
     0
 42
0.000000001
 43
0.0000000001
 40
0.0
 40
0.0
 40
0.0
 40
1.0
 40
1.0
 40
1.0
 10
2.926828626573962
 20
0.8692727088928188
 30
0.0
 10
3.020646814287584
 20
1.032909154891964
 30
0.0
 10
3.054465059221666
 20
1.075454592704769
 30
0.0
  0
SPLINE
  5
116
330
70
100
AcDbEntity
  8
cutback1 v2_Sketch2
100
AcDbSpline
210
0.0
220
0.0
230
1.0
 70
     8
 71
     2
 72
     6
 73
     3
 74
     0
 42
0.000000001
 43
0.0000000001
 40
0.0
 40
0.0
 40
0.0
 40
1.0
 40
1.0
 40
1.0
 10
3.054465059221666
 20
1.075454592704769
 30
0.0
 10
3.091556314409654
 20
1.12236368656158
 30
0.0
 10
3.124283555925767
 20
1.12236368656158
 30
0.0
  0
SPLINE
  5
117
330
70
100
AcDbEntity
  8
cutback1 v2_Sketch2
100
AcDbSpline
210
0.0
220
0.0
230
1.0
 70
     8
 71
     2
 72
     6
 73
     3
 74
     0
 42
0.000000001
 43
0.0000000001
 40
0.0
 40
0.0
 40
0.0
 40
1.0
 40
1.0
 40
1.0
 10
0.9228284396537969
 20
-0.4561817646026621
 30
0.0
 10
0.8006470240959355
 20
-0.5685454607009895
 30
0.0
 10
0.8006470240959355
 20
-0.6656363010406503
 30
0.0
  0
SPLINE
  5
118
330
70
100
AcDbEntity
  8
cutback1 v2_Sketch2
100
AcDbSpline
210
0.0
220
0.0
230
1.0
 70
     8
 71
     2
 72
     6
 73
     3
 74
     0
 42
0.000000001
 43
0.0000000001
 40
0.0
 40
0.0
 40
0.0
 40
1.0
 40
1.0
 40
1.0
 10
3.124283555925767
 20
1.12236368656158
 30
0.0
 10
3.141737703264634
 20
1.12236368656158
 30
0.0
 10
3.155919794023912
 20
1.108181834220882
 30
0.0
  0
SPLINE
  5
119
330
70
100
AcDbEntity
  8
cutback1 v2_Sketch2
100
AcDbSpline
210
0.0
220
0.0
230
1.0
 70
     8
 71
     2
 72
     6
 73
     3
 74
     0
 42
0.000000001
 43
0.0000000001
 40
0.0
 40
0.0
 40
0.0
 40
1.0
 40
1.0
 40
1.0
 10
0.6882832087883184
 20
-0.684181928634644
 30
0.0
 10
0.6882832087883184
 20
-0.5139999389648442
 30
0.0
 10
0.9271924533256719
 20
-0.33618187904358
 30
0.0
  0
SPLINE
  5
11A
330
70
100
AcDbEntity
  8
cutback1 v2_Sketch2
100
AcDbSpline
210
0.0
220
0.0
230
1.0
 70
     8
 71
     2
 72
     6
 73
     3
 74
     0
 42
0.000000001
 43
0.0000000001
 40
0.0
 40
0.0
 40
0.0
 40
1.0
 40
1.0
 40
1.0
 10
2.689010385454577
 20
0.0161818265914886
 30
0.0
 10
2.689010385454577
 20
-0.0460000038147004
 30
0.0
 10
2.713010553301256
 20
-0.0820000171661408
 30
0.0
  0
SPLINE
  5
11B
330
70
100
AcDbEntity
  8
cutback1 v2_Sketch2
100
AcDbSpline
210
0.0
220
0.0
230
1.0
 70
     8
 71
     2
 72
     6
 73
     3
 74
     0
 42
0.000000001
 43
0.0000000001
 40
0.0
 40
0.0
 40
0.0
 40
1.0
 40
1.0
 40
1.0
 10
2.713010553301256
 20
-0.0820000171661408
 30
0.0
 10
2.717374090135973
 20
-0.0896363258361848
 30
0.0
 10
2.752283338488025
 20
-0.1169090270996125
 30
0.0
  0
SPLINE
  5
11C
330
70
100
AcDbEntity
  8
cutback1 v2_Sketch2
100
AcDbSpline
210
0.0
220
0.0
230
1.0
 70
     8
 71
     2
 72
     6
 73
     3
 74
     0
 42
0.000000001
 43
0.0000000001
 40
0.0
 40
0.0
 40
0.0
 40
1.0
 40
1.0
 40
1.0
 10
2.758828882158679
 20
-0.1387273073196442
 30
0.0
 10
2.758828882158679
 20
-0.1605454683303864
 30
0.0
 10
2.741919759691638
 20
-0.1785454750061066
 30
0.0
  0
SPLINE
  5
11D
330
70
100
AcDbEntity
  8
cutback1 v2_Sketch2
100
AcDbSpline
210
0.0
220
0.0
230
1.0
 70
     8
 71
     2
 72
     6
 73
     3
 74
     0
 42
0.000000001
 43
0.0000000001
 40
0.0
 40
0.0
 40
0.0
 40
1.0
 40
1.0
 40
1.0
 10
2.648647073687
 20
-0.166000008583072
 30
0.0
 10
2.605010751665515
 20
-0.1223635673522978
 30
0.0
 10
2.596283201158922
 20
-0.065636396408084
 30
0.0
  0
SPLINE
  5
11E
330
70
100
AcDbEntity
  8
cutback1 v2_Sketch2
100
AcDbSpline
210
0.0
220
0.0
230
1.0
 70
     8
 71
     2
 72
     6
 73
     3
 74
     0
 42
0.000000001
 43
0.0000000001
 40
0.0
 40
0.0
 40
0.0
 40
1.0
 40
1.0
 40
1.0
 10
2.370465043962878
 20
-0.1823636293411281
 30
0.0
 10
2.310465101183337
 20
-0.1823636293411281
 30
0.0
 10
2.274465326250476
 20
-0.1147272586822534
 30
0.0
  0
SPLINE
  5
11F
330
70
100
AcDbEntity
  8
cutback1 v2_Sketch2
100
AcDbSpline
210
0.0
220
0.0
230
1.0
 70
     8
 71
     2
 72
     6
 73
     3
 74
     0
 42
0.000000001
 43
0.0000000001
 40
0.0
 40
0.0
 40
0.0
 40
1.0
 40
1.0
 40
1.0
 10
3.155919794023912
 20
1.108181834220882
 30
0.0
 10
3.16901088136522
 20
1.093999981880184
 30
0.0
 10
3.16901088136522
 20
1.077636361122127
 30
0.0
  0
SPLINE
  5
120
330
70
100
AcDbEntity
  8
cutback1 v2_Sketch2
100
AcDbSpline
210
0.0
220
0.0
230
1.0
 70
     8
 71
     2
 72
     6
 73
     3
 74
     0
 42
0.000000001
 43
0.0000000001
 40
0.0
 40
0.0
 40
0.0
 40
1.0
 40
1.0
 40
1.0
 10
3.16901088136522
 20
1.077636361122127
 30
0.0
 10
3.16901088136522
 20
1.052545428276058
 30
0.0
 10
3.131919626177232
 20
0.9936363697051966
 30
0.0
  0
SPLINE
  5
121
330
70
100
AcDbEntity
  8
cutback1 v2_Sketch2
100
AcDbSpline
210
0.0
220
0.0
230
1.0
 70
     8
 71
     2
 72
     6
 73
     3
 74
     0
 42
0.000000001
 43
0.0000000001
 40
0.0
 40
0.0
 40
0.0
 40
1.0
 40
1.0
 40
1.0
 10
2.596283201158922
 20
-0.065636396408084
 30
0.0
 10
2.593010667742174
 20
-0.0416363477706938
 30
0.0
 10
2.588647130907458
 20
0.0238182544708223
 30
0.0
  0
SPLINE
  5
122
330
70
100
AcDbEntity
  8
cutback1 v2_Sketch2
100
AcDbSpline
210
0.0
220
0.0
230
1.0
 70
     8
 71
     2
 72
     6
 73
     3
 74
     0
 42
0.000000001
 43
0.0000000001
 40
0.0
 40
0.0
 40
0.0
 40
1.0
 40
1.0
 40
1.0
 10
2.274465326250476
 20
-0.1147272586822534
 30
0.0
 10
2.250465158403796
 20
-0.0699999332428003
 30
0.0
 10
2.250465158403796
 20
-0.0132727622985864
 30
0.0
  0
SPLINE
  5
123
330
70
100
AcDbEntity
  8
cutback1 v2_Sketch2
100
AcDbSpline
210
0.0
220
0.0
230
1.0
 70
     8
 71
     2
 72
     6
 73
     3
 74
     0
 42
0.000000001
 43
0.0000000001
 40
0.0
 40
0.0
 40
0.0
 40
1.0
 40
1.0
 40
1.0
 10
2.704283479631824
 20
-0.1965454816818268
 30
0.0
 10
2.679192308367175
 20
-0.1965454816818268
 30
0.0
 10
2.648647073687
 20
-0.166000008583072
 30
0.0
  0
SPLINE
  5
124
330
70
100
AcDbEntity
  8
cutback1 v2_Sketch2
100
AcDbSpline
210
0.0
220
0.0
230
1.0
 70
     8
 71
     2
 72
     6
 73
     3
 74
     0
 42
0.000000001
 43
0.0000000001
 40
0.0
 40
0.0
 40
0.0
 40
1.0
 40
1.0
 40
1.0
 10
2.84173798936693
 20
0.4754545688629119
 30
0.0
 10
2.689010385454577
 20
0.1689090728759734
 30
0.0
 10
2.689010385454577
 20
0.0161818265914886
 30
0.0
  0
SPLINE
  5
125
330
70
100
AcDbEntity
  8
cutback1 v2_Sketch2
100
AcDbSpline
210
0.0
220
0.0
230
1.0
 70
     8
 71
     2
 72
     6
 73
     3
 74
     0
 42
0.000000001
 43
0.0000000001
 40
0.0
 40
0.0
 40
0.0
 40
1.0
 40
1.0
 40
1.0
 10
2.588647130907458
 20
0.0238182544708223
 30
0.0
 10
2.474101308763904
 20
-0.1823636293411284
 30
0.0
 10
2.370465043962878
 20
-0.1823636293411281
 30
0.0
  0
SPLINE
  5
126
330
70
100
AcDbEntity
  8
cutback1 v2_Sketch2
100
AcDbSpline
210
0.0
220
0.0
230
1.0
 70
     8
 71
     2
 72
     6
 73
     3
 74
     0
 42
0.000000001
 43
0.0000000001
 40
0.0
 40
0.0
 40
0.0
 40
1.0
 40
1.0
 40
1.0
 10
2.752283338488025
 20
-0.1169090270996125
 30
0.0
 10
2.758828882158679
 20
-0.122363567352298
 30
0.0
 10
2.758828882158679
 20
-0.1387273073196442
 30
0.0
  0
SPLINE
  5
127
330
70
100
AcDbEntity
  8
cutback1 v2_Sketch2
100
AcDbSpline
210
0.0
220
0.0
230
1.0
 70
     8
 71
     2
 72
     6
 73
     3
 74
     0
 42
0.000000001
 43
0.0000000001
 40
0.0
 40
0.0
 40
0.0
 40
1.0
 40
1.0
 40
1.0
 10
2.741919759691638
 20
-0.1785454750061066
 30
0.0
 10
2.725010637224597
 20
-0.1965454816818268
 30
0.0
 10
2.704283479631824
 20
-0.1965454816818268
 30
0.0
  0
SPLINE
  5
128
330
70
100
AcDbEntity
  8
cutback1 v2_Sketch2
100
AcDbSpline
210
0.0
220
0.0
230
1.0
 70
     8
 71
     2
 72
     6
 73
     3
 74
     0
 42
0.000000001
 43
0.0000000001
 40
0.0
 40
0.0
 40
0.0
 40
1.0
 40
1.0
 40
1.0
 10
2.250465158403796
 20
-0.0132727622985864
 30
0.0
 10
2.250465158403796
 20
0.1569091081619238
 30
0.0
 10
2.374828580797594
 20
0.3292727470397923
 30
0.0
  0
SPLINE
  5
129
330
70
100
AcDbEntity
  8
cutback1 v2_Sketch2
100
AcDbSpline
210
0.0
220
0.0
230
1.0
 70
     8
 71
     2
 72
     6
 73
     3
 74
     0
 42
0.000000001
 43
0.0000000001
 40
0.0
 40
0.0
 40
0.0
 40
1.0
 40
1.0
 40
1.0
 10
3.131919626177232
 20
0.9936363697051966
 30
0.0
 10
2.973737958849352
 20
0.7383636236190762
 30
0.0
 10
2.84173798936693
 20
0.4754545688629119
 30
0.0
  0
SPLINE
  5
12A
330
70
100
AcDbEntity
  8
cutback1 v2_Sketch2
100
AcDbSpline
210
0.0
220
0.0
230
1.0
 70
     8
 71
     2
 72
     6
 73
     3
 74
     0
 42
0.000000001
 43
0.0000000001
 40
0.0
 40
0.0
 40
0.0
 40
1.0
 40
1.0
 40
1.0
 10
2.489374402941149
 20
0.0238182544708223
 30
0.0
 10
2.56246495622484
 20
0.1219999790191621
 30
0.0
 10
2.624646905840319
 20
0.256181836128232
 30
0.0
  0
SPLINE
  5
12B
330
70
100
AcDbEntity
  8
cutback1 v2_Sketch2
100
AcDbSpline
210
0.0
220
0.0
230
1.0
 70
     8
 71
     2
 72
     6
 73
     3
 74
     0
 42
0.000000001
 43
0.0000000001
 40
0.0
 40
0.0
 40
0.0
 40
1.0
 40
1.0
 40
1.0
 10
2.458828691423815
 20
0.2899999618530245
 30
0.0
 10
2.350828889788073
 20
0.1438181400299046
 30
0.0
 10
2.350828889788073
 20
0.0074546337127659
 30
0.0
  0
SPLINE
  5
12C
330
70
100
AcDbEntity
  8
cutback1 v2_Sketch2
100
AcDbSpline
210
0.0
220
0.0
230
1.0
 70
     8
 71
     2
 72
     6
 73
     3
 74
     0
 42
0.000000001
 43
0.0000000001
 40
0.0
 40
0.0
 40
0.0
 40
1.0
 40
1.0
 40
1.0
 10
2.624646905840319
 20
0.256181836128232
 30
0.0
 10
2.646465066851061
 20
0.3020000457763641
 30
0.0
 10
2.667192224443835
 20
0.3478182554244964
 30
0.0
  0
SPLINE
  5
12D
330
70
100
AcDbEntity
  8
cutback1 v2_Sketch2
100
AcDbSpline
210
0.0
220
0.0
230
1.0
 70
     8
 71
     2
 72
     6
 73
     3
 74
     0
 42
0.000000001
 43
0.0000000001
 40
0.0
 40
0.0
 40
0.0
 40
1.0
 40
1.0
 40
1.0
 10
2.396647218645495
 20
-0.0503636598587063
 30
0.0
 10
2.434829000414294
 20
-0.0503636598587063
 30
0.0
 10
2.489374402941149
 20
0.0238182544708223
 30
0.0
  0
SPLINE
  5
12E
330
70
100
AcDbEntity
  8
cutback1 v2_Sketch2
100
AcDbSpline
210
0.0
220
0.0
230
1.0
 70
     8
 71
     2
 72
     6
 73
     3
 74
     0
 42
0.000000001
 43
0.0000000001
 40
0.0
 40
0.0
 40
0.0
 40
1.0
 40
1.0
 40
1.0
 10
2.639919523180407
 20
0.4994546175003022
 30
0.0
 10
2.679192308367174
 20
0.4994546175003021
 30
0.0
 10
2.72064710038988
 20
0.4721817970275848
 30
0.0
  0
LINE
  5
12F
330
70
100
AcDbEntity
  8
cutback1 v2_Sketch2
100
AcDbLine
 10
2.677010778368395
 20
0.3685455322265594
 30
0.0
 11
2.683556322039049
 21
0.3827272653579681
 31
0.0
  0
SPLINE
  5
130
330
70
100
AcDbEntity
  8
cutback1 v2_Sketch2
100
AcDbSpline
210
0.0
220
0.0
230
1.0
 70
     8
 71
     2
 72
     6
 73
     3
 74
     0
 42
0.000000001
 43
0.0000000001
 40
0.0
 40
0.0
 40
0.0
 40
1.0
 40
1.0
 40
1.0
 10
3.150464776934069
 20
0.4885454773902857
 30
0.0
 10
3.169010404528063
 20
0.4885454773902857
 30
0.0
 10
3.181010488451403
 20
0.4743636846542322
 30
0.0
  0
SPLINE
  5
131
330
70
100
AcDbEntity
  8
cutback1 v2_Sketch2
100
AcDbSpline
210
0.0
220
0.0
230
1.0
 70
     8
 71
     2
 72
     6
 73
     3
 74
     0
 42
0.000000001
 43
0.0000000001
 40
0.0
 40
0.0
 40
0.0
 40
1.0
 40
1.0
 40
1.0
 10
2.357374433458727
 20
-0.023090839385989
 30
0.0
 10
2.370465043962878
 20
-0.0503636598587063
 30
0.0
 10
2.396647218645495
 20
-0.0503636598587063
 30
0.0
  0
SPLINE
  5
132
330
70
100
AcDbEntity
  8
cutback1 v2_Sketch2
100
AcDbSpline
210
0.0
220
0.0
230
1.0
 70
     8
 71
     2
 72
     6
 73
     3
 74
     0
 42
0.000000001
 43
0.0000000001
 40
0.0
 40
0.0
 40
0.0
 40
1.0
 40
1.0
 40
1.0
 10
3.181010488451403
 20
0.4743636846542322
 30
0.0
 10
3.189737562120837
 20
0.4623636603355372
 30
0.0
 10
3.189737562120837
 20
0.4503636956214869
 30
0.0
  0
SPLINE
  5
133
330
70
100
AcDbEntity
  8
cutback1 v2_Sketch2
100
AcDbSpline
210
0.0
220
0.0
230
1.0
 70
     8
 71
     2
 72
     6
 73
     3
 74
     0
 42
0.000000001
 43
0.0000000001
 40
0.0
 40
0.0
 40
0.0
 40
1.0
 40
1.0
 40
1.0
 10
2.350828889788073
 20
0.0074546337127659
 30
0.0
 10
2.350828889788073
 20
-0.0089091062545803
 30
0.0
 10
2.357374433458727
 20
-0.023090839385989
 30
0.0
  0
SPLINE
  5
134
330
70
100
AcDbEntity
  8
cutback1 v2_Sketch2
100
AcDbSpline
210
0.0
220
0.0
230
1.0
 70
    24
 71
     2
 72
     6
 73
     3
 74
     0
 42
0.000000001
 43
0.0000000001
 40
0.0
 40
0.0
 40
0.0
 40
1.0
 40
1.0
 40
1.0
 10
2.667192224443835
 20
0.3478182554244964
 30
0.0
 10
2.667192224443835
 20
0.3478182554244964
 30
0.0
 10
2.677010778368395
 20
0.3685455322265594
 30
0.0
  0
SPLINE
  5
135
330
70
100
AcDbEntity
  8
cutback1 v2_Sketch2
100
AcDbSpline
210
0.0
220
0.0
230
1.0
 70
     8
 71
     2
 72
     6
 73
     3
 74
     0
 42
0.000000001
 43
0.0000000001
 40
0.0
 40
0.0
 40
0.0
 40
1.0
 40
1.0
 40
1.0
 10
3.189737562120837
 20
0.4503636956214869
 30
0.0
 10
3.189737562120837
 20
0.4307273030281031
 30
0.0
 10
3.158101324022692
 20
0.3849091529846154
 30
0.0
  0
SPLINE
  5
136
330
70
100
AcDbEntity
  8
cutback1 v2_Sketch2
100
AcDbSpline
210
0.0
220
0.0
230
1.0
 70
     8
 71
     2
 72
     6
 73
     3
 74
     0
 42
0.000000001
 43
0.0000000001
 40
0.0
 40
0.0
 40
0.0
 40
1.0
 40
1.0
 40
1.0
 10
3.158101324022692
 20
0.3849091529846154
 30
0.0
 10
3.044646982134264
 20
0.2092727422714198
 30
0.0
 10
2.996646646440905
 20
0.095818161964413
 30
0.0
  0
SPLINE
  5
137
330
70
100
AcDbEntity
  8
cutback1 v2_Sketch2
100
AcDbSpline
210
0.0
220
0.0
230
1.0
 70
     8
 71
     2
 72
     6
 73
     3
 74
     0
 42
0.000000001
 43
0.0000000001
 40
0.0
 40
0.0
 40
0.0
 40
1.0
 40
1.0
 40
1.0
 10
2.683556322039049
 20
0.3827272653579681
 30
0.0
 10
2.654101613939684
 20
0.402363657951352
 30
0.0
 10
2.632283452928942
 20
0.402363657951352
 30
0.0
  0
SPLINE
  5
138
330
70
100
AcDbEntity
  8
cutback1 v2_Sketch2
100
AcDbSpline
210
0.0
220
0.0
230
1.0
 70
     8
 71
     2
 72
     6
 73
     3
 74
     0
 42
0.000000001
 43
0.0000000001
 40
0.0
 40
0.0
 40
0.0
 40
1.0
 40
1.0
 40
1.0
 10
2.374828580797594
 20
0.3292727470397923
 30
0.0
 10
2.498101476610583
 20
0.4994546175003024
 30
0.0
 10
2.639919523180407
 20
0.4994546175003022
 30
0.0
  0
SPLINE
  5
139
330
70
100
AcDbEntity
  8
cutback1 v2_Sketch2
100
AcDbSpline
210
0.0
220
0.0
230
1.0
 70
     8
 71
     2
 72
     6
 73
     3
 74
     0
 42
0.000000001
 43
0.0000000001
 40
0.0
 40
0.0
 40
0.0
 40
1.0
 40
1.0
 40
1.0
 10
2.632283452928942
 20
0.402363657951352
 30
0.0
 10
2.540646795214098
 20
0.4023636579513522
 30
0.0
 10
2.458828691423815
 20
0.2899999618530245
 30
0.0
  0
SPLINE
  5
13A
330
70
100
AcDbEntity
  8
cutback1 v2_Sketch2
100
AcDbSpline
210
0.0
220
0.0
230
1.0
 70
     8
 71
     2
 72
     6
 73
     3
 74
     0
 42
0.000000001
 43
0.0000000001
 40
0.0
 40
0.0
 40
0.0
 40
1.0
 40
1.0
 40
1.0
 10
2.816646818102283
 20
-0.1812727451324496
 30
0.0
 10
2.804646734178943
 20
-0.1670908927917511
 30
0.0
 10
2.804646734178943
 20
-0.1507272720336945
 30
0.0
  0
SPLINE
  5
13B
330
70
100
AcDbEntity
  8
cutback1 v2_Sketch2
100
AcDbSpline
210
0.0
220
0.0
230
1.0
 70
     8
 71
     2
 72
     6
 73
     3
 74
     0
 42
0.000000001
 43
0.0000000001
 40
0.0
 40
0.0
 40
0.0
 40
1.0
 40
1.0
 40
1.0
 10
3.223555807054919
 20
0.7383636832237207
 30
0.0
 10
3.223555807054919
 20
0.790727257728573
 30
0.0
 10
3.28137421983568
 20
0.8496364355087242
 30
0.0
  0
SPLINE
  5
13C
330
70
100
AcDbEntity
  8
cutback1 v2_Sketch2
100
AcDbSpline
210
0.0
220
0.0
230
1.0
 70
     8
 71
     2
 72
     6
 73
     3
 74
     0
 42
0.000000001
 43
0.0000000001
 40
0.0
 40
0.0
 40
0.0
 40
1.0
 40
1.0
 40
1.0
 10
3.28137421983568
 20
0.8496364355087242
 30
0.0
 10
3.323919538439196
 20
0.8932727575302084
 30
0.0
 10
3.357737783373278
 20
0.8932727575302084
 30
0.0
  0
SPLINE
  5
13D
330
70
100
AcDbEntity
  8
cutback1 v2_Sketch2
100
AcDbSpline
210
0.0
220
0.0
230
1.0
 70
     8
 71
     2
 72
     6
 73
     3
 74
     0
 42
0.000000001
 43
0.0000000001
 40
0.0
 40
0.0
 40
0.0
 40
1.0
 40
1.0
 40
1.0
 10
2.996646646440905
 20
0.095818161964413
 30
0.0
 10
2.945374254167956
 20
-0.0209090709686313
 30
0.0
 10
2.906101468981189
 20
-0.14418184757233
 30
0.0
  0
SPLINE
  5
13E
330
70
100
AcDbEntity
  8
cutback1 v2_Sketch2
100
AcDbSpline
210
0.0
220
0.0
230
1.0
 70
     8
 71
     2
 72
     6
 73
     3
 74
     0
 42
0.000000001
 43
0.0000000001
 40
0.0
 40
0.0
 40
0.0
 40
1.0
 40
1.0
 40
1.0
 10
2.851555589617175
 20
-0.1987272500991855
 30
0.0
 10
2.829737428606433
 20
-0.1987272500991855
 30
0.0
 10
2.816646818102283
 20
-0.1812727451324496
 30
0.0
  0
SPLINE
  5
13F
330
70
100
AcDbEntity
  8
cutback1 v2_Sketch2
100
AcDbSpline
210
0.0
220
0.0
230
1.0
 70
     8
 71
     2
 72
     6
 73
     3
 74
     0
 42
0.000000001
 43
0.0000000001
 40
0.0
 40
0.0
 40
0.0
 40
1.0
 40
1.0
 40
1.0
 10
3.358828309954088
 20
0.7416363954544029
 30
0.0
 10
3.313010457933825
 20
0.6881818771362266
 30
0.0
 10
3.270465139330309
 20
0.6881818771362268
 30
0.0
  0
SPLINE
  5
140
330
70
100
AcDbEntity
  8
cutback1 v2_Sketch2
100
AcDbSpline
210
0.0
220
0.0
230
1.0
 70
     8
 71
     2
 72
     6
 73
     3
 74
     0
 42
0.000000001
 43
0.0000000001
 40
0.0
 40
0.0
 40
0.0
 40
1.0
 40
1.0
 40
1.0
 10
3.270465139330309
 20
0.6881818771362268
 30
0.0
 10
3.249737504900378
 20
0.6881818771362268
 30
0.0
 10
3.236646894396227
 20
0.7034546136856042
 30
0.0
  0
SPLINE
  5
141
330
70
100
AcDbEntity
  8
cutback1 v2_Sketch2
100
AcDbSpline
210
0.0
220
0.0
230
1.0
 70
     8
 71
     2
 72
     6
 73
     3
 74
     0
 42
0.000000001
 43
0.0000000001
 40
0.0
 40
0.0
 40
0.0
 40
1.0
 40
1.0
 40
1.0
 10
3.357737783373278
 20
0.8932727575302084
 30
0.0
 10
3.406828645647448
 20
0.8932727575302084
 30
0.0
 10
3.406828645647448
 20
0.8430910110473593
 30
0.0
  0
LINE
  5
142
330
70
100
AcDbEntity
  8
cutback1 v2_Sketch2
100
AcDbLine
 10
3.24428344148485
 20
0.0445454120635949
 30
0.0
 11
3.24428344148485
 21
0.0249090194702111
 31
0.0
  0
SPLINE
  5
143
330
70
100
AcDbEntity
  8
cutback1 v2_Sketch2
100
AcDbSpline
210
0.0
220
0.0
230
1.0
 70
     8
 71
     2
 72
     6
 73
     3
 74
     0
 42
0.000000001
 43
0.0000000001
 40
0.0
 40
0.0
 40
0.0
 40
1.0
 40
1.0
 40
1.0
 10
2.874464754045885
 20
0.0674545764923063
 30
0.0
 10
2.929010156572741
 20
0.2136363983154264
 30
0.0
 10
3.05119204896776
 20
0.3903636932373011
 30
0.0
  0
SPLINE
  5
144
330
70
100
AcDbEntity
  8
cutback1 v2_Sketch2
100
AcDbSpline
210
0.0
220
0.0
230
1.0
 70
     8
 71
     2
 72
     6
 73
     3
 74
     0
 42
0.000000001
 43
0.0000000001
 40
0.0
 40
0.0
 40
0.0
 40
1.0
 40
1.0
 40
1.0
 10
3.05119204896776
 20
0.3903636932373011
 30
0.0
 10
3.090464834154528
 20
0.4481818675994838
 30
0.0
 10
3.110101465166491
 20
0.4678182005882228
 30
0.0
  0
SPLINE
  5
145
330
70
100
AcDbEntity
  8
cutback1 v2_Sketch2
100
AcDbSpline
210
0.0
220
0.0
230
1.0
 70
     8
 71
     2
 72
     6
 73
     3
 74
     0
 42
0.000000001
 43
0.0000000001
 40
0.0
 40
0.0
 40
0.0
 40
1.0
 40
1.0
 40
1.0
 10
3.110101465166491
 20
0.4678182005882228
 30
0.0
 10
3.129737619341296
 20
0.4885454773902857
 30
0.0
 10
3.150464776934069
 20
0.4885454773902857
 30
0.0
  0
SPLINE
  5
146
330
70
100
AcDbEntity
  8
cutback1 v2_Sketch2
100
AcDbSpline
210
0.0
220
0.0
230
1.0
 70
     8
 71
     2
 72
     6
 73
     3
 74
     0
 42
0.000000001
 43
0.0000000001
 40
0.0
 40
0.0
 40
0.0
 40
1.0
 40
1.0
 40
1.0
 10
3.406828645647448
 20
0.8430910110473593
 30
0.0
 10
3.406828645647448
 20
0.797272801399227
 30
0.0
 10
3.358828309954088
 20
0.7416363954544029
 30
0.0
  0
SPLINE
  5
147
330
70
100
AcDbEntity
  8
cutback1 v2_Sketch2
100
AcDbSpline
210
0.0
220
0.0
230
1.0
 70
     8
 71
     2
 72
     6
 73
     3
 74
     0
 42
0.000000001
 43
0.0000000001
 40
0.0
 40
0.0
 40
0.0
 40
1.0
 40
1.0
 40
1.0
 10
3.236646894396227
 20
0.7034546136856042
 30
0.0
 10
3.223555807054919
 20
0.7176364064216577
 30
0.0
 10
3.223555807054919
 20
0.7383636832237207
 30
0.0
  0
SPLINE
  5
148
330
70
100
AcDbEntity
  8
cutback1 v2_Sketch2
100
AcDbSpline
210
0.0
220
0.0
230
1.0
 70
     8
 71
     2
 72
     6
 73
     3
 74
     0
 42
0.000000001
 43
0.0000000001
 40
0.0
 40
0.0
 40
0.0
 40
1.0
 40
1.0
 40
1.0
 10
2.906101468981189
 20
-0.14418184757233
 30
0.0
 10
2.888646844805164
 20
-0.1987272500991855
 30
0.0
 10
2.851555589617175
 20
-0.1987272500991855
 30
0.0
  0
SPLINE
  5
149
330
70
100
AcDbEntity
  8
cutback1 v2_Sketch2
100
AcDbSpline
210
0.0
220
0.0
230
1.0
 70
     8
 71
     2
 72
     6
 73
     3
 74
     0
 42
0.000000001
 43
0.0000000001
 40
0.0
 40
0.0
 40
0.0
 40
1.0
 40
1.0
 40
1.0
 10
2.804646734178943
 20
-0.1507272720336945
 30
0.0
 10
2.804646734178943
 20
-0.1180000305175812
 30
0.0
 10
2.874464754045885
 20
0.0674545764923063
 30
0.0
  0
SPLINE
  5
14A
330
70
100
AcDbEntity
  8
cutback1 v2_Sketch2
100
AcDbSpline
210
0.0
220
0.0
230
1.0
 70
     8
 71
     2
 72
     6
 73
     3
 74
     0
 42
0.000000001
 43
0.0000000001
 40
0.0
 40
0.0
 40
0.0
 40
1.0
 40
1.0
 40
1.0
 10
3.25628352540819
 20
-0.0165454149246254
 30
0.0
 10
3.283556226671618
 20
-0.0569090843200721
 30
0.0
 10
3.345738176287096
 20
-0.0569090843200724
 30
0.0
  0
SPLINE
  5
14B
330
70
100
AcDbEntity
  8
cutback1 v2_Sketch2
100
AcDbSpline
210
0.0
220
0.0
230
1.0
 70
     8
 71
     2
 72
     6
 73
     3
 74
     0
 42
0.000000001
 43
0.0000000001
 40
0.0
 40
0.0
 40
0.0
 40
1.0
 40
1.0
 40
1.0
 10
3.291192773760242
 20
-0.1638181209564247
 30
0.0
 10
3.209374669969959
 20
-0.1638181209564247
 30
0.0
 10
3.162465337694568
 20
-0.1070909500122108
 30
0.0
  0
SPLINE
  5
14C
330
70
100
AcDbEntity
  8
cutback1 v2_Sketch2
100
AcDbSpline
210
0.0
220
0.0
230
1.0
 70
     8
 71
     2
 72
     6
 73
     3
 74
     0
 42
0.000000001
 43
0.0000000001
 40
0.0
 40
0.0
 40
0.0
 40
1.0
 40
1.0
 40
1.0
 10
3.24428344148485
 20
0.0249090194702111
 30
0.0
 10
3.24428344148485
 20
0.0009090900421105
 30
0.0
 10
3.25628352540819
 20
-0.0165454149246254
 30
0.0
  0
SPLINE
  5
14D
330
70
100
AcDbEntity
  8
cutback1 v2_Sketch2
100
AcDbSpline
210
0.0
220
0.0
230
1.0
 70
     8
 71
     2
 72
     6
 73
     3
 74
     0
 42
0.000000001
 43
0.0000000001
 40
0.0
 40
0.0
 40
0.0
 40
1.0
 40
1.0
 40
1.0
 10
3.130829099596422
 20
-0.0001817941665685
 30
0.0
 10
3.130829099596422
 20
0.1841818094253504
 30
0.0
 10
3.304283861101549
 20
0.3609091043472252
 30
0.0
  0
SPLINE
  5
14E
330
70
100
AcDbEntity
  8
cutback1 v2_Sketch2
100
AcDbSpline
210
0.0
220
0.0
230
1.0
 70
     8
 71
     2
 72
     6
 73
     3
 74
     0
 42
0.000000001
 43
0.0000000001
 40
0.0
 40
0.0
 40
0.0
 40
1.0
 40
1.0
 40
1.0
 10
3.304283861101549
 20
0.3609091043472252
 30
0.0
 10
3.445010904253405
 20
0.504909098148342
 30
0.0
 10
3.549738172472399
 20
0.5049090981483419
 30
0.0
  0
SPLINE
  5
14F
330
70
100
AcDbEntity
  8
cutback1 v2_Sketch2
100
AcDbSpline
210
0.0
220
0.0
230
1.0
 70
     8
 71
     2
 72
     6
 73
     3
 74
     0
 42
0.000000001
 43
0.0000000001
 40
0.0
 40
0.0
 40
0.0
 40
1.0
 40
1.0
 40
1.0
 10
3.549738172472399
 20
0.5049090981483419
 30
0.0
 10
3.578101877153796
 20
0.5049090981483417
 30
0.0
 10
3.601011041582506
 20
0.4874545931816059
 30
0.0
  0
SPLINE
  5
150
330
70
100
AcDbEntity
  8
cutback1 v2_Sketch2
100
AcDbSpline
210
0.0
220
0.0
230
1.0
 70
     8
 71
     2
 72
     6
 73
     3
 74
     0
 42
0.000000001
 43
0.0000000001
 40
0.0
 40
0.0
 40
0.0
 40
1.0
 40
1.0
 40
1.0
 10
3.601011041582506
 20
0.4874545931816059
 30
0.0
 10
3.629374746263903
 20
0.4645454883575397
 30
0.0
 10
3.629374746263903
 20
0.4274545907974201
 30
0.0
  0
SPLINE
  5
151
330
70
100
AcDbEntity
  8
cutback1 v2_Sketch2
100
AcDbSpline
210
0.0
220
0.0
230
1.0
 70
     8
 71
     2
 72
     6
 73
     3
 74
     0
 42
0.000000001
 43
0.0000000001
 40
0.0
 40
0.0
 40
0.0
 40
1.0
 40
1.0
 40
1.0
 10
3.629374746263903
 20
0.4274545907974201
 30
0.0
 10
3.629374746263903
 20
0.3696362972259479
 30
0.0
 10
3.575919870317858
 20
0.2856364250183063
 30
0.0
  0
SPLINE
  5
152
330
70
100
AcDbEntity
  8
cutback1 v2_Sketch2
100
AcDbSpline
210
0.0
220
0.0
230
1.0
 70
     8
 71
     2
 72
     6
 73
     3
 74
     0
 42
0.000000001
 43
0.0000000001
 40
0.0
 40
0.0
 40
0.0
 40
1.0
 40
1.0
 40
1.0
 10
3.661010984362047
 20
0.1525454521179157
 30
0.0
 10
3.692647699297351
 20
0.1885454654693559
 30
0.0
 10
3.714465860308093
 20
0.1885454654693559
 30
0.0
  0
SPLINE
  5
153
330
70
100
AcDbEntity
  8
cutback1 v2_Sketch2
100
AcDbSpline
210
0.0
220
0.0
230
1.0
 70
     8
 71
     2
 72
     6
 73
     3
 74
     0
 42
0.000000001
 43
0.0000000001
 40
0.0
 40
0.0
 40
0.0
 40
1.0
 40
1.0
 40
1.0
 10
3.638101819933337
 20
0.0161818265914875
 30
0.0
 10
3.556283716143053
 20
-0.0634545087814373
 30
0.0
 10
3.4635565318474
 20
-0.1136363744735758
 30
0.0
  0
SPLINE
  5
154
330
70
100
AcDbEntity
  8
cutback1 v2_Sketch2
100
AcDbSpline
210
0.0
220
0.0
230
1.0
 70
     8
 71
     2
 72
     6
 73
     3
 74
     0
 42
0.000000001
 43
0.0000000001
 40
0.0
 40
0.0
 40
0.0
 40
1.0
 40
1.0
 40
1.0
 10
3.162465337694568
 20
-0.1070909500122108
 30
0.0
 10
3.130829099596422
 20
-0.067818164825443
 30
0.0
 10
3.130829099596422
 20
-0.0001817941665685
 30
0.0
  0
SPLINE
  5
155
330
70
100
AcDbEntity
  8
cutback1 v2_Sketch2
100
AcDbSpline
210
0.0
220
0.0
230
1.0
 70
     8
 71
     2
 72
     6
 73
     3
 74
     0
 42
0.000000001
 43
0.0000000001
 40
0.0
 40
0.0
 40
0.0
 40
1.0
 40
1.0
 40
1.0
 10
3.742829088152332
 20
0.1601817607879594
 30
0.0
 10
3.742829088152332
 20
0.1176364421844438
 30
0.0
 10
3.638101819933337
 20
0.0161818265914875
 30
0.0
  0
SPLINE
  5
156
330
70
100
AcDbEntity
  8
cutback1 v2_Sketch2
100
AcDbSpline
210
0.0
220
0.0
230
1.0
 70
     8
 71
     2
 72
     6
 73
     3
 74
     0
 42
0.000000001
 43
0.0000000001
 40
0.0
 40
0.0
 40
0.0
 40
1.0
 40
1.0
 40
1.0
 10
3.345738176287096
 20
-0.0569090843200724
 30
0.0
 10
3.482101682604235
 20
-0.0569090843200724
 30
0.0
 10
3.661010984362047
 20
0.1525454521179157
 30
0.0
  0
SPLINE
  5
157
330
70
100
AcDbEntity
  8
cutback1 v2_Sketch2
100
AcDbSpline
210
0.0
220
0.0
230
1.0
 70
     8
 71
     2
 72
     6
 73
     3
 74
     0
 42
0.000000001
 43
0.0000000001
 40
0.0
 40
0.0
 40
0.0
 40
1.0
 40
1.0
 40
1.0
 10
3.714465860308093
 20
0.1885454654693559
 30
0.0
 10
3.726465944231433
 20
0.1885454654693559
 30
0.0
 10
3.736284021318835
 20
0.1765455007553056
 30
0.0
  0
SPLINE
  5
158
330
70
100
AcDbEntity
  8
cutback1 v2_Sketch2
100
AcDbSpline
210
0.0
220
0.0
230
1.0
 70
     8
 71
     2
 72
     6
 73
     3
 74
     0
 42
0.000000001
 43
0.0000000001
 40
0.0
 40
0.0
 40
0.0
 40
1.0
 40
1.0
 40
1.0
 10
3.4635565318474
 20
-0.1136363744735758
 30
0.0
 10
3.370829347551746
 20
-0.1638181209564249
 30
0.0
 10
3.291192773760242
 20
-0.1638181209564247
 30
0.0
  0
SPLINE
  5
159
330
70
100
AcDbEntity
  8
cutback1 v2_Sketch2
100
AcDbSpline
210
0.0
220
0.0
230
1.0
 70
     8
 71
     2
 72
     6
 73
     3
 74
     0
 42
0.000000001
 43
0.0000000001
 40
0.0
 40
0.0
 40
0.0
 40
1.0
 40
1.0
 40
1.0
 10
3.736284021318835
 20
0.1765455007553056
 30
0.0
 10
3.742829088152332
 20
0.1678181886672929
 30
0.0
 10
3.742829088152332
 20
0.1601817607879594
 30
0.0
  0
SPLINE
  5
15A
330
70
100
AcDbEntity
  8
cutback1 v2_Sketch2
100
AcDbSpline
210
0.0
220
0.0
230
1.0
 70
     8
 71
     2
 72
     6
 73
     3
 74
     0
 42
0.000000001
 43
0.0000000001
 40
0.0
 40
0.0
 40
0.0
 40
1.0
 40
1.0
 40
1.0
 10
3.26828360933153
 20
0.1296364068984948
 30
0.0
 10
3.344647172869128
 20
0.1558182239532431
 30
0.0
 10
3.388283494890612
 20
0.1885454654693564
 30
0.0
  0
SPLINE
  5
15B
330
70
100
AcDbEntity
  8
cutback1 v2_Sketch2
100
AcDbSpline
210
0.0
220
0.0
230
1.0
 70
     8
 71
     2
 72
     6
 73
     3
 74
     0
 42
0.000000001
 43
0.0000000001
 40
0.0
 40
0.0
 40
0.0
 40
1.0
 40
1.0
 40
1.0
 10
3.525738004625719
 20
0.3685455322265583
 30
0.0
 10
3.525738004625719
 20
0.3903636932373005
 30
0.0
 10
3.505010847032946
 20
0.3903636932373007
 30
0.0
  0
SPLINE
  5
15C
330
70
100
AcDbEntity
  8
cutback1 v2_Sketch2
100
AcDbSpline
210
0.0
220
0.0
230
1.0
 70
     8
 71
     2
 72
     6
 73
     3
 74
     0
 42
0.000000001
 43
0.0000000001
 40
0.0
 40
0.0
 40
0.0
 40
1.0
 40
1.0
 40
1.0
 10
3.505010847032946
 20
0.3903636932373007
 30
0.0
 10
3.476647142351549
 20
0.3903636932373007
 30
0.0
 10
3.424283746660631
 20
0.347818136215206
 30
0.0
  0
SPLINE
  5
15D
330
70
100
AcDbEntity
  8
cutback1 v2_Sketch2
100
AcDbSpline
210
0.0
220
0.0
230
1.0
 70
     8
 71
     2
 72
     6
 73
     3
 74
     0
 42
0.000000001
 43
0.0000000001
 40
0.0
 40
0.0
 40
0.0
 40
1.0
 40
1.0
 40
1.0
 10
3.509374383867663
 20
0.3216364383697468
 30
0.0
 10
3.525738004625719
 20
0.3478181362152057
 30
0.0
 10
3.525738004625719
 20
0.3685455322265583
 30
0.0
  0
SPLINE
  5
15E
330
70
100
AcDbEntity
  8
cutback1 v2_Sketch2
100
AcDbSpline
210
0.0
220
0.0
230
1.0
 70
     8
 71
     2
 72
     6
 73
     3
 74
     0
 42
0.000000001
 43
0.0000000001
 40
0.0
 40
0.0
 40
0.0
 40
1.0
 40
1.0
 40
1.0
 10
3.424283746660631
 20
0.347818136215206
 30
0.0
 10
3.330465558947008
 20
0.2725454568862877
 30
0.0
 10
3.26828360933153
 20
0.1296364068984948
 30
0.0
  0
SPLINE
  5
15F
330
70
100
AcDbEntity
  8
cutback1 v2_Sketch2
100
AcDbSpline
210
0.0
220
0.0
230
1.0
 70
     8
 71
     2
 72
     6
 73
     3
 74
     0
 42
0.000000001
 43
0.0000000001
 40
0.0
 40
0.0
 40
0.0
 40
1.0
 40
1.0
 40
1.0
 10
3.575919870317858
 20
0.2856364250183063
 30
0.0
 10
3.465738061846178
 20
0.1110908985137899
 30
0.0
 10
3.24428344148485
 20
0.0445454120635949
 30
0.0
  0
SPLINE
  5
160
330
70
100
AcDbEntity
  8
cutback1 v2_Sketch2
100
AcDbSpline
210
0.0
220
0.0
230
1.0
 70
     8
 71
     2
 72
     6
 73
     3
 74
     0
 42
0.000000001
 43
0.0000000001
 40
0.0
 40
0.0
 40
0.0
 40
1.0
 40
1.0
 40
1.0
 10
3.388283494890612
 20
0.1885454654693564
 30
0.0
 10
3.46464705842821
 20
0.2474545240402182
 30
0.0
 10
3.509374383867663
 20
0.3216364383697468
 30
0.0
  0
SPLINE
  5
161
330
70
100
AcDbEntity
  8
cutback1 v2_Sketch2
100
AcDbSpline
210
0.0
220
0.0
230
1.0
 70
     8
 71
     2
 72
     6
 73
     3
 74
     0
 42
0.000000001
 43
0.0000000001
 40
0.0
 40
0.0
 40
0.0
 40
1.0
 40
1.0
 40
1.0
 10
-3.677534993707257
 20
-0.0034545660018872
 30
0.0
 10
-3.586989518224316
 20
0.2660000324249316
 30
0.0
 10
-3.463716801225262
 20
0.5103636384010362
 30
0.0
  0
SPLINE
  5
162
330
70
100
AcDbEntity
  8
cutback1 v2_Sketch2
100
AcDbSpline
210
0.0
220
0.0
230
1.0
 70
     8
 71
     2
 72
     6
 73
     3
 74
     0
 42
0.000000001
 43
0.0000000001
 40
0.0
 40
0.0
 40
0.0
 40
1.0
 40
1.0
 40
1.0
 10
-3.463716801225262
 20
0.5103636384010362
 30
0.0
 10
-3.366625841676312
 20
0.7012727856636093
 30
0.0
 10
-3.202989455281812
 20
0.9892727136611982
 30
0.0
  0
SPLINE
  5
163
330
70
100
AcDbEntity
  8
cutback1 v2_Sketch2
100
AcDbSpline
210
0.0
220
0.0
230
1.0
 70
     8
 71
     2
 72
     6
 73
     3
 74
     0
 42
0.000000001
 43
0.0000000001
 40
0.0
 40
0.0
 40
0.0
 40
1.0
 40
1.0
 40
1.0
 10
-3.036080356656629
 20
1.064545392990116
 30
0.0
 10
-3.288080330907422
 20
0.6543636918067977
 30
0.0
 10
-3.403716798841077
 20
0.3903636932373093
 30
0.0
  0
SPLINE
  5
164
330
70
100
AcDbEntity
  8
cutback1 v2_Sketch2
100
AcDbSpline
210
0.0
220
0.0
230
1.0
 70
     8
 71
     2
 72
     6
 73
     3
 74
     0
 42
0.000000001
 43
0.0000000001
 40
0.0
 40
0.0
 40
0.0
 40
1.0
 40
1.0
 40
1.0
 10
-3.797534998475628
 20
-0.1889090538024851
 30
0.0
 10
-3.802989538728314
 20
-0.1627272367477366
 30
0.0
 10
-3.802989538728314
 20
-0.0885454416274973
 30
0.0
  0
SPLINE
  5
165
330
70
100
AcDbEntity
  8
cutback1 v2_Sketch2
100
AcDbSpline
210
0.0
220
0.0
230
1.0
 70
     8
 71
     2
 72
     6
 73
     3
 74
     0
 42
0.000000001
 43
0.0000000001
 40
0.0
 40
0.0
 40
0.0
 40
1.0
 40
1.0
 40
1.0
 10
-3.658989485322553
 20
0.9390908479690601
 30
0.0
 10
-3.763716813146192
 20
0.823454499244695
 30
0.0
 10
-3.972080405770856
 20
0.4547272920608574
 30
0.0
  0
SPLINE
  5
166
330
70
100
AcDbEntity
  8
cutback1 v2_Sketch2
100
AcDbSpline
210
0.0
220
0.0
230
1.0
 70
     8
 71
     2
 72
     6
 73
     3
 74
     0
 42
0.000000001
 43
0.0000000001
 40
0.0
 40
0.0
 40
0.0
 40
1.0
 40
1.0
 40
1.0
 10
-2.965171214162428
 20
1.284909129142765
 30
0.0
 10
-2.930262204228956
 20
1.284909129142765
 30
0.0
 10
-2.930262204228956
 20
1.25436365604401
 30
0.0
  0
SPLINE
  5
167
330
70
100
AcDbEntity
  8
cutback1 v2_Sketch2
100
AcDbSpline
210
0.0
220
0.0
230
1.0
 70
     8
 71
     2
 72
     6
 73
     3
 74
     0
 42
0.000000001
 43
0.0000000001
 40
0.0
 40
0.0
 40
0.0
 40
1.0
 40
1.0
 40
1.0
 10
-2.930262204228956
 20
1.25436365604401
 30
0.0
 10
-2.930262204228956
 20
1.238000035285953
 30
0.0
 10
-2.945534940778333
 20
1.211818218231205
 30
0.0
  0
SPLINE
  5
168
330
70
100
AcDbEntity
  8
cutback1 v2_Sketch2
100
AcDbSpline
210
0.0
220
0.0
230
1.0
 70
     8
 71
     2
 72
     6
 73
     3
 74
     0
 42
0.000000001
 43
0.0000000001
 40
0.0
 40
0.0
 40
0.0
 40
1.0
 40
1.0
 40
1.0
 10
-3.802989538728314
 20
-0.0885454416274973
 30
0.0
 10
-3.802989538728314
 20
0.1721818447113088
 30
0.0
 10
-3.751716788827496
 20
0.4907273054122977
 30
0.0
  0
SPLINE
  5
169
330
70
100
AcDbEntity
  8
cutback1 v2_Sketch2
100
AcDbSpline
210
0.0
220
0.0
230
1.0
 70
     8
 71
     2
 72
     6
 73
     3
 74
     0
 42
0.000000001
 43
0.0000000001
 40
0.0
 40
0.0
 40
0.0
 40
1.0
 40
1.0
 40
1.0
 10
-3.751716788827496
 20
0.4907273054122977
 30
0.0
 10
-3.705898579179364
 20
0.7699999809265187
 30
0.0
 10
-3.658989485322553
 20
0.9390908479690601
 30
0.0
  0
SPLINE
  5
16A
330
70
100
AcDbEntity
  8
cutback1 v2_Sketch2
100
AcDbSpline
210
0.0
220
0.0
230
1.0
 70
     8
 71
     2
 72
     6
 73
     3
 74
     0
 42
0.000000001
 43
0.0000000001
 40
0.0
 40
0.0
 40
0.0
 40
1.0
 40
1.0
 40
1.0
 10
-3.972080405770856
 20
0.4547272920608574
 30
0.0
 10
-4.136807691275197
 20
0.1623636484146174
 30
0.0
 10
-4.218625884472447
 20
-0.0907272100448553
 30
0.0
  0
SPLINE
  5
16B
330
70
100
AcDbEntity
  8
cutback1 v2_Sketch2
100
AcDbSpline
210
0.0
220
0.0
230
1.0
 70
     8
 71
     2
 72
     6
 73
     3
 74
     0
 42
0.000000001
 43
0.0000000001
 40
0.0
 40
0.0
 40
0.0
 40
1.0
 40
1.0
 40
1.0
 10
-3.202989455281812
 20
0.9892727136611982
 30
0.0
 10
-3.081898566304761
 20
1.202000021934513
 30
0.0
 10
-3.043716665326673
 20
1.243454575538639
 30
0.0
  0
SPLINE
  5
16C
330
70
100
AcDbEntity
  8
cutback1 v2_Sketch2
100
AcDbSpline
210
0.0
220
0.0
230
1.0
 70
     8
 71
     2
 72
     6
 73
     3
 74
     0
 42
0.000000001
 43
0.0000000001
 40
0.0
 40
0.0
 40
0.0
 40
1.0
 40
1.0
 40
1.0
 10
-3.043716665326673
 20
1.243454575538639
 30
0.0
 10
-3.005534883557874
 20
1.284909129142765
 30
0.0
 10
-2.965171214162428
 20
1.284909129142765
 30
0.0
  0
SPLINE
  5
16D
330
70
100
AcDbEntity
  8
cutback1 v2_Sketch2
100
AcDbSpline
210
0.0
220
0.0
230
1.0
 70
     8
 71
     2
 72
     6
 73
     3
 74
     0
 42
0.000000001
 43
0.0000000001
 40
0.0
 40
0.0
 40
0.0
 40
1.0
 40
1.0
 40
1.0
 10
-2.945534940778333
 20
1.211818218231205
 30
0.0
 10
-2.959716673909742
 20
1.186727285385135
 30
0.0
 10
-3.036080356656629
 20
1.064545392990116
 30
0.0
  0
SPLINE
  5
16E
330
70
100
AcDbEntity
  8
cutback1 v2_Sketch2
100
AcDbSpline
210
0.0
220
0.0
230
1.0
 70
     8
 71
     2
 72
     6
 73
     3
 74
     0
 42
0.000000001
 43
0.0000000001
 40
0.0
 40
0.0
 40
0.0
 40
1.0
 40
1.0
 40
1.0
 10
-3.403716798841077
 20
0.3903636932373093
 30
0.0
 10
-3.508444067060071
 20
0.1536364555358933
 30
0.0
 10
-3.583716805993633
 20
-0.0732727050781201
 30
0.0
  0
SPLINE
  5
16F
330
70
100
AcDbEntity
  8
cutback1 v2_Sketch2
100
AcDbSpline
210
0.0
220
0.0
230
1.0
 70
     8
 71
     2
 72
     6
 73
     3
 74
     0
 42
0.000000001
 43
0.0000000001
 40
0.0
 40
0.0
 40
0.0
 40
1.0
 40
1.0
 40
1.0
 10
-3.583716805993633
 20
-0.0732727050781201
 30
0.0
 10
-3.610989507257061
 20
-0.1550909280776929
 30
0.0
 10
-3.643716808377819
 20
-0.1943635940551709
 30
0.0
  0
SPLINE
  5
170
330
70
100
AcDbEntity
  8
cutback1 v2_Sketch2
100
AcDbSpline
210
0.0
220
0.0
230
1.0
 70
     8
 71
     2
 72
     6
 73
     3
 74
     0
 42
0.000000001
 43
0.0000000001
 40
0.0
 40
0.0
 40
0.0
 40
1.0
 40
1.0
 40
1.0
 10
-3.643716808377819
 20
-0.1943635940551709
 30
0.0
 10
-3.69171678644331
 20
-0.2532727718353223
 30
0.0
 10
-3.740807708322125
 20
-0.253272771835322
 30
0.0
  0
SPLINE
  5
171
330
70
100
AcDbEntity
  8
cutback1 v2_Sketch2
100
AcDbSpline
210
0.0
220
0.0
230
1.0
 70
     8
 71
     2
 72
     6
 73
     3
 74
     0
 42
0.000000001
 43
0.0000000001
 40
0.0
 40
0.0
 40
0.0
 40
1.0
 40
1.0
 40
1.0
 10
-3.740807708322125
 20
-0.253272771835322
 30
0.0
 10
-3.785534974156933
 20
-0.253272771835322
 30
0.0
 10
-3.797534998475628
 20
-0.1889090538024851
 30
0.0
  0
SPLINE
  5
172
330
70
100
AcDbEntity
  8
cutback1 v2_Sketch2
100
AcDbSpline
210
0.0
220
0.0
230
1.0
 70
     8
 71
     2
 72
     6
 73
     3
 74
     0
 42
0.000000001
 43
0.0000000001
 40
0.0
 40
0.0
 40
0.0
 40
1.0
 40
1.0
 40
1.0
 10
-3.706989522992688
 20
1.040545463562016
 30
0.0
 10
-3.624080415784437
 20
1.156181812286381
 30
0.0
 10
-3.583716805993635
 20
1.189999938011174
 30
0.0
  0
SPLINE
  5
173
330
70
100
AcDbEntity
  8
cutback1 v2_Sketch2
100
AcDbSpline
210
0.0
220
0.0
230
1.0
 70
     8
 71
     2
 72
     6
 73
     3
 74
     0
 42
0.000000001
 43
0.0000000001
 40
0.0
 40
0.0
 40
0.0
 40
1.0
 40
1.0
 40
1.0
 10
-3.583716805993635
 20
1.189999938011174
 30
0.0
 10
-3.54662584882887
 20
1.220545411109929
 30
0.0
 10
-3.513898607312757
 20
1.220545411109929
 30
0.0
  0
SPLINE
  5
174
330
70
100
AcDbEntity
  8
cutback1 v2_Sketch2
100
AcDbSpline
210
0.0
220
0.0
230
1.0
 70
     8
 71
     2
 72
     6
 73
     3
 74
     0
 42
0.000000001
 43
0.0000000001
 40
0.0
 40
0.0
 40
0.0
 40
1.0
 40
1.0
 40
1.0
 10
-4.31244406473549
 20
-0.0078182220458927
 30
0.0
 10
-4.220807697593289
 20
0.2234545946121271
 30
0.0
 10
-4.008080419122296
 20
0.583454549312597
 30
0.0
  0
SPLINE
  5
175
330
70
100
AcDbEntity
  8
cutback1 v2_Sketch2
100
AcDbSpline
210
0.0
220
0.0
230
1.0
 70
     8
 71
     2
 72
     6
 73
     3
 74
     0
 42
0.000000001
 43
0.0000000001
 40
0.0
 40
0.0
 40
0.0
 40
1.0
 40
1.0
 40
1.0
 10
-3.513898607312757
 20
1.220545411109929
 30
0.0
 10
-3.499716754972059
 20
1.220545411109928
 30
0.0
 10
-3.488807674466688
 20
1.211818218231205
 30
0.0
  0
SPLINE
  5
176
330
70
100
AcDbEntity
  8
cutback1 v2_Sketch2
100
AcDbSpline
210
0.0
220
0.0
230
1.0
 70
     8
 71
     2
 72
     6
 73
     3
 74
     0
 42
0.000000001
 43
0.0000000001
 40
0.0
 40
0.0
 40
0.0
 40
1.0
 40
1.0
 40
1.0
 10
-4.372444063394384
 20
-0.2532727718353214
 30
0.0
 10
-4.383353155075626
 20
-0.2401818037033023
 30
0.0
 10
-4.383353155075626
 20
-0.2270909547805728
 30
0.0
  0
SPLINE
  5
177
330
70
100
AcDbEntity
  8
cutback1 v2_Sketch2
100
AcDbSpline
210
0.0
220
0.0
230
1.0
 70
     8
 71
     2
 72
     6
 73
     3
 74
     0
 42
0.000000001
 43
0.0000000001
 40
0.0
 40
0.0
 40
0.0
 40
1.0
 40
1.0
 40
1.0
 10
-3.488807674466688
 20
1.211818218231205
 30
0.0
 10
-3.47353493791731
 20
1.199818134307865
 30
0.0
 10
-3.47353493791731
 20
1.18236362934113
 30
0.0
  0
SPLINE
  5
178
330
70
100
AcDbEntity
  8
cutback1 v2_Sketch2
100
AcDbSpline
210
0.0
220
0.0
230
1.0
 70
     8
 71
     2
 72
     6
 73
     3
 74
     0
 42
0.000000001
 43
0.0000000001
 40
0.0
 40
0.0
 40
0.0
 40
1.0
 40
1.0
 40
1.0
 10
-4.340807698636369
 20
-0.2685455083846988
 30
0.0
 10
-4.35935315486701
 20
-0.2685455083846988
 30
0.0
 10
-4.372444063394384
 20
-0.2532727718353214
 30
0.0
  0
SPLINE
  5
179
330
70
100
AcDbEntity
  8
cutback1 v2_Sketch2
100
AcDbSpline
210
0.0
220
0.0
230
1.0
 70
     8
 71
     2
 72
     6
 73
     3
 74
     0
 42
0.000000001
 43
0.0000000001
 40
0.0
 40
0.0
 40
0.0
 40
1.0
 40
1.0
 40
1.0
 10
-3.47353493791731
 20
1.18236362934113
 30
0.0
 10
-3.47353493791731
 20
1.160545468330387
 30
0.0
 10
-3.484444078027326
 20
1.13327276706696
 30
0.0
  0
SPLINE
  5
17A
330
70
100
AcDbEntity
  8
cutback1 v2_Sketch2
100
AcDbSpline
210
0.0
220
0.0
230
1.0
 70
     8
 71
     2
 72
     6
 73
     3
 74
     0
 42
0.000000001
 43
0.0000000001
 40
0.0
 40
0.0
 40
0.0
 40
1.0
 40
1.0
 40
1.0
 10
-3.484444078027326
 20
1.13327276706696
 30
0.0
 10
-3.536807712136823
 20
0.9990909099578905
 30
0.0
 10
-3.592444058477002
 20
0.7612726688385059
 30
0.0
  0
SPLINE
  5
17B
330
70
100
AcDbEntity
  8
cutback1 v2_Sketch2
100
AcDbSpline
210
0.0
220
0.0
230
1.0
 70
     8
 71
     2
 72
     6
 73
     3
 74
     0
 42
0.000000001
 43
0.0000000001
 40
0.0
 40
0.0
 40
0.0
 40
1.0
 40
1.0
 40
1.0
 10
-3.680807705937939
 20
0.1100000143051196
 30
0.0
 10
-3.680807705937939
 20
0.072909116745
 30
0.0
 10
-3.677534993707257
 20
-0.0034545660018872
 30
0.0
  0
SPLINE
  5
17C
330
70
100
AcDbEntity
  8
cutback1 v2_Sketch2
100
AcDbSpline
210
0.0
220
0.0
230
1.0
 70
     8
 71
     2
 72
     6
 73
     3
 74
     0
 42
0.000000001
 43
0.0000000001
 40
0.0
 40
0.0
 40
0.0
 40
1.0
 40
1.0
 40
1.0
 10
-4.008080419122296
 20
0.583454549312597
 30
0.0
 10
-3.88153498989256
 20
0.7983635663986259
 30
0.0
 10
-3.706989522992688
 20
1.040545463562016
 30
0.0
  0
SPLINE
  5
17D
330
70
100
AcDbEntity
  8
cutback1 v2_Sketch2
100
AcDbSpline
210
0.0
220
0.0
230
1.0
 70
     8
 71
     2
 72
     6
 73
     3
 74
     0
 42
0.000000001
 43
0.0000000001
 40
0.0
 40
0.0
 40
0.0
 40
1.0
 40
1.0
 40
1.0
 10
-4.2677167914501
 20
-0.2205454111099185
 30
0.0
 10
-4.29608042162569
 20
-0.2685455083846988
 30
0.0
 10
-4.340807698636369
 20
-0.2685455083846988
 30
0.0
  0
SPLINE
  5
17E
330
70
100
AcDbEntity
  8
cutback1 v2_Sketch2
100
AcDbSpline
210
0.0
220
0.0
230
1.0
 70
     8
 71
     2
 72
     6
 73
     3
 74
     0
 42
0.000000001
 43
0.0000000001
 40
0.0
 40
0.0
 40
0.0
 40
1.0
 40
1.0
 40
1.0
 10
-4.383353155075626
 20
-0.2270909547805728
 30
0.0
 10
-4.383353155075626
 20
-0.1856364011764469
 30
0.0
 10
-4.31244406473549
 20
-0.0078182220458927
 30
0.0
  0
LINE
  5
17F
330
70
100
AcDbEntity
  8
cutback1 v2_Sketch2
100
AcDbLine
 10
-3.178989525853711
 20
0.0445454120636031
 30
0.0
 11
-3.178989525853711
 21
0.0249090194702193
 31
0.0
  0
SPLINE
  5
180
330
70
100
AcDbEntity
  8
cutback1 v2_Sketch2
100
AcDbSpline
210
0.0
220
0.0
230
1.0
 70
     8
 71
     2
 72
     6
 73
     3
 74
     0
 42
0.000000001
 43
0.0000000001
 40
0.0
 40
0.0
 40
0.0
 40
1.0
 40
1.0
 40
1.0
 10
-3.592444058477002
 20
0.7612726688385059
 30
0.0
 10
-3.680807705937939
 20
0.3783636093139697
 30
0.0
 10
-3.680807705937939
 20
0.1100000143051196
 30
0.0
  0
SPLINE
  5
181
330
70
100
AcDbEntity
  8
cutback1 v2_Sketch2
100
AcDbSpline
210
0.0
220
0.0
230
1.0
 70
     8
 71
     2
 72
     6
 73
     3
 74
     0
 42
0.000000001
 43
0.0000000001
 40
0.0
 40
0.0
 40
0.0
 40
1.0
 40
1.0
 40
1.0
 10
-4.218625884472447
 20
-0.0907272100448553
 30
0.0
 10
-4.252444054900722
 20
-0.1954545974731388
 30
0.0
 10
-4.2677167914501
 20
-0.2205454111099185
 30
0.0
  0
SPLINE
  5
182
330
70
100
AcDbEntity
  8
cutback1 v2_Sketch2
100
AcDbSpline
210
0.0
220
0.0
230
1.0
 70
     8
 71
     2
 72
     6
 73
     3
 74
     0
 42
0.000000001
 43
0.0000000001
 40
0.0
 40
0.0
 40
0.0
 40
1.0
 40
1.0
 40
1.0
 10
-3.11898958307417
 20
0.3609091043472332
 30
0.0
 10
-2.978262301503735
 20
0.5049090981483501
 30
0.0
 10
-2.873535033284741
 20
0.50490909814835
 30
0.0
  0
SPLINE
  5
183
330
70
100
AcDbEntity
  8
cutback1 v2_Sketch2
100
AcDbSpline
210
0.0
220
0.0
230
1.0
 70
     8
 71
     2
 72
     6
 73
     3
 74
     0
 42
0.000000001
 43
0.0000000001
 40
0.0
 40
0.0
 40
0.0
 40
1.0
 40
1.0
 40
1.0
 10
-3.077535029470043
 20
-0.0569090843200642
 30
0.0
 10
-2.941171403943615
 20
-0.0569090843200644
 30
0.0
 10
-2.762262340604382
 20
0.1525454521179237
 30
0.0
  0
SPLINE
  5
184
330
70
100
AcDbEntity
  8
cutback1 v2_Sketch2
100
AcDbSpline
210
0.0
220
0.0
230
1.0
 70
     8
 71
     2
 72
     6
 73
     3
 74
     0
 42
0.000000001
 43
0.0000000001
 40
0.0
 40
0.0
 40
0.0
 40
1.0
 40
1.0
 40
1.0
 10
-3.16698956113966
 20
-0.0165454149246174
 30
0.0
 10
-3.139716859876232
 20
-0.0569090843200642
 30
0.0
 10
-3.077535029470043
 20
-0.0569090843200642
 30
0.0
  0
SPLINE
  5
185
330
70
100
AcDbEntity
  8
cutback1 v2_Sketch2
100
AcDbSpline
210
0.0
220
0.0
230
1.0
 70
     8
 71
     2
 72
     6
 73
     3
 74
     0
 42
0.000000001
 43
0.0000000001
 40
0.0
 40
0.0
 40
0.0
 40
1.0
 40
1.0
 40
1.0
 10
-2.762262340604382
 20
0.1525454521179237
 30
0.0
 10
-2.730625864087659
 20
0.1885454654693641
 30
0.0
 10
-2.708807703076916
 20
0.1885454654693641
 30
0.0
  0
SPLINE
  5
186
330
70
100
AcDbEntity
  8
cutback1 v2_Sketch2
100
AcDbSpline
210
0.0
220
0.0
230
1.0
 70
     8
 71
     2
 72
     6
 73
     3
 74
     0
 42
0.000000001
 43
0.0000000001
 40
0.0
 40
0.0
 40
0.0
 40
1.0
 40
1.0
 40
1.0
 10
-2.708807703076916
 20
0.1885454654693641
 30
0.0
 10
-2.696807738362866
 20
0.1885454654693641
 30
0.0
 10
-2.686989542066174
 20
0.1765455007553138
 30
0.0
  0
SPLINE
  5
187
330
70
100
AcDbEntity
  8
cutback1 v2_Sketch2
100
AcDbSpline
210
0.0
220
0.0
230
1.0
 70
     8
 71
     2
 72
     6
 73
     3
 74
     0
 42
0.000000001
 43
0.0000000001
 40
0.0
 40
0.0
 40
0.0
 40
1.0
 40
1.0
 40
1.0
 10
-2.680444117604809
 20
0.1601817607879676
 30
0.0
 10
-2.680444117604809
 20
0.117636442184452
 30
0.0
 10
-2.785171385823803
 20
0.0161818265914955
 30
0.0
  0
SPLINE
  5
188
330
70
100
AcDbEntity
  8
cutback1 v2_Sketch2
100
AcDbSpline
210
0.0
220
0.0
230
1.0
 70
     8
 71
     2
 72
     6
 73
     3
 74
     0
 42
0.000000001
 43
0.0000000001
 40
0.0
 40
0.0
 40
0.0
 40
1.0
 40
1.0
 40
1.0
 10
-2.785171385823803
 20
0.0161818265914955
 30
0.0
 10
-2.866989608823376
 20
-0.0634545087814291
 30
0.0
 10
-2.95971679311903
 20
-0.1136363744735678
 30
0.0
  0
SPLINE
  5
189
330
70
100
AcDbEntity
  8
cutback1 v2_Sketch2
100
AcDbSpline
210
0.0
220
0.0
230
1.0
 70
     8
 71
     2
 72
     6
 73
     3
 74
     0
 42
0.000000001
 43
0.0000000001
 40
0.0
 40
0.0
 40
0.0
 40
1.0
 40
1.0
 40
1.0
 10
-2.95971679311903
 20
-0.1136363744735678
 30
0.0
 10
-3.052444096623974
 20
-0.1638181209564167
 30
0.0
 10
-3.132080431996899
 20
-0.1638181209564167
 30
0.0
  0
SPLINE
  5
18A
330
70
100
AcDbEntity
  8
cutback1 v2_Sketch2
100
AcDbSpline
210
0.0
220
0.0
230
1.0
 70
     8
 71
     2
 72
     6
 73
     3
 74
     0
 42
0.000000001
 43
0.0000000001
 40
0.0
 40
0.0
 40
0.0
 40
1.0
 40
1.0
 40
1.0
 10
-3.132080431996899
 20
-0.1638181209564167
 30
0.0
 10
-3.213898654996472
 20
-0.1638181209564165
 30
0.0
 10
-3.260807748853283
 20
-0.1070909500122026
 30
0.0
  0
SPLINE
  5
18B
330
70
100
AcDbEntity
  8
cutback1 v2_Sketch2
100
AcDbSpline
210
0.0
220
0.0
230
1.0
 70
     8
 71
     2
 72
     6
 73
     3
 74
     0
 42
0.000000001
 43
0.0000000001
 40
0.0
 40
0.0
 40
0.0
 40
1.0
 40
1.0
 40
1.0
 10
-3.260807748853283
 20
-0.1070909500122026
 30
0.0
 10
-3.292444106160717
 20
-0.067818164825435
 30
0.0
 10
-3.292444106160717
 20
-0.0001817941665605
 30
0.0
  0
SPLINE
  5
18C
330
70
100
AcDbEntity
  8
cutback1 v2_Sketch2
100
AcDbSpline
210
0.0
220
0.0
230
1.0
 70
     8
 71
     2
 72
     6
 73
     3
 74
     0
 42
0.000000001
 43
0.0000000001
 40
0.0
 40
0.0
 40
0.0
 40
1.0
 40
1.0
 40
1.0
 10
-3.292444106160717
 20
-0.0001817941665605
 30
0.0
 10
-3.292444106160718
 20
0.1841818094253584
 30
0.0
 10
-3.11898958307417
 20
0.3609091043472332
 30
0.0
  0
SPLINE
  5
18D
330
70
100
AcDbEntity
  8
cutback1 v2_Sketch2
100
AcDbSpline
210
0.0
220
0.0
230
1.0
 70
     8
 71
     2
 72
     6
 73
     3
 74
     0
 42
0.000000001
 43
0.0000000001
 40
0.0
 40
0.0
 40
0.0
 40
1.0
 40
1.0
 40
1.0
 10
-2.873535033284741
 20
0.50490909814835
 30
0.0
 10
-2.845171328603345
 20
0.5049090981483499
 30
0.0
 10
-2.822262283383923
 20
0.4874545931816141
 30
0.0
  0
SPLINE
  5
18E
330
70
100
AcDbEntity
  8
cutback1 v2_Sketch2
100
AcDbSpline
210
0.0
220
0.0
230
1.0
 70
     8
 71
     2
 72
     6
 73
     3
 74
     0
 42
0.000000001
 43
0.0000000001
 40
0.0
 40
0.0
 40
0.0
 40
1.0
 40
1.0
 40
1.0
 10
-2.822262283383923
 20
0.4874545931816141
 30
0.0
 10
-2.793898578702527
 20
0.4645454883575479
 30
0.0
 10
-2.793898578702527
 20
0.4274545907974283
 30
0.0
  0
SPLINE
  5
18F
330
70
100
AcDbEntity
  8
cutback1 v2_Sketch2
100
AcDbSpline
210
0.0
220
0.0
230
1.0
 70
     8
 71
     2
 72
     6
 73
     3
 74
     0
 42
0.000000001
 43
0.0000000001
 40
0.0
 40
0.0
 40
0.0
 40
1.0
 40
1.0
 40
1.0
 10
-2.686989542066174
 20
0.1765455007553138
 30
0.0
 10
-2.680444117604809
 20
0.1678181886673011
 30
0.0
 10
-2.680444117604809
 20
0.1601817607879676
 30
0.0
  0
SPLINE
  5
190
330
70
100
AcDbEntity
  8
cutback1 v2_Sketch2
100
AcDbSpline
210
0.0
220
0.0
230
1.0
 70
     8
 71
     2
 72
     6
 73
     3
 74
     0
 42
0.000000001
 43
0.0000000001
 40
0.0
 40
0.0
 40
0.0
 40
1.0
 40
1.0
 40
1.0
 10
-2.793898578702527
 20
0.4274545907974283
 30
0.0
 10
-2.793898578702527
 20
0.3696362972259559
 30
0.0
 10
-2.847353216229993
 20
0.2856364250183145
 30
0.0
  0
SPLINE
  5
191
330
70
100
AcDbEntity
  8
cutback1 v2_Sketch2
100
AcDbSpline
210
0.0
220
0.0
230
1.0
 70
     8
 71
     2
 72
     6
 73
     3
 74
     0
 42
0.000000001
 43
0.0000000001
 40
0.0
 40
0.0
 40
0.0
 40
1.0
 40
1.0
 40
1.0
 10
-3.17898952585371
 20
0.0249090194702193
 30
0.0
 10
-3.17898952585371
 20
0.0009090900421187
 30
0.0
 10
-3.16698956113966
 20
-0.0165454149246174
 30
0.0
  0
SPLINE
  5
192
330
70
100
AcDbEntity
  8
cutback1 v2_Sketch2
100
AcDbSpline
210
0.0
220
0.0
230
1.0
 70
     8
 71
     2
 72
     6
 73
     3
 74
     0
 42
0.000000001
 43
0.0000000001
 40
0.0
 40
0.0
 40
0.0
 40
1.0
 40
1.0
 40
1.0
 10
-2.36298942190321
 20
-0.0372726917266813
 30
0.0
 10
-2.479716654836254
 20
-0.174727320671078
 30
0.0
 10
-2.557171221791821
 20
-0.174727320671078
 30
0.0
  0
SPLINE
  5
193
330
70
100
AcDbEntity
  8
cutback1 v2_Sketch2
100
AcDbSpline
210
0.0
220
0.0
230
1.0
 70
     8
 71
     2
 72
     6
 73
     3
 74
     0
 42
0.000000001
 43
0.0000000001
 40
0.0
 40
0.0
 40
0.0
 40
1.0
 40
1.0
 40
1.0
 10
-2.557171221791821
 20
-0.174727320671078
 30
0.0
 10
-2.604080315648632
 20
-0.174727320671078
 30
0.0
 10
-2.629171248494702
 20
-0.1234545707702601
 30
0.0
  0
SPLINE
  5
194
330
70
100
AcDbEntity
  8
cutback1 v2_Sketch2
100
AcDbSpline
210
0.0
220
0.0
230
1.0
 70
     8
 71
     2
 72
     6
 73
     3
 74
     0
 42
0.000000001
 43
0.0000000001
 40
0.0
 40
0.0
 40
0.0
 40
1.0
 40
1.0
 40
1.0
 10
-2.646625753461437
 20
-0.0525454282760582
 30
0.0
 10
-2.646625753461437
 20
0.0194545984268226
 30
0.0
 10
-2.584443923055249
 20
0.1558182239532506
 30
0.0
  0
SPLINE
  5
195
330
70
100
AcDbEntity
  8
cutback1 v2_Sketch2
100
AcDbSpline
210
0.0
220
0.0
230
1.0
 70
     8
 71
     2
 72
     6
 73
     3
 74
     0
 42
0.000000001
 43
0.0000000001
 40
0.0
 40
0.0
 40
0.0
 40
1.0
 40
1.0
 40
1.0
 10
-2.490625735341626
 20
0.3434545993804967
 30
0.0
 10
-2.462262149869519
 20
0.3925454616546664
 30
0.0
 10
-2.456807609616833
 20
0.407818198204044
 30
0.0
  0
SPLINE
  5
196
330
70
100
AcDbEntity
  8
cutback1 v2_Sketch2
100
AcDbSpline
210
0.0
220
0.0
230
1.0
 70
     8
 71
     2
 72
     6
 73
     3
 74
     0
 42
0.000000001
 43
0.0000000001
 40
0.0
 40
0.0
 40
0.0
 40
1.0
 40
1.0
 40
1.0
 10
-2.847353216229993
 20
0.2856364250183145
 30
0.0
 10
-2.957535024701672
 20
0.1110908985137979
 30
0.0
 10
-3.178989525853711
 20
0.0445454120636031
 30
0.0
  0
SPLINE
  5
197
330
70
100
AcDbEntity
  8
cutback1 v2_Sketch2
100
AcDbSpline
210
0.0
220
0.0
230
1.0
 70
     8
 71
     2
 72
     6
 73
     3
 74
     0
 42
0.000000001
 43
0.0000000001
 40
0.0
 40
0.0
 40
0.0
 40
1.0
 40
1.0
 40
1.0
 10
-2.913898702680188
 20
0.321636438369755
 30
0.0
 10
-2.897534962712842
 20
0.347818136215214
 30
0.0
 10
-2.897534962712842
 20
0.3685455322265665
 30
0.0
  0
SPLINE
  5
198
330
70
100
AcDbEntity
  8
cutback1 v2_Sketch2
100
AcDbSpline
210
0.0
220
0.0
230
1.0
 70
     8
 71
     2
 72
     6
 73
     3
 74
     0
 42
0.000000001
 43
0.0000000001
 40
0.0
 40
0.0
 40
0.0
 40
1.0
 40
1.0
 40
1.0
 10
-2.998989578305798
 20
0.3478181362152142
 30
0.0
 10
-3.092807766019421
 20
0.2725454568862957
 30
0.0
 10
-3.15498959642561
 20
0.1296364068985027
 30
0.0
  0
SPLINE
  5
199
330
70
100
AcDbEntity
  8
cutback1 v2_Sketch2
100
AcDbSpline
210
0.0
220
0.0
230
1.0
 70
     8
 71
     2
 72
     6
 73
     3
 74
     0
 42
0.000000001
 43
0.0000000001
 40
0.0
 40
0.0
 40
0.0
 40
1.0
 40
1.0
 40
1.0
 10
-2.629171248494702
 20
-0.1234545707702601
 30
0.0
 10
-2.646625753461437
 20
-0.0896363258361779
 30
0.0
 10
-2.646625753461437
 20
-0.0525454282760582
 30
0.0
  0
SPLINE
  5
19A
330
70
100
AcDbEntity
  8
cutback1 v2_Sketch2
100
AcDbSpline
210
0.0
220
0.0
230
1.0
 70
     8
 71
     2
 72
     6
 73
     3
 74
     0
 42
0.000000001
 43
0.0000000001
 40
0.0
 40
0.0
 40
0.0
 40
1.0
 40
1.0
 40
1.0
 10
-2.584443923055249
 20
0.1558182239532506
 30
0.0
 10
-2.528807517110425
 20
0.274727344512943
 30
0.0
 10
-2.490625735341626
 20
0.3434545993804967
 30
0.0
  0
SPLINE
  5
19B
330
70
100
AcDbEntity
  8
cutback1 v2_Sketch2
100
AcDbSpline
210
0.0
220
0.0
230
1.0
 70
     8
 71
     2
 72
     6
 73
     3
 74
     0
 42
0.000000001
 43
0.0000000001
 40
0.0
 40
0.0
 40
0.0
 40
1.0
 40
1.0
 40
1.0
 10
-2.248443838178234
 20
0.1329090595245392
 30
0.0
 10
-2.31498932462843
 20
0.018363714218143
 30
0.0
 10
-2.36298942190321
 20
-0.0372726917266813
 30
0.0
  0
SPLINE
  5
19C
330
70
100
AcDbEntity
  8
cutback1 v2_Sketch2
100
AcDbSpline
210
0.0
220
0.0
230
1.0
 70
     8
 71
     2
 72
     6
 73
     3
 74
     0
 42
0.000000001
 43
0.0000000001
 40
0.0
 40
0.0
 40
0.0
 40
1.0
 40
1.0
 40
1.0
 10
-3.034989591657239
 20
0.1885454654693646
 30
0.0
 10
-2.958625908910351
 20
0.2474545240402262
 30
0.0
 10
-2.913898702680188
 20
0.321636438369755
 30
0.0
  0
SPLINE
  5
19D
330
70
100
AcDbEntity
  8
cutback1 v2_Sketch2
100
AcDbSpline
210
0.0
220
0.0
230
1.0
 70
     8
 71
     2
 72
     6
 73
     3
 74
     0
 42
0.000000001
 43
0.0000000001
 40
0.0
 40
0.0
 40
0.0
 40
1.0
 40
1.0
 40
1.0
 10
-2.897534962712842
 20
0.3685455322265665
 30
0.0
 10
-2.897534962712842
 20
0.3903636932373087
 30
0.0
 10
-2.918262239514905
 20
0.3903636932373087
 30
0.0
  0
SPLINE
  5
19E
330
70
100
AcDbEntity
  8
cutback1 v2_Sketch2
100
AcDbSpline
210
0.0
220
0.0
230
1.0
 70
     8
 71
     2
 72
     6
 73
     3
 74
     0
 42
0.000000001
 43
0.0000000001
 40
0.0
 40
0.0
 40
0.0
 40
1.0
 40
1.0
 40
1.0
 10
-2.918262239514905
 20
0.3903636932373087
 30
0.0
 10
-2.946625944196301
 20
0.3903636932373087
 30
0.0
 10
-2.998989578305798
 20
0.3478181362152142
 30
0.0
  0
SPLINE
  5
19F
330
70
100
AcDbEntity
  8
cutback1 v2_Sketch2
100
AcDbSpline
210
0.0
220
0.0
230
1.0
 70
     8
 71
     2
 72
     6
 73
     3
 74
     0
 42
0.000000001
 43
0.0000000001
 40
0.0
 40
0.0
 40
0.0
 40
1.0
 40
1.0
 40
1.0
 10
-3.15498959642561
 20
0.1296364068985027
 30
0.0
 10
-3.078625913678723
 20
0.1558182239532513
 30
0.0
 10
-3.034989591657239
 20
0.1885454654693646
 30
0.0
  0
SPLINE
  5
1A0
330
70
100
AcDbEntity
  8
cutback1 v2_Sketch2
100
AcDbSpline
210
0.0
220
0.0
230
1.0
 70
     8
 71
     2
 72
     6
 73
     3
 74
     0
 42
0.000000001
 43
0.0000000001
 40
0.0
 40
0.0
 40
0.0
 40
1.0
 40
1.0
 40
1.0
 10
-2.298625703870373
 20
0.2594544887542758
 30
0.0
 10
-2.298625703870373
 20
0.3412728309631381
 30
0.0
 10
-2.268080230771619
 20
0.401272773742679
 30
0.0
  0
SPLINE
  5
1A1
330
70
100
AcDbEntity
  8
cutback1 v2_Sketch2
100
AcDbSpline
210
0.0
220
0.0
230
1.0
 70
     8
 71
     2
 72
     6
 73
     3
 74
     0
 42
0.000000001
 43
0.0000000001
 40
0.0
 40
0.0
 40
0.0
 40
1.0
 40
1.0
 40
1.0
 10
-2.124080415784436
 20
0.4329091310501129
 30
0.0
 10
-2.124080415784436
 20
0.3598182201385529
 30
0.0
 10
-2.200443979322034
 20
0.2180000543594391
 30
0.0
  0
SPLINE
  5
1A2
330
70
100
AcDbEntity
  8
cutback1 v2_Sketch2
100
AcDbSpline
210
0.0
220
0.0
230
1.0
 70
     8
 71
     2
 72
     6
 73
     3
 74
     0
 42
0.000000001
 43
0.0000000001
 40
0.0
 40
0.0
 40
0.0
 40
1.0
 40
1.0
 40
1.0
 10
-2.200443979322034
 20
0.2180000543594391
 30
0.0
 10
-2.178625818311291
 20
0.2136363983154328
 30
0.0
 10
-2.165534730969983
 20
0.2136363983154328
 30
0.0
  0
SPLINE
  5
1A3
330
70
100
AcDbEntity
  8
cutback1 v2_Sketch2
100
AcDbSpline
210
0.0
220
0.0
230
1.0
 70
     8
 71
     2
 72
     6
 73
     3
 74
     0
 42
0.000000001
 43
0.0000000001
 40
0.0
 40
0.0
 40
0.0
 40
1.0
 40
1.0
 40
1.0
 10
-2.165534730969983
 20
0.2136363983154328
 30
0.0
 10
-2.129534956037121
 20
0.2136363983154328
 30
0.0
 10
-2.07171654325636
 20
0.2594544887542753
 30
0.0
  0
SPLINE
  5
1A4
330
70
100
AcDbEntity
  8
cutback1 v2_Sketch2
100
AcDbSpline
210
0.0
220
0.0
230
1.0
 70
     8
 71
     2
 72
     6
 73
     3
 74
     0
 42
0.000000001
 43
0.0000000001
 40
0.0
 40
0.0
 40
0.0
 40
1.0
 40
1.0
 40
1.0
 10
-2.360807534276562
 20
0.4340000152587925
 30
0.0
 10
-2.360807534276562
 20
0.3849091529846225
 30
0.0
 10
-2.4491711817375
 20
0.2147272825241122
 30
0.0
  0
SPLINE
  5
1A5
330
70
100
AcDbEntity
  8
cutback1 v2_Sketch2
100
AcDbSpline
210
0.0
220
0.0
230
1.0
 70
     8
 71
     2
 72
     6
 73
     3
 74
     0
 42
0.000000001
 43
0.0000000001
 40
0.0
 40
0.0
 40
0.0
 40
1.0
 40
1.0
 40
1.0
 10
-2.371716614781933
 20
0.4645454883575474
 30
0.0
 10
-2.360807534276562
 20
0.4514545798301731
 30
0.0
 10
-2.360807534276562
 20
0.4340000152587925
 30
0.0
  0
SPLINE
  5
1A6
330
70
100
AcDbEntity
  8
cutback1 v2_Sketch2
100
AcDbSpline
210
0.0
220
0.0
230
1.0
 70
     8
 71
     2
 72
     6
 73
     3
 74
     0
 42
0.000000001
 43
0.0000000001
 40
0.0
 40
0.0
 40
0.0
 40
1.0
 40
1.0
 40
1.0
 10
-2.537534829198437
 20
-0.0078182220458949
 30
0.0
 10
-2.537534829198437
 20
-0.0427272319793666
 30
0.0
 10
-2.510262127935009
 20
-0.0427272319793666
 30
0.0
  0
SPLINE
  5
1A7
330
70
100
AcDbEntity
  8
cutback1 v2_Sketch2
100
AcDbSpline
210
0.0
220
0.0
230
1.0
 70
     8
 71
     2
 72
     6
 73
     3
 74
     0
 42
0.000000001
 43
0.0000000001
 40
0.0
 40
0.0
 40
0.0
 40
1.0
 40
1.0
 40
1.0
 10
-2.433898445188122
 20
0.4525454640388524
 30
0.0
 10
-2.419716592847424
 20
0.4754545688629185
 30
0.0
 10
-2.394625779210644
 20
0.4754545688629185
 30
0.0
  0
SPLINE
  5
1A8
330
70
100
AcDbEntity
  8
cutback1 v2_Sketch2
100
AcDbSpline
210
0.0
220
0.0
230
1.0
 70
     8
 71
     2
 72
     6
 73
     3
 74
     0
 42
0.000000001
 43
0.0000000001
 40
0.0
 40
0.0
 40
0.0
 40
1.0
 40
1.0
 40
1.0
 10
-2.394625779210644
 20
0.4754545688629185
 30
0.0
 10
-2.381534811078625
 20
0.4754545688629185
 30
0.0
 10
-2.371716614781933
 20
0.4645454883575474
 30
0.0
  0
SPLINE
  5
1A9
330
70
100
AcDbEntity
  8
cutback1 v2_Sketch2
100
AcDbSpline
210
0.0
220
0.0
230
1.0
 70
     8
 71
     2
 72
     6
 73
     3
 74
     0
 42
0.000000001
 43
0.0000000001
 40
0.0
 40
0.0
 40
0.0
 40
1.0
 40
1.0
 40
1.0
 10
-2.4491711817375
 20
0.2147272825241122
 30
0.0
 10
-2.537534829198437
 20
0.0467272996902501
 30
0.0
 10
-2.537534829198437
 20
-0.0078182220458949
 30
0.0
  0
SPLINE
  5
1AA
330
70
100
AcDbEntity
  8
cutback1 v2_Sketch2
100
AcDbSpline
210
0.0
220
0.0
230
1.0
 70
     8
 71
     2
 72
     6
 73
     3
 74
     0
 42
0.000000001
 43
0.0000000001
 40
0.0
 40
0.0
 40
0.0
 40
1.0
 40
1.0
 40
1.0
 10
-2.510262127935009
 20
-0.0427272319793666
 30
0.0
 10
-2.463353034078198
 20
-0.0427272319793668
 30
0.0
 10
-2.377171274243909
 20
0.0794545412063632
 30
0.0
  0
SPLINE
  5
1AB
330
70
100
AcDbEntity
  8
cutback1 v2_Sketch2
100
AcDbSpline
210
0.0
220
0.0
230
1.0
 70
     8
 71
     2
 72
     6
 73
     3
 74
     0
 42
0.000000001
 43
0.0000000001
 40
0.0
 40
0.0
 40
0.0
 40
1.0
 40
1.0
 40
1.0
 10
-2.377171274243909
 20
0.0794545412063632
 30
0.0
 10
-2.33898937326582
 20
0.1340000629425082
 30
0.0
 10
-2.297534700452405
 20
0.2180000543594394
 30
0.0
  0
SPLINE
  5
1AC
330
70
100
AcDbEntity
  8
cutback1 v2_Sketch2
100
AcDbSpline
210
0.0
220
0.0
230
1.0
 70
     8
 71
     2
 72
     6
 73
     3
 74
     0
 42
0.000000001
 43
0.0000000001
 40
0.0
 40
0.0
 40
0.0
 40
1.0
 40
1.0
 40
1.0
 10
-2.297534700452405
 20
0.2180000543594394
 30
0.0
 10
-2.298625703870373
 20
0.2452727556228671
 30
0.0
 10
-2.298625703870373
 20
0.2594544887542758
 30
0.0
  0
SPLINE
  5
1AD
330
70
100
AcDbEntity
  8
cutback1 v2_Sketch2
100
AcDbSpline
210
0.0
220
0.0
230
1.0
 70
     8
 71
     2
 72
     6
 73
     3
 74
     0
 42
0.000000001
 43
0.0000000001
 40
0.0
 40
0.0
 40
0.0
 40
1.0
 40
1.0
 40
1.0
 10
-2.268080230771619
 20
0.401272773742679
 30
0.0
 10
-2.22880768400343
 20
0.4787272810936006
 30
0.0
 10
-2.162262197553235
 20
0.4787272810936006
 30
0.0
  0
SPLINE
  5
1AE
330
70
100
AcDbEntity
  8
cutback1 v2_Sketch2
100
AcDbSpline
210
0.0
220
0.0
230
1.0
 70
     8
 71
     2
 72
     6
 73
     3
 74
     0
 42
0.000000001
 43
0.0000000001
 40
0.0
 40
0.0
 40
0.0
 40
1.0
 40
1.0
 40
1.0
 10
-2.162262197553235
 20
0.4787272810936006
 30
0.0
 10
-2.124080415784436
 20
0.4787272810936005
 30
0.0
 10
-2.124080415784436
 20
0.4329091310501129
 30
0.0
  0
SPLINE
  5
1AF
330
70
100
AcDbEntity
  8
cutback1 v2_Sketch2
100
AcDbSpline
210
0.0
220
0.0
230
1.0
 70
     8
 71
     2
 72
     6
 73
     3
 74
     0
 42
0.000000001
 43
0.0000000001
 40
0.0
 40
0.0
 40
0.0
 40
1.0
 40
1.0
 40
1.0
 10
-2.456807609616833
 20
0.407818198204044
 30
0.0
 10
-2.443716641484814
 20
0.4372727274894749
 30
0.0
 10
-2.433898445188122
 20
0.4525454640388524
 30
0.0
  0
SPLINE
  5
1B0
330
70
100
AcDbEntity
  8
cutback1 v2_Sketch2
100
AcDbSpline
210
0.0
220
0.0
230
1.0
 70
     8
 71
     2
 72
     6
 73
     3
 74
     0
 42
0.000000001
 43
0.0000000001
 40
0.0
 40
0.0
 40
0.0
 40
1.0
 40
1.0
 40
1.0
 10
-1.976807590543347
 20
0.2583637237548857
 30
0.0
 10
-1.976807590543347
 20
0.2190909385681181
 30
0.0
 10
-2.031352993070203
 20
0.1700000762939482
 30
0.0
  0
SPLINE
  5
1B1
330
70
100
AcDbEntity
  8
cutback1 v2_Sketch2
100
AcDbSpline
210
0.0
220
0.0
230
1.0
 70
     8
 71
     2
 72
     6
 73
     3
 74
     0
 42
0.000000001
 43
0.0000000001
 40
0.0
 40
0.0
 40
0.0
 40
1.0
 40
1.0
 40
1.0
 10
-1.935353036939221
 20
-0.0165454149246189
 30
0.0
 10
-1.908080335675793
 20
-0.0569090843200657
 30
0.0
 10
-1.845898624478893
 20
-0.0569090843200657
 30
0.0
  0
SPLINE
  5
1B2
330
70
100
AcDbEntity
  8
cutback1 v2_Sketch2
100
AcDbSpline
210
0.0
220
0.0
230
1.0
 70
     8
 71
     2
 72
     6
 73
     3
 74
     0
 42
0.000000001
 43
0.0000000001
 40
0.0
 40
0.0
 40
0.0
 40
1.0
 40
1.0
 40
1.0
 10
-1.845898624478893
 20
-0.0569090843200657
 30
0.0
 10
-1.709534879743176
 20
-0.0569090843200659
 30
0.0
 10
-1.530625816403943
 20
0.1525454521179221
 30
0.0
  0
SPLINE
  5
1B3
330
70
100
AcDbEntity
  8
cutback1 v2_Sketch2
100
AcDbSpline
210
0.0
220
0.0
230
1.0
 70
     8
 71
     2
 72
     6
 73
     3
 74
     0
 42
0.000000001
 43
0.0000000001
 40
0.0
 40
0.0
 40
0.0
 40
1.0
 40
1.0
 40
1.0
 10
-2.175353046475964
 20
0.1143636703491242
 30
0.0
 10
-2.206989284574108
 20
0.1143636703491242
 30
0.0
 10
-2.248443838178234
 20
0.1329090595245392
 30
0.0
  0
SPLINE
  5
1B4
330
70
100
AcDbEntity
  8
cutback1 v2_Sketch2
100
AcDbSpline
210
0.0
220
0.0
230
1.0
 70
     8
 71
     2
 72
     6
 73
     3
 74
     0
 42
0.000000001
 43
0.0000000001
 40
0.0
 40
0.0
 40
0.0
 40
1.0
 40
1.0
 40
1.0
 10
-1.530625816403943
 20
0.1525454521179221
 30
0.0
 10
-1.498989578305798
 20
0.1885454654693626
 30
0.0
 10
-1.477171178876477
 20
0.1885454654693626
 30
0.0
  0
SPLINE
  5
1B5
330
70
100
AcDbEntity
  8
cutback1 v2_Sketch2
100
AcDbSpline
210
0.0
220
0.0
230
1.0
 70
     8
 71
     2
 72
     6
 73
     3
 74
     0
 42
0.000000001
 43
0.0000000001
 40
0.0
 40
0.0
 40
0.0
 40
1.0
 40
1.0
 40
1.0
 10
-2.07171654325636
 20
0.2594544887542753
 30
0.0
 10
-2.025898452817517
 20
0.2965455055236845
 30
0.0
 10
-2.011716600476819
 20
0.2965455055236845
 30
0.0
  0
SPLINE
  5
1B6
330
70
100
AcDbEntity
  8
cutback1 v2_Sketch2
100
AcDbSpline
210
0.0
220
0.0
230
1.0
 70
     8
 71
     2
 72
     6
 73
     3
 74
     0
 42
0.000000001
 43
0.0000000001
 40
0.0
 40
0.0
 40
0.0
 40
1.0
 40
1.0
 40
1.0
 10
-1.94735312086256
 20
0.0249090194702177
 30
0.0
 10
-1.94735312086256
 20
0.0009090900421171
 30
0.0
 10
-1.935353036939221
 20
-0.0165454149246189
 30
0.0
  0
SPLINE
  5
1B7
330
70
100
AcDbEntity
  8
cutback1 v2_Sketch2
100
AcDbSpline
210
0.0
220
0.0
230
1.0
 70
     8
 71
     2
 72
     6
 73
     3
 74
     0
 42
0.000000001
 43
0.0000000001
 40
0.0
 40
0.0
 40
0.0
 40
1.0
 40
1.0
 40
1.0
 10
-1.477171178876477
 20
0.1885454654693626
 30
0.0
 10
-1.465171333371716
 20
0.1885454654693626
 30
0.0
 10
-1.455353017865735
 20
0.1765455007553123
 30
0.0
  0
SPLINE
  5
1B8
330
70
100
AcDbEntity
  8
cutback1 v2_Sketch2
100
AcDbSpline
210
0.0
220
0.0
230
1.0
 70
     8
 71
     2
 72
     6
 73
     3
 74
     0
 42
0.000000001
 43
0.0000000001
 40
0.0
 40
0.0
 40
0.0
 40
1.0
 40
1.0
 40
1.0
 10
-1.455353017865735
 20
0.1765455007553123
 30
0.0
 10
-1.44880771261366
 20
0.1678181886672996
 30
0.0
 10
-1.44880771261366
 20
0.1601817607879661
 30
0.0
  0
SPLINE
  5
1B9
330
70
100
AcDbEntity
  8
cutback1 v2_Sketch2
100
AcDbSpline
210
0.0
220
0.0
230
1.0
 70
     8
 71
     2
 72
     6
 73
     3
 74
     0
 42
0.000000001
 43
0.0000000001
 40
0.0
 40
0.0
 40
0.0
 40
1.0
 40
1.0
 40
1.0
 10
-1.986625667630749
 20
0.2823636531829863
 30
0.0
 10
-1.976807590543347
 20
0.2703635692596464
 30
0.0
 10
-1.976807590543347
 20
0.2583637237548857
 30
0.0
  0
SPLINE
  5
1BA
330
70
100
AcDbEntity
  8
cutback1 v2_Sketch2
100
AcDbSpline
210
0.0
220
0.0
230
1.0
 70
     8
 71
     2
 72
     6
 73
     3
 74
     0
 42
0.000000001
 43
0.0000000001
 40
0.0
 40
0.0
 40
0.0
 40
1.0
 40
1.0
 40
1.0
 10
-1.44880771261366
 20
0.1601817607879661
 30
0.0
 10
-1.448807712613659
 20
0.1176364421844505
 30
0.0
 10
-1.553534980832653
 20
0.0161818265914939
 30
0.0
  0
SPLINE
  5
1BB
330
70
100
AcDbEntity
  8
cutback1 v2_Sketch2
100
AcDbSpline
210
0.0
220
0.0
230
1.0
 70
     8
 71
     2
 72
     6
 73
     3
 74
     0
 42
0.000000001
 43
0.0000000001
 40
0.0
 40
0.0
 40
0.0
 40
1.0
 40
1.0
 40
1.0
 10
-1.553534980832653
 20
0.0161818265914939
 30
0.0
 10
-1.635353084622936
 20
-0.0634545087814307
 30
0.0
 10
-1.72808050733717
 20
-0.1136363744735693
 30
0.0
  0
SPLINE
  5
1BC
330
70
100
AcDbEntity
  8
cutback1 v2_Sketch2
100
AcDbSpline
210
0.0
220
0.0
230
1.0
 70
     8
 71
     2
 72
     6
 73
     3
 74
     0
 42
0.000000001
 43
0.0000000001
 40
0.0
 40
0.0
 40
0.0
 40
1.0
 40
1.0
 40
1.0
 10
-1.72808050733717
 20
-0.1136363744735693
 30
0.0
 10
-1.820807691632824
 20
-0.1638181209564182
 30
0.0
 10
-1.900444027005749
 20
-0.1638181209564182
 30
0.0
  0
SPLINE
  5
1BD
330
70
100
AcDbEntity
  8
cutback1 v2_Sketch2
100
AcDbSpline
210
0.0
220
0.0
230
1.0
 70
     8
 71
     2
 72
     6
 73
     3
 74
     0
 42
0.000000001
 43
0.0000000001
 40
0.0
 40
0.0
 40
0.0
 40
1.0
 40
1.0
 40
1.0
 10
-2.031352993070203
 20
0.1700000762939482
 30
0.0
 10
-2.09462570768507
 20
0.114363670349124
 30
0.0
 10
-2.175353046475964
 20
0.1143636703491242
 30
0.0
  0
LINE
  5
1BE
330
70
100
AcDbEntity
  8
cutback1 v2_Sketch2
100
AcDbLine
 10
-1.94735312086256
 20
0.0445454120636015
 30
0.0
 11
-1.94735312086256
 21
0.0249090194702177
 31
0.0
  0
SPLINE
  5
1BF
330
70
100
AcDbEntity
  8
cutback1 v2_Sketch2
100
AcDbSpline
210
0.0
220
0.0
230
1.0
 70
     8
 71
     2
 72
     6
 73
     3
 74
     0
 42
0.000000001
 43
0.0000000001
 40
0.0
 40
0.0
 40
0.0
 40
1.0
 40
1.0
 40
1.0
 10
-2.011716600476819
 20
0.2965455055236845
 30
0.0
 10
-1.999716516553479
 20
0.2965455055236845
 30
0.0
 10
-1.986625667630749
 20
0.2823636531829863
 30
0.0
  0
SPLINE
  5
1C0
330
70
100
AcDbEntity
  8
cutback1 v2_Sketch2
100
AcDbSpline
210
0.0
220
0.0
230
1.0
 70
     8
 71
     2
 72
     6
 73
     3
 74
     0
 42
0.000000001
 43
0.0000000001
 40
0.0
 40
0.0
 40
0.0
 40
1.0
 40
1.0
 40
1.0
 10
-1.900444027005749
 20
-0.1638181209564182
 30
0.0
 10
-1.982262130796032
 20
-0.163818120956418
 30
0.0
 10
-2.029171224652844
 20
-0.1070909500122041
 30
0.0
  0
SPLINE
  5
1C1
330
70
100
AcDbEntity
  8
cutback1 v2_Sketch2
100
AcDbSpline
210
0.0
220
0.0
230
1.0
 70
     8
 71
     2
 72
     6
 73
     3
 74
     0
 42
0.000000001
 43
0.0000000001
 40
0.0
 40
0.0
 40
0.0
 40
1.0
 40
1.0
 40
1.0
 10
-2.029171224652844
 20
-0.1070909500122041
 30
0.0
 10
-2.060807701169567
 20
-0.0678181648254366
 30
0.0
 10
-2.060807701169567
 20
-0.0001817941665621
 30
0.0
  0
ENDSEC
  0
SECTION
  2
OBJECTS
  0
DICTIONARY
  5
C
330
0
100
AcDbDictionary
281
     1
  3
ACAD_COLOR
350
63
  3
ACAD_DETAILVIEWSTYLE
350
6A
  3
ACAD_GROUP
350
D
  3
ACAD_LAYOUT
350
62
  3
ACAD_MATERIAL
350
10
  3
ACAD_MLEADERSTYLE
350
66
  3
ACAD_MLINESTYLE
350
5F
  3
ACAD_PLOTSETTINGS
350
61
  3
ACAD_PLOTSTYLENAME
350
E
  3
ACAD_SCALELIST
350
42
  3
ACAD_SECTIONVIEWSTYLE
350
68
  3
ACAD_TABLESTYLE
350
64
  3
ACAD_VISUALSTYLE
350
29
  3
ACDB_RECOMPOSE_DATA
350
1CA
  3
AcDbVariableDictionary
350
1C2
  0
DICTIONARY
  5
63
102
{ACAD_REACTORS
330
C
102
}
330
C
100
AcDbDictionary
281
     1
  0
DICTIONARY
  5
6A
102
{ACAD_REACTORS
330
C
102
}
330
C
100
AcDbDictionary
281
     1
  3
Imperial24
350
6B
  0
DICTIONARY
  5
D
102
{ACAD_REACTORS
330
C
102
}
330
C
100
AcDbDictionary
281
     1
  0
DICTIONARY
  5
62
102
{ACAD_REACTORS
330
C
102
}
330
C
100
AcDbDictionary
281
     1
  3
Layout1
350
6F
  3
Layout2
350
77
  3
Model
350
73
  0
DICTIONARY
  5
10
102
{ACAD_REACTORS
330
C
102
}
330
C
100
AcDbDictionary
281
     1
  3
ByBlock
350
19
  3
ByLayer
350
11
  3
Global
350
21
  0
DICTIONARY
  5
66
102
{ACAD_REACTORS
330
C
102
}
330
C
100
AcDbDictionary
281
     1
  3
Standard
350
67
  0
DICTIONARY
  5
5F
102
{ACAD_REACTORS
330
C
102
}
330
C
100
AcDbDictionary
281
     1
  3
Standard
350
60
  0
DICTIONARY
  5
61
102
{ACAD_REACTORS
330
C
102
}
330
C
100
AcDbDictionary
281
     1
  0
ACDBDICTIONARYWDFLT
  5
E
102
{ACAD_REACTORS
330
C
102
}
330
C
100
AcDbDictionary
281
     1
  3
Normal
350
F
100
AcDbDictionaryWithDefault
340
F
  0
DICTIONARY
  5
42
102
{ACAD_REACTORS
330
C
102
}
330
C
100
AcDbDictionary
281
     1
  3
A0
350
43
  3
A1
350
44
  3
A2
350
45
  3
A3
350
46
  3
A4
350
47
  3
A5
350
48
  3
A6
350
49
  3
A7
350
4A
  3
A8
350
4B
  3
A9
350
4C
  3
B0
350
4D
  3
B1
350
4E
  3
B2
350
4F
  3
B3
350
50
  3
B4
350
51
  3
B5
350
52
  3
B6
350
53
  0
DICTIONARY
  5
68
102
{ACAD_REACTORS
330
C
102
}
330
C
100
AcDbDictionary
281
     1
  3
Imperial24
350
69
  0
DICTIONARY
  5
64
102
{ACAD_REACTORS
330
C
102
}
330
C
100
AcDbDictionary
281
     1
  3
Standard
350
65
  0
DICTIONARY
  5
29
102
{ACAD_REACTORS
330
C
102
}
330
C
100
AcDbDictionary
281
     1
  3
2dWireframe
350
2F
  3
Basic
350
2E
  3
Brighten
350
35
  3
ColorChange
350
39
  3
Conceptual
350
32
  3
Dim
350
34
  3
EdgeColorOff
350
41
  3
Facepattern
350
38
  3
Flat
350
2A
  3
FlatWithEdges
350
2B
  3
Gouraud
350
2C
  3
GouraudWithEdges
350
2D
  3
Hidden
350
31
  3
JitterOff
350
3F
  3
Linepattern
350
37
  3
OverhangOff
350
40
  3
Realistic
350
33
  3
Shaded
350
3E
  3
Shaded with edges
350
3D
  3
Shades of Gray
350
3A
  3
Sketchy
350
3B
  3
Thicken
350
36
  3
Wireframe
350
30
  3
X-Ray
350
3C
  0
XRECORD
  5
1CA
102
{ACAD_REACTORS
330
C
102
}
330
C
100
AcDbXrecord
280
     1
 90
        1
330
65
  0
DICTIONARY
  5
1C2
102
{ACAD_REACTORS
330
C
102
}
330
C
100
AcDbDictionary
281
     1
  3
CANNOSCALE
350
1C7
  3
CMLEADERSTYLE
350
1C4
  3
CTABLESTYLE
350
1C3
  3
CVIEWDETAILSTYLE
350
1C5
  3
CVIEWSECTIONSTYLE
350
1C6
  0
ACDBDETAILVIEWSTYLE
  5
6B
102
{ACAD_XDICTIONARY
360
1CD
102
}
102
{ACAD_REACTORS
330
6A
102
}
330
6A
100
AcDbModelDocViewStyle
 70
     0
  3
Imperial24
290
     0
100
AcDbDetailViewStyle
 70
     0
 71
     0
 90
        3
 71
     1
340
55
 62
   256
 40
0.24
340
0
 62
   256
 40
0.24
300

 40
0.36
280
     3
 71
     2
340
5D
 90
       25
 62
   256
 71
     3
340
55
 62
   256
 40
0.24
 90
        1
 40
0.75
 90
        1
300
%<\AcVar ViewType \f "%tc1">% %<\AcVar ViewDetailId>%\PSCALE %<\AcVar ViewScale \f "%sn">%
 71
     4
340
5D
 90
       25
 62
   256
340
5D
 90
       25
 62
   256
280
     0
  0
LAYOUT
  5
6F
102
{ACAD_REACTORS
330
62
102
}
330
62
100
AcDbPlotSettings
  1

  2

  4

  6

 40
0.0
 41
0.0
 42
0.0
 43
0.0
 44
0.0
 45
0.0
 46
0.0
 47
0.0
 48
0.0
 49
0.0
140
0.0
141
0.0
142
1.0
143
1.0
 70
   688
 72
     0
 73
     0
 74
     5
  7

 75
    16
147
1.0
 76
     0
 77
     2
 78
   300
148
0.0
149
0.0
100
AcDbLayout
  1
Layout1
 70
     1
 71
     1
 10
0.0
 20
0.0
 11
12.0
 21
9.0
 12
0.0
 22
0.0
 32
0.0
 14
0.0
 24
0.0
 34
0.0
 15
0.0
 25
0.0
 35
0.0
146
0.0
 13
0.0
 23
0.0
 33
0.0
 16
1.0
 26
0.0
 36
0.0
 17
0.0
 27
1.0
 37
0.0
 76
     0
330
6C
  0
LAYOUT
  5
77
102
{ACAD_REACTORS
330
62
102
}
330
62
100
AcDbPlotSettings
  1

  2

  4

  6

 40
0.0
 41
0.0
 42
0.0
 43
0.0
 44
0.0
 45
0.0
 46
0.0
 47
0.0
 48
0.0
 49
0.0
140
0.0
141
0.0
142
1.0
143
1.0
 70
   688
 72
     0
 73
     0
 74
     5
  7

 75
    16
147
1.0
 76
     0
 77
     2
 78
   300
148
0.0
149
0.0
100
AcDbLayout
  1
Layout2
 70
     1
 71
     2
 10
0.0
 20
0.0
 11
12.0
 21
9.0
 12
0.0
 22
0.0
 32
0.0
 14
0.0
 24
0.0
 34
0.0
 15
0.0
 25
0.0
 35
0.0
146
0.0
 13
0.0
 23
0.0
 33
0.0
 16
1.0
 26
0.0
 36
0.0
 17
0.0
 27
1.0
 37
0.0
 76
     0
330
74
  0
LAYOUT
  5
73
102
{ACAD_REACTORS
330
62
102
}
330
62
100
AcDbPlotSettings
  1

  2

  4

  6

 40
0.0
 41
0.0
 42
0.0
 43
0.0
 44
0.0
 45
0.0
 46
0.0
 47
0.0
 48
0.0
 49
0.0
140
0.0
141
0.0
142
1.0
143
1.0
 70
  1712
 72
     0
 73
     0
 74
     0
  7

 75
     0
147
1.0
 76
     0
 77
     2
 78
   300
148
0.0
149
0.0
100
AcDbLayout
  1
Model
 70
     1
 71
     0
 10
0.0
 20
0.0
 11
12.0
 21
9.0
 12
0.0
 22
0.0
 32
0.0
 14
0.0
 24
0.0
 34
0.0
 15
0.0
 25
0.0
 35
0.0
146
0.0
 13
0.0
 23
0.0
 33
0.0
 16
1.0
 26
0.0
 36
0.0
 17
0.0
 27
1.0
 37
0.0
 76
     0
330
70
  0
MATERIAL
  5
19
102
{ACAD_XDICTIONARY
360
1A
102
}
102
{ACAD_REACTORS
330
10
102
}
330
10
100
AcDbMaterial
  1
ByBlock
 72
     0
 43
0.0208333333333333
 43
0.0
 43
0.0
 43
0.0
 43
0.0
 43
0.0208333333333333
 43
0.0
 43
0.0
 43
0.0
 43
0.0
 43
1.0
 43
0.0
 43
0.0
 43
0.0
 43
0.0
 43
1.0
 77
     0
 47
0.0208333333333333
 47
0.0
 47
0.0
 47
0.0
 47
0.0
 47
0.0208333333333333
 47
0.0
 47
0.0
 47
0.0
 47
0.0
 47
1.0
 47
0.0
 47
0.0
 47
0.0
 47
0.0
 47
1.0
171
     0
 49
0.0208333333333333
 49
0.0
 49
0.0
 49
0.0
 49
0.0
 49
0.0208333333333333
 49
0.0
 49
0.0
 49
0.0
 49
0.0
 49
1.0
 49
0.0
 49
0.0
 49
0.0
 49
0.0
 49
1.0
175
     0
142
0.0208333333333333
142
0.0
142
0.0
142
0.0
142
0.0
142
0.0208333333333333
142
0.0
142
0.0
142
0.0
142
0.0
142
1.0
142
0.0
142
0.0
142
0.0
142
0.0
142
1.0
179
     0
144
0.0208333333333333
144
0.0
144
0.0
144
0.0
144
0.0
144
0.0208333333333333
144
0.0
144
0.0
144
0.0
144
0.0
144
1.0
144
0.0
144
0.0
144
0.0
144
0.0
144
1.0
147
0.0208333333333333
147
0.0
147
0.0
147
0.0
147
0.0
147
0.0208333333333333
147
0.0
147
0.0
147
0.0
147
0.0
147
1.0
147
0.0
147
0.0
147
0.0
147
0.0
147
1.0
  0
MATERIAL
  5
11
102
{ACAD_XDICTIONARY
360
12
102
}
102
{ACAD_REACTORS
330
10
102
}
330
10
100
AcDbMaterial
  1
ByLayer
 72
     0
 43
0.0208333333333333
 43
0.0
 43
0.0
 43
0.0
 43
0.0
 43
0.0208333333333333
 43
0.0
 43
0.0
 43
0.0
 43
0.0
 43
1.0
 43
0.0
 43
0.0
 43
0.0
 43
0.0
 43
1.0
 77
     0
 47
0.0208333333333333
 47
0.0
 47
0.0
 47
0.0
 47
0.0
 47
0.0208333333333333
 47
0.0
 47
0.0
 47
0.0
 47
0.0
 47
1.0
 47
0.0
 47
0.0
 47
0.0
 47
0.0
 47
1.0
171
     0
 49
0.0208333333333333
 49
0.0
 49
0.0
 49
0.0
 49
0.0
 49
0.0208333333333333
 49
0.0
 49
0.0
 49
0.0
 49
0.0
 49
1.0
 49
0.0
 49
0.0
 49
0.0
 49
0.0
 49
1.0
175
     0
142
0.0208333333333333
142
0.0
142
0.0
142
0.0
142
0.0
142
0.0208333333333333
142
0.0
142
0.0
142
0.0
142
0.0
142
1.0
142
0.0
142
0.0
142
0.0
142
0.0
142
1.0
179
     0
144
0.0208333333333333
144
0.0
144
0.0
144
0.0
144
0.0
144
0.0208333333333333
144
0.0
144
0.0
144
0.0
144
0.0
144
1.0
144
0.0
144
0.0
144
0.0
144
0.0
144
1.0
147
0.0208333333333333
147
0.0
147
0.0
147
0.0
147
0.0
147
0.0208333333333333
147
0.0
147
0.0
147
0.0
147
0.0
147
1.0
147
0.0
147
0.0
147
0.0
147
0.0
147
1.0
  0
MATERIAL
  5
21
102
{ACAD_XDICTIONARY
360
22
102
}
102
{ACAD_REACTORS
330
10
102
}
330
10
100
AcDbMaterial
  1
Global
 72
     0
 43
0.0208333333333333
 43
0.0
 43
0.0
 43
0.0
 43
0.0
 43
0.0208333333333333
 43
0.0
 43
0.0
 43
0.0
 43
0.0
 43
1.0
 43
0.0
 43
0.0
 43
0.0
 43
0.0
 43
1.0
 77
     0
 47
0.0208333333333333
 47
0.0
 47
0.0
 47
0.0
 47
0.0
 47
0.0208333333333333
 47
0.0
 47
0.0
 47
0.0
 47
0.0
 47
1.0
 47
0.0
 47
0.0
 47
0.0
 47
0.0
 47
1.0
171
     0
 49
0.0208333333333333
 49
0.0
 49
0.0
 49
0.0
 49
0.0
 49
0.0208333333333333
 49
0.0
 49
0.0
 49
0.0
 49
0.0
 49
1.0
 49
0.0
 49
0.0
 49
0.0
 49
0.0
 49
1.0
175
     0
142
0.0208333333333333
142
0.0
142
0.0
142
0.0
142
0.0
142
0.0208333333333333
142
0.0
142
0.0
142
0.0
142
0.0
142
1.0
142
0.0
142
0.0
142
0.0
142
0.0
142
1.0
179
     0
144
0.0208333333333333
144
0.0
144
0.0
144
0.0
144
0.0
144
0.0208333333333333
144
0.0
144
0.0
144
0.0
144
0.0
144
1.0
144
0.0
144
0.0
144
0.0
144
0.0
144
1.0
147
0.0208333333333333
147
0.0
147
0.0
147
0.0
147
0.0
147
0.0208333333333333
147
0.0
147
0.0
147
0.0
147
0.0
147
1.0
147
0.0
147
0.0
147
0.0
147
0.0
147
1.0
  0
MLEADERSTYLE
  5
67
102
{ACAD_REACTORS
330
66
102
}
330
66
100
AcDbMLeaderStyle
179
     2
170
     2
171
     1
172
     0
 90
        2
 40
0.0
 41
0.0
173
     1
 91
-1056964608
340
5B
 92
       -2
290
     1
 42
0.09
291
     1
 43
0.36
  3
Standard
 44
0.18
300

342
55
174
     1
178
     6
175
     1
176
     0
 93
-1056964608
 45
0.18
292
     0
297
     0
 46
0.18
 94
-1056964608
 47
1.0
 49
1.0
140
1.0
293
     1
141
0.0
294
     1
177
     0
142
1.0
295
     0
296
     0
143
0.125
271
     0
272
     9
273
     9
298
     1
  0
MLINESTYLE
  5
60
102
{ACAD_REACTORS
330
5F
102
}
330
5F
100
AcDbMlineStyle
  2
STANDARD
 70
     0
  3

 62
   256
 51
90.0
 52
90.0
 71
     2
 49
0.5
 62
   256
  6
BYLAYER
 49
-0.5
 62
   256
  6
BYLAYER
  0
ACDBPLACEHOLDER
  5
F
102
{ACAD_REACTORS
330
E
102
}
330
E
  0
SCALE
  5
43
102
{ACAD_REACTORS
330
42
102
}
330
42
100
AcDbScale
 70
     0
300
1:1
140
1.0
141
1.0
290
     1
  0
SCALE
  5
44
102
{ACAD_REACTORS
330
42
102
}
330
42
100
AcDbScale
 70
     0
300
1/128" = 1'-0"
140
0.0078125
141
12.0
290
     0
  0
SCALE
  5
45
102
{ACAD_REACTORS
330
42
102
}
330
42
100
AcDbScale
 70
     0
300
1/64" = 1'-0"
140
0.015625
141
12.0
290
     0
  0
SCALE
  5
46
102
{ACAD_REACTORS
330
42
102
}
330
42
100
AcDbScale
 70
     0
300
1/32" = 1'-0"
140
0.03125
141
12.0
290
     0
  0
SCALE
  5
47
102
{ACAD_REACTORS
330
42
102
}
330
42
100
AcDbScale
 70
     0
300
1/16" = 1'-0"
140
0.0625
141
12.0
290
     0
  0
SCALE
  5
48
102
{ACAD_REACTORS
330
42
102
}
330
42
100
AcDbScale
 70
     0
300
3/32" = 1'-0"
140
0.09375
141
12.0
290
     0
  0
SCALE
  5
49
102
{ACAD_REACTORS
330
42
102
}
330
42
100
AcDbScale
 70
     0
300
1/8" = 1'-0"
140
0.125
141
12.0
290
     0
  0
SCALE
  5
4A
102
{ACAD_REACTORS
330
42
102
}
330
42
100
AcDbScale
 70
     0
300
3/16" = 1'-0"
140
0.1875
141
12.0
290
     0
  0
SCALE
  5
4B
102
{ACAD_REACTORS
330
42
102
}
330
42
100
AcDbScale
 70
     0
300
1/4" = 1'-0"
140
0.25
141
12.0
290
     0
  0
SCALE
  5
4C
102
{ACAD_REACTORS
330
42
102
}
330
42
100
AcDbScale
 70
     0
300
3/8" = 1'-0"
140
0.375
141
12.0
290
     0
  0
SCALE
  5
4D
102
{ACAD_REACTORS
330
42
102
}
330
42
100
AcDbScale
 70
     0
300
1/2" = 1'-0"
140
0.5
141
12.0
290
     0
  0
SCALE
  5
4E
102
{ACAD_REACTORS
330
42
102
}
330
42
100
AcDbScale
 70
     0
300
3/4" = 1'-0"
140
0.75
141
12.0
290
     0
  0
SCALE
  5
4F
102
{ACAD_REACTORS
330
42
102
}
330
42
100
AcDbScale
 70
     0
300
1" = 1'-0"
140
1.0
141
12.0
290
     0
  0
SCALE
  5
50
102
{ACAD_REACTORS
330
42
102
}
330
42
100
AcDbScale
 70
     0
300
1-1/2" = 1'-0"
140
1.5
141
12.0
290
     0
  0
SCALE
  5
51
102
{ACAD_REACTORS
330
42
102
}
330
42
100
AcDbScale
 70
     0
300
3" = 1'-0"
140
3.0
141
12.0
290
     0
  0
SCALE
  5
52
102
{ACAD_REACTORS
330
42
102
}
330
42
100
AcDbScale
 70
     0
300
6" = 1'-0"
140
6.0
141
12.0
290
     0
  0
SCALE
  5
53
102
{ACAD_REACTORS
330
42
102
}
330
42
100
AcDbScale
 70
     0
300
1'-0" = 1'-0"
140
12.0
141
12.0
290
     0
  0
ACDBSECTIONVIEWSTYLE
  5
69
102
{ACAD_XDICTIONARY
360
1CB
102
}
102
{ACAD_REACTORS
330
68
102
}
330
68
100
AcDbModelDocViewStyle
 70
     0
  3
Imperial24
290
     0
100
AcDbSectionViewStyle
 70
     0
 71
     0
 90
       78
 71
     1
340
55
 62
   256
 40
0.24
340
0
340
0
 62
   256
 40
0.24
300
I, O, Q, S, X, Z
 40
0.48
 90
        3
 40
0.18
 90
        1
 71
     2
340
5D
 90
       25
 62
   256
340
5D
 90
       50
 62
   256
 40
0.24
 40
0.0
 40
0.24
 71
     3
340
55
 62
   256
 40
0.24
 90
        1
 40
0.75
 90
        1
300
%<\AcVar ViewType \f "%tc1">% %<\AcVar ViewSectionStartId>%-%<\AcVar ViewSectionEndId>%\PSCALE %<\AcVar ViewScale \f "%sn">%
 71
     4
 62
   256
 62
   257
300
ANSI31
 40
1.0
 90
        0
290
     0
290
     0
 90
        6
 40
0.0
 40
1.570796326794896
 40
0.2617993877991494
 40
1.308996938995747
 40
-0.2617993877991494
 40
1.832595714594046
  0
TABLESTYLE
  5
65
102
{ACAD_XDICTIONARY
360
1C8
102
}
102
{ACAD_REACTORS
330
64
102
}
330
64
100
AcDbTableStyle
280
     0
  3
Standard
 70
     0
 71
     0
 40
0.06
 41
0.06
280
     0
281
     0
  7
Standard
140
0.18
170
     2
 62
     0
 63
     7
283
     0
 90
      512
 91
        0
  1

274
    -2
284
     1
 64
     0
275
    -2
285
     1
 65
     0
276
    -2
286
     1
 66
     0
277
    -2
287
     1
 67
     0
278
    -2
288
     1
 68
     0
279
    -2
289
     1
 69
     0
  7
Standard
140
0.25
170
     5
 62
     0
 63
     7
283
     0
 90
      512
 91
        0
  1

274
    -2
284
     1
 64
     0
275
    -2
285
     1
 65
     0
276
    -2
286
     1
 66
     0
277
    -2
287
     1
 67
     0
278
    -2
288
     1
 68
     0
279
    -2
289
     1
 69
     0
  7
Standard
140
0.18
170
     5
 62
     0
 63
     7
283
     0
 90
      512
 91
        0
  1

274
    -2
284
     1
 64
     0
275
    -2
285
     1
 65
     0
276
    -2
286
     1
 66
     0
277
    -2
287
     1
 67
     0
278
    -2
288
     1
 68
     0
279
    -2
289
     1
 69
     0
  0
VISUALSTYLE
  5
2F
102
{ACAD_REACTORS
330
29
102
}
330
29
100
AcDbVisualStyle
  2
2dWireframe
 70
     4
177
     3
291
     0
 70
    58
 90
        0
176
     1
 90
        2
176
     1
 90
        0
176
     1
 90
        0
176
     1
 40
0.6
176
     1
 40
30.0
176
     1
 62
     7
420
 16777215
176
     1
 90
        1
176
     1
 90
        4
176
     1
 62
     7
176
     1
 62
   257
176
     1
 90
        1
176
     1
 90
        1
176
     1
 40
1.0
176
     1
 90
        0
176
     1
 62
   257
176
     1
 40
1.0
176
     1
 90
        1
176
     1
 90
        6
176
     1
 90
        2
176
     1
 62
     7
176
     1
 90
        5
176
     1
 90
        0
176
     1
 90
        0
176
     1
290
     0
176
     1
 90
        1
176
     1
 40
0.0
176
     1
 90
        0
176
     1
290
     1
176
     1
290
     1
176
     1
290
     0
176
     1
290
     0
176
     1
290
     0
176
     1
290
     0
176
     1
290
     0
176
     1
290
     0
176
     1
290
     0
176
     1
 90
       50
176
     1
 40
0.0
176
     1
 40
1.0
176
     1
 90
        0
176
     1
 62
    18
420
        0
176
     1
 90
       50
176
     1
 90
        3
176
     1
 62
     5
420
      255
176
     1
290
     0
176
     1
 90
       50
176
     1
 90
       50
176
     1
 90
       50
176
     1
290
     0
176
     1
 90
       50
176
     1
 62
   256
176
     0
 40
1.0
176
     0
 90
        2
176
     1
  1
strokes_ogs.tif
176
     1
290
     0
176
     1
 40
1.0
176
     1
 40
1.0
176
     1
1001
ACAD
1000
AcDbSavedByObjectVersion
1070
     0
  0
VISUALSTYLE
  5
2E
102
{ACAD_REACTORS
330
29
102
}
330
29
100
AcDbVisualStyle
  2
Basic
 70
     7
177
     3
291
     1
 70
    58
 90
        1
176
     1
 90
        0
176
     1
 90
        1
176
     1
 90
        0
176
     1
 40
0.6
176
     1
 40
30.0
176
     1
 62
     7
420
 16777215
176
     1
 90
        0
176
     1
 90
        4
176
     1
 62
     7
176
     1
 62
   257
176
     1
 90
        1
176
     1
 90
        1
176
     1
 40
1.0
176
     1
 90
        8
176
     1
 62
     7
176
     1
 40
1.0
176
     1
 90
        1
176
     1
 90
        6
176
     1
 90
        2
176
     1
 62
     7
176
     1
 90
        5
176
     1
 90
        0
176
     1
 90
        0
176
     1
290
     0
176
     1
 90
        1
176
     1
 40
0.0
176
     1
 90
        0
176
     1
290
     0
176
     1
290
     1
176
     1
290
     1
176
     1
290
     0
176
     1
290
     0
176
     1
290
     0
176
     1
290
     0
176
     1
290
     0
176
     1
290
     0
176
     1
 90
       50
176
     1
 40
0.0
176
     1
 40
1.0
176
     1
 90
        0
176
     1
 62
    18
420
        0
176
     1
 90
       50
176
     1
 90
        3
176
     1
 62
     5
420
      255
176
     1
290
     0
176
     1
 90
       50
176
     1
 90
       50
176
     1
 90
       50
176
     1
290
     0
176
     1
 90
       50
176
     1
 62
   256
176
     0
 40
1.0
176
     0
 90
        2
176
     1
  1
strokes_ogs.tif
176
     1
290
     0
176
     1
 40
1.0
176
     1
 40
1.0
176
     1
1001
ACAD
1000
AcDbSavedByObjectVersion
1070
     0
  0
VISUALSTYLE
  5
35
102
{ACAD_REACTORS
330
29
102
}
330
29
100
AcDbVisualStyle
  2
Brighten
 70
    12
177
     3
291
     1
 70
    58
 90
        2
176
     1
 90
        2
176
     1
 90
        0
176
     1
 90
        0
176
     1
 40
0.6
176
     1
 40
30.0
176
     1
 62
     7
420
 16777215
176
     1
 90
        1
176
     1
 90
        4
176
     1
 62
     7
176
     1
 62
   257
176
     1
 90
        1
176
     1
 90
        1
176
     1
 40
1.0
176
     1
 90
        8
176
     1
 62
     7
176
     1
 40
1.0
176
     1
 90
        1
176
     1
 90
        6
176
     1
 90
        2
176
     1
 62
     7
176
     1
 90
        5
176
     1
 90
        0
176
     1
 90
        0
176
     1
290
     0
176
     1
 90
        1
176
     1
 40
50.0
176
     1
 90
        0
176
     1
290
     0
176
     1
290
     1
176
     1
290
     1
176
     1
290
     0
176
     1
290
     0
176
     1
290
     0
176
     1
290
     0
176
     1
290
     0
176
     1
290
     0
176
     1
 90
       50
176
     1
 40
0.0
176
     1
 40
1.0
176
     1
 90
        0
176
     1
 62
    18
420
        0
176
     1
 90
       50
176
     1
 90
        3
176
     1
 62
     5
420
      255
176
     1
290
     0
176
     1
 90
       50
176
     1
 90
       50
176
     1
 90
       50
176
     1
290
     0
176
     1
 90
       50
176
     1
 62
   256
176
     0
 40
1.0
176
     0
 90
        2
176
     1
  1
strokes_ogs.tif
176
     1
290
     0
176
     1
 40
1.0
176
     1
 40
1.0
176
     1
1001
ACAD
1000
AcDbSavedByObjectVersion
1070
     0
  0
VISUALSTYLE
  5
39
102
{ACAD_REACTORS
330
29
102
}
330
29
100
AcDbVisualStyle
  2
ColorChange
 70
    16
177
     3
291
     1
 70
    58
 90
        2
176
     1
 90
        2
176
     1
 90
        3
176
     1
 90
        0
176
     1
 40
0.6
176
     1
 40
30.0
176
     1
 62
     8
420
  8421504
176
     1
 90
        1
176
     1
 90
        4
176
     1
 62
     7
176
     1
 62
   257
176
     1
 90
        1
176
     1
 90
        1
176
     1
 40
1.0
176
     1
 90
        8
176
     1
 62
     8
420
  8421504
176
     1
 40
1.0
176
     1
 90
        1
176
     1
 90
        6
176
     1
 90
        2
176
     1
 62
     7
176
     1
 90
        5
176
     1
 90
        0
176
     1
 90
        0
176
     1
290
     0
176
     1
 90
        1
176
     1
 40
0.0
176
     1
 90
        0
176
     1
290
     0
176
     1
290
     1
176
     1
290
     1
176
     1
290
     0
176
     1
290
     0
176
     1
290
     0
176
     1
290
     0
176
     1
290
     0
176
     1
290
     0
176
     1
 90
       50
176
     1
 40
0.0
176
     1
 40
1.0
176
     1
 90
        0
176
     1
 62
    18
420
        0
176
     1
 90
       50
176
     1
 90
        3
176
     1
 62
     5
420
      255
176
     1
290
     0
176
     1
 90
       50
176
     1
 90
       50
176
     1
 90
       50
176
     1
290
     0
176
     1
 90
       50
176
     1
 62
   256
176
     0
 40
1.0
176
     0
 90
        2
176
     1
  1
strokes_ogs.tif
176
     1
290
     0
176
     1
 40
1.0
176
     1
 40
1.0
176
     1
1001
ACAD
1000
AcDbSavedByObjectVersion
1070
     0
  0
VISUALSTYLE
  5
32
102
{ACAD_REACTORS
330
29
102
}
330
29
100
AcDbVisualStyle
  2
Conceptual
 70
     9
177
     3
291
     0
 70
    58
 90
        3
176
     1
 90
        2
176
     1
 90
        0
176
     1
 90
        0
176
     1
 40
0.6
176
     1
 40
30.0
176
     1
 62
     7
420
 16777215
176
     1
 90
        2
176
     1
 90
        2
176
     1
 62
     7
176
     1
 62
   257
176
     1
 90
        1
176
     1
 90
        1
176
     1
 40
179.0
176
     1
 90
        8
176
     1
 62
     7
176
     1
 40
1.0
176
     1
 90
        1
176
     1
 90
        6
176
     1
 90
        2
176
     1
 62
     7
176
     1
 90
        3
176
     1
 90
        0
176
     1
 90
        0
176
     1
290
     0
176
     1
 90
        1
176
     1
 40
0.0
176
     1
 90
        0
176
     1
290
     0
176
     1
290
     1
176
     1
290
     1
176
     1
290
     0
176
     1
290
     0
176
     1
290
     0
176
     1
290
     0
176
     1
290
     0
176
     1
290
     0
176
     1
 90
       50
176
     1
 40
0.0
176
     1
 40
1.0
176
     1
 90
        0
176
     1
 62
    18
420
        0
176
     1
 90
       50
176
     1
 90
        3
176
     1
 62
     5
420
      255
176
     1
290
     0
176
     1
 90
       50
176
     1
 90
       50
176
     1
 90
       50
176
     1
290
     0
176
     1
 90
       50
176
     1
 62
   256
176
     0
 40
1.0
176
     0
 90
        2
176
     1
  1
strokes_ogs.tif
176
     1
290
     0
176
     1
 40
1.0
176
     1
 40
1.0
176
     1
1001
ACAD
1000
AcDbSavedByObjectVersion
1070
     0
  0
VISUALSTYLE
  5
34
102
{ACAD_REACTORS
330
29
102
}
330
29
100
AcDbVisualStyle
  2
Dim
 70
    11
177
     3
291
     1
 70
    58
 90
        2
176
     1
 90
        2
176
     1
 90
        0
176
     1
 90
        0
176
     1
 40
0.6
176
     1
 40
30.0
176
     1
 62
     7
420
 16777215
176
     1
 90
        1
176
     1
 90
        4
176
     1
 62
     7
176
     1
 62
   257
176
     1
 90
        1
176
     1
 90
        1
176
     1
 40
1.0
176
     1
 90
        8
176
     1
 62
     7
176
     1
 40
1.0
176
     1
 90
        1
176
     1
 90
        6
176
     1
 90
        2
176
     1
 62
     7
176
     1
 90
        5
176
     1
 90
        0
176
     1
 90
        0
176
     1
290
     0
176
     1
 90
        1
176
     1
 40
-50.0
176
     1
 90
        0
176
     1
290
     0
176
     1
290
     1
176
     1
290
     1
176
     1
290
     0
176
     1
290
     0
176
     1
290
     0
176
     1
290
     0
176
     1
290
     0
176
     1
290
     0
176
     1
 90
       50
176
     1
 40
0.0
176
     1
 40
1.0
176
     1
 90
        0
176
     1
 62
    18
420
        0
176
     1
 90
       50
176
     1
 90
        3
176
     1
 62
     5
420
      255
176
     1
290
     0
176
     1
 90
       50
176
     1
 90
       50
176
     1
 90
       50
176
     1
290
     0
176
     1
 90
       50
176
     1
 62
   256
176
     0
 40
1.0
176
     0
 90
        2
176
     1
  1
strokes_ogs.tif
176
     1
290
     0
176
     1
 40
1.0
176
     1
 40
1.0
176
     1
1001
ACAD
1000
AcDbSavedByObjectVersion
1070
     0
  0
VISUALSTYLE
  5
41
102
{ACAD_REACTORS
330
29
102
}
330
29
100
AcDbVisualStyle
  2
EdgeColorOff
 70
    22
177
     3
291
     1
 70
    58
 90
        2
176
     0
 90
        2
176
     0
 90
        0
176
     0
 90
        0
176
     0
 40
0.6
176
     0
 40
30.0
176
     0
 62
     7
420
 16777215
176
     0
 90
        1
176
     0
 90
        4
176
     0
 62
     7
176
     0
 62
   257
176
     0
 90
        1
176
     0
 90
        1
176
     0
 40
1.0
176
     0
 90
        8
176
     2
 62
     7
176
     0
 40
1.0
176
     0
 90
        1
176
     0
 90
        6
176
     0
 90
        2
176
     0
 62
     7
176
     0
 90
        5
176
     0
 90
        0
176
     0
 90
        0
176
     0
290
     0
176
     0
 90
        1
176
     0
 40
0.0
176
     0
 90
        0
176
     0
290
     0
176
     0
290
     1
176
     0
290
     1
176
     0
290
     0
176
     0
290
     0
176
     0
290
     0
176
     0
290
     0
176
     0
290
     0
176
     0
290
     0
176
     0
 90
       50
176
     0
 40
0.0
176
     0
 40
1.0
176
     0
 90
        0
176
     0
 62
    18
420
        0
176
     0
 90
       50
176
     0
 90
        3
176
     0
 62
     5
420
      255
176
     0
290
     0
176
     0
 90
       50
176
     0
 90
       50
176
     0
 90
       50
176
     0
290
     0
176
     0
 90
       50
176
     0
 62
   256
176
     0
 40
1.0
176
     0
 90
        2
176
     0
  1
strokes_ogs.tif
176
     0
290
     0
176
     0
 40
1.0
176
     0
 40
1.0
176
     0
1001
ACAD
1000
AcDbSavedByObjectVersion
1070
     0
  0
VISUALSTYLE
  5
38
102
{ACAD_REACTORS
330
29
102
}
330
29
100
AcDbVisualStyle
  2
Facepattern
 70
    15
177
     3
291
     1
 70
    58
 90
        2
176
     1
 90
        2
176
     1
 90
        0
176
     1
 90
        0
176
     1
 40
0.6
176
     1
 40
30.0
176
     1
 62
     7
420
 16777215
176
     1
 90
        1
176
     1
 90
        4
176
     1
 62
     7
176
     1
 62
   257
176
     1
 90
        1
176
     1
 90
        1
176
     1
 40
1.0
176
     1
 90
        8
176
     1
 62
     7
176
     1
 40
1.0
176
     1
 90
        1
176
     1
 90
        6
176
     1
 90
        2
176
     1
 62
     7
176
     1
 90
        5
176
     1
 90
        0
176
     1
 90
        0
176
     1
290
     0
176
     1
 90
        1
176
     1
 40
0.0
176
     1
 90
        0
176
     1
290
     0
176
     1
290
     1
176
     1
290
     1
176
     1
290
     0
176
     1
290
     0
176
     1
290
     0
176
     1
290
     0
176
     1
290
     0
176
     1
290
     0
176
     1
 90
       50
176
     1
 40
0.0
176
     1
 40
1.0
176
     1
 90
        0
176
     1
 62
    18
420
        0
176
     1
 90
       50
176
     1
 90
        3
176
     1
 62
     5
420
      255
176
     1
290
     0
176
     1
 90
       50
176
     1
 90
       50
176
     1
 90
       50
176
     1
290
     0
176
     1
 90
       50
176
     1
 62
   256
176
     0
 40
1.0
176
     0
 90
        2
176
     1
  1
strokes_ogs.tif
176
     1
290
     0
176
     1
 40
1.0
176
     1
 40
1.0
176
     1
1001
ACAD
1000
AcDbSavedByObjectVersion
1070
     0
  0
VISUALSTYLE
  5
2A
102
{ACAD_REACTORS
330
29
102
}
330
29
100
AcDbVisualStyle
  2
Flat
 70
     0
177
     3
291
     1
 70
    58
 90
        2
176
     1
 90
        1
176
     1
 90
        1
176
     1
 90
        2
176
     1
 40
0.6
176
     1
 40
30.0
176
     1
 62
     7
420
 16777215
176
     1
 90
        0
176
     1
 90
        0
176
     1
 62
     7
176
     1
 62
   257
176
     1
 90
        1
176
     1
 90
        1
176
     1
 40
1.0
176
     1
 90
        8
176
     1
 62
     7
176
     1
 40
1.0
176
     1
 90
        1
176
     1
 90
        6
176
     1
 90
        2
176
     1
 62
     7
176
     1
 90
        5
176
     1
 90
        0
176
     1
 90
        0
176
     1
290
     0
176
     1
 90
       13
176
     1
 40
0.0
176
     1
 90
        0
176
     1
290
     0
176
     1
290
     1
176
     1
290
     1
176
     1
290
     0
176
     1
290
     0
176
     1
290
     0
176
     1
290
     0
176
     1
290
     0
176
     1
290
     0
176
     1
 90
       50
176
     1
 40
0.0
176
     1
 40
1.0
176
     1
 90
        0
176
     1
 62
    18
420
        0
176
     1
 90
       50
176
     1
 90
        3
176
     1
 62
     5
420
      255
176
     1
290
     0
176
     1
 90
       50
176
     1
 90
       50
176
     1
 90
       50
176
     1
290
     0
176
     1
 90
       50
176
     1
 62
   256
176
     0
 40
1.0
176
     0
 90
        2
176
     1
  1
strokes_ogs.tif
176
     1
290
     0
176
     1
 40
1.0
176
     1
 40
1.0
176
     1
1001
ACAD
1000
AcDbSavedByObjectVersion
1070
     0
  0
VISUALSTYLE
  5
2B
102
{ACAD_REACTORS
330
29
102
}
330
29
100
AcDbVisualStyle
  2
FlatWithEdges
 70
     1
177
     3
291
     1
 70
    58
 90
        2
176
     1
 90
        1
176
     1
 90
        1
176
     1
 90
        2
176
     1
 40
0.6
176
     1
 40
30.0
176
     1
 62
     7
420
 16777215
176
     1
 90
        1
176
     1
 90
        0
176
     1
 62
     7
176
     1
 62
   257
176
     1
 90
        1
176
     1
 90
        1
176
     1
 40
1.0
176
     1
 90
        0
176
     1
 62
   257
176
     1
 40
1.0
176
     1
 90
        1
176
     1
 90
        6
176
     1
 90
        2
176
     1
 62
     7
176
     1
 90
        5
176
     1
 90
        0
176
     1
 90
        0
176
     1
290
     0
176
     1
 90
       13
176
     1
 40
0.0
176
     1
 90
        0
176
     1
290
     0
176
     1
290
     1
176
     1
290
     1
176
     1
290
     0
176
     1
290
     0
176
     1
290
     0
176
     1
290
     0
176
     1
290
     0
176
     1
290
     0
176
     1
 90
       50
176
     1
 40
0.0
176
     1
 40
1.0
176
     1
 90
        0
176
     1
 62
    18
420
        0
176
     1
 90
       50
176
     1
 90
        3
176
     1
 62
     5
420
      255
176
     1
290
     0
176
     1
 90
       50
176
     1
 90
       50
176
     1
 90
       50
176
     1
290
     0
176
     1
 90
       50
176
     1
 62
   256
176
     0
 40
1.0
176
     0
 90
        2
176
     1
  1
strokes_ogs.tif
176
     1
290
     0
176
     1
 40
1.0
176
     1
 40
1.0
176
     1
1001
ACAD
1000
AcDbSavedByObjectVersion
1070
     0
  0
VISUALSTYLE
  5
2C
102
{ACAD_REACTORS
330
29
102
}
330
29
100
AcDbVisualStyle
  2
Gouraud
 70
     2
177
     3
291
     1
 70
    58
 90
        2
176
     1
 90
        2
176
     1
 90
        1
176
     1
 90
        2
176
     1
 40
0.6
176
     1
 40
30.0
176
     1
 62
     7
420
 16777215
176
     1
 90
        0
176
     1
 90
        0
176
     1
 62
     7
176
     1
 62
   257
176
     1
 90
        1
176
     1
 90
        1
176
     1
 40
1.0
176
     1
 90
        0
176
     1
 62
     7
176
     1
 40
1.0
176
     1
 90
        1
176
     1
 90
        6
176
     1
 90
        2
176
     1
 62
     7
176
     1
 90
        5
176
     1
 90
        0
176
     1
 90
        0
176
     1
290
     0
176
     1
 90
       13
176
     1
 40
0.0
176
     1
 90
        0
176
     1
290
     0
176
     1
290
     1
176
     1
290
     1
176
     1
290
     0
176
     1
290
     0
176
     1
290
     0
176
     1
290
     0
176
     1
290
     0
176
     1
290
     0
176
     1
 90
       50
176
     1
 40
0.0
176
     1
 40
1.0
176
     1
 90
        0
176
     1
 62
    18
420
        0
176
     1
 90
       50
176
     1
 90
        3
176
     1
 62
     5
420
      255
176
     1
290
     0
176
     1
 90
       50
176
     1
 90
       50
176
     1
 90
       50
176
     1
290
     0
176
     1
 90
       50
176
     1
 62
   256
176
     0
 40
1.0
176
     0
 90
        2
176
     1
  1
strokes_ogs.tif
176
     1
290
     0
176
     1
 40
1.0
176
     1
 40
1.0
176
     1
1001
ACAD
1000
AcDbSavedByObjectVersion
1070
     0
  0
VISUALSTYLE
  5
2D
102
{ACAD_REACTORS
330
29
102
}
330
29
100
AcDbVisualStyle
  2
GouraudWithEdges
 70
     3
177
     3
291
     1
 70
    58
 90
        2
176
     1
 90
        2
176
     1
 90
        1
176
     1
 90
        2
176
     1
 40
0.6
176
     1
 40
30.0
176
     1
 62
     7
420
 16777215
176
     1
 90
        1
176
     1
 90
        0
176
     1
 62
     7
176
     1
 62
   257
176
     1
 90
        1
176
     1
 90
        1
176
     1
 40
1.0
176
     1
 90
        0
176
     1
 62
   257
176
     1
 40
1.0
176
     1
 90
        1
176
     1
 90
        6
176
     1
 90
        2
176
     1
 62
     7
176
     1
 90
        5
176
     1
 90
        0
176
     1
 90
        0
176
     1
290
     0
176
     1
 90
       13
176
     1
 40
0.0
176
     1
 90
        0
176
     1
290
     0
176
     1
290
     1
176
     1
290
     1
176
     1
290
     0
176
     1
290
     0
176
     1
290
     0
176
     1
290
     0
176
     1
290
     0
176
     1
290
     0
176
     1
 90
       50
176
     1
 40
0.0
176
     1
 40
1.0
176
     1
 90
        0
176
     1
 62
    18
420
        0
176
     1
 90
       50
176
     1
 90
        3
176
     1
 62
     5
420
      255
176
     1
290
     0
176
     1
 90
       50
176
     1
 90
       50
176
     1
 90
       50
176
     1
290
     0
176
     1
 90
       50
176
     1
 62
   256
176
     0
 40
1.0
176
     0
 90
        2
176
     1
  1
strokes_ogs.tif
176
     1
290
     0
176
     1
 40
1.0
176
     1
 40
1.0
176
     1
1001
ACAD
1000
AcDbSavedByObjectVersion
1070
     0
  0
VISUALSTYLE
  5
31
102
{ACAD_REACTORS
330
29
102
}
330
29
100
AcDbVisualStyle
  2
Hidden
 70
     6
177
     3
291
     0
 70
    58
 90
        1
176
     1
 90
        2
176
     1
 90
        2
176
     1
 90
        0
176
     1
 40
0.6
176
     1
 40
30.0
176
     1
 62
     7
420
 16777215
176
     1
 90
        2
176
     1
 90
        2
176
     1
 62
     7
176
     1
 62
   257
176
     1
 90
        2
176
     1
 90
        1
176
     1
 40
40.0
176
     1
 90
        0
176
     1
 62
   257
176
     1
 40
1.0
176
     1
 90
        1
176
     1
 90
        6
176
     1
 90
        2
176
     1
 62
     7
176
     1
 90
        3
176
     1
 90
        0
176
     1
 90
        0
176
     1
290
     0
176
     1
 90
        1
176
     1
 40
0.0
176
     1
 90
        0
176
     1
290
     0
176
     1
290
     1
176
     1
290
     1
176
     1
290
     0
176
     1
290
     0
176
     1
290
     0
176
     1
290
     0
176
     1
290
     0
176
     1
290
     0
176
     1
 90
       50
176
     1
 40
0.0
176
     1
 40
1.0
176
     1
 90
        0
176
     1
 62
    18
420
        0
176
     1
 90
       50
176
     1
 90
        3
176
     1
 62
     5
420
      255
176
     1
290
     0
176
     1
 90
       50
176
     1
 90
       50
176
     1
 90
       50
176
     1
290
     0
176
     1
 90
       50
176
     1
 62
   256
176
     0
 40
1.0
176
     0
 90
        2
176
     1
  1
strokes_ogs.tif
176
     1
290
     0
176
     1
 40
1.0
176
     1
 40
1.0
176
     1
1001
ACAD
1000
AcDbSavedByObjectVersion
1070
     0
  0
VISUALSTYLE
  5
3F
102
{ACAD_REACTORS
330
29
102
}
330
29
100
AcDbVisualStyle
  2
JitterOff
 70
    20
177
     3
291
     1
 70
    58
 90
        2
176
     0
 90
        2
176
     0
 90
        0
176
     0
 90
        0
176
     0
 40
0.6
176
     0
 40
30.0
176
     0
 62
     7
420
 16777215
176
     0
 90
        1
176
     0
 90
        4
176
     0
 62
     7
176
     0
 62
   257
176
     0
 90
        1
176
     0
 90
        1
176
     0
 40
1.0
176
     0
 90
       10
176
     2
 62
     7
176
     0
 40
1.0
176
     0
 90
        1
176
     0
 90
        6
176
     0
 90
        2
176
     0
 62
     7
176
     0
 90
        5
176
     0
 90
        0
176
     0
 90
        0
176
     0
290
     0
176
     0
 90
        1
176
     0
 40
0.0
176
     0
 90
        0
176
     0
290
     0
176
     0
290
     1
176
     0
290
     1
176
     0
290
     0
176
     0
290
     0
176
     0
290
     0
176
     0
290
     0
176
     0
290
     0
176
     0
290
     0
176
     0
 90
       50
176
     0
 40
0.0
176
     0
 40
1.0
176
     0
 90
        0
176
     0
 62
    18
420
        0
176
     0
 90
       50
176
     0
 90
        3
176
     0
 62
     5
420
      255
176
     0
290
     0
176
     0
 90
       50
176
     0
 90
       50
176
     0
 90
       50
176
     0
290
     0
176
     0
 90
       50
176
     0
 62
   256
176
     0
 40
1.0
176
     0
 90
        2
176
     0
  1
strokes_ogs.tif
176
     0
290
     0
176
     0
 40
1.0
176
     0
 40
1.0
176
     0
1001
ACAD
1000
AcDbSavedByObjectVersion
1070
     0
  0
VISUALSTYLE
  5
37
102
{ACAD_REACTORS
330
29
102
}
330
29
100
AcDbVisualStyle
  2
Linepattern
 70
    14
177
     3
291
     1
 70
    58
 90
        2
176
     1
 90
        2
176
     1
 90
        0
176
     1
 90
        0
176
     1
 40
0.6
176
     1
 40
30.0
176
     1
 62
     7
420
 16777215
176
     1
 90
        1
176
     1
 90
        4
176
     1
 62
     7
176
     1
 62
   257
176
     1
 90
        7
176
     1
 90
        7
176
     1
 40
1.0
176
     1
 90
        8
176
     1
 62
     7
176
     1
 40
1.0
176
     1
 90
        1
176
     1
 90
        6
176
     1
 90
        2
176
     1
 62
     7
176
     1
 90
        5
176
     1
 90
        0
176
     1
 90
        0
176
     1
290
     0
176
     1
 90
        1
176
     1
 40
0.0
176
     1
 90
        0
176
     1
290
     0
176
     1
290
     1
176
     1
290
     1
176
     1
290
     0
176
     1
290
     0
176
     1
290
     0
176
     1
290
     0
176
     1
290
     0
176
     1
290
     0
176
     1
 90
       50
176
     1
 40
0.0
176
     1
 40
1.0
176
     1
 90
        0
176
     1
 62
    18
420
        0
176
     1
 90
       50
176
     1
 90
        3
176
     1
 62
     5
420
      255
176
     1
290
     0
176
     1
 90
       50
176
     1
 90
       50
176
     1
 90
       50
176
     1
290
     0
176
     1
 90
       50
176
     1
 62
   256
176
     0
 40
1.0
176
     0
 90
        2
176
     1
  1
strokes_ogs.tif
176
     1
290
     0
176
     1
 40
1.0
176
     1
 40
1.0
176
     1
1001
ACAD
1000
AcDbSavedByObjectVersion
1070
     0
  0
VISUALSTYLE
  5
40
102
{ACAD_REACTORS
330
29
102
}
330
29
100
AcDbVisualStyle
  2
OverhangOff
 70
    21
177
     3
291
     1
 70
    58
 90
        2
176
     0
 90
        2
176
     0
 90
        0
176
     0
 90
        0
176
     0
 40
0.6
176
     0
 40
30.0
176
     0
 62
     7
420
 16777215
176
     0
 90
        1
176
     0
 90
        4
176
     0
 62
     7
176
     0
 62
   257
176
     0
 90
        1
176
     0
 90
        1
176
     0
 40
1.0
176
     0
 90
        9
176
     2
 62
     7
176
     0
 40
1.0
176
     0
 90
        1
176
     0
 90
        6
176
     0
 90
        2
176
     0
 62
     7
176
     0
 90
        5
176
     0
 90
        0
176
     0
 90
        0
176
     0
290
     0
176
     0
 90
        1
176
     0
 40
0.0
176
     0
 90
        0
176
     0
290
     0
176
     0
290
     1
176
     0
290
     1
176
     0
290
     0
176
     0
290
     0
176
     0
290
     0
176
     0
290
     0
176
     0
290
     0
176
     0
290
     0
176
     0
 90
       50
176
     0
 40
0.0
176
     0
 40
1.0
176
     0
 90
        0
176
     0
 62
    18
420
        0
176
     0
 90
       50
176
     0
 90
        3
176
     0
 62
     5
420
      255
176
     0
290
     0
176
     0
 90
       50
176
     0
 90
       50
176
     0
 90
       50
176
     0
290
     0
176
     0
 90
       50
176
     0
 62
   256
176
     0
 40
1.0
176
     0
 90
        2
176
     0
  1
strokes_ogs.tif
176
     0
290
     0
176
     0
 40
1.0
176
     0
 40
1.0
176
     0
1001
ACAD
1000
AcDbSavedByObjectVersion
1070
     0
  0
VISUALSTYLE
  5
33
102
{ACAD_REACTORS
330
29
102
}
330
29
100
AcDbVisualStyle
  2
Realistic
 70
     8
177
     3
291
     0
 70
    58
 90
        2
176
     1
 90
        3
176
     1
 90
        0
176
     1
 90
        2
176
     1
 40
0.6
176
     1
 40
30.0
176
     1
 62
     7
420
 16777215
176
     1
 90
        0
176
     1
 90
        0
176
     1
 62
     7
176
     1
 62
   257
176
     1
 90
        1
176
     1
 90
        1
176
     1
 40
1.0
176
     1
 90
        8
176
     1
 62
   257
176
     1
 40
1.0
176
     1
 90
        1
176
     1
 90
        6
176
     1
 90
        2
176
     1
 62
     7
176
     1
 90
        3
176
     1
 90
        0
176
     1
 90
        0
176
     1
290
     0
176
     1
 90
       13
176
     1
 40
0.0
176
     1
 90
        0
176
     1
290
     0
176
     1
290
     1
176
     1
290
     1
176
     1
290
     0
176
     1
290
     0
176
     1
290
     0
176
     1
290
     0
176
     1
290
     0
176
     1
290
     0
176
     1
 90
       50
176
     1
 40
0.0
176
     1
 40
1.0
176
     1
 90
        0
176
     1
 62
    18
420
        0
176
     1
 90
       50
176
     1
 90
        3
176
     1
 62
     5
420
      255
176
     1
290
     0
176
     1
 90
       50
176
     1
 90
       50
176
     1
 90
       50
176
     1
290
     0
176
     1
 90
       50
176
     1
 62
   256
176
     0
 40
1.0
176
     0
 90
        2
176
     1
  1
strokes_ogs.tif
176
     1
290
     0
176
     1
 40
1.0
176
     1
 40
1.0
176
     1
1001
ACAD
1000
AcDbSavedByObjectVersion
1070
     0
  0
VISUALSTYLE
  5
3E
102
{ACAD_REACTORS
330
29
102
}
330
29
100
AcDbVisualStyle
  2
Shaded
 70
    27
177
     3
291
     0
 70
    58
 90
        2
176
     1
 90
        2
176
     1
 90
        1
176
     1
 90
        2
176
     1
 40
0.6
176
     1
 40
30.0
176
     1
 62
     7
420
 16777215
176
     1
 90
        0
176
     1
 90
        4
176
     1
 62
     7
176
     1
 62
   257
176
     1
 90
        1
176
     1
 90
        1
176
     1
 40
1.0
176
     1
 90
        8
176
     1
 62
   257
176
     1
 40
1.0
176
     1
 90
        1
176
     1
 90
        6
176
     1
 90
        2
176
     1
 62
     8
420
  7895160
176
     1
 90
        3
176
     1
 90
        0
176
     1
 90
        0
176
     1
290
     0
176
     1
 90
        5
176
     1
 40
0.0
176
     1
 90
        0
176
     1
290
     0
176
     1
290
     1
176
     1
290
     1
176
     1
290
     0
176
     1
290
     0
176
     1
290
     0
176
     1
290
     0
176
     1
290
     0
176
     1
290
     0
176
     1
 90
       50
176
     1
 40
0.0
176
     1
 40
1.0
176
     1
 90
        0
176
     1
 62
    18
420
        0
176
     1
 90
       50
176
     1
 90
        3
176
     1
 62
     5
420
      255
176
     1
290
     0
176
     1
 90
       50
176
     1
 90
       50
176
     1
 90
       50
176
     1
290
     0
176
     1
 90
       50
176
     1
 62
   256
176
     0
 40
1.0
176
     0
 90
        2
176
     1
  1
strokes_ogs.tif
176
     1
290
     0
176
     1
 40
1.0
176
     1
 40
1.0
176
     1
1001
ACAD
1000
AcDbSavedByObjectVersion
1070
     0
  0
VISUALSTYLE
  5
3D
102
{ACAD_REACTORS
330
29
102
}
330
29
100
AcDbVisualStyle
  2
Shaded with edges
 70
    26
177
     3
291
     0
 70
    58
 90
        2
176
     1
 90
        2
176
     1
 90
        1
176
     1
 90
        2
176
     1
 40
0.6
176
     1
 40
30.0
176
     1
 62
     7
420
 16777215
176
     1
 90
        1
176
     1
 90
        2
176
     1
 62
     7
176
     1
 62
   257
176
     1
 90
        2
176
     1
 90
        1
176
     1
 40
1.0
176
     1
 90
        8
176
     1
 62
   257
176
     1
 40
1.0
176
     1
 90
        1
176
     1
 90
        6
176
     1
 90
        2
176
     1
 62
     7
176
     1
 90
        3
176
     1
 90
        0
176
     1
 90
        0
176
     1
290
     0
176
     1
 90
        5
176
     1
 40
0.0
176
     1
 90
        0
176
     1
290
     0
176
     1
290
     1
176
     1
290
     1
176
     1
290
     0
176
     1
290
     0
176
     1
290
     0
176
     1
290
     0
176
     1
290
     0
176
     1
290
     0
176
     1
 90
       50
176
     1
 40
0.0
176
     1
 40
1.0
176
     1
 90
        0
176
     1
 62
    18
420
        0
176
     1
 90
       50
176
     1
 90
        3
176
     1
 62
     5
420
      255
176
     1
290
     0
176
     1
 90
       50
176
     1
 90
       50
176
     1
 90
       50
176
     1
290
     0
176
     1
 90
       50
176
     1
 62
   256
176
     0
 40
1.0
176
     0
 90
        2
176
     1
  1
strokes_ogs.tif
176
     1
290
     0
176
     1
 40
1.0
176
     1
 40
1.0
176
     1
1001
ACAD
1000
AcDbSavedByObjectVersion
1070
     0
  0
VISUALSTYLE
  5
3A
102
{ACAD_REACTORS
330
29
102
}
330
29
100
AcDbVisualStyle
  2
Shades of Gray
 70
    23
177
     3
291
     0
 70
    58
 90
        2
176
     1
 90
        2
176
     1
 90
        3
176
     1
 90
        0
176
     1
 40
0.6
176
     1
 40
30.0
176
     1
 62
     7
420
 16777215
176
     1
 90
        2
176
     1
 90
        2
176
     1
 62
     7
176
     1
 62
     7
176
     1
 90
        1
176
     1
 90
        1
176
     1
 40
40.0
176
     1
 90
        8
176
     1
 62
     7
176
     1
 40
1.0
176
     1
 90
        1
176
     1
 90
        6
176
     1
 90
        2
176
     1
 62
     7
176
     1
 90
        3
176
     1
 90
        0
176
     1
 90
        0
176
     1
290
     0
176
     1
 90
        1
176
     1
 40
0.0
176
     1
 90
        0
176
     1
290
     0
176
     1
290
     1
176
     1
290
     1
176
     1
290
     0
176
     1
290
     0
176
     1
290
     0
176
     1
290
     0
176
     1
290
     0
176
     1
290
     0
176
     1
 90
       50
176
     1
 40
0.0
176
     1
 40
1.0
176
     1
 90
        0
176
     1
 62
    18
420
        0
176
     1
 90
       50
176
     1
 90
        3
176
     1
 62
     5
420
      255
176
     1
290
     0
176
     1
 90
       50
176
     1
 90
       50
176
     1
 90
       50
176
     1
290
     0
176
     1
 90
       50
176
     1
 62
   256
176
     0
 40
1.0
176
     0
 90
        2
176
     1
  1
strokes_ogs.tif
176
     1
290
     0
176
     1
 40
1.0
176
     1
 40
1.0
176
     1
1001
ACAD
1000
AcDbSavedByObjectVersion
1070
     0
  0
VISUALSTYLE
  5
3B
102
{ACAD_REACTORS
330
29
102
}
330
29
100
AcDbVisualStyle
  2
Sketchy
 70
    24
177
     3
291
     0
 70
    58
 90
        1
176
     1
 90
        2
176
     1
 90
        2
176
     1
 90
        0
176
     1
 40
0.6
176
     1
 40
30.0
176
     1
 62
     7
420
 16777215
176
     1
 90
        2
176
     1
 90
        2
176
     1
 62
     7
176
     1
 62
     7
176
     1
 90
        1
176
     1
 90
        1
176
     1
 40
40.0
176
     1
 90
       11
176
     1
 62
     7
176
     1
 40
1.0
176
     1
 90
        1
176
     1
 90
        6
176
     1
 90
        2
176
     1
 62
     7
176
     1
 90
        6
176
     1
 90
        0
176
     1
 90
        0
176
     1
290
     0
176
     1
 90
        1
176
     1
 40
0.0
176
     1
 90
        0
176
     1
290
     0
176
     1
290
     1
176
     1
290
     1
176
     1
290
     0
176
     1
290
     0
176
     1
290
     0
176
     1
290
     0
176
     1
290
     0
176
     1
290
     0
176
     1
 90
       50
176
     1
 40
0.0
176
     1
 40
1.0
176
     1
 90
        0
176
     1
 62
    18
420
        0
176
     1
 90
       50
176
     1
 90
        3
176
     1
 62
     5
420
      255
176
     1
290
     0
176
     1
 90
       50
176
     1
 90
       50
176
     1
 90
       50
176
     1
290
     0
176
     1
 90
       50
176
     1
 62
   256
176
     0
 40
1.0
176
     0
 90
        2
176
     1
  1
strokes_ogs.tif
176
     1
290
     0
176
     1
 40
1.0
176
     1
 40
1.0
176
     1
1001
ACAD
1000
AcDbSavedByObjectVersion
1070
     0
  0
VISUALSTYLE
  5
36
102
{ACAD_REACTORS
330
29
102
}
330
29
100
AcDbVisualStyle
  2
Thicken
 70
    13
177
     3
291
     1
 70
    58
 90
        2
176
     1
 90
        2
176
     1
 90
        0
176
     1
 90
        0
176
     1
 40
0.6
176
     1
 40
30.0
176
     1
 62
     7
420
 16777215
176
     1
 90
        1
176
     1
 90
        4
176
     1
 62
     7
176
     1
 62
   257
176
     1
 90
        1
176
     1
 90
        1
176
     1
 40
1.0
176
     1
 90
       12
176
     1
 62
     7
176
     1
 40
1.0
176
     1
 90
        1
176
     1
 90
        6
176
     1
 90
        2
176
     1
 62
     7
176
     1
 90
        5
176
     1
 90
        0
176
     1
 90
        0
176
     1
290
     0
176
     1
 90
        1
176
     1
 40
0.0
176
     1
 90
        0
176
     1
290
     0
176
     1
290
     1
176
     1
290
     1
176
     1
290
     0
176
     1
290
     0
176
     1
290
     0
176
     1
290
     0
176
     1
290
     0
176
     1
290
     0
176
     1
 90
       50
176
     1
 40
0.0
176
     1
 40
1.0
176
     1
 90
        0
176
     1
 62
    18
420
        0
176
     1
 90
       50
176
     1
 90
        3
176
     1
 62
     5
420
      255
176
     1
290
     0
176
     1
 90
       50
176
     1
 90
       50
176
     1
 90
       50
176
     1
290
     0
176
     1
 90
       50
176
     1
 62
   256
176
     0
 40
1.0
176
     0
 90
        2
176
     1
  1
strokes_ogs.tif
176
     1
290
     0
176
     1
 40
1.0
176
     1
 40
1.0
176
     1
1001
ACAD
1000
AcDbSavedByObjectVersion
1070
     0
  0
VISUALSTYLE
  5
30
102
{ACAD_REACTORS
330
29
102
}
330
29
100
AcDbVisualStyle
  2
Wireframe
 70
     5
177
     3
291
     0
 70
    58
 90
        0
176
     1
 90
        2
176
     1
 90
        0
176
     1
 90
        0
176
     1
 40
0.6
176
     1
 40
30.0
176
     1
 62
     7
420
 16777215
176
     1
 90
        1
176
     1
 90
        4
176
     1
 62
     7
176
     1
 62
   257
176
     1
 90
        1
176
     1
 90
        1
176
     1
 40
1.0
176
     1
 90
        0
176
     1
 62
   257
176
     1
 40
1.0
176
     1
 90
        1
176
     1
 90
        6
176
     1
 90
        2
176
     1
 62
     7
176
     1
 90
        3
176
     1
 90
        0
176
     1
 90
        0
176
     1
290
     0
176
     1
 90
        1
176
     1
 40
0.0
176
     1
 90
        0
176
     1
290
     0
176
     1
290
     1
176
     1
290
     1
176
     1
290
     0
176
     1
290
     0
176
     1
290
     0
176
     1
290
     0
176
     1
290
     0
176
     1
290
     0
176
     1
 90
       50
176
     1
 40
0.0
176
     1
 40
1.0
176
     1
 90
        0
176
     1
 62
    18
420
        0
176
     1
 90
       50
176
     1
 90
        3
176
     1
 62
     5
420
      255
176
     1
290
     0
176
     1
 90
       50
176
     1
 90
       50
176
     1
 90
       50
176
     1
290
     0
176
     1
 90
       50
176
     1
 62
   256
176
     0
 40
1.0
176
     0
 90
        2
176
     1
  1
strokes_ogs.tif
176
     1
290
     0
176
     1
 40
1.0
176
     1
 40
1.0
176
     1
1001
ACAD
1000
AcDbSavedByObjectVersion
1070
     0
  0
VISUALSTYLE
  5
3C
102
{ACAD_REACTORS
330
29
102
}
330
29
100
AcDbVisualStyle
  2
X-Ray
 70
    25
177
     3
291
     0
 70
    58
 90
        2
176
     1
 90
        2
176
     1
 90
        1
176
     1
 90
        1
176
     1
 40
0.5
176
     1
 40
30.0
176
     1
 62
     7
420
 16777215
176
     1
 90
        1
176
     1
 90
        0
176
     1
 62
     7
176
     1
 62
   257
176
     1
 90
        1
176
     1
 90
        1
176
     1
 40
1.0
176
     1
 90
        8
176
     1
 62
     7
176
     1
 40
1.0
176
     1
 90
        1
176
     1
 90
        6
176
     1
 90
        2
176
     1
 62
     7
176
     1
 90
        3
176
     1
 90
        0
176
     1
 90
        0
176
     1
290
     0
176
     1
 90
       13
176
     1
 40
0.0
176
     1
 90
        0
176
     1
290
     0
176
     1
290
     1
176
     1
290
     1
176
     1
290
     0
176
     1
290
     0
176
     1
290
     0
176
     1
290
     0
176
     1
290
     0
176
     1
290
     0
176
     1
 90
       50
176
     1
 40
0.0
176
     1
 40
1.0
176
     1
 90
        0
176
     1
 62
    18
420
        0
176
     1
 90
       50
176
     1
 90
        3
176
     1
 62
     5
420
      255
176
     1
290
     0
176
     1
 90
       50
176
     1
 90
       50
176
     1
 90
       50
176
     1
290
     0
176
     1
 90
       50
176
     1
 62
   256
176
     0
 40
1.0
176
     0
 90
        2
176
     1
  1
strokes_ogs.tif
176
     1
290
     0
176
     1
 40
1.0
176
     1
 40
1.0
176
     1
1001
ACAD
1000
AcDbSavedByObjectVersion
1070
     0
  0
DICTIONARYVAR
  5
1C7
102
{ACAD_REACTORS
330
1C2
102
}
330
1C2
100
DictionaryVariables
280
     0
  1
1:1
  0
DICTIONARYVAR
  5
1C4
102
{ACAD_REACTORS
330
1C2
102
}
330
1C2
100
DictionaryVariables
280
     0
  1
STANDARD
  0
DICTIONARYVAR
  5
1C3
102
{ACAD_REACTORS
330
1C2
102
}
330
1C2
100
DictionaryVariables
280
     0
  1
STANDARD
  0
DICTIONARYVAR
  5
1C5
102
{ACAD_REACTORS
330
1C2
102
}
330
1C2
100
DictionaryVariables
280
     0
  1
Imperial24
  0
DICTIONARYVAR
  5
1C6
102
{ACAD_REACTORS
330
1C2
102
}
330
1C2
100
DictionaryVariables
280
     0
  1
Imperial24
  0
DICTIONARY
  5
1CD
330
6B
100
AcDbDictionary
280
     1
281
     1
  3
ACAD_XREC_ROUNDTRIP
360
1CE
  0
DICTIONARY
  5
1A
330
19
100
AcDbDictionary
280
     1
281
     1
  3
BUMPTILE
360
1C
  3
DIFFUSETILE
360
1B
  3
OPACITYTILE
360
1F
  3
REFLECTIONTILE
360
1E
  3
REFRACTIONTILE
360
20
  3
SPECULARTILE
360
1D
  0
DICTIONARY
  5
12
330
11
100
AcDbDictionary
280
     1
281
     1
  3
BUMPTILE
360
14
  3
DIFFUSETILE
360
13
  3
OPACITYTILE
360
17
  3
REFLECTIONTILE
360
16
  3
REFRACTIONTILE
360
18
  3
SPECULARTILE
360
15
  0
DICTIONARY
  5
22
330
21
100
AcDbDictionary
280
     1
281
     1
  3
BUMPTILE
360
24
  3
DIFFUSETILE
360
23
  3
OPACITYTILE
360
27
  3
REFLECTIONTILE
360
26
  3
REFRACTIONTILE
360
28
  3
SPECULARTILE
360
25
  0
DICTIONARY
  5
1CB
330
69
100
AcDbDictionary
280
     1
281
     1
  3
ACAD_XREC_ROUNDTRIP
360
1CC
  0
DICTIONARY
  5
1C8
330
65
100
AcDbDictionary
280
     1
281
     1
  3
ACAD_ROUNDTRIP_2008_TABLESTYLE_CELLSTYLEMAP
360
1C9
  0
XRECORD
  5
1CE
102
{ACAD_REACTORS
330
1CD
102
}
330
1CD
100
AcDbXrecord
280
     1
102
DISPLAYNAME
  1
Imperial24
102
FLAGS
 90
        0
  0
XRECORD
  5
1C
102
{ACAD_REACTORS
330
1A
102
}
330
1A
100
AcDbXrecord
280
     1
270
     1
271
     1
  0
XRECORD
  5
1B
102
{ACAD_REACTORS
330
1A
102
}
330
1A
100
AcDbXrecord
280
     1
270
     1
271
     1
  0
XRECORD
  5
1F
102
{ACAD_REACTORS
330
1A
102
}
330
1A
100
AcDbXrecord
280
     1
270
     1
271
     1
  0
XRECORD
  5
1E
102
{ACAD_REACTORS
330
1A
102
}
330
1A
100
AcDbXrecord
280
     1
270
     1
271
     1
  0
XRECORD
  5
20
102
{ACAD_REACTORS
330
1A
102
}
330
1A
100
AcDbXrecord
280
     1
270
     1
271
     1
  0
XRECORD
  5
1D
102
{ACAD_REACTORS
330
1A
102
}
330
1A
100
AcDbXrecord
280
     1
270
     1
271
     1
  0
XRECORD
  5
14
102
{ACAD_REACTORS
330
12
102
}
330
12
100
AcDbXrecord
280
     1
270
     1
271
     1
  0
XRECORD
  5
13
102
{ACAD_REACTORS
330
12
102
}
330
12
100
AcDbXrecord
280
     1
270
     1
271
     1
  0
XRECORD
  5
17
102
{ACAD_REACTORS
330
12
102
}
330
12
100
AcDbXrecord
280
     1
270
     1
271
     1
  0
XRECORD
  5
16
102
{ACAD_REACTORS
330
12
102
}
330
12
100
AcDbXrecord
280
     1
270
     1
271
     1
  0
XRECORD
  5
18
102
{ACAD_REACTORS
330
12
102
}
330
12
100
AcDbXrecord
280
     1
270
     1
271
     1
  0
XRECORD
  5
15
102
{ACAD_REACTORS
330
12
102
}
330
12
100
AcDbXrecord
280
     1
270
     1
271
     1
  0
XRECORD
  5
24
102
{ACAD_REACTORS
330
22
102
}
330
22
100
AcDbXrecord
280
     1
270
     1
271
     1
  0
XRECORD
  5
23
102
{ACAD_REACTORS
330
22
102
}
330
22
100
AcDbXrecord
280
     1
270
     1
271
     1
  0
XRECORD
  5
27
102
{ACAD_REACTORS
330
22
102
}
330
22
100
AcDbXrecord
280
     1
270
     1
271
     1
  0
XRECORD
  5
26
102
{ACAD_REACTORS
330
22
102
}
330
22
100
AcDbXrecord
280
     1
270
     1
271
     1
  0
XRECORD
  5
28
102
{ACAD_REACTORS
330
22
102
}
330
22
100
AcDbXrecord
280
     1
270
     1
271
     1
  0
XRECORD
  5
25
102
{ACAD_REACTORS
330
22
102
}
330
22
100
AcDbXrecord
280
     1
270
     1
271
     1
  0
XRECORD
  5
1CC
102
{ACAD_REACTORS
330
1CB
102
}
330
1CB
100
AcDbXrecord
280
     1
102
DISPLAYNAME
  1
Imperial24
102
FLAGS
 90
        0
  0
CELLSTYLEMAP
  5
1C9
102
{ACAD_REACTORS
330
1C8
102
}
330
1C8
100
AcDbCellStyleMap
 90
        3
300
CELLSTYLE
  1
TABLEFORMAT_BEGIN
 90
        5
170
     1
 91
        0
 92
    32768
 62
   257
 93
        1
300
CONTENTFORMAT
  1
CONTENTFORMAT_BEGIN
 90
        0
 91
        0
 92
      512
 93
        0
300

 40
0.0
140
1.0
 94
        5
 62
     0
340
55
144
0.25
309
CONTENTFORMAT_END
171
     0
 94
        0
309
TABLEFORMAT_END
  1
CELLSTYLE_BEGIN
 90
        1
 91
        1
300
_TITLE
309
CELLSTYLE_END
300
CELLSTYLE
  1
TABLEFORMAT_BEGIN
 90
        5
170
     1
 91
        0
 92
        0
 62
   257
 93
        1
300
CONTENTFORMAT
  1
CONTENTFORMAT_BEGIN
 90
        0
 91
        0
 92
      512
 93
        0
300

 40
0.0
140
1.0
 94
        5
 62
     0
340
55
144
0.18
309
CONTENTFORMAT_END
171
     0
 94
        0
309
TABLEFORMAT_END
  1
CELLSTYLE_BEGIN
 90
        2
 91
        1
300
_HEADER
309
CELLSTYLE_END
300
CELLSTYLE
  1
TABLEFORMAT_BEGIN
 90
        5
170
     1
 91
        0
 92
        0
 62
   257
 93
        1
300
CONTENTFORMAT
  1
CONTENTFORMAT_BEGIN
 90
        0
 91
        0
 92
      512
 93
        0
300

 40
0.0
140
1.0
 94
        2
 62
     0
340
55
144
0.18
309
CONTENTFORMAT_END
171
     0
 94
        0
309
TABLEFORMAT_END
  1
CELLSTYLE_BEGIN
 90
        3
 91
        2
300
_DATA
309
CELLSTYLE_END
  0
ENDSEC
  0
EOF
